<svg width="534" height="122" viewBox="0 0 534 122" fill="none" xmlns="http://www.w3.org/2000/svg">
<path d="M1.87305 5.41016H5.03711C5.76367 5.41016 6.31445 5.4668 6.68945 5.58008C7.19727 5.73242 7.63086 6.00195 7.99023 6.38867C8.34961 6.77148 8.61914 7.23633 8.79883 7.7832C8.98242 8.33008 9.07422 9.00586 9.07422 9.81055C9.07422 10.5176 8.97266 11.1562 8.76953 11.7266C8.57031 12.293 8.27539 12.7656 7.88477 13.1445C7.58398 13.4297 7.17969 13.6543 6.67188 13.8184C6.28906 13.9395 5.77539 14 5.13086 14H1.87305V10.25H0.982422V9.16016H1.87305V5.41016ZM3.60156 6.86328V9.16016H5.44141V10.25H3.60156V12.5527H4.90234C5.47656 12.5527 5.89062 12.5059 6.14453 12.4121C6.48047 12.2949 6.73633 12.0801 6.91211 11.7676C7.1582 11.3262 7.28125 10.6523 7.28125 9.74609C7.28125 9.10156 7.22852 8.60547 7.12305 8.25781C7.02148 7.90625 6.86914 7.62305 6.66602 7.4082C6.4668 7.19336 6.20508 7.04297 5.88086 6.95703C5.63086 6.89453 5.13281 6.86328 4.38672 6.86328H3.60156ZM11.7637 9.67578L10.2695 9.40625C10.4375 8.80469 10.7266 8.35938 11.1367 8.07031C11.5469 7.78125 12.1562 7.63672 12.9648 7.63672C13.6992 7.63672 14.2461 7.72461 14.6055 7.90039C14.9648 8.07227 15.2168 8.29297 15.3613 8.5625C15.5098 8.82812 15.584 9.31836 15.584 10.0332L15.5664 11.9551C15.5664 12.502 15.5918 12.9062 15.6426 13.168C15.6973 13.4258 15.7969 13.7031 15.9414 14H14.3125C14.2695 13.8906 14.2168 13.7285 14.1543 13.5137C14.127 13.416 14.1074 13.3516 14.0957 13.3203C13.8145 13.5938 13.5137 13.7988 13.1934 13.9355C12.873 14.0723 12.5312 14.1406 12.168 14.1406C11.5273 14.1406 11.0215 13.9668 10.6504 13.6191C10.2832 13.2715 10.0996 12.832 10.0996 12.3008C10.0996 11.9492 10.1836 11.6367 10.3516 11.3633C10.5195 11.0859 10.7539 10.875 11.0547 10.7305C11.3594 10.582 11.7969 10.4531 12.3672 10.3438C13.1367 10.1992 13.6699 10.0645 13.9668 9.93945V9.77539C13.9668 9.45898 13.8887 9.23438 13.7324 9.10156C13.5762 8.96484 13.2812 8.89648 12.8477 8.89648C12.5547 8.89648 12.3262 8.95508 12.1621 9.07227C11.998 9.18555 11.8652 9.38672 11.7637 9.67578ZM13.9668 11.0117C13.7559 11.082 13.4219 11.166 12.9648 11.2637C12.5078 11.3613 12.209 11.457 12.0684 11.5508C11.8535 11.7031 11.7461 11.8965 11.7461 12.1309C11.7461 12.3613 11.832 12.5605 12.0039 12.7285C12.1758 12.8965 12.3945 12.9805 12.6602 12.9805C12.957 12.9805 13.2402 12.8828 13.5098 12.6875C13.709 12.5391 13.8398 12.3574 13.9023 12.1426C13.9453 12.002 13.9668 11.7344 13.9668 11.3398V11.0117ZM22.873 14H21.2266V10.8242C21.2266 10.1523 21.1914 9.71875 21.1211 9.52344C21.0508 9.32422 20.9355 9.16992 20.7754 9.06055C20.6191 8.95117 20.4297 8.89648 20.207 8.89648C19.9219 8.89648 19.666 8.97461 19.4395 9.13086C19.2129 9.28711 19.0566 9.49414 18.9707 9.75195C18.8887 10.0098 18.8477 10.4863 18.8477 11.1816V14H17.2012V7.77734H18.7305V8.69141C19.2734 7.98828 19.957 7.63672 20.7812 7.63672C21.1445 7.63672 21.4766 7.70312 21.7773 7.83594C22.0781 7.96484 22.3047 8.13086 22.457 8.33398C22.6133 8.53711 22.7207 8.76758 22.7793 9.02539C22.8418 9.2832 22.873 9.65234 22.873 10.1328V14ZM24.3965 14.4102L26.2773 14.6387C26.3086 14.8574 26.3809 15.0078 26.4941 15.0898C26.6504 15.207 26.8965 15.2656 27.2324 15.2656C27.6621 15.2656 27.9844 15.2012 28.1992 15.0723C28.3438 14.9863 28.4531 14.8477 28.5273 14.6562C28.5781 14.5195 28.6035 14.2676 28.6035 13.9004V12.9922C28.1113 13.6641 27.4902 14 26.7402 14C25.9043 14 25.2422 13.6465 24.7539 12.9395C24.3711 12.3809 24.1797 11.6855 24.1797 10.8535C24.1797 9.81055 24.4297 9.01367 24.9297 8.46289C25.4336 7.91211 26.0586 7.63672 26.8047 7.63672C27.5742 7.63672 28.209 7.97461 28.709 8.65039V7.77734H30.25V13.3613C30.25 14.0957 30.1895 14.6445 30.0684 15.0078C29.9473 15.3711 29.7773 15.6562 29.5586 15.8633C29.3398 16.0703 29.0469 16.2324 28.6797 16.3496C28.3164 16.4668 27.8555 16.5254 27.2969 16.5254C26.2422 16.5254 25.4941 16.3438 25.0527 15.9805C24.6113 15.6211 24.3906 15.1641 24.3906 14.6094C24.3906 14.5547 24.3926 14.4883 24.3965 14.4102ZM25.8672 10.7598C25.8672 11.4199 25.9941 11.9043 26.248 12.2129C26.5059 12.5176 26.8223 12.6699 27.1973 12.6699C27.5996 12.6699 27.9395 12.5137 28.2168 12.2012C28.4941 11.8848 28.6328 11.418 28.6328 10.8008C28.6328 10.1562 28.5 9.67773 28.2344 9.36523C27.9688 9.05273 27.6328 8.89648 27.2266 8.89648C26.832 8.89648 26.5059 9.05078 26.248 9.35938C25.9941 9.66406 25.8672 10.1309 25.8672 10.7598ZM35.2246 14V5.41016H36.8711V14H35.2246ZM44.7461 7.77734H46.3926V8.95508C46.3926 9.43945 46.3496 9.81836 46.2637 10.0918C46.1816 10.3652 46.0273 10.6094 45.8008 10.8242C45.4531 11.1602 44.916 11.3867 44.1895 11.5039V14H42.6602V13.0684C42.1719 13.7832 41.4844 14.1406 40.5977 14.1406C39.6797 14.1406 39.0645 13.791 38.752 13.0918C38.6035 12.7598 38.5293 12.3008 38.5293 11.7148V7.77734H40.1758V10.6367C40.1758 11.457 40.207 11.9922 40.2695 12.2422C40.3125 12.4297 40.4219 12.5859 40.5977 12.7109C40.7578 12.8281 40.9609 12.8867 41.207 12.8867C41.4844 12.8867 41.7344 12.8105 41.957 12.6582C42.1836 12.5059 42.3379 12.3145 42.4199 12.084C42.502 11.8535 42.543 11.293 42.543 10.4023V7.77734H44.1895V10.8359C44.7324 10.7266 45.1133 10.5234 45.332 10.2266C45.4648 10.0469 45.5352 9.7793 45.543 9.42383H44.7461V7.77734ZM51.3555 14V13.0684C51.1289 13.4004 50.8301 13.6621 50.459 13.8535C50.0918 14.0449 49.7031 14.1406 49.293 14.1406C48.875 14.1406 48.5 14.0488 48.168 13.8652C47.8359 13.6816 47.5957 13.4238 47.4473 13.0918C47.2988 12.7598 47.2246 12.3008 47.2246 11.7148V7.77734H48.8711V10.6367C48.8711 11.5117 48.9004 12.0488 48.959 12.248C49.0215 12.4434 49.1328 12.5996 49.293 12.7168C49.4531 12.8301 49.6562 12.8867 49.9023 12.8867C50.1836 12.8867 50.4355 12.8105 50.6582 12.6582C50.8809 12.502 51.0332 12.3105 51.1152 12.084C51.1973 11.8535 51.2383 11.293 51.2383 10.4023V7.77734H52.8848V14H51.3555ZM59.5762 5.41016V8.56836C60.1074 7.94727 60.7422 7.63672 61.4805 7.63672C61.8594 7.63672 62.2012 7.70703 62.5059 7.84766C62.8105 7.98828 63.0391 8.16797 63.1914 8.38672C63.3477 8.60547 63.4531 8.84766 63.5078 9.11328C63.5664 9.37891 63.5957 9.79102 63.5957 10.3496V14H61.9492V10.7129C61.9492 10.0605 61.918 9.64648 61.8555 9.4707C61.793 9.29492 61.6816 9.15625 61.5215 9.05469C61.3652 8.94922 61.168 8.89648 60.9297 8.89648C60.6562 8.89648 60.4121 8.96289 60.1973 9.0957C59.9824 9.22852 59.8242 9.42969 59.7227 9.69922C59.625 9.96484 59.5762 10.3594 59.5762 10.8828V14H57.9297V5.41016H59.5762ZM66.502 9.67578L65.0078 9.40625C65.1758 8.80469 65.4648 8.35938 65.875 8.07031C66.2852 7.78125 66.8945 7.63672 67.7031 7.63672C68.4375 7.63672 68.9844 7.72461 69.3438 7.90039C69.7031 8.07227 69.9551 8.29297 70.0996 8.5625C70.248 8.82812 70.3223 9.31836 70.3223 10.0332L70.3047 11.9551C70.3047 12.502 70.3301 12.9062 70.3809 13.168C70.4355 13.4258 70.5352 13.7031 70.6797 14H69.0508C69.0078 13.8906 68.9551 13.7285 68.8926 13.5137C68.8652 13.416 68.8457 13.3516 68.834 13.3203C68.5527 13.5938 68.252 13.7988 67.9316 13.9355C67.6113 14.0723 67.2695 14.1406 66.9062 14.1406C66.2656 14.1406 65.7598 13.9668 65.3887 13.6191C65.0215 13.2715 64.8379 12.832 64.8379 12.3008C64.8379 11.9492 64.9219 11.6367 65.0898 11.3633C65.2578 11.0859 65.4922 10.875 65.793 10.7305C66.0977 10.582 66.5352 10.4531 67.1055 10.3438C67.875 10.1992 68.4082 10.0645 68.7051 9.93945V9.77539C68.7051 9.45898 68.627 9.23438 68.4707 9.10156C68.3145 8.96484 68.0195 8.89648 67.5859 8.89648C67.293 8.89648 67.0645 8.95508 66.9004 9.07227C66.7363 9.18555 66.6035 9.38672 66.502 9.67578ZM68.7051 11.0117C68.4941 11.082 68.1602 11.166 67.7031 11.2637C67.2461 11.3613 66.9473 11.457 66.8066 11.5508C66.5918 11.7031 66.4844 11.8965 66.4844 12.1309C66.4844 12.3613 66.5703 12.5605 66.7422 12.7285C66.9141 12.8965 67.1328 12.9805 67.3984 12.9805C67.6953 12.9805 67.9785 12.8828 68.248 12.6875C68.4473 12.5391 68.5781 12.3574 68.6406 12.1426C68.6836 12.002 68.7051 11.7344 68.7051 11.3398V11.0117ZM68.5879 7.01562H67.5508L65.9336 5.26367H67.7793L68.5879 7.01562ZM77.6113 14H75.9648V10.8242C75.9648 10.1523 75.9297 9.71875 75.8594 9.52344C75.7891 9.32422 75.6738 9.16992 75.5137 9.06055C75.3574 8.95117 75.168 8.89648 74.9453 8.89648C74.6602 8.89648 74.4043 8.97461 74.1777 9.13086C73.9512 9.28711 73.7949 9.49414 73.709 9.75195C73.627 10.0098 73.5859 10.4863 73.5859 11.1816V14H71.9395V7.77734H73.4688V8.69141C74.0117 7.98828 74.6953 7.63672 75.5195 7.63672C75.8828 7.63672 76.2148 7.70312 76.5156 7.83594C76.8164 7.96484 77.043 8.13086 77.1953 8.33398C77.3516 8.53711 77.459 8.76758 77.5176 9.02539C77.5801 9.2832 77.6113 9.65234 77.6113 10.1328V14ZM80.9277 5.41016V8.56836C81.459 7.94727 82.0938 7.63672 82.832 7.63672C83.2109 7.63672 83.5527 7.70703 83.8574 7.84766C84.1621 7.98828 84.3906 8.16797 84.543 8.38672C84.6992 8.60547 84.8047 8.84766 84.8594 9.11328C84.918 9.37891 84.9473 9.79102 84.9473 10.3496V14H83.3008V10.7129C83.3008 10.0605 83.2695 9.64648 83.207 9.4707C83.1445 9.29492 83.0332 9.15625 82.873 9.05469C82.7168 8.94922 82.5195 8.89648 82.2812 8.89648C82.0078 8.89648 81.7637 8.96289 81.5488 9.0957C81.334 9.22852 81.1758 9.42969 81.0742 9.69922C80.9766 9.96484 80.9277 10.3594 80.9277 10.8828V14H79.2812V5.41016H80.9277Z" fill="white"/>
<path d="M1.88477 65V56.4102H7.77344V57.8633H3.61914V59.8965H7.20508V61.3496H3.61914V65H1.88477ZM10.7734 65H9.12695V58.7773H10.6562V59.6621C10.918 59.2441 11.1523 58.9688 11.3594 58.8359C11.5703 58.7031 11.8086 58.6367 12.0742 58.6367C12.4492 58.6367 12.8105 58.7402 13.1582 58.9473L12.6484 60.3828C12.3711 60.2031 12.1133 60.1133 11.875 60.1133C11.6445 60.1133 11.4492 60.1777 11.2891 60.3066C11.1289 60.4316 11.002 60.6602 10.9082 60.9922C10.8184 61.3242 10.7734 62.0195 10.7734 63.0781V65ZM17.4766 63.0195L19.1172 63.2949C18.9062 63.8965 18.5723 64.3555 18.1152 64.6719C17.6621 64.9844 17.0938 65.1406 16.4102 65.1406C15.3281 65.1406 14.5273 64.7871 14.0078 64.0801C13.5977 63.5137 13.3926 62.7988 13.3926 61.9355C13.3926 60.9043 13.6621 60.0977 14.2012 59.5156C14.7402 58.9297 15.4219 58.6367 16.2461 58.6367C17.1719 58.6367 17.9023 58.9434 18.4375 59.5566C18.9727 60.166 19.2285 61.1016 19.2051 62.3633H15.0801C15.0918 62.8516 15.2246 63.2324 15.4785 63.5059C15.7324 63.7754 16.0488 63.9102 16.4277 63.9102C16.6855 63.9102 16.9023 63.8398 17.0781 63.6992C17.2539 63.5586 17.3867 63.332 17.4766 63.0195ZM17.5703 61.3555C17.5586 60.8789 17.4355 60.5176 17.2012 60.2715C16.9668 60.0215 16.6816 59.8965 16.3457 59.8965C15.9863 59.8965 15.6895 60.0273 15.4551 60.2891C15.2207 60.5508 15.1055 60.9062 15.1094 61.3555H17.5703ZM24.1562 63.0195L25.7969 63.2949C25.5859 63.8965 25.252 64.3555 24.7949 64.6719C24.3418 64.9844 23.7734 65.1406 23.0898 65.1406C22.0078 65.1406 21.207 64.7871 20.6875 64.0801C20.2773 63.5137 20.0723 62.7988 20.0723 61.9355C20.0723 60.9043 20.3418 60.0977 20.8809 59.5156C21.4199 58.9297 22.1016 58.6367 22.9258 58.6367C23.8516 58.6367 24.582 58.9434 25.1172 59.5566C25.6523 60.166 25.9082 61.1016 25.8848 62.3633H21.7598C21.7715 62.8516 21.9043 63.2324 22.1582 63.5059C22.4121 63.7754 22.7285 63.9102 23.1074 63.9102C23.3652 63.9102 23.582 63.8398 23.7578 63.6992C23.9336 63.5586 24.0664 63.332 24.1562 63.0195ZM24.25 61.3555C24.2383 60.8789 24.1152 60.5176 23.8809 60.2715C23.6465 60.0215 23.3613 59.8965 23.0254 59.8965C22.666 59.8965 22.3691 60.0273 22.1348 60.2891C21.9004 60.5508 21.7852 60.9062 21.7891 61.3555H24.25ZM29.8516 58.7773H30.7656V58.3086C30.7656 57.7852 30.8203 57.3945 30.9297 57.1367C31.043 56.8789 31.248 56.6699 31.5449 56.5098C31.8457 56.3457 32.2246 56.2637 32.6816 56.2637C33.1504 56.2637 33.6094 56.334 34.0586 56.4746L33.8359 57.623C33.5742 57.5605 33.3223 57.5293 33.0801 57.5293C32.8418 57.5293 32.6699 57.5859 32.5645 57.6992C32.4629 57.8086 32.4121 58.0215 32.4121 58.3379V58.7773H33.6426V60.0723H32.4121V65H30.7656V60.0723H29.8516V58.7773ZM34.5684 65V56.4102H36.2148V65H34.5684ZM37.5273 61.8008C37.5273 61.2539 37.6621 60.7246 37.9316 60.2129C38.2012 59.7012 38.582 59.3105 39.0742 59.041C39.5703 58.7715 40.123 58.6367 40.7324 58.6367C41.6738 58.6367 42.4453 58.9434 43.0469 59.5566C43.6484 60.166 43.9492 60.9375 43.9492 61.8711C43.9492 62.8125 43.6445 63.5938 43.0352 64.2148C42.4297 64.832 41.666 65.1406 40.7441 65.1406C40.1738 65.1406 39.6289 65.0117 39.1094 64.7539C38.5938 64.4961 38.2012 64.1191 37.9316 63.623C37.6621 63.123 37.5273 62.5156 37.5273 61.8008ZM39.2148 61.8887C39.2148 62.5059 39.3613 62.9785 39.6543 63.3066C39.9473 63.6348 40.3086 63.7988 40.7383 63.7988C41.168 63.7988 41.5273 63.6348 41.8164 63.3066C42.1094 62.9785 42.2559 62.502 42.2559 61.877C42.2559 61.2676 42.1094 60.7988 41.8164 60.4707C41.5273 60.1426 41.168 59.9785 40.7383 59.9785C40.3086 59.9785 39.9473 60.1426 39.6543 60.4707C39.3613 60.7988 39.2148 61.2715 39.2148 61.8887ZM46.4746 60.6758L44.9805 60.4062C45.1484 59.8047 45.4375 59.3594 45.8477 59.0703C46.2578 58.7812 46.8672 58.6367 47.6758 58.6367C48.4102 58.6367 48.957 58.7246 49.3164 58.9004C49.6758 59.0723 49.9277 59.293 50.0723 59.5625C50.2207 59.8281 50.2949 60.3184 50.2949 61.0332L50.2773 62.9551C50.2773 63.502 50.3027 63.9062 50.3535 64.168C50.4082 64.4258 50.5078 64.7031 50.6523 65H49.0234C48.9805 64.8906 48.9277 64.7285 48.8652 64.5137C48.8379 64.416 48.8184 64.3516 48.8066 64.3203C48.5254 64.5938 48.2246 64.7988 47.9043 64.9355C47.584 65.0723 47.2422 65.1406 46.8789 65.1406C46.2383 65.1406 45.7324 64.9668 45.3613 64.6191C44.9941 64.2715 44.8105 63.832 44.8105 63.3008C44.8105 62.9492 44.8945 62.6367 45.0625 62.3633C45.2305 62.0859 45.4648 61.875 45.7656 61.7305C46.0703 61.582 46.5078 61.4531 47.0781 61.3438C47.8477 61.1992 48.3809 61.0645 48.6777 60.9395V60.7754C48.6777 60.459 48.5996 60.2344 48.4434 60.1016C48.2871 59.9648 47.9922 59.8965 47.5586 59.8965C47.2656 59.8965 47.0371 59.9551 46.873 60.0723C46.709 60.1855 46.5762 60.3867 46.4746 60.6758ZM48.6777 62.0117C48.4668 62.082 48.1328 62.166 47.6758 62.2637C47.2188 62.3613 46.9199 62.457 46.7793 62.5508C46.5645 62.7031 46.457 62.8965 46.457 63.1309C46.457 63.3613 46.543 63.5605 46.7148 63.7285C46.8867 63.8965 47.1055 63.9805 47.3711 63.9805C47.668 63.9805 47.9512 63.8828 48.2207 63.6875C48.4199 63.5391 48.5508 63.3574 48.6133 63.1426C48.6562 63.002 48.6777 62.7344 48.6777 62.3398V62.0117ZM54.7773 58.7773V60.0898H53.6523V62.5977C53.6523 63.1055 53.6621 63.4023 53.6816 63.4883C53.7051 63.5703 53.7539 63.6387 53.8281 63.6934C53.9062 63.748 54 63.7754 54.1094 63.7754C54.2617 63.7754 54.4824 63.7227 54.7715 63.6172L54.9121 64.8945C54.5293 65.0586 54.0957 65.1406 53.6113 65.1406C53.3145 65.1406 53.0469 65.0918 52.8086 64.9941C52.5703 64.8926 52.3945 64.7637 52.2812 64.6074C52.1719 64.4473 52.0957 64.2324 52.0527 63.9629C52.0176 63.7715 52 63.3848 52 62.8027V60.0898H51.2441V58.7773H52V57.541L53.6523 56.5801V58.7773H54.7773Z" fill="white"/>
<path d="M1.89062 116V107.41H3.57812L7.09375 113.146V107.41H8.70508V116H6.96484L3.50195 110.398V116H1.89062ZM10.5332 108.934V107.41H12.1797V108.934H10.5332ZM10.5332 116V109.777H12.1797V116H10.5332ZM17.4766 114.02L19.1172 114.295C18.9062 114.896 18.5723 115.355 18.1152 115.672C17.6621 115.984 17.0938 116.141 16.4102 116.141C15.3281 116.141 14.5273 115.787 14.0078 115.08C13.5977 114.514 13.3926 113.799 13.3926 112.936C13.3926 111.904 13.6621 111.098 14.2012 110.516C14.7402 109.93 15.4219 109.637 16.2461 109.637C17.1719 109.637 17.9023 109.943 18.4375 110.557C18.9727 111.166 19.2285 112.102 19.2051 113.363H15.0801C15.0918 113.852 15.2246 114.232 15.4785 114.506C15.7324 114.775 16.0488 114.91 16.4277 114.91C16.6855 114.91 16.9023 114.84 17.0781 114.699C17.2539 114.559 17.3867 114.332 17.4766 114.02ZM17.5703 112.355C17.5586 111.879 17.4355 111.518 17.2012 111.271C16.9668 111.021 16.6816 110.896 16.3457 110.896C15.9863 110.896 15.6895 111.027 15.4551 111.289C15.2207 111.551 15.1055 111.906 15.1094 112.355H17.5703ZM14.3184 108.992L15.5488 107.264H17.0723L18.2852 108.992H16.9609L16.2812 108.119L15.6484 108.992H14.3184ZM20.4297 109.777H21.9473V110.627C22.4902 109.967 23.1367 109.637 23.8867 109.637C24.2852 109.637 24.6309 109.719 24.9238 109.883C25.2168 110.047 25.457 110.295 25.6445 110.627C25.918 110.295 26.2129 110.047 26.5293 109.883C26.8457 109.719 27.1836 109.637 27.543 109.637C28 109.637 28.3867 109.73 28.7031 109.918C29.0195 110.102 29.2559 110.373 29.4121 110.732C29.5254 110.998 29.582 111.428 29.582 112.021V116H27.9355V112.443C27.9355 111.826 27.8789 111.428 27.7656 111.248C27.6133 111.014 27.3789 110.896 27.0625 110.896C26.832 110.896 26.6152 110.967 26.4121 111.107C26.209 111.248 26.0625 111.455 25.9727 111.729C25.8828 111.998 25.8379 112.426 25.8379 113.012V116H24.1914V112.59C24.1914 111.984 24.1621 111.594 24.1035 111.418C24.0449 111.242 23.9531 111.111 23.8281 111.025C23.707 110.939 23.541 110.896 23.3301 110.896C23.0762 110.896 22.8477 110.965 22.6445 111.102C22.4414 111.238 22.2949 111.436 22.2051 111.693C22.1191 111.951 22.0762 112.379 22.0762 112.977V116H20.4297V109.777ZM33.7891 109.777H35.541L37.0293 114.195L38.4824 109.777H40.1875L37.9902 115.766L37.5977 116.85C37.4531 117.213 37.3145 117.49 37.1816 117.682C37.0527 117.873 36.9023 118.027 36.7305 118.145C36.5625 118.266 36.3535 118.359 36.1035 118.426C35.8574 118.492 35.5781 118.525 35.2656 118.525C34.9492 118.525 34.6387 118.492 34.334 118.426L34.1875 117.137C34.4453 117.188 34.6777 117.213 34.8848 117.213C35.2676 117.213 35.5508 117.1 35.7344 116.873C35.918 116.65 36.0586 116.365 36.1562 116.018L33.7891 109.777ZM44.8516 114.02L46.4922 114.295C46.2812 114.896 45.9473 115.355 45.4902 115.672C45.0371 115.984 44.4688 116.141 43.7852 116.141C42.7031 116.141 41.9023 115.787 41.3828 115.08C40.9727 114.514 40.7676 113.799 40.7676 112.936C40.7676 111.904 41.0371 111.098 41.5762 110.516C42.1152 109.93 42.7969 109.637 43.6211 109.637C44.5469 109.637 45.2773 109.943 45.8125 110.557C46.3477 111.166 46.6035 112.102 46.5801 113.363H42.4551C42.4668 113.852 42.5996 114.232 42.8535 114.506C43.1074 114.775 43.4238 114.91 43.8027 114.91C44.0605 114.91 44.2773 114.84 44.4531 114.699C44.6289 114.559 44.7617 114.332 44.8516 114.02ZM44.9453 112.355C44.9336 111.879 44.8105 111.518 44.5762 111.271C44.3418 111.021 44.0566 110.896 43.7207 110.896C43.3613 110.896 43.0645 111.027 42.8301 111.289C42.5957 111.551 42.4805 111.906 42.4844 112.355H44.9453ZM41.6934 108.992L42.9238 107.264H44.4473L45.6602 108.992H44.3359L43.6562 108.119L43.0234 108.992H41.6934ZM42.9004 106.947L43.6562 105.295H45.502L43.9434 106.947H42.9004ZM50.7812 109.777V111.09H49.6562V113.598C49.6562 114.105 49.666 114.402 49.6855 114.488C49.709 114.57 49.7578 114.639 49.832 114.693C49.9102 114.748 50.0039 114.775 50.1133 114.775C50.2656 114.775 50.4863 114.723 50.7754 114.617L50.916 115.895C50.5332 116.059 50.0996 116.141 49.6152 116.141C49.3184 116.141 49.0508 116.092 48.8125 115.994C48.5742 115.893 48.3984 115.764 48.2852 115.607C48.1758 115.447 48.0996 115.232 48.0566 114.963C48.0215 114.771 48.0039 114.385 48.0039 113.803V111.09H47.248V109.777H48.0039V108.541L49.6562 107.58V109.777H50.7812Z" fill="white"/>
<rect opacity="0.8" x="130" width="344.591" height="20" fill="#D7131C"/>
<path d="M277.83 15H276.184V8.79492C275.582 9.35742 274.873 9.77344 274.057 10.043V8.54883C274.486 8.4082 274.953 8.14258 275.457 7.75195C275.961 7.35742 276.307 6.89844 276.494 6.375H277.83V15ZM283.842 15H282.195V8.79492C281.594 9.35742 280.885 9.77344 280.068 10.043V8.54883C280.498 8.4082 280.965 8.14258 281.469 7.75195C281.973 7.35742 282.318 6.89844 282.506 6.375H283.842V15ZM286.66 15V13.3535H288.307V15H286.66ZM292.877 15V13.2715H289.361V11.8301L293.088 6.375H294.471V11.8242H295.537V13.2715H294.471V15H292.877ZM292.877 11.8242V8.88867L290.902 11.8242H292.877ZM296.363 13.0137L297.957 12.8379C297.996 13.1621 298.098 13.4023 298.262 13.5586C298.426 13.7148 298.643 13.793 298.912 13.793C299.252 13.793 299.541 13.6367 299.779 13.3242C300.018 13.0117 300.17 12.3633 300.236 11.3789C299.822 11.8594 299.305 12.0996 298.684 12.0996C298.008 12.0996 297.424 11.8398 296.932 11.3203C296.443 10.7969 296.199 10.1172 296.199 9.28125C296.199 8.41016 296.457 7.70898 296.973 7.17773C297.492 6.64258 298.152 6.375 298.953 6.375C299.824 6.375 300.539 6.71289 301.098 7.38867C301.656 8.06055 301.935 9.16797 301.935 10.7109C301.935 12.2812 301.644 13.4141 301.062 14.1094C300.48 14.8047 299.723 15.1523 298.789 15.1523C298.117 15.1523 297.574 14.9746 297.16 14.6191C296.746 14.2598 296.48 13.7246 296.363 13.0137ZM300.09 9.41602C300.09 8.88477 299.967 8.47266 299.721 8.17969C299.478 7.88672 299.197 7.74023 298.877 7.74023C298.572 7.74023 298.318 7.86133 298.115 8.10352C297.916 8.3418 297.816 8.73438 297.816 9.28125C297.816 9.83594 297.926 10.2441 298.144 10.5059C298.363 10.7637 298.637 10.8926 298.965 10.8926C299.281 10.8926 299.547 10.7676 299.762 10.5176C299.98 10.2676 300.09 9.90039 300.09 9.41602ZM303.008 8.05664V6.52734H308.639V7.72266C308.174 8.17969 307.701 8.83594 307.221 9.69141C306.74 10.5469 306.373 11.457 306.119 12.4219C305.869 13.3828 305.746 14.2422 305.75 15H304.162C304.189 13.8125 304.434 12.6016 304.894 11.3672C305.359 10.1328 305.978 9.0293 306.752 8.05664H303.008ZM310.039 15V13.3535H311.685V15H310.039ZM318.588 13.4707V15H312.816C312.879 14.4219 313.066 13.875 313.379 13.3594C313.691 12.8398 314.309 12.1523 315.23 11.2969C315.973 10.6055 316.428 10.1367 316.596 9.89062C316.822 9.55078 316.935 9.21484 316.935 8.88281C316.935 8.51562 316.836 8.23438 316.637 8.03906C316.441 7.83984 316.17 7.74023 315.822 7.74023C315.478 7.74023 315.205 7.84375 315.002 8.05078C314.799 8.25781 314.682 8.60156 314.65 9.08203L313.01 8.91797C313.107 8.01172 313.414 7.36133 313.93 6.9668C314.445 6.57227 315.09 6.375 315.863 6.375C316.711 6.375 317.377 6.60352 317.861 7.06055C318.346 7.51758 318.588 8.08594 318.588 8.76562C318.588 9.15234 318.518 9.52148 318.377 9.87305C318.24 10.2207 318.021 10.5859 317.721 10.9688C317.521 11.2227 317.162 11.5879 316.643 12.0645C316.123 12.541 315.793 12.8574 315.652 13.0137C315.516 13.1699 315.404 13.3223 315.318 13.4707H318.588ZM319.73 12.791L321.371 12.6211C321.418 12.9922 321.557 13.2871 321.787 13.5059C322.018 13.7207 322.283 13.8281 322.584 13.8281C322.928 13.8281 323.219 13.6895 323.457 13.4121C323.695 13.1309 323.814 12.709 323.814 12.1465C323.814 11.6191 323.695 11.2246 323.457 10.9629C323.223 10.6973 322.916 10.5645 322.537 10.5645C322.064 10.5645 321.641 10.7734 321.266 11.1914L319.93 10.998L320.773 6.52734H325.127V8.06836H322.021L321.764 9.52734C322.131 9.34375 322.506 9.25195 322.889 9.25195C323.619 9.25195 324.238 9.51758 324.746 10.0488C325.254 10.5801 325.508 11.2695 325.508 12.1172C325.508 12.8242 325.303 13.4551 324.893 14.0098C324.334 14.7676 323.559 15.1465 322.566 15.1465C321.773 15.1465 321.127 14.9336 320.627 14.5078C320.127 14.082 319.828 13.5098 319.73 12.791ZM326.387 8.05664V6.52734H332.018V7.72266C331.553 8.17969 331.08 8.83594 330.6 9.69141C330.119 10.5469 329.752 11.457 329.498 12.4219C329.248 13.3828 329.125 14.2422 329.129 15H327.541C327.568 13.8125 327.812 12.6016 328.273 11.3672C328.738 10.1328 329.357 9.0293 330.131 8.05664H326.387Z" fill="white"/>
<rect x="130" y="102" width="403.633" height="20" fill="#0065B7"/>
<path d="M307.109 117H305.463V110.795C304.861 111.357 304.152 111.773 303.336 112.043V110.549C303.765 110.408 304.232 110.143 304.736 109.752C305.24 109.357 305.586 108.898 305.773 108.375H307.109V117ZM312.805 117V115.271H309.289V113.83L313.015 108.375H314.398V113.824H315.465V115.271H314.398V117H312.805ZM312.805 113.824V110.889L310.83 113.824H312.805ZM316.607 117V115.354H318.254V117H316.607ZM325.174 110.514L323.58 110.689C323.541 110.361 323.439 110.119 323.275 109.963C323.111 109.807 322.898 109.729 322.637 109.729C322.289 109.729 321.994 109.885 321.752 110.197C321.514 110.51 321.363 111.16 321.301 112.148C321.711 111.664 322.221 111.422 322.83 111.422C323.517 111.422 324.105 111.684 324.594 112.207C325.086 112.73 325.332 113.406 325.332 114.234C325.332 115.113 325.074 115.818 324.558 116.35C324.043 116.881 323.381 117.146 322.572 117.146C321.705 117.146 320.992 116.811 320.433 116.139C319.875 115.463 319.596 114.357 319.596 112.822C319.596 111.248 319.887 110.113 320.469 109.418C321.051 108.723 321.806 108.375 322.736 108.375C323.389 108.375 323.928 108.559 324.353 108.926C324.783 109.289 325.056 109.818 325.174 110.514ZM321.441 114.105C321.441 114.641 321.564 115.055 321.81 115.348C322.056 115.637 322.338 115.781 322.654 115.781C322.959 115.781 323.213 115.662 323.416 115.424C323.619 115.186 323.721 114.795 323.721 114.252C323.721 113.693 323.611 113.285 323.392 113.027C323.174 112.766 322.9 112.635 322.572 112.635C322.256 112.635 321.988 112.76 321.769 113.01C321.551 113.256 321.441 113.621 321.441 114.105ZM327.687 112.365C327.262 112.186 326.951 111.939 326.756 111.627C326.564 111.311 326.469 110.965 326.469 110.59C326.469 109.949 326.691 109.42 327.137 109.002C327.586 108.584 328.223 108.375 329.047 108.375C329.863 108.375 330.496 108.584 330.945 109.002C331.398 109.42 331.625 109.949 331.625 110.59C331.625 110.988 331.521 111.344 331.314 111.656C331.107 111.965 330.816 112.201 330.441 112.365C330.918 112.557 331.279 112.836 331.525 113.203C331.775 113.57 331.9 113.994 331.9 114.475C331.9 115.268 331.646 115.912 331.139 116.408C330.635 116.904 329.963 117.152 329.123 117.152C328.342 117.152 327.691 116.947 327.172 116.537C326.558 116.053 326.252 115.389 326.252 114.545C326.252 114.08 326.367 113.654 326.598 113.268C326.828 112.877 327.191 112.576 327.687 112.365ZM328.027 110.707C328.027 111.035 328.119 111.291 328.303 111.475C328.49 111.658 328.738 111.75 329.047 111.75C329.359 111.75 329.609 111.658 329.797 111.475C329.984 111.287 330.078 111.029 330.078 110.701C330.078 110.393 329.984 110.146 329.797 109.963C329.613 109.775 329.369 109.682 329.064 109.682C328.748 109.682 328.496 109.775 328.308 109.963C328.121 110.15 328.027 110.398 328.027 110.707ZM327.875 114.387C327.875 114.84 327.99 115.193 328.221 115.447C328.455 115.701 328.746 115.828 329.094 115.828C329.433 115.828 329.715 115.707 329.937 115.465C330.16 115.219 330.271 114.865 330.271 114.404C330.271 114.002 330.158 113.68 329.931 113.438C329.705 113.191 329.418 113.068 329.07 113.068C328.668 113.068 328.367 113.207 328.168 113.484C327.973 113.762 327.875 114.062 327.875 114.387ZM332.978 114.791L334.619 114.621C334.666 114.992 334.805 115.287 335.035 115.506C335.265 115.721 335.531 115.828 335.832 115.828C336.176 115.828 336.467 115.689 336.705 115.412C336.943 115.131 337.062 114.709 337.062 114.146C337.062 113.619 336.943 113.225 336.705 112.963C336.471 112.697 336.164 112.564 335.785 112.564C335.312 112.564 334.889 112.773 334.514 113.191L333.178 112.998L334.021 108.527H338.375V110.068H335.269L335.012 111.527C335.379 111.344 335.754 111.252 336.137 111.252C336.867 111.252 337.486 111.518 337.994 112.049C338.502 112.58 338.756 113.27 338.756 114.117C338.756 114.824 338.551 115.455 338.14 116.01C337.582 116.768 336.806 117.146 335.814 117.146C335.021 117.146 334.375 116.934 333.875 116.508C333.375 116.082 333.076 115.51 332.978 114.791ZM339.986 117V115.354H341.633V117H339.986ZM347.187 117H345.541V110.795C344.939 111.357 344.23 111.773 343.414 112.043V110.549C343.844 110.408 344.31 110.143 344.814 109.752C345.318 109.357 345.664 108.898 345.851 108.375H347.187V117ZM355.215 115.471V117H349.443C349.506 116.422 349.693 115.875 350.006 115.359C350.318 114.84 350.935 114.152 351.857 113.297C352.599 112.605 353.055 112.137 353.223 111.891C353.449 111.551 353.562 111.215 353.562 110.883C353.562 110.516 353.463 110.234 353.264 110.039C353.068 109.84 352.797 109.74 352.449 109.74C352.105 109.74 351.832 109.844 351.629 110.051C351.426 110.258 351.308 110.602 351.277 111.082L349.637 110.918C349.734 110.012 350.041 109.361 350.556 108.967C351.072 108.572 351.717 108.375 352.49 108.375C353.338 108.375 354.004 108.604 354.488 109.061C354.973 109.518 355.215 110.086 355.215 110.766C355.215 111.152 355.144 111.521 355.004 111.873C354.867 112.221 354.648 112.586 354.348 112.969C354.148 113.223 353.789 113.588 353.269 114.064C352.75 114.541 352.42 114.857 352.279 115.014C352.142 115.17 352.031 115.322 351.945 115.471H355.215ZM356.357 114.791L357.998 114.621C358.045 114.992 358.183 115.287 358.414 115.506C358.644 115.721 358.91 115.828 359.211 115.828C359.555 115.828 359.846 115.689 360.084 115.412C360.322 115.131 360.441 114.709 360.441 114.146C360.441 113.619 360.322 113.225 360.084 112.963C359.849 112.697 359.543 112.564 359.164 112.564C358.691 112.564 358.267 112.773 357.892 113.191L356.556 112.998L357.4 108.527H361.754V110.068H358.648L358.39 111.527C358.758 111.344 359.133 111.252 359.515 111.252C360.246 111.252 360.865 111.518 361.373 112.049C361.881 112.58 362.135 113.27 362.135 114.117C362.135 114.824 361.93 115.455 361.519 116.01C360.961 116.768 360.185 117.146 359.193 117.146C358.4 117.146 357.754 116.934 357.254 116.508C356.754 116.082 356.455 115.51 356.357 114.791Z" fill="white"/>
<rect opacity="0.8" x="130" y="51" width="123.452" height="20" fill="#008C03"/>
<path d="M183.84 64.4707V66H178.069C178.131 65.4219 178.319 64.875 178.631 64.3594C178.944 63.8398 179.561 63.1523 180.483 62.2969C181.225 61.6055 181.68 61.1367 181.848 60.8906C182.075 60.5508 182.188 60.2148 182.188 59.8828C182.188 59.5156 182.088 59.2344 181.889 59.0391C181.694 58.8398 181.422 58.7402 181.075 58.7402C180.731 58.7402 180.457 58.8438 180.254 59.0508C180.051 59.2578 179.934 59.6016 179.903 60.082L178.262 59.918C178.36 59.0117 178.666 58.3613 179.182 57.9668C179.698 57.5723 180.342 57.375 181.116 57.375C181.963 57.375 182.629 57.6035 183.114 58.0605C183.598 58.5176 183.84 59.0859 183.84 59.7656C183.84 60.1523 183.77 60.5215 183.629 60.873C183.493 61.2207 183.274 61.5859 182.973 61.9688C182.774 62.2227 182.415 62.5879 181.895 63.0645C181.375 63.541 181.045 63.8574 180.905 64.0137C180.768 64.1699 180.657 64.3223 180.571 64.4707H183.84ZM185.27 64.3535H186.916V65.5312C186.916 66.0078 186.875 66.3828 186.793 66.6562C186.711 66.9336 186.555 67.1816 186.325 67.4004C186.098 67.6191 185.809 67.791 185.457 67.916L185.135 67.2363C185.467 67.127 185.704 66.9766 185.844 66.7852C185.985 66.5938 186.059 66.332 186.067 66H185.27V64.3535ZM193.877 59.5137L192.284 59.6895C192.245 59.3613 192.143 59.1191 191.979 58.9629C191.815 58.8066 191.602 58.7285 191.34 58.7285C190.993 58.7285 190.698 58.8848 190.456 59.1973C190.217 59.5098 190.067 60.1602 190.004 61.1484C190.415 60.6641 190.924 60.4219 191.534 60.4219C192.221 60.4219 192.809 60.6836 193.297 61.207C193.79 61.7305 194.036 62.4062 194.036 63.2344C194.036 64.1133 193.778 64.8184 193.262 65.3496C192.747 65.8809 192.084 66.1465 191.276 66.1465C190.409 66.1465 189.696 65.8105 189.137 65.1387C188.579 64.4629 188.299 63.3574 188.299 61.8223C188.299 60.248 188.59 59.1133 189.172 58.418C189.754 57.7227 190.51 57.375 191.44 57.375C192.092 57.375 192.631 57.5586 193.057 57.9258C193.487 58.2891 193.76 58.8184 193.877 59.5137ZM190.145 63.1055C190.145 63.6406 190.268 64.0547 190.514 64.3477C190.76 64.6367 191.041 64.7812 191.358 64.7812C191.663 64.7812 191.916 64.6621 192.12 64.4238C192.323 64.1855 192.424 63.7949 192.424 63.252C192.424 62.6934 192.315 62.2852 192.096 62.0273C191.877 61.7656 191.604 61.6348 191.276 61.6348C190.959 61.6348 190.692 61.7598 190.473 62.0098C190.254 62.2559 190.145 62.6211 190.145 63.1055ZM195.002 63.791L196.643 63.6211C196.69 63.9922 196.829 64.2871 197.059 64.5059C197.29 64.7207 197.555 64.8281 197.856 64.8281C198.2 64.8281 198.491 64.6895 198.729 64.4121C198.967 64.1309 199.086 63.709 199.086 63.1465C199.086 62.6191 198.967 62.2246 198.729 61.9629C198.495 61.6973 198.188 61.5645 197.809 61.5645C197.336 61.5645 196.913 61.7734 196.538 62.1914L195.202 61.998L196.045 57.5273H200.399V59.0684H197.293L197.036 60.5273C197.403 60.3438 197.778 60.252 198.161 60.252C198.891 60.252 199.51 60.5176 200.018 61.0488C200.526 61.5801 200.78 62.2695 200.78 63.1172C200.78 63.8242 200.575 64.4551 200.165 65.0098C199.606 65.7676 198.831 66.1465 197.838 66.1465C197.045 66.1465 196.399 65.9336 195.899 65.5078C195.399 65.082 195.1 64.5098 195.002 63.791ZM201.6 63.7207L203.194 63.5273C203.245 63.9336 203.381 64.2441 203.604 64.459C203.827 64.6738 204.096 64.7812 204.413 64.7812C204.752 64.7812 205.038 64.6523 205.268 64.3945C205.502 64.1367 205.62 63.7891 205.62 63.3516C205.62 62.9375 205.508 62.6094 205.286 62.3672C205.063 62.125 204.791 62.0039 204.471 62.0039C204.26 62.0039 204.008 62.0449 203.715 62.127L203.897 60.7852C204.342 60.7969 204.682 60.7012 204.916 60.498C205.151 60.291 205.268 60.0176 205.268 59.6777C205.268 59.3887 205.182 59.1582 205.01 58.9863C204.838 58.8145 204.61 58.7285 204.325 58.7285C204.043 58.7285 203.803 58.8262 203.604 59.0215C203.405 59.2168 203.284 59.502 203.241 59.877L201.723 59.6191C201.829 59.0996 201.987 58.6855 202.198 58.377C202.413 58.0645 202.709 57.8203 203.088 57.6445C203.471 57.4648 203.899 57.375 204.372 57.375C205.18 57.375 205.829 57.6328 206.317 58.1484C206.719 58.5703 206.92 59.0469 206.92 59.5781C206.92 60.332 206.508 60.9336 205.684 61.3828C206.176 61.4883 206.569 61.7246 206.862 62.0918C207.159 62.459 207.307 62.9023 207.307 63.4219C207.307 64.1758 207.032 64.8184 206.481 65.3496C205.93 65.8809 205.245 66.1465 204.424 66.1465C203.647 66.1465 203.002 65.9238 202.491 65.4785C201.979 65.0293 201.682 64.4434 201.6 63.7207Z" fill="white"/>
</svg>
