<svg width="562" height="268" viewBox="0 0 562 268" fill="none" xmlns="http://www.w3.org/2000/svg">
<rect width="562" height="268" fill="#1A1B25"/>
<path d="M177.992 27.8418V26.3945H181.73V29.8164C181.367 30.168 180.84 30.4785 180.148 30.748C179.461 31.0137 178.764 31.1465 178.057 31.1465C177.158 31.1465 176.375 30.959 175.707 30.584C175.039 30.2051 174.537 29.666 174.201 28.9668C173.865 28.2637 173.697 27.5 173.697 26.6758C173.697 25.7812 173.885 24.9863 174.26 24.291C174.635 23.5957 175.184 23.0625 175.906 22.6914C176.457 22.4062 177.143 22.2637 177.963 22.2637C179.029 22.2637 179.861 22.4883 180.459 22.9375C181.061 23.3828 181.447 24 181.619 24.7891L179.896 25.1113C179.775 24.6895 179.547 24.3574 179.211 24.1152C178.879 23.8691 178.463 23.7461 177.963 23.7461C177.205 23.7461 176.602 23.9863 176.152 24.4668C175.707 24.9473 175.484 25.6602 175.484 26.6055C175.484 27.625 175.711 28.3906 176.164 28.9023C176.617 29.4102 177.211 29.6641 177.945 29.6641C178.309 29.6641 178.672 29.5938 179.035 29.4531C179.402 29.3086 179.717 29.1348 179.979 28.9316V27.8418H177.992ZM183.283 31V22.4102H185.018V31H183.283ZM194.422 31H192.535L191.785 29.0488H188.352L187.643 31H185.803L189.148 22.4102H190.982L194.422 31ZM191.229 27.6016L190.045 24.4141L188.885 27.6016H191.229ZM189.049 21.918L189.857 20.166H191.703L190.092 21.918H189.049ZM200.621 31V23.8633H198.072V22.4102H204.898V23.8633H202.355V31H200.621ZM206.029 31V22.4102H209.68C210.598 22.4102 211.264 22.4883 211.678 22.6445C212.096 22.7969 212.43 23.0703 212.68 23.4648C212.93 23.8594 213.055 24.3105 213.055 24.8184C213.055 25.4629 212.865 25.9961 212.486 26.418C212.107 26.8359 211.541 27.0996 210.787 27.209C211.162 27.4277 211.471 27.668 211.713 27.9297C211.959 28.1914 212.289 28.6562 212.703 29.3242L213.752 31H211.678L210.424 29.1309C209.979 28.4629 209.674 28.043 209.51 27.8711C209.346 27.6953 209.172 27.5762 208.988 27.5137C208.805 27.4473 208.514 27.4141 208.115 27.4141H207.764V31H206.029ZM207.764 26.043H209.047C209.879 26.043 210.398 26.0078 210.605 25.9375C210.812 25.8672 210.975 25.7461 211.092 25.5742C211.209 25.4023 211.268 25.1875 211.268 24.9297C211.268 24.6406 211.189 24.4082 211.033 24.2324C210.881 24.0527 210.664 23.9395 210.383 23.8926C210.242 23.873 209.82 23.8633 209.117 23.8633H207.764V26.043ZM214.643 31V22.4102H216.377V31H214.643ZM214.689 33.3496V31.7031H216.336V33.3496H214.689ZM225.371 27.8418V26.3945H229.109V29.8164C228.746 30.168 228.219 30.4785 227.527 30.748C226.84 31.0137 226.143 31.1465 225.436 31.1465C224.537 31.1465 223.754 30.959 223.086 30.584C222.418 30.2051 221.916 29.666 221.58 28.9668C221.244 28.2637 221.076 27.5 221.076 26.6758C221.076 25.7812 221.264 24.9863 221.639 24.291C222.014 23.5957 222.562 23.0625 223.285 22.6914C223.836 22.4062 224.521 22.2637 225.342 22.2637C226.408 22.2637 227.24 22.4883 227.838 22.9375C228.439 23.3828 228.826 24 228.998 24.7891L227.275 25.1113C227.154 24.6895 226.926 24.3574 226.59 24.1152C226.258 23.8691 225.842 23.7461 225.342 23.7461C224.584 23.7461 223.98 23.9863 223.531 24.4668C223.086 24.9473 222.863 25.6602 222.863 26.6055C222.863 27.625 223.09 28.3906 223.543 28.9023C223.996 29.4102 224.59 29.6641 225.324 29.6641C225.688 29.6641 226.051 29.5938 226.414 29.4531C226.781 29.3086 227.096 29.1348 227.357 28.9316V27.8418H225.371ZM230.662 31V22.4102H232.396V31H230.662ZM241.801 31H239.914L239.164 29.0488H235.73L235.021 31H233.182L236.527 22.4102H238.361L241.801 31ZM238.607 27.6016L237.424 24.4141L236.264 27.6016H238.607ZM242.375 26.7578C242.375 25.8828 242.506 25.1484 242.768 24.5547C242.963 24.1172 243.229 23.7246 243.564 23.377C243.904 23.0293 244.275 22.7715 244.678 22.6035C245.213 22.377 245.83 22.2637 246.529 22.2637C247.795 22.2637 248.807 22.6562 249.564 23.4414C250.326 24.2266 250.707 25.3184 250.707 26.7168C250.707 28.1035 250.33 29.1895 249.576 29.9746C248.822 30.7559 247.814 31.1465 246.553 31.1465C245.275 31.1465 244.26 30.7578 243.506 29.9805C242.752 29.1992 242.375 28.125 242.375 26.7578ZM244.162 26.6992C244.162 27.6719 244.387 28.4102 244.836 28.9141C245.285 29.4141 245.855 29.6641 246.547 29.6641C247.238 29.6641 247.805 29.416 248.246 28.9199C248.691 28.4199 248.914 27.6719 248.914 26.6758C248.914 25.6914 248.697 24.957 248.264 24.4727C247.834 23.9883 247.262 23.7461 246.547 23.7461C245.832 23.7461 245.256 23.9922 244.818 24.4844C244.381 24.9727 244.162 25.7109 244.162 26.6992ZM255.4 22.4102H258.57C259.285 22.4102 259.83 22.4648 260.205 22.5742C260.709 22.7227 261.141 22.9863 261.5 23.3652C261.859 23.7441 262.133 24.209 262.32 24.7598C262.508 25.3066 262.602 25.9824 262.602 26.7871C262.602 27.4941 262.514 28.1035 262.338 28.6152C262.123 29.2402 261.816 29.7461 261.418 30.1328C261.117 30.4258 260.711 30.6543 260.199 30.8184C259.816 30.9395 259.305 31 258.664 31H255.4V22.4102ZM257.135 23.8633V29.5527H258.43C258.914 29.5527 259.264 29.5254 259.479 29.4707C259.76 29.4004 259.992 29.2812 260.176 29.1133C260.363 28.9453 260.516 28.6699 260.633 28.2871C260.75 27.9004 260.809 27.375 260.809 26.7109C260.809 26.0469 260.75 25.5371 260.633 25.1816C260.516 24.8262 260.352 24.5488 260.141 24.3496C259.93 24.1504 259.662 24.0156 259.338 23.9453C259.096 23.8906 258.621 23.8633 257.914 23.8633H257.135ZM264.025 31V22.4102H265.76V31H264.025ZM264.072 33.3496V31.7031H265.719V33.3496H264.072ZM272.914 27.8418L274.596 28.375C274.338 29.3125 273.908 30.0098 273.307 30.4668C272.709 30.9199 271.949 31.1465 271.027 31.1465C269.887 31.1465 268.949 30.7578 268.215 29.9805C267.48 29.1992 267.113 28.1328 267.113 26.7812C267.113 25.3516 267.482 24.2422 268.221 23.4531C268.959 22.6602 269.93 22.2637 271.133 22.2637C272.184 22.2637 273.037 22.5742 273.693 23.1953C274.084 23.5625 274.377 24.0898 274.572 24.7773L272.855 25.1875C272.754 24.7422 272.541 24.3906 272.217 24.1328C271.896 23.875 271.506 23.7461 271.045 23.7461C270.408 23.7461 269.891 23.9746 269.492 24.4316C269.098 24.8887 268.9 25.6289 268.9 26.6523C268.9 27.7383 269.096 28.5117 269.486 28.9727C269.877 29.4336 270.385 29.6641 271.01 29.6641C271.471 29.6641 271.867 29.5176 272.199 29.2246C272.531 28.9316 272.77 28.4707 272.914 27.8418ZM276.096 31V22.4102H277.83V25.791H281.229V22.4102H282.963V31H281.229V27.2441H277.83V31H276.096ZM287.662 28.2051L289.35 28.041C289.451 28.6074 289.656 29.0234 289.965 29.2891C290.277 29.5547 290.697 29.6875 291.225 29.6875C291.783 29.6875 292.203 29.5703 292.484 29.3359C292.77 29.0977 292.912 28.8203 292.912 28.5039C292.912 28.3008 292.852 28.1289 292.73 27.9883C292.613 27.8438 292.406 27.7188 292.109 27.6133C291.906 27.543 291.443 27.418 290.721 27.2383C289.791 27.0078 289.139 26.7246 288.764 26.3887C288.236 25.916 287.973 25.3398 287.973 24.6602C287.973 24.2227 288.096 23.8145 288.342 23.4355C288.592 23.0527 288.949 22.7617 289.414 22.5625C289.883 22.3633 290.447 22.2637 291.107 22.2637C292.186 22.2637 292.996 22.5 293.539 22.9727C294.086 23.4453 294.373 24.0762 294.4 24.8652L292.666 24.9414C292.592 24.5 292.432 24.1836 292.186 23.9922C291.943 23.7969 291.578 23.6992 291.09 23.6992C290.586 23.6992 290.191 23.8027 289.906 24.0098C289.723 24.1426 289.631 24.3203 289.631 24.543C289.631 24.7461 289.717 24.9199 289.889 25.0645C290.107 25.248 290.639 25.4395 291.482 25.6387C292.326 25.8379 292.949 26.0449 293.352 26.2598C293.758 26.4707 294.074 26.7617 294.301 27.1328C294.531 27.5 294.646 27.9551 294.646 28.498C294.646 28.9902 294.51 29.4512 294.236 29.8809C293.963 30.3105 293.576 30.6309 293.076 30.8418C292.576 31.0488 291.953 31.1523 291.207 31.1523C290.121 31.1523 289.287 30.9023 288.705 30.4023C288.123 29.8984 287.775 29.166 287.662 28.2051ZM295.754 26.7578C295.754 25.8828 295.885 25.1484 296.146 24.5547C296.342 24.1172 296.607 23.7246 296.943 23.377C297.283 23.0293 297.654 22.7715 298.057 22.6035C298.592 22.377 299.209 22.2637 299.908 22.2637C301.174 22.2637 302.186 22.6562 302.943 23.4414C303.705 24.2266 304.086 25.3184 304.086 26.7168C304.086 28.1035 303.709 29.1895 302.955 29.9746C302.201 30.7559 301.193 31.1465 299.932 31.1465C298.654 31.1465 297.639 30.7578 296.885 29.9805C296.131 29.1992 295.754 28.125 295.754 26.7578ZM297.541 26.6992C297.541 27.6719 297.766 28.4102 298.215 28.9141C298.664 29.4141 299.234 29.6641 299.926 29.6641C300.617 29.6641 301.184 29.416 301.625 28.9199C302.07 28.4199 302.293 27.6719 302.293 26.6758C302.293 25.6914 302.076 24.957 301.643 24.4727C301.213 23.9883 300.641 23.7461 299.926 23.7461C299.211 23.7461 298.635 23.9922 298.197 24.4844C297.76 24.9727 297.541 25.7109 297.541 26.6992ZM310.977 31L307.906 22.4102H309.787L311.961 28.7676L314.064 22.4102H315.904L312.828 31H310.977ZM318.225 26.6992C318.225 27.6445 318.449 28.3828 318.898 28.9141C319.324 29.4141 319.895 29.6641 320.609 29.6641C321.324 29.6641 321.893 29.4141 322.314 28.9141C322.756 28.3906 322.977 27.6445 322.977 26.6758C322.977 25.7148 322.762 24.9805 322.332 24.4727C321.918 23.9883 321.344 23.7461 320.609 23.7461C319.875 23.7461 319.299 23.9922 318.881 24.4844C318.443 24.9961 318.225 25.7344 318.225 26.6992ZM324.506 22.4102H326.152V23.5879C326.152 24.0723 326.109 24.4512 326.023 24.7246C325.941 24.998 325.789 25.2422 325.566 25.457C325.344 25.668 325.064 25.8359 324.729 25.9609C324.756 26.2031 324.77 26.4551 324.77 26.7168C324.77 28.0918 324.395 29.1738 323.645 29.9629C322.895 30.752 321.885 31.1465 320.615 31.1465C319.334 31.1465 318.316 30.7559 317.562 29.9746C316.812 29.1895 316.438 28.1172 316.438 26.7578C316.438 25.3203 316.836 24.1934 317.633 23.377C318.352 22.6348 319.338 22.2637 320.592 22.2637C321.857 22.2637 322.871 22.6562 323.633 23.4414C324.09 23.918 324.41 24.5059 324.594 25.2051C325.051 24.998 325.287 24.6152 325.303 24.0566H324.506V22.4102ZM319.537 21.918L320.346 20.166H322.191L320.58 21.918H319.537ZM326.979 31V22.4102H328.713V31H326.979ZM335.902 31L332.832 22.4102H334.713L336.887 28.7676L338.99 22.4102H340.83L337.754 31H335.902ZM341.363 26.7578C341.363 25.8828 341.494 25.1484 341.756 24.5547C341.951 24.1172 342.217 23.7246 342.553 23.377C342.893 23.0293 343.264 22.7715 343.666 22.6035C344.201 22.377 344.818 22.2637 345.518 22.2637C346.783 22.2637 347.795 22.6562 348.553 23.4414C349.314 24.2266 349.695 25.3184 349.695 26.7168C349.695 28.1035 349.318 29.1895 348.564 29.9746C347.811 30.7559 346.803 31.1465 345.541 31.1465C344.264 31.1465 343.248 30.7578 342.494 29.9805C341.74 29.1992 341.363 28.125 341.363 26.7578ZM343.15 26.6992C343.15 27.6719 343.375 28.4102 343.824 28.9141C344.273 29.4141 344.844 29.6641 345.535 29.6641C346.227 29.6641 346.793 29.416 347.234 28.9199C347.68 28.4199 347.902 27.6719 347.902 26.6758C347.902 25.6914 347.686 24.957 347.252 24.4727C346.822 23.9883 346.25 23.7461 345.535 23.7461C344.82 23.7461 344.244 23.9922 343.807 24.4844C343.369 24.9727 343.15 25.7109 343.15 26.6992ZM345.506 21.6836L344.861 22.1172H343.707L344.984 21.3555H346.027L347.305 22.1172H346.15L345.506 21.6836ZM344.797 21.1562L345.506 20.2012H347.352L345.84 21.1562H344.797ZM351.072 31V22.4102H352.76L356.275 28.1465V22.4102H357.887V31H356.146L352.684 25.3984V31H351.072ZM363.072 31V22.4102H364.807V25.791H368.205V22.4102H369.939V31H368.205V27.2441H364.807V31H363.072ZM371.387 26.7578C371.387 25.8828 371.518 25.1484 371.779 24.5547C371.975 24.1172 372.24 23.7246 372.576 23.377C372.916 23.0293 373.287 22.7715 373.689 22.6035C374.225 22.377 374.842 22.2637 375.541 22.2637C376.807 22.2637 377.818 22.6562 378.576 23.4414C379.338 24.2266 379.719 25.3184 379.719 26.7168C379.719 28.1035 379.342 29.1895 378.588 29.9746C377.834 30.7559 376.826 31.1465 375.564 31.1465C374.287 31.1465 373.271 30.7578 372.518 29.9805C371.764 29.1992 371.387 28.125 371.387 26.7578ZM373.174 26.6992C373.174 27.6719 373.398 28.4102 373.848 28.9141C374.297 29.4141 374.867 29.6641 375.559 29.6641C376.25 29.6641 376.816 29.416 377.258 28.9199C377.703 28.4199 377.926 27.6719 377.926 26.6758C377.926 25.6914 377.709 24.957 377.275 24.4727C376.846 23.9883 376.273 23.7461 375.559 23.7461C374.844 23.7461 374.268 23.9922 373.83 24.4844C373.393 24.9727 373.174 25.7109 373.174 26.6992ZM374.486 21.918L375.295 20.166H377.141L375.529 21.918H374.486ZM388.824 31H386.938L386.188 29.0488H382.754L382.045 31H380.205L383.551 22.4102H385.385L388.824 31ZM385.631 27.6016L384.447 24.4141L383.287 27.6016H385.631Z" fill="white"/>
<path d="M98.8691 121.842V120.395H102.607V123.816C102.244 124.168 101.717 124.479 101.025 124.748C100.338 125.014 99.6406 125.146 98.9336 125.146C98.0352 125.146 97.252 124.959 96.584 124.584C95.916 124.205 95.4141 123.666 95.0781 122.967C94.7422 122.264 94.5742 121.5 94.5742 120.676C94.5742 119.781 94.7617 118.986 95.1367 118.291C95.5117 117.596 96.0605 117.062 96.7832 116.691C97.334 116.406 98.0195 116.264 98.8398 116.264C99.9062 116.264 100.738 116.488 101.336 116.938C101.938 117.383 102.324 118 102.496 118.789L100.773 119.111C100.652 118.689 100.424 118.357 100.088 118.115C99.7559 117.869 99.3398 117.746 98.8398 117.746C98.082 117.746 97.4785 117.986 97.0293 118.467C96.584 118.947 96.3613 119.66 96.3613 120.605C96.3613 121.625 96.5879 122.391 97.041 122.902C97.4941 123.41 98.0879 123.664 98.8223 123.664C99.1855 123.664 99.5488 123.594 99.9121 123.453C100.279 123.309 100.594 123.135 100.855 122.932V121.842H98.8691ZM104.201 117.934V116.41H105.848V117.934H104.201ZM104.201 125V118.777H105.848V125H104.201ZM108.771 120.676L107.277 120.406C107.445 119.805 107.734 119.359 108.145 119.07C108.555 118.781 109.164 118.637 109.973 118.637C110.707 118.637 111.254 118.725 111.613 118.9C111.973 119.072 112.225 119.293 112.369 119.562C112.518 119.828 112.592 120.318 112.592 121.033L112.574 122.955C112.574 123.502 112.6 123.906 112.65 124.168C112.705 124.426 112.805 124.703 112.949 125H111.32C111.277 124.891 111.225 124.729 111.162 124.514C111.135 124.416 111.115 124.352 111.104 124.32C110.822 124.594 110.521 124.799 110.201 124.936C109.881 125.072 109.539 125.141 109.176 125.141C108.535 125.141 108.029 124.967 107.658 124.619C107.291 124.271 107.107 123.832 107.107 123.301C107.107 122.949 107.191 122.637 107.359 122.363C107.527 122.086 107.762 121.875 108.062 121.73C108.367 121.582 108.805 121.453 109.375 121.344C110.145 121.199 110.678 121.064 110.975 120.939V120.775C110.975 120.459 110.896 120.234 110.74 120.102C110.584 119.965 110.289 119.896 109.855 119.896C109.562 119.896 109.334 119.955 109.17 120.072C109.006 120.186 108.873 120.387 108.771 120.676ZM110.975 122.012C110.764 122.082 110.43 122.166 109.973 122.264C109.516 122.361 109.217 122.457 109.076 122.551C108.861 122.703 108.754 122.896 108.754 123.131C108.754 123.361 108.84 123.561 109.012 123.729C109.184 123.896 109.402 123.98 109.668 123.98C109.965 123.98 110.248 123.883 110.518 123.688C110.717 123.539 110.848 123.357 110.91 123.143C110.953 123.002 110.975 122.734 110.975 122.34V122.012ZM109.193 118.016L110.002 116.264H111.848L110.236 118.016H109.193ZM120.414 118.777V120.09H119.289V122.598C119.289 123.105 119.299 123.402 119.318 123.488C119.342 123.57 119.391 123.639 119.465 123.693C119.543 123.748 119.637 123.775 119.746 123.775C119.898 123.775 120.119 123.723 120.408 123.617L120.549 124.895C120.166 125.059 119.732 125.141 119.248 125.141C118.951 125.141 118.684 125.092 118.445 124.994C118.207 124.893 118.031 124.764 117.918 124.607C117.809 124.447 117.732 124.232 117.689 123.963C117.654 123.771 117.637 123.385 117.637 122.803V120.09H116.881V118.777H117.637V117.541L119.289 116.58V118.777H120.414ZM123.133 125H121.486V118.777H123.016V119.662C123.277 119.244 123.512 118.969 123.719 118.836C123.93 118.703 124.168 118.637 124.434 118.637C124.809 118.637 125.17 118.74 125.518 118.947L125.008 120.383C124.73 120.203 124.473 120.113 124.234 120.113C124.004 120.113 123.809 120.178 123.648 120.307C123.488 120.432 123.361 120.66 123.268 120.992C123.178 121.324 123.133 122.02 123.133 123.078V125ZM126.232 117.934V116.41H127.879V117.934H126.232ZM126.232 125V118.777H127.879V125H126.232ZM126.238 127.35V125.703H127.885V127.35H126.238ZM132.76 125.41L134.641 125.639C134.672 125.857 134.744 126.008 134.857 126.09C135.014 126.207 135.26 126.266 135.596 126.266C136.025 126.266 136.348 126.201 136.562 126.072C136.707 125.986 136.816 125.848 136.891 125.656C136.941 125.52 136.967 125.268 136.967 124.9V123.992C136.475 124.664 135.854 125 135.104 125C134.268 125 133.605 124.646 133.117 123.939C132.734 123.381 132.543 122.686 132.543 121.854C132.543 120.811 132.793 120.014 133.293 119.463C133.797 118.912 134.422 118.637 135.168 118.637C135.938 118.637 136.572 118.975 137.072 119.65V118.777H138.613V124.361C138.613 125.096 138.553 125.645 138.432 126.008C138.311 126.371 138.141 126.656 137.922 126.863C137.703 127.07 137.41 127.232 137.043 127.35C136.68 127.467 136.219 127.525 135.66 127.525C134.605 127.525 133.857 127.344 133.416 126.98C132.975 126.621 132.754 126.164 132.754 125.609C132.754 125.555 132.756 125.488 132.76 125.41ZM134.23 121.76C134.23 122.42 134.357 122.904 134.611 123.213C134.869 123.518 135.186 123.67 135.561 123.67C135.963 123.67 136.303 123.514 136.58 123.201C136.857 122.885 136.996 122.418 136.996 121.801C136.996 121.156 136.863 120.678 136.598 120.365C136.332 120.053 135.996 119.896 135.59 119.896C135.195 119.896 134.869 120.051 134.611 120.359C134.357 120.664 134.23 121.131 134.23 121.76ZM140.248 117.934V116.41H141.895V117.934H140.248ZM140.248 125V118.777H141.895V125H140.248ZM144.818 120.676L143.324 120.406C143.492 119.805 143.781 119.359 144.191 119.07C144.602 118.781 145.211 118.637 146.02 118.637C146.754 118.637 147.301 118.725 147.66 118.9C148.02 119.072 148.271 119.293 148.416 119.562C148.564 119.828 148.639 120.318 148.639 121.033L148.621 122.955C148.621 123.502 148.646 123.906 148.697 124.168C148.752 124.426 148.852 124.703 148.996 125H147.367C147.324 124.891 147.271 124.729 147.209 124.514C147.182 124.416 147.162 124.352 147.15 124.32C146.869 124.594 146.568 124.799 146.248 124.936C145.928 125.072 145.586 125.141 145.223 125.141C144.582 125.141 144.076 124.967 143.705 124.619C143.338 124.271 143.154 123.832 143.154 123.301C143.154 122.949 143.238 122.637 143.406 122.363C143.574 122.086 143.809 121.875 144.109 121.73C144.414 121.582 144.852 121.453 145.422 121.344C146.191 121.199 146.725 121.064 147.021 120.939V120.775C147.021 120.459 146.943 120.234 146.787 120.102C146.631 119.965 146.336 119.896 145.902 119.896C145.609 119.896 145.381 119.955 145.217 120.072C145.053 120.186 144.92 120.387 144.818 120.676ZM147.021 122.012C146.811 122.082 146.477 122.166 146.02 122.264C145.562 122.361 145.264 122.457 145.123 122.551C144.908 122.703 144.801 122.896 144.801 123.131C144.801 123.361 144.887 123.561 145.059 123.729C145.23 123.896 145.449 123.98 145.715 123.98C146.012 123.98 146.295 123.883 146.564 123.688C146.764 123.539 146.895 123.357 146.957 123.143C147 123.002 147.021 122.734 147.021 122.34V122.012ZM149.887 121.801C149.887 121.254 150.021 120.725 150.291 120.213C150.561 119.701 150.941 119.311 151.434 119.041C151.93 118.771 152.482 118.637 153.092 118.637C154.033 118.637 154.805 118.943 155.406 119.557C156.008 120.166 156.309 120.938 156.309 121.871C156.309 122.812 156.004 123.594 155.395 124.215C154.789 124.832 154.025 125.141 153.104 125.141C152.533 125.141 151.988 125.012 151.469 124.754C150.953 124.496 150.561 124.119 150.291 123.623C150.021 123.123 149.887 122.516 149.887 121.801ZM151.574 121.889C151.574 122.506 151.721 122.979 152.014 123.307C152.307 123.635 152.668 123.799 153.098 123.799C153.527 123.799 153.887 123.635 154.176 123.307C154.469 122.979 154.615 122.502 154.615 121.877C154.615 121.268 154.469 120.799 154.176 120.471C153.887 120.143 153.527 119.979 153.098 119.979C152.668 119.979 152.307 120.143 152.014 120.471C151.721 120.799 151.574 121.271 151.574 121.889ZM166.65 125H165.121V124.086C164.867 124.441 164.566 124.707 164.219 124.883C163.875 125.055 163.527 125.141 163.176 125.141C162.461 125.141 161.848 124.854 161.336 124.279C160.828 123.701 160.574 122.896 160.574 121.865C160.574 120.811 160.822 120.01 161.318 119.463C161.814 118.912 162.441 118.637 163.199 118.637C163.895 118.637 164.496 118.926 165.004 119.504V116.41H166.65V125ZM162.256 121.754C162.256 122.418 162.348 122.898 162.531 123.195C162.797 123.625 163.168 123.84 163.645 123.84C164.023 123.84 164.346 123.68 164.611 123.359C164.877 123.035 165.01 122.553 165.01 121.912C165.01 121.197 164.881 120.684 164.623 120.371C164.365 120.055 164.035 119.896 163.633 119.896C163.242 119.896 162.914 120.053 162.648 120.365C162.387 120.674 162.256 121.137 162.256 121.754ZM168.279 117.934V116.41H169.926V117.934H168.279ZM168.279 125V118.777H169.926V125H168.279ZM168.285 127.35V125.703H169.932V127.35H168.285ZM177.045 120.617L175.422 120.91C175.367 120.586 175.242 120.342 175.047 120.178C174.855 120.014 174.605 119.932 174.297 119.932C173.887 119.932 173.559 120.074 173.312 120.359C173.07 120.641 172.949 121.113 172.949 121.777C172.949 122.516 173.072 123.037 173.318 123.342C173.568 123.646 173.902 123.799 174.32 123.799C174.633 123.799 174.889 123.711 175.088 123.535C175.287 123.355 175.428 123.049 175.51 122.615L177.127 122.891C176.959 123.633 176.637 124.193 176.16 124.572C175.684 124.951 175.045 125.141 174.244 125.141C173.334 125.141 172.607 124.854 172.064 124.279C171.525 123.705 171.256 122.91 171.256 121.895C171.256 120.867 171.527 120.068 172.07 119.498C172.613 118.924 173.348 118.637 174.273 118.637C175.031 118.637 175.633 118.801 176.078 119.129C176.527 119.453 176.85 119.949 177.045 120.617ZM179.939 116.41V119.568C180.471 118.947 181.105 118.637 181.844 118.637C182.223 118.637 182.564 118.707 182.869 118.848C183.174 118.988 183.402 119.168 183.555 119.387C183.711 119.605 183.816 119.848 183.871 120.113C183.93 120.379 183.959 120.791 183.959 121.35V125H182.312V121.713C182.312 121.061 182.281 120.646 182.219 120.471C182.156 120.295 182.045 120.156 181.885 120.055C181.729 119.949 181.531 119.896 181.293 119.896C181.02 119.896 180.775 119.963 180.561 120.096C180.346 120.229 180.188 120.43 180.086 120.699C179.988 120.965 179.939 121.359 179.939 121.883V125H178.293V116.41H179.939Z" fill="white"/>
<path d="M380.064 157L376.994 148.41H378.875L381.049 154.768L383.152 148.41H384.992L381.916 157H380.064ZM385.484 153.801C385.484 153.254 385.619 152.725 385.889 152.213C386.158 151.701 386.539 151.311 387.031 151.041C387.527 150.771 388.08 150.637 388.689 150.637C389.631 150.637 390.402 150.943 391.004 151.557C391.605 152.166 391.906 152.938 391.906 153.871C391.906 154.812 391.602 155.594 390.992 156.215C390.387 156.832 389.623 157.141 388.701 157.141C388.131 157.141 387.586 157.012 387.066 156.754C386.551 156.496 386.158 156.119 385.889 155.623C385.619 155.123 385.484 154.516 385.484 153.801ZM387.172 153.889C387.172 154.506 387.318 154.979 387.611 155.307C387.904 155.635 388.266 155.799 388.695 155.799C389.125 155.799 389.484 155.635 389.773 155.307C390.066 154.979 390.213 154.502 390.213 153.877C390.213 153.268 390.066 152.799 389.773 152.471C389.484 152.143 389.125 151.979 388.695 151.979C388.266 151.979 387.904 152.143 387.611 152.471C387.318 152.799 387.172 153.271 387.172 153.889ZM386.709 149.992L387.939 148.264H389.463L390.676 149.992H389.352L388.672 149.119L388.039 149.992H386.709ZM387.916 147.947L388.672 146.295H390.518L388.959 147.947H387.916ZM398.861 157H397.215V153.824C397.215 153.152 397.18 152.719 397.109 152.523C397.039 152.324 396.924 152.17 396.764 152.061C396.607 151.951 396.418 151.896 396.195 151.896C395.91 151.896 395.654 151.975 395.428 152.131C395.201 152.287 395.045 152.494 394.959 152.752C394.877 153.01 394.836 153.486 394.836 154.182V157H393.189V150.777H394.719V151.691C395.262 150.988 395.945 150.637 396.77 150.637C397.133 150.637 397.465 150.703 397.766 150.836C398.066 150.965 398.293 151.131 398.445 151.334C398.602 151.537 398.709 151.768 398.768 152.025C398.83 152.283 398.861 152.652 398.861 153.133V157ZM405.518 148.41V151.568C406.049 150.947 406.684 150.637 407.422 150.637C407.801 150.637 408.143 150.707 408.447 150.848C408.752 150.988 408.98 151.168 409.133 151.387C409.289 151.605 409.395 151.848 409.449 152.113C409.508 152.379 409.537 152.791 409.537 153.35V157H407.891V153.713C407.891 153.061 407.859 152.646 407.797 152.471C407.734 152.295 407.623 152.156 407.463 152.055C407.307 151.949 407.109 151.896 406.871 151.896C406.598 151.896 406.354 151.963 406.139 152.096C405.924 152.229 405.766 152.43 405.664 152.699C405.566 152.965 405.518 153.359 405.518 153.883V157H403.871V148.41H405.518ZM410.832 153.801C410.832 153.254 410.967 152.725 411.236 152.213C411.506 151.701 411.887 151.311 412.379 151.041C412.875 150.771 413.428 150.637 414.037 150.637C414.979 150.637 415.75 150.943 416.352 151.557C416.953 152.166 417.254 152.938 417.254 153.871C417.254 154.812 416.949 155.594 416.34 156.215C415.734 156.832 414.971 157.141 414.049 157.141C413.479 157.141 412.934 157.012 412.414 156.754C411.898 156.496 411.506 156.119 411.236 155.623C410.967 155.123 410.832 154.516 410.832 153.801ZM412.52 153.889C412.52 154.506 412.666 154.979 412.959 155.307C413.252 155.635 413.613 155.799 414.043 155.799C414.473 155.799 414.832 155.635 415.121 155.307C415.414 154.979 415.561 154.502 415.561 153.877C415.561 153.268 415.414 152.799 415.121 152.471C414.832 152.143 414.473 151.979 414.043 151.979C413.613 151.979 413.252 152.143 412.959 152.471C412.666 152.799 412.52 153.271 412.52 153.889ZM413.211 150.016L414.02 148.264H415.865L414.254 150.016H413.211ZM419.779 152.676L418.285 152.406C418.453 151.805 418.742 151.359 419.152 151.07C419.562 150.781 420.172 150.637 420.98 150.637C421.715 150.637 422.262 150.725 422.621 150.9C422.98 151.072 423.232 151.293 423.377 151.562C423.525 151.828 423.6 152.318 423.6 153.033L423.582 154.955C423.582 155.502 423.607 155.906 423.658 156.168C423.713 156.426 423.812 156.703 423.957 157H422.328C422.285 156.891 422.232 156.729 422.17 156.514C422.143 156.416 422.123 156.352 422.111 156.32C421.83 156.594 421.529 156.799 421.209 156.936C420.889 157.072 420.547 157.141 420.184 157.141C419.543 157.141 419.037 156.967 418.666 156.619C418.299 156.271 418.115 155.832 418.115 155.301C418.115 154.949 418.199 154.637 418.367 154.363C418.535 154.086 418.77 153.875 419.07 153.73C419.375 153.582 419.812 153.453 420.383 153.344C421.152 153.199 421.686 153.064 421.982 152.939V152.775C421.982 152.459 421.904 152.234 421.748 152.102C421.592 151.965 421.297 151.896 420.863 151.896C420.57 151.896 420.342 151.955 420.178 152.072C420.014 152.186 419.881 152.387 419.779 152.676ZM421.982 154.012C421.771 154.082 421.438 154.166 420.98 154.264C420.523 154.361 420.225 154.457 420.084 154.551C419.869 154.703 419.762 154.896 419.762 155.131C419.762 155.361 419.848 155.561 420.02 155.729C420.191 155.896 420.41 155.98 420.676 155.98C420.973 155.98 421.256 155.883 421.525 155.688C421.725 155.539 421.855 155.357 421.918 155.143C421.961 155.002 421.982 154.734 421.982 154.34V154.012Z" fill="white"/>
<path opacity="0.8" d="M286.03 78C269.597 78 253.672 83.5752 240.969 93.7758C228.266 103.976 219.571 118.171 216.365 133.941C213.159 149.711 215.641 166.081 223.387 180.262C231.134 194.443 243.666 205.556 258.848 211.71C274.03 217.863 290.923 218.675 306.648 214.007C322.374 209.34 335.959 199.481 345.089 186.112C354.218 172.743 358.328 156.69 356.717 140.688C355.107 124.686 347.875 109.726 336.255 98.3561L286.03 147.5L286.03 78Z" fill="#D7131C"/>
<path opacity="0.8" d="M286.03 78C304.868 78 322.935 85.3223 336.255 98.3561L286.03 147.5L286.03 78Z" fill="#008C03"/>
<path d="M254.442 170.057V168.527H260.073V169.723C259.608 170.18 259.135 170.836 258.655 171.691C258.174 172.547 257.807 173.457 257.553 174.422C257.303 175.383 257.18 176.242 257.184 177H255.596C255.624 175.812 255.868 174.602 256.329 173.367C256.793 172.133 257.413 171.029 258.186 170.057H254.442ZM266.7 170.514L265.106 170.689C265.067 170.361 264.965 170.119 264.801 169.963C264.637 169.807 264.424 169.729 264.163 169.729C263.815 169.729 263.52 169.885 263.278 170.197C263.04 170.51 262.889 171.16 262.827 172.148C263.237 171.664 263.747 171.422 264.356 171.422C265.043 171.422 265.631 171.684 266.12 172.207C266.612 172.73 266.858 173.406 266.858 174.234C266.858 175.113 266.6 175.818 266.084 176.35C265.569 176.881 264.907 177.146 264.098 177.146C263.231 177.146 262.518 176.811 261.959 176.139C261.401 175.463 261.122 174.357 261.122 172.822C261.122 171.248 261.413 170.113 261.995 169.418C262.577 168.723 263.333 168.375 264.262 168.375C264.915 168.375 265.454 168.559 265.879 168.926C266.309 169.289 266.583 169.818 266.7 170.514ZM262.967 174.105C262.967 174.641 263.09 175.055 263.336 175.348C263.583 175.637 263.864 175.781 264.18 175.781C264.485 175.781 264.739 175.662 264.942 175.424C265.145 175.186 265.247 174.795 265.247 174.252C265.247 173.693 265.137 173.285 264.918 173.027C264.7 172.766 264.426 172.635 264.098 172.635C263.782 172.635 263.514 172.76 263.295 173.01C263.077 173.256 262.967 173.621 262.967 174.105ZM268.153 177V175.354H269.799V177H268.153ZM271.165 174.791L272.805 174.621C272.852 174.992 272.991 175.287 273.221 175.506C273.452 175.721 273.717 175.828 274.018 175.828C274.362 175.828 274.653 175.689 274.891 175.412C275.129 175.131 275.249 174.709 275.249 174.146C275.249 173.619 275.129 173.225 274.891 172.963C274.657 172.697 274.35 172.564 273.971 172.564C273.499 172.564 273.075 172.773 272.7 173.191L271.364 172.998L272.208 168.527H276.561V170.068H273.456L273.198 171.527C273.565 171.344 273.94 171.252 274.323 171.252C275.053 171.252 275.672 171.518 276.18 172.049C276.688 172.58 276.942 173.27 276.942 174.117C276.942 174.824 276.737 175.455 276.327 176.01C275.768 176.768 274.993 177.146 274 177.146C273.208 177.146 272.561 176.934 272.061 176.508C271.561 176.082 271.262 175.51 271.165 174.791ZM277.833 170.531C277.833 169.762 278 169.191 278.336 168.82C278.676 168.449 279.135 168.264 279.713 168.264C280.311 168.264 280.778 168.449 281.114 168.82C281.454 169.188 281.624 169.758 281.624 170.531C281.624 171.301 281.454 171.871 281.114 172.242C280.778 172.613 280.321 172.799 279.743 172.799C279.145 172.799 278.676 172.615 278.336 172.248C278 171.877 277.833 171.305 277.833 170.531ZM279.116 170.52C279.116 171.078 279.18 171.453 279.309 171.645C279.407 171.785 279.542 171.855 279.713 171.855C279.889 171.855 280.026 171.785 280.124 171.645C280.249 171.453 280.311 171.078 280.311 170.52C280.311 169.961 280.249 169.588 280.124 169.4C280.026 169.256 279.889 169.184 279.713 169.184C279.542 169.184 279.407 169.254 279.309 169.395C279.18 169.586 279.116 169.961 279.116 170.52ZM280.967 177.328H279.749L284.325 168.264H285.508L280.967 177.328ZM283.627 175.072C283.627 174.303 283.795 173.732 284.131 173.361C284.471 172.99 284.934 172.805 285.52 172.805C286.11 172.805 286.573 172.99 286.909 173.361C287.249 173.732 287.418 174.303 287.418 175.072C287.418 175.846 287.249 176.418 286.909 176.789C286.573 177.16 286.116 177.346 285.538 177.346C284.94 177.346 284.471 177.16 284.131 176.789C283.795 176.418 283.627 175.846 283.627 175.072ZM284.911 175.066C284.911 175.625 284.975 175.998 285.104 176.186C285.202 176.33 285.336 176.402 285.508 176.402C285.684 176.402 285.819 176.332 285.913 176.191C286.042 176 286.106 175.625 286.106 175.066C286.106 174.508 286.043 174.133 285.918 173.941C285.821 173.801 285.684 173.73 285.508 173.73C285.333 173.73 285.198 173.801 285.104 173.941C284.975 174.133 284.911 174.508 284.911 175.066Z" fill="white"/>
<path d="M296.795 105.471V107H291.023C291.086 106.422 291.273 105.875 291.586 105.359C291.898 104.84 292.515 104.152 293.437 103.297C294.179 102.605 294.635 102.137 294.802 101.891C295.029 101.551 295.142 101.215 295.142 100.883C295.142 100.516 295.043 100.234 294.844 100.039C294.648 99.8398 294.377 99.7402 294.029 99.7402C293.685 99.7402 293.412 99.8438 293.209 100.051C293.006 100.258 292.888 100.602 292.857 101.082L291.217 100.918C291.314 100.012 291.621 99.3613 292.136 98.9668C292.652 98.5723 293.297 98.375 294.07 98.375C294.918 98.375 295.584 98.6035 296.068 99.0605C296.552 99.5176 296.795 100.086 296.795 100.766C296.795 101.152 296.724 101.521 296.584 101.873C296.447 102.221 296.228 102.586 295.927 102.969C295.728 103.223 295.369 103.588 294.849 104.064C294.33 104.541 294 104.857 293.859 105.014C293.722 105.17 293.611 105.322 293.525 105.471H296.795ZM301.142 107V105.271H297.627V103.83L301.353 98.375H302.736V103.824H303.802V105.271H302.736V107H301.142ZM301.142 103.824V100.889L299.168 103.824H301.142ZM304.945 107V105.354H306.592V107H304.945ZM307.957 104.791L309.597 104.621C309.644 104.992 309.783 105.287 310.013 105.506C310.244 105.721 310.51 105.828 310.81 105.828C311.154 105.828 311.445 105.689 311.683 105.412C311.922 105.131 312.041 104.709 312.041 104.146C312.041 103.619 311.922 103.225 311.683 102.963C311.449 102.697 311.142 102.564 310.763 102.564C310.291 102.564 309.867 102.773 309.492 103.191L308.156 102.998L309 98.5273H313.353V100.068H310.248L309.99 101.527C310.357 101.344 310.732 101.252 311.115 101.252C311.845 101.252 312.465 101.518 312.972 102.049C313.48 102.58 313.734 103.27 313.734 104.117C313.734 104.824 313.529 105.455 313.119 106.01C312.56 106.768 311.785 107.146 310.793 107.146C310 107.146 309.353 106.934 308.853 106.508C308.353 106.082 308.054 105.51 307.957 104.791ZM314.625 100.531C314.625 99.7617 314.793 99.1914 315.129 98.8203C315.469 98.4492 315.927 98.2637 316.506 98.2637C317.103 98.2637 317.57 98.4492 317.906 98.8203C318.246 99.1875 318.416 99.7578 318.416 100.531C318.416 101.301 318.246 101.871 317.906 102.242C317.57 102.613 317.113 102.799 316.535 102.799C315.937 102.799 315.469 102.615 315.129 102.248C314.793 101.877 314.625 101.305 314.625 100.531ZM315.908 100.52C315.908 101.078 315.972 101.453 316.101 101.645C316.199 101.785 316.334 101.855 316.506 101.855C316.681 101.855 316.818 101.785 316.916 101.645C317.041 101.453 317.103 101.078 317.103 100.52C317.103 99.9609 317.041 99.5879 316.916 99.4004C316.818 99.2559 316.681 99.1836 316.506 99.1836C316.334 99.1836 316.199 99.2539 316.101 99.3945C315.972 99.5859 315.908 99.9609 315.908 100.52ZM317.76 107.328H316.541L321.117 98.2637H322.301L317.76 107.328ZM320.42 105.072C320.42 104.303 320.588 103.732 320.924 103.361C321.263 102.99 321.726 102.805 322.312 102.805C322.902 102.805 323.365 102.99 323.701 103.361C324.041 103.732 324.211 104.303 324.211 105.072C324.211 105.846 324.041 106.418 323.701 106.789C323.365 107.16 322.908 107.346 322.33 107.346C321.732 107.346 321.263 107.16 320.924 106.789C320.588 106.418 320.42 105.846 320.42 105.072ZM321.703 105.066C321.703 105.625 321.767 105.998 321.896 106.186C321.994 106.33 322.129 106.402 322.301 106.402C322.476 106.402 322.611 106.332 322.705 106.191C322.834 106 322.898 105.625 322.898 105.066C322.898 104.508 322.836 104.133 322.711 103.941C322.613 103.801 322.476 103.73 322.301 103.73C322.125 103.73 321.99 103.801 321.896 103.941C321.767 104.133 321.703 104.508 321.703 105.066Z" fill="white"/>
<path d="M94 130H184.536L224 156" stroke="white"/>
<path d="M304 122L374.906 164H426.5" stroke="white"/>
</svg>
