<svg width="560" height="174" viewBox="0 0 560 174" fill="none" xmlns="http://www.w3.org/2000/svg">
<rect x="0.5" y="0.5" width="559" height="173" stroke="#3B4252"/>
<path d="M107.873 83.4102H111.037C111.764 83.4102 112.314 83.4668 112.689 83.5801C113.197 83.7324 113.631 84.002 113.99 84.3887C114.35 84.7715 114.619 85.2363 114.799 85.7832C114.982 86.3301 115.074 87.0059 115.074 87.8105C115.074 88.5176 114.973 89.1562 114.77 89.7266C114.57 90.293 114.275 90.7656 113.885 91.1445C113.584 91.4297 113.18 91.6543 112.672 91.8184C112.289 91.9395 111.775 92 111.131 92H107.873V88.25H106.982V87.1602H107.873V83.4102ZM109.602 84.8633V87.1602H111.441V88.25H109.602V90.5527H110.902C111.477 90.5527 111.891 90.5059 112.145 90.4121C112.48 90.2949 112.736 90.0801 112.912 89.7676C113.158 89.3262 113.281 88.6523 113.281 87.7461C113.281 87.1016 113.229 86.6055 113.123 86.2578C113.021 85.9062 112.869 85.623 112.666 85.4082C112.467 85.1934 112.205 85.043 111.881 84.957C111.631 84.8945 111.133 84.8633 110.387 84.8633H109.602ZM116.152 88.8008C116.152 88.2539 116.287 87.7246 116.557 87.2129C116.826 86.7012 117.207 86.3105 117.699 86.041C118.195 85.7715 118.748 85.6367 119.357 85.6367C120.299 85.6367 121.07 85.9434 121.672 86.5566C122.273 87.166 122.574 87.9375 122.574 88.8711C122.574 89.8125 122.27 90.5938 121.66 91.2148C121.055 91.832 120.291 92.1406 119.369 92.1406C118.799 92.1406 118.254 92.0117 117.734 91.7539C117.219 91.4961 116.826 91.1191 116.557 90.623C116.287 90.123 116.152 89.5156 116.152 88.8008ZM117.84 88.8887C117.84 89.5059 117.986 89.9785 118.279 90.3066C118.572 90.6348 118.934 90.7988 119.363 90.7988C119.793 90.7988 120.152 90.6348 120.441 90.3066C120.734 89.9785 120.881 89.502 120.881 88.877C120.881 88.2676 120.734 87.7988 120.441 87.4707C120.152 87.1426 119.793 86.9785 119.363 86.9785C118.934 86.9785 118.572 87.1426 118.279 87.4707C117.986 87.7988 117.84 88.2715 117.84 88.8887ZM117.377 84.9922L118.607 83.2637H120.131L121.344 84.9922H120.02L119.34 84.1191L118.707 84.9922H117.377ZM120.148 82.9473H119.111L117.494 81.2949H119.34L120.148 82.9473ZM130.062 85.7773V87.0898H128.938V89.5977C128.938 90.1055 128.947 90.4023 128.967 90.4883C128.99 90.5703 129.039 90.6387 129.113 90.6934C129.191 90.748 129.285 90.7754 129.395 90.7754C129.547 90.7754 129.768 90.7227 130.057 90.6172L130.197 91.8945C129.814 92.0586 129.381 92.1406 128.896 92.1406C128.6 92.1406 128.332 92.0918 128.094 91.9941C127.855 91.8926 127.68 91.7637 127.566 91.6074C127.457 91.4473 127.381 91.2324 127.338 90.9629C127.303 90.7715 127.285 90.3848 127.285 89.8027V87.0898H126.529V85.7773H127.285V84.541L128.938 83.5801V85.7773H130.062ZM132.846 83.4102V86.5684C133.377 85.9473 134.012 85.6367 134.75 85.6367C135.129 85.6367 135.471 85.707 135.775 85.8477C136.08 85.9883 136.309 86.168 136.461 86.3867C136.617 86.6055 136.723 86.8477 136.777 87.1133C136.836 87.3789 136.865 87.791 136.865 88.3496V92H135.219V88.7129C135.219 88.0605 135.188 87.6465 135.125 87.4707C135.062 87.2949 134.951 87.1562 134.791 87.0547C134.635 86.9492 134.438 86.8965 134.199 86.8965C133.926 86.8965 133.682 86.9629 133.467 87.0957C133.252 87.2285 133.094 87.4297 132.992 87.6992C132.895 87.9648 132.846 88.3594 132.846 88.8828V92H131.199V83.4102H132.846ZM138.541 84.9336V83.4102H140.188V84.9336H138.541ZM138.541 92V85.7773H140.188V92H138.541ZM138.547 94.3496V92.7031H140.193V94.3496H138.547ZM150.928 92H149.398V91.0859C149.145 91.4414 148.844 91.707 148.496 91.8828C148.152 92.0547 147.805 92.1406 147.453 92.1406C146.738 92.1406 146.125 91.8535 145.613 91.2793C145.105 90.7012 144.852 89.8965 144.852 88.8652C144.852 87.8105 145.1 87.0098 145.596 86.4629C146.092 85.9121 146.719 85.6367 147.477 85.6367C148.172 85.6367 148.773 85.9258 149.281 86.5039V83.4102H150.928V92ZM146.533 88.7539C146.533 89.418 146.625 89.8984 146.809 90.1953C147.074 90.625 147.445 90.8398 147.922 90.8398C148.301 90.8398 148.623 90.6797 148.889 90.3594C149.154 90.0352 149.287 89.5527 149.287 88.9121C149.287 88.1973 149.158 87.6836 148.9 87.3711C148.643 87.0547 148.312 86.8965 147.91 86.8965C147.52 86.8965 147.191 87.0527 146.926 87.3652C146.664 87.6738 146.533 88.1367 146.533 88.7539ZM153.787 87.6758L152.293 87.4062C152.461 86.8047 152.75 86.3594 153.16 86.0703C153.57 85.7812 154.18 85.6367 154.988 85.6367C155.723 85.6367 156.27 85.7246 156.629 85.9004C156.988 86.0723 157.24 86.293 157.385 86.5625C157.533 86.8281 157.607 87.3184 157.607 88.0332L157.59 89.9551C157.59 90.502 157.615 90.9062 157.666 91.168C157.721 91.4258 157.82 91.7031 157.965 92H156.336C156.293 91.8906 156.24 91.7285 156.178 91.5137C156.15 91.416 156.131 91.3516 156.119 91.3203C155.838 91.5938 155.537 91.7988 155.217 91.9355C154.896 92.0723 154.555 92.1406 154.191 92.1406C153.551 92.1406 153.045 91.9668 152.674 91.6191C152.307 91.2715 152.123 90.832 152.123 90.3008C152.123 89.9492 152.207 89.6367 152.375 89.3633C152.543 89.0859 152.777 88.875 153.078 88.7305C153.383 88.582 153.82 88.4531 154.391 88.3438C155.16 88.1992 155.693 88.0645 155.99 87.9395V87.7754C155.99 87.459 155.912 87.2344 155.756 87.1016C155.6 86.9648 155.305 86.8965 154.871 86.8965C154.578 86.8965 154.35 86.9551 154.186 87.0723C154.021 87.1855 153.889 87.3867 153.787 87.6758ZM155.99 89.0117C155.779 89.082 155.445 89.166 154.988 89.2637C154.531 89.3613 154.232 89.457 154.092 89.5508C153.877 89.7031 153.77 89.8965 153.77 90.1309C153.77 90.3613 153.855 90.5605 154.027 90.7285C154.199 90.8965 154.418 90.9805 154.684 90.9805C154.98 90.9805 155.264 90.8828 155.533 90.6875C155.732 90.5391 155.863 90.3574 155.926 90.1426C155.969 90.002 155.99 89.7344 155.99 89.3398V89.0117ZM153.969 94.3496V92.7031H155.615V94.3496H153.969ZM164.896 92H163.25V88.8242C163.25 88.1523 163.215 87.7188 163.145 87.5234C163.074 87.3242 162.959 87.1699 162.799 87.0605C162.643 86.9512 162.453 86.8965 162.23 86.8965C161.945 86.8965 161.689 86.9746 161.463 87.1309C161.236 87.2871 161.08 87.4941 160.994 87.752C160.912 88.0098 160.871 88.4863 160.871 89.1816V92H159.225V85.7773H160.754V86.6914C161.297 85.9883 161.98 85.6367 162.805 85.6367C163.168 85.6367 163.5 85.7031 163.801 85.8359C164.102 85.9648 164.328 86.1309 164.48 86.334C164.637 86.5371 164.744 86.7676 164.803 87.0254C164.865 87.2832 164.896 87.6523 164.896 88.1328V92ZM166.42 92.4102L168.301 92.6387C168.332 92.8574 168.404 93.0078 168.518 93.0898C168.674 93.207 168.92 93.2656 169.256 93.2656C169.686 93.2656 170.008 93.2012 170.223 93.0723C170.367 92.9863 170.477 92.8477 170.551 92.6562C170.602 92.5195 170.627 92.2676 170.627 91.9004V90.9922C170.135 91.6641 169.514 92 168.764 92C167.928 92 167.266 91.6465 166.777 90.9395C166.395 90.3809 166.203 89.6855 166.203 88.8535C166.203 87.8105 166.453 87.0137 166.953 86.4629C167.457 85.9121 168.082 85.6367 168.828 85.6367C169.598 85.6367 170.232 85.9746 170.732 86.6504V85.7773H172.273V91.3613C172.273 92.0957 172.213 92.6445 172.092 93.0078C171.971 93.3711 171.801 93.6562 171.582 93.8633C171.363 94.0703 171.07 94.2324 170.703 94.3496C170.34 94.4668 169.879 94.5254 169.32 94.5254C168.266 94.5254 167.518 94.3438 167.076 93.9805C166.635 93.6211 166.414 93.1641 166.414 92.6094C166.414 92.5547 166.416 92.4883 166.42 92.4102ZM167.891 88.7598C167.891 89.4199 168.018 89.9043 168.271 90.2129C168.529 90.5176 168.846 90.6699 169.221 90.6699C169.623 90.6699 169.963 90.5137 170.24 90.2012C170.518 89.8848 170.656 89.418 170.656 88.8008C170.656 88.1562 170.523 87.6777 170.258 87.3652C169.992 87.0527 169.656 86.8965 169.25 86.8965C168.855 86.8965 168.529 87.0508 168.271 87.3594C168.018 87.6641 167.891 88.1309 167.891 88.7598ZM181.309 85.1152H179.533V84.0195H181.309V83.4102H182.955V84.0195H183.605V85.1152H182.955V92H181.426V91.0859C181.172 91.4414 180.871 91.707 180.523 91.8828C180.18 92.0547 179.832 92.1406 179.48 92.1406C178.766 92.1406 178.152 91.8535 177.641 91.2793C177.133 90.7012 176.879 89.8965 176.879 88.8652C176.879 87.8105 177.127 87.0098 177.623 86.4629C178.119 85.9121 178.746 85.6367 179.504 85.6367C180.199 85.6367 180.801 85.9258 181.309 86.5039V85.1152ZM178.561 88.7539C178.561 89.418 178.652 89.8984 178.836 90.1953C179.102 90.625 179.473 90.8398 179.949 90.8398C180.328 90.8398 180.65 90.6797 180.916 90.3594C181.182 90.0352 181.314 89.5527 181.314 88.9121C181.314 88.1973 181.186 87.6836 180.928 87.3711C180.67 87.0547 180.34 86.8965 179.938 86.8965C179.547 86.8965 179.219 87.0527 178.953 87.3652C178.691 87.6738 178.561 88.1367 178.561 88.7539ZM190.766 85.7773H192.412V86.9551C192.412 87.4395 192.369 87.8184 192.283 88.0918C192.201 88.3652 192.047 88.6094 191.82 88.8242C191.473 89.1602 190.936 89.3867 190.209 89.5039V92H188.68V91.0684C188.191 91.7832 187.504 92.1406 186.617 92.1406C185.699 92.1406 185.084 91.791 184.771 91.0918C184.623 90.7598 184.549 90.3008 184.549 89.7148V85.7773H186.195V88.6367C186.195 89.457 186.227 89.9922 186.289 90.2422C186.332 90.4297 186.441 90.5859 186.617 90.7109C186.777 90.8281 186.98 90.8867 187.227 90.8867C187.504 90.8867 187.754 90.8105 187.977 90.6582C188.203 90.5059 188.357 90.3145 188.439 90.084C188.521 89.8535 188.562 89.293 188.562 88.4023V85.7773H190.209V88.8359C190.752 88.7266 191.133 88.5234 191.352 88.2266C191.484 88.0469 191.555 87.7793 191.562 87.4238H190.766V85.7773ZM194.586 88.8887C194.586 89.4863 194.732 89.959 195.025 90.3066C195.303 90.6348 195.664 90.7988 196.109 90.7988C196.555 90.7988 196.914 90.6348 197.188 90.3066C197.48 89.959 197.627 89.4824 197.627 88.877C197.627 88.2832 197.48 87.8145 197.188 87.4707C196.914 87.1426 196.555 86.9785 196.109 86.9785C195.664 86.9785 195.303 87.1426 195.025 87.4707C194.732 87.8184 194.586 88.291 194.586 88.8887ZM199.303 85.7773H200.949V86.9551C200.949 87.4395 200.906 87.8184 200.82 88.0918C200.738 88.3652 200.584 88.6094 200.357 88.8242C200.096 89.0781 199.738 89.2773 199.285 89.4219C199.188 90.1211 198.896 90.7168 198.412 91.209C197.803 91.8301 197.037 92.1406 196.115 92.1406C195.525 92.1406 194.982 92.0117 194.486 91.7539C193.959 91.4805 193.562 91.0996 193.297 90.6113C193.031 90.1191 192.898 89.5156 192.898 88.8008C192.898 88.2383 193.033 87.709 193.303 87.2129C193.584 86.6934 193.969 86.3008 194.457 86.0352C194.945 85.7695 195.494 85.6367 196.104 85.6367C197.045 85.6367 197.816 85.9414 198.418 86.5508C198.961 87.1055 199.26 87.791 199.314 88.6074C199.822 88.4004 200.084 88.0059 200.1 87.4238H199.303V85.7773ZM196.936 85.0156H195.898L194.281 83.2637H196.127L196.936 85.0156ZM207.471 92H205.824V88.8242C205.824 88.1523 205.789 87.7188 205.719 87.5234C205.648 87.3242 205.533 87.1699 205.373 87.0605C205.217 86.9512 205.027 86.8965 204.805 86.8965C204.52 86.8965 204.264 86.9746 204.037 87.1309C203.811 87.2871 203.654 87.4941 203.568 87.752C203.486 88.0098 203.445 88.4863 203.445 89.1816V92H201.799V85.7773H203.328V86.6914C203.871 85.9883 204.555 85.6367 205.379 85.6367C205.742 85.6367 206.074 85.7031 206.375 85.8359C206.676 85.9648 206.902 86.1309 207.055 86.334C207.211 86.5371 207.318 86.7676 207.377 87.0254C207.439 87.2832 207.471 87.6523 207.471 88.1328V92ZM208.994 92.4102L210.875 92.6387C210.906 92.8574 210.979 93.0078 211.092 93.0898C211.248 93.207 211.494 93.2656 211.83 93.2656C212.26 93.2656 212.582 93.2012 212.797 93.0723C212.941 92.9863 213.051 92.8477 213.125 92.6562C213.176 92.5195 213.201 92.2676 213.201 91.9004V90.9922C212.709 91.6641 212.088 92 211.338 92C210.502 92 209.84 91.6465 209.352 90.9395C208.969 90.3809 208.777 89.6855 208.777 88.8535C208.777 87.8105 209.027 87.0137 209.527 86.4629C210.031 85.9121 210.656 85.6367 211.402 85.6367C212.172 85.6367 212.807 85.9746 213.307 86.6504V85.7773H214.848V91.3613C214.848 92.0957 214.787 92.6445 214.666 93.0078C214.545 93.3711 214.375 93.6562 214.156 93.8633C213.938 94.0703 213.645 94.2324 213.277 94.3496C212.914 94.4668 212.453 94.5254 211.895 94.5254C210.84 94.5254 210.092 94.3438 209.65 93.9805C209.209 93.6211 208.988 93.1641 208.988 92.6094C208.988 92.5547 208.99 92.4883 208.994 92.4102ZM210.465 88.7598C210.465 89.4199 210.592 89.9043 210.846 90.2129C211.104 90.5176 211.42 90.6699 211.795 90.6699C212.197 90.6699 212.537 90.5137 212.814 90.2012C213.092 89.8848 213.23 89.418 213.23 88.8008C213.23 88.1562 213.098 87.6777 212.832 87.3652C212.566 87.0527 212.23 86.8965 211.824 86.8965C211.43 86.8965 211.104 87.0508 210.846 87.3594C210.592 87.6641 210.465 88.1309 210.465 88.7598ZM216.441 90.3535H218.088V91.5312C218.088 92.0078 218.047 92.3828 217.965 92.6562C217.883 92.9336 217.727 93.1816 217.496 93.4004C217.27 93.6191 216.98 93.791 216.629 93.916L216.307 93.2363C216.639 93.127 216.875 92.9766 217.016 92.7852C217.156 92.5938 217.23 92.332 217.238 92H216.441V90.3535ZM223.039 85.7773H224.557V86.627C225.1 85.9668 225.746 85.6367 226.496 85.6367C226.895 85.6367 227.24 85.7188 227.533 85.8828C227.826 86.0469 228.066 86.2949 228.254 86.627C228.527 86.2949 228.822 86.0469 229.139 85.8828C229.455 85.7188 229.793 85.6367 230.152 85.6367C230.609 85.6367 230.996 85.7305 231.312 85.918C231.629 86.1016 231.865 86.373 232.021 86.7324C232.135 86.998 232.191 87.4277 232.191 88.0215V92H230.545V88.4434C230.545 87.8262 230.488 87.4277 230.375 87.248C230.223 87.0137 229.988 86.8965 229.672 86.8965C229.441 86.8965 229.225 86.9668 229.021 87.1074C228.818 87.248 228.672 87.4551 228.582 87.7285C228.492 87.998 228.447 88.4258 228.447 89.0117V92H226.801V88.5898C226.801 87.9844 226.771 87.5938 226.713 87.418C226.654 87.2422 226.562 87.1113 226.438 87.0254C226.316 86.9395 226.15 86.8965 225.939 86.8965C225.686 86.8965 225.457 86.9648 225.254 87.1016C225.051 87.2383 224.904 87.4355 224.814 87.6934C224.729 87.9512 224.686 88.3789 224.686 88.9766V92H223.039V85.7773ZM233.457 88.8008C233.457 88.2539 233.592 87.7246 233.861 87.2129C234.131 86.7012 234.512 86.3105 235.004 86.041C235.5 85.7715 236.053 85.6367 236.662 85.6367C237.604 85.6367 238.375 85.9434 238.977 86.5566C239.578 87.166 239.879 87.9375 239.879 88.8711C239.879 89.8125 239.574 90.5938 238.965 91.2148C238.359 91.832 237.596 92.1406 236.674 92.1406C236.104 92.1406 235.559 92.0117 235.039 91.7539C234.523 91.4961 234.131 91.1191 233.861 90.623C233.592 90.123 233.457 89.5156 233.457 88.8008ZM235.145 88.8887C235.145 89.5059 235.291 89.9785 235.584 90.3066C235.877 90.6348 236.238 90.7988 236.668 90.7988C237.098 90.7988 237.457 90.6348 237.746 90.3066C238.039 89.9785 238.186 89.502 238.186 88.877C238.186 88.2676 238.039 87.7988 237.746 87.4707C237.457 87.1426 237.098 86.9785 236.668 86.9785C236.238 86.9785 235.877 87.1426 235.584 87.4707C235.291 87.7988 235.145 88.2715 235.145 88.8887ZM234.682 84.9922L235.912 83.2637H237.436L238.648 84.9922H237.324L236.645 84.1191L236.012 84.9922H234.682ZM234.67 82.9355C234.666 82.5371 234.773 82.2148 234.992 81.9688C235.215 81.7227 235.504 81.5996 235.859 81.5996C236.102 81.5996 236.432 81.7051 236.85 81.916C237.08 82.0332 237.264 82.0918 237.4 82.0918C237.639 82.0918 237.781 81.9219 237.828 81.582H238.59C238.566 82.4727 238.184 82.918 237.441 82.918C237.195 82.918 236.871 82.8086 236.469 82.5898C236.207 82.4492 236.016 82.3789 235.895 82.3789C235.59 82.3789 235.441 82.5645 235.449 82.9355H234.67ZM241.174 84.9336V83.4102H242.82V84.9336H241.174ZM241.174 92V85.7773H242.82V92H241.174ZM253.279 87.6172L251.656 87.9102C251.602 87.5859 251.477 87.3418 251.281 87.1777C251.09 87.0137 250.84 86.9316 250.531 86.9316C250.121 86.9316 249.793 87.0742 249.547 87.3594C249.305 87.6406 249.184 88.1133 249.184 88.7773C249.184 89.5156 249.307 90.0371 249.553 90.3418C249.803 90.6465 250.137 90.7988 250.555 90.7988C250.867 90.7988 251.123 90.7109 251.322 90.5352C251.521 90.3555 251.662 90.0488 251.744 89.6152L253.361 89.8906C253.193 90.6328 252.871 91.1934 252.395 91.5723C251.918 91.9512 251.279 92.1406 250.479 92.1406C249.568 92.1406 248.842 91.8535 248.299 91.2793C247.76 90.7051 247.49 89.9102 247.49 88.8945C247.49 87.8672 247.762 87.0684 248.305 86.498C248.848 85.9238 249.582 85.6367 250.508 85.6367C251.266 85.6367 251.867 85.8008 252.312 86.1289C252.762 86.4531 253.084 86.9492 253.279 87.6172ZM256.174 83.4102V86.5684C256.705 85.9473 257.34 85.6367 258.078 85.6367C258.457 85.6367 258.799 85.707 259.104 85.8477C259.408 85.9883 259.637 86.168 259.789 86.3867C259.945 86.6055 260.051 86.8477 260.105 87.1133C260.164 87.3789 260.193 87.791 260.193 88.3496V92H258.547V88.7129C258.547 88.0605 258.516 87.6465 258.453 87.4707C258.391 87.2949 258.279 87.1562 258.119 87.0547C257.963 86.9492 257.766 86.8965 257.527 86.8965C257.254 86.8965 257.01 86.9629 256.795 87.0957C256.58 87.2285 256.422 87.4297 256.32 87.6992C256.223 87.9648 256.174 88.3594 256.174 88.8828V92H254.527V83.4102H256.174ZM261.869 92V85.7773H263.516V92H261.869ZM262.367 84.3711C262.59 84.3477 262.732 84.3262 262.795 84.3066C263.002 84.2559 263.107 84.166 263.111 84.0371C263.115 83.9473 263.061 83.8711 262.947 83.8086C262.783 83.7188 262.523 83.6738 262.168 83.6738C262.047 83.6738 261.863 83.6816 261.617 83.6973L261.553 83.0996C261.705 83.0684 261.986 83.0547 262.396 83.0586C262.877 83.0625 263.27 83.1406 263.574 83.293C263.91 83.457 264.082 83.6855 264.09 83.9785C264.105 84.3848 263.75 84.6328 263.023 84.7227V85.0156H262.367V84.3711ZM271.402 85.7773V87.0898H270.277V89.5977C270.277 90.1055 270.287 90.4023 270.307 90.4883C270.33 90.5703 270.379 90.6387 270.453 90.6934C270.531 90.748 270.625 90.7754 270.734 90.7754C270.887 90.7754 271.107 90.7227 271.396 90.6172L271.537 91.8945C271.154 92.0586 270.721 92.1406 270.236 92.1406C269.939 92.1406 269.672 92.0918 269.434 91.9941C269.195 91.8926 269.02 91.7637 268.906 91.6074C268.797 91.4473 268.721 91.2324 268.678 90.9629C268.643 90.7715 268.625 90.3848 268.625 89.8027V87.0898H267.869V85.7773H268.625V84.541L270.277 83.5801V85.7773H271.402ZM272.545 84.9336V83.4102H274.191V84.9336H272.545ZM272.545 92V85.7773H274.191V92H272.545ZM279.488 90.0195L281.129 90.2949C280.918 90.8965 280.584 91.3555 280.127 91.6719C279.674 91.9844 279.105 92.1406 278.422 92.1406C277.34 92.1406 276.539 91.7871 276.02 91.0801C275.609 90.5137 275.404 89.7988 275.404 88.9355C275.404 87.9043 275.674 87.0977 276.213 86.5156C276.752 85.9297 277.434 85.6367 278.258 85.6367C279.184 85.6367 279.914 85.9434 280.449 86.5566C280.984 87.166 281.24 88.1016 281.217 89.3633H277.092C277.104 89.8516 277.236 90.2324 277.49 90.5059C277.744 90.7754 278.061 90.9102 278.439 90.9102C278.697 90.9102 278.914 90.8398 279.09 90.6992C279.266 90.5586 279.398 90.332 279.488 90.0195ZM279.582 88.3555C279.57 87.8789 279.447 87.5176 279.213 87.2715C278.979 87.0215 278.693 86.8965 278.357 86.8965C277.998 86.8965 277.701 87.0273 277.467 87.2891C277.232 87.5508 277.117 87.9062 277.121 88.3555H279.582ZM276.33 84.9922L277.561 83.2637H279.084L280.297 84.9922H278.973L278.293 84.1191L277.66 84.9922H276.33ZM286.66 92V91.0684C286.434 91.4004 286.135 91.6621 285.764 91.8535C285.396 92.0449 285.008 92.1406 284.598 92.1406C284.18 92.1406 283.805 92.0488 283.473 91.8652C283.141 91.6816 282.9 91.4238 282.752 91.0918C282.604 90.7598 282.529 90.3008 282.529 89.7148V85.7773H284.176V88.6367C284.176 89.5117 284.205 90.0488 284.264 90.248C284.326 90.4434 284.438 90.5996 284.598 90.7168C284.758 90.8301 284.961 90.8867 285.207 90.8867C285.488 90.8867 285.74 90.8105 285.963 90.6582C286.186 90.502 286.338 90.3105 286.42 90.084C286.502 89.8535 286.543 89.293 286.543 88.4023V85.7773H288.189V92H286.66ZM294.547 88.8887C294.547 89.4863 294.693 89.959 294.986 90.3066C295.264 90.6348 295.625 90.7988 296.07 90.7988C296.516 90.7988 296.875 90.6348 297.148 90.3066C297.441 89.959 297.588 89.4824 297.588 88.877C297.588 88.2832 297.441 87.8145 297.148 87.4707C296.875 87.1426 296.516 86.9785 296.07 86.9785C295.625 86.9785 295.264 87.1426 294.986 87.4707C294.693 87.8184 294.547 88.291 294.547 88.8887ZM299.264 85.7773H300.91V86.9551C300.91 87.4395 300.867 87.8184 300.781 88.0918C300.699 88.3652 300.545 88.6094 300.318 88.8242C300.057 89.0781 299.699 89.2773 299.246 89.4219C299.148 90.1211 298.857 90.7168 298.373 91.209C297.764 91.8301 296.998 92.1406 296.076 92.1406C295.486 92.1406 294.943 92.0117 294.447 91.7539C293.92 91.4805 293.523 91.0996 293.258 90.6113C292.992 90.1191 292.859 89.5156 292.859 88.8008C292.859 88.2383 292.994 87.709 293.264 87.2129C293.545 86.6934 293.93 86.3008 294.418 86.0352C294.906 85.7695 295.455 85.6367 296.064 85.6367C297.006 85.6367 297.777 85.9414 298.379 86.5508C298.922 87.1055 299.221 87.791 299.275 88.6074C299.783 88.4004 300.045 88.0059 300.061 87.4238H299.264V85.7773ZM295.736 84.3711C295.959 84.3477 296.102 84.3262 296.164 84.3066C296.371 84.2559 296.477 84.166 296.48 84.0371C296.484 83.9473 296.43 83.8711 296.316 83.8086C296.152 83.7188 295.893 83.6738 295.537 83.6738C295.416 83.6738 295.232 83.6816 294.986 83.6973L294.922 83.0996C295.074 83.0684 295.355 83.0547 295.766 83.0586C296.246 83.0625 296.639 83.1406 296.943 83.293C297.279 83.457 297.451 83.6855 297.459 83.9785C297.475 84.3848 297.119 84.6328 296.393 84.7227V85.0156H295.736V84.3711ZM306.752 83.4102V86.5684C307.283 85.9473 307.918 85.6367 308.656 85.6367C309.035 85.6367 309.377 85.707 309.682 85.8477C309.986 85.9883 310.215 86.168 310.367 86.3867C310.523 86.6055 310.629 86.8477 310.684 87.1133C310.742 87.3789 310.771 87.791 310.771 88.3496V92H309.125V88.7129C309.125 88.0605 309.094 87.6465 309.031 87.4707C308.969 87.2949 308.857 87.1562 308.697 87.0547C308.541 86.9492 308.344 86.8965 308.105 86.8965C307.832 86.8965 307.588 86.9629 307.373 87.0957C307.158 87.2285 307 87.4297 306.898 87.6992C306.801 87.9648 306.752 88.3594 306.752 88.8828V92H305.105V83.4102H306.752ZM313.678 87.6758L312.184 87.4062C312.352 86.8047 312.641 86.3594 313.051 86.0703C313.461 85.7812 314.07 85.6367 314.879 85.6367C315.613 85.6367 316.16 85.7246 316.52 85.9004C316.879 86.0723 317.131 86.293 317.275 86.5625C317.424 86.8281 317.498 87.3184 317.498 88.0332L317.48 89.9551C317.48 90.502 317.506 90.9062 317.557 91.168C317.611 91.4258 317.711 91.7031 317.855 92H316.227C316.184 91.8906 316.131 91.7285 316.068 91.5137C316.041 91.416 316.021 91.3516 316.01 91.3203C315.729 91.5938 315.428 91.7988 315.107 91.9355C314.787 92.0723 314.445 92.1406 314.082 92.1406C313.441 92.1406 312.936 91.9668 312.564 91.6191C312.197 91.2715 312.014 90.832 312.014 90.3008C312.014 89.9492 312.098 89.6367 312.266 89.3633C312.434 89.0859 312.668 88.875 312.969 88.7305C313.273 88.582 313.711 88.4531 314.281 88.3438C315.051 88.1992 315.584 88.0645 315.881 87.9395V87.7754C315.881 87.459 315.803 87.2344 315.646 87.1016C315.49 86.9648 315.195 86.8965 314.762 86.8965C314.469 86.8965 314.24 86.9551 314.076 87.0723C313.912 87.1855 313.779 87.3867 313.678 87.6758ZM315.881 89.0117C315.67 89.082 315.336 89.166 314.879 89.2637C314.422 89.3613 314.123 89.457 313.982 89.5508C313.768 89.7031 313.66 89.8965 313.66 90.1309C313.66 90.3613 313.746 90.5605 313.918 90.7285C314.09 90.8965 314.309 90.9805 314.574 90.9805C314.871 90.9805 315.154 90.8828 315.424 90.6875C315.623 90.5391 315.754 90.3574 315.816 90.1426C315.859 90.002 315.881 89.7344 315.881 89.3398V89.0117ZM315.764 85.0156H314.727L313.109 83.2637H314.955L315.764 85.0156ZM324.787 92H323.141V88.8242C323.141 88.1523 323.105 87.7188 323.035 87.5234C322.965 87.3242 322.85 87.1699 322.689 87.0605C322.533 86.9512 322.344 86.8965 322.121 86.8965C321.836 86.8965 321.58 86.9746 321.354 87.1309C321.127 87.2871 320.971 87.4941 320.885 87.752C320.803 88.0098 320.762 88.4863 320.762 89.1816V92H319.115V85.7773H320.645V86.6914C321.188 85.9883 321.871 85.6367 322.695 85.6367C323.059 85.6367 323.391 85.7031 323.691 85.8359C323.992 85.9648 324.219 86.1309 324.371 86.334C324.527 86.5371 324.635 86.7676 324.693 87.0254C324.756 87.2832 324.787 87.6523 324.787 88.1328V92ZM326.311 92.4102L328.191 92.6387C328.223 92.8574 328.295 93.0078 328.408 93.0898C328.564 93.207 328.811 93.2656 329.146 93.2656C329.576 93.2656 329.898 93.2012 330.113 93.0723C330.258 92.9863 330.367 92.8477 330.441 92.6562C330.492 92.5195 330.518 92.2676 330.518 91.9004V90.9922C330.025 91.6641 329.404 92 328.654 92C327.818 92 327.156 91.6465 326.668 90.9395C326.285 90.3809 326.094 89.6855 326.094 88.8535C326.094 87.8105 326.344 87.0137 326.844 86.4629C327.348 85.9121 327.973 85.6367 328.719 85.6367C329.488 85.6367 330.123 85.9746 330.623 86.6504V85.7773H332.164V91.3613C332.164 92.0957 332.104 92.6445 331.982 93.0078C331.861 93.3711 331.691 93.6562 331.473 93.8633C331.254 94.0703 330.961 94.2324 330.594 94.3496C330.23 94.4668 329.77 94.5254 329.211 94.5254C328.156 94.5254 327.408 94.3438 326.967 93.9805C326.525 93.6211 326.305 93.1641 326.305 92.6094C326.305 92.5547 326.307 92.4883 326.311 92.4102ZM327.781 88.7598C327.781 89.4199 327.908 89.9043 328.162 90.2129C328.42 90.5176 328.736 90.6699 329.111 90.6699C329.514 90.6699 329.854 90.5137 330.131 90.2012C330.408 89.8848 330.547 89.418 330.547 88.8008C330.547 88.1562 330.414 87.6777 330.148 87.3652C329.883 87.0527 329.547 86.8965 329.141 86.8965C328.746 86.8965 328.42 87.0508 328.162 87.3594C327.908 87.6641 327.781 88.1309 327.781 88.7598ZM342.799 92H341.152V88.8242C341.152 88.1523 341.117 87.7188 341.047 87.5234C340.977 87.3242 340.861 87.1699 340.701 87.0605C340.545 86.9512 340.355 86.8965 340.133 86.8965C339.848 86.8965 339.592 86.9746 339.365 87.1309C339.139 87.2871 338.982 87.4941 338.896 87.752C338.814 88.0098 338.773 88.4863 338.773 89.1816V92H337.127V85.7773H338.656V86.6914C339.199 85.9883 339.883 85.6367 340.707 85.6367C341.07 85.6367 341.402 85.7031 341.703 85.8359C342.004 85.9648 342.23 86.1309 342.383 86.334C342.539 86.5371 342.646 86.7676 342.705 87.0254C342.768 87.2832 342.799 87.6523 342.799 88.1328V92ZM344.322 92.4102L346.203 92.6387C346.234 92.8574 346.307 93.0078 346.42 93.0898C346.576 93.207 346.822 93.2656 347.158 93.2656C347.588 93.2656 347.91 93.2012 348.125 93.0723C348.27 92.9863 348.379 92.8477 348.453 92.6562C348.504 92.5195 348.529 92.2676 348.529 91.9004V90.9922C348.037 91.6641 347.416 92 346.666 92C345.83 92 345.168 91.6465 344.68 90.9395C344.297 90.3809 344.105 89.6855 344.105 88.8535C344.105 87.8105 344.355 87.0137 344.855 86.4629C345.359 85.9121 345.984 85.6367 346.73 85.6367C347.5 85.6367 348.135 85.9746 348.635 86.6504V85.7773H350.176V91.3613C350.176 92.0957 350.115 92.6445 349.994 93.0078C349.873 93.3711 349.703 93.6562 349.484 93.8633C349.266 94.0703 348.973 94.2324 348.605 94.3496C348.242 94.4668 347.781 94.5254 347.223 94.5254C346.168 94.5254 345.42 94.3438 344.979 93.9805C344.537 93.6211 344.316 93.1641 344.316 92.6094C344.316 92.5547 344.318 92.4883 344.322 92.4102ZM345.793 88.7598C345.793 89.4199 345.92 89.9043 346.174 90.2129C346.432 90.5176 346.748 90.6699 347.123 90.6699C347.525 90.6699 347.865 90.5137 348.143 90.2012C348.42 89.8848 348.559 89.418 348.559 88.8008C348.559 88.1562 348.426 87.6777 348.16 87.3652C347.895 87.0527 347.559 86.8965 347.152 86.8965C346.758 86.8965 346.432 87.0508 346.174 87.3594C345.92 87.6641 345.793 88.1309 345.793 88.7598ZM353.041 87.6758L351.547 87.4062C351.715 86.8047 352.004 86.3594 352.414 86.0703C352.824 85.7812 353.434 85.6367 354.242 85.6367C354.977 85.6367 355.523 85.7246 355.883 85.9004C356.242 86.0723 356.494 86.293 356.639 86.5625C356.787 86.8281 356.861 87.3184 356.861 88.0332L356.844 89.9551C356.844 90.502 356.869 90.9062 356.92 91.168C356.975 91.4258 357.074 91.7031 357.219 92H355.59C355.547 91.8906 355.494 91.7285 355.432 91.5137C355.404 91.416 355.385 91.3516 355.373 91.3203C355.092 91.5938 354.791 91.7988 354.471 91.9355C354.15 92.0723 353.809 92.1406 353.445 92.1406C352.805 92.1406 352.299 91.9668 351.928 91.6191C351.561 91.2715 351.377 90.832 351.377 90.3008C351.377 89.9492 351.461 89.6367 351.629 89.3633C351.797 89.0859 352.031 88.875 352.332 88.7305C352.637 88.582 353.074 88.4531 353.645 88.3438C354.414 88.1992 354.947 88.0645 355.244 87.9395V87.7754C355.244 87.459 355.166 87.2344 355.01 87.1016C354.854 86.9648 354.559 86.8965 354.125 86.8965C353.832 86.8965 353.604 86.9551 353.439 87.0723C353.275 87.1855 353.143 87.3867 353.041 87.6758ZM355.244 89.0117C355.033 89.082 354.699 89.166 354.242 89.2637C353.785 89.3613 353.486 89.457 353.346 89.5508C353.131 89.7031 353.023 89.8965 353.023 90.1309C353.023 90.3613 353.109 90.5605 353.281 90.7285C353.453 90.8965 353.672 90.9805 353.938 90.9805C354.234 90.9805 354.518 90.8828 354.787 90.6875C354.986 90.5391 355.117 90.3574 355.18 90.1426C355.223 90.002 355.244 89.7344 355.244 89.3398V89.0117ZM364.15 92H362.504V88.8242C362.504 88.1523 362.469 87.7188 362.398 87.5234C362.328 87.3242 362.213 87.1699 362.053 87.0605C361.896 86.9512 361.707 86.8965 361.484 86.8965C361.199 86.8965 360.943 86.9746 360.717 87.1309C360.49 87.2871 360.334 87.4941 360.248 87.752C360.166 88.0098 360.125 88.4863 360.125 89.1816V92H358.479V85.7773H360.008V86.6914C360.551 85.9883 361.234 85.6367 362.059 85.6367C362.422 85.6367 362.754 85.7031 363.055 85.8359C363.355 85.9648 363.582 86.1309 363.734 86.334C363.891 86.5371 363.998 86.7676 364.057 87.0254C364.119 87.2832 364.15 87.6523 364.15 88.1328V92ZM365.674 92.4102L367.555 92.6387C367.586 92.8574 367.658 93.0078 367.771 93.0898C367.928 93.207 368.174 93.2656 368.51 93.2656C368.939 93.2656 369.262 93.2012 369.477 93.0723C369.621 92.9863 369.73 92.8477 369.805 92.6562C369.855 92.5195 369.881 92.2676 369.881 91.9004V90.9922C369.389 91.6641 368.768 92 368.018 92C367.182 92 366.52 91.6465 366.031 90.9395C365.648 90.3809 365.457 89.6855 365.457 88.8535C365.457 87.8105 365.707 87.0137 366.207 86.4629C366.711 85.9121 367.336 85.6367 368.082 85.6367C368.852 85.6367 369.486 85.9746 369.986 86.6504V85.7773H371.527V91.3613C371.527 92.0957 371.467 92.6445 371.346 93.0078C371.225 93.3711 371.055 93.6562 370.836 93.8633C370.617 94.0703 370.324 94.2324 369.957 94.3496C369.594 94.4668 369.133 94.5254 368.574 94.5254C367.52 94.5254 366.771 94.3438 366.33 93.9805C365.889 93.6211 365.668 93.1641 365.668 92.6094C365.668 92.5547 365.67 92.4883 365.674 92.4102ZM367.145 88.7598C367.145 89.4199 367.271 89.9043 367.525 90.2129C367.783 90.5176 368.1 90.6699 368.475 90.6699C368.877 90.6699 369.217 90.5137 369.494 90.2012C369.771 89.8848 369.91 89.418 369.91 88.8008C369.91 88.1562 369.777 87.6777 369.512 87.3652C369.246 87.0527 368.91 86.8965 368.504 86.8965C368.109 86.8965 367.783 87.0508 367.525 87.3594C367.271 87.6641 367.145 88.1309 367.145 88.7598ZM376.502 92V83.4102H378.148V92H376.502ZM381.072 87.6758L379.578 87.4062C379.746 86.8047 380.035 86.3594 380.445 86.0703C380.855 85.7812 381.465 85.6367 382.273 85.6367C383.008 85.6367 383.555 85.7246 383.914 85.9004C384.273 86.0723 384.525 86.293 384.67 86.5625C384.818 86.8281 384.893 87.3184 384.893 88.0332L384.875 89.9551C384.875 90.502 384.9 90.9062 384.951 91.168C385.006 91.4258 385.105 91.7031 385.25 92H383.621C383.578 91.8906 383.525 91.7285 383.463 91.5137C383.436 91.416 383.416 91.3516 383.404 91.3203C383.123 91.5938 382.822 91.7988 382.502 91.9355C382.182 92.0723 381.84 92.1406 381.477 92.1406C380.836 92.1406 380.33 91.9668 379.959 91.6191C379.592 91.2715 379.408 90.832 379.408 90.3008C379.408 89.9492 379.492 89.6367 379.66 89.3633C379.828 89.0859 380.062 88.875 380.363 88.7305C380.668 88.582 381.105 88.4531 381.676 88.3438C382.445 88.1992 382.979 88.0645 383.275 87.9395V87.7754C383.275 87.459 383.197 87.2344 383.041 87.1016C382.885 86.9648 382.59 86.8965 382.156 86.8965C381.863 86.8965 381.635 86.9551 381.471 87.0723C381.307 87.1855 381.174 87.3867 381.072 87.6758ZM383.275 89.0117C383.064 89.082 382.73 89.166 382.273 89.2637C381.816 89.3613 381.518 89.457 381.377 89.5508C381.162 89.7031 381.055 89.8965 381.055 90.1309C381.055 90.3613 381.141 90.5605 381.312 90.7285C381.484 90.8965 381.703 90.9805 381.969 90.9805C382.266 90.9805 382.549 90.8828 382.818 90.6875C383.018 90.5391 383.148 90.3574 383.211 90.1426C383.254 90.002 383.275 89.7344 383.275 89.3398V89.0117ZM383.158 85.0156H382.121L380.504 83.2637H382.35L383.158 85.0156ZM389.738 85.7773H391.256V86.627C391.799 85.9668 392.445 85.6367 393.195 85.6367C393.594 85.6367 393.939 85.7188 394.232 85.8828C394.525 86.0469 394.766 86.2949 394.953 86.627C395.227 86.2949 395.521 86.0469 395.838 85.8828C396.154 85.7188 396.492 85.6367 396.852 85.6367C397.309 85.6367 397.695 85.7305 398.012 85.918C398.328 86.1016 398.564 86.373 398.721 86.7324C398.834 86.998 398.891 87.4277 398.891 88.0215V92H397.244V88.4434C397.244 87.8262 397.188 87.4277 397.074 87.248C396.922 87.0137 396.688 86.8965 396.371 86.8965C396.141 86.8965 395.924 86.9668 395.721 87.1074C395.518 87.248 395.371 87.4551 395.281 87.7285C395.191 87.998 395.146 88.4258 395.146 89.0117V92H393.5V88.5898C393.5 87.9844 393.471 87.5938 393.412 87.418C393.354 87.2422 393.262 87.1113 393.137 87.0254C393.016 86.9395 392.85 86.8965 392.639 86.8965C392.385 86.8965 392.156 86.9648 391.953 87.1016C391.75 87.2383 391.604 87.4355 391.514 87.6934C391.428 87.9512 391.385 88.3789 391.385 88.9766V92H389.738V85.7773ZM400.156 88.8008C400.156 88.2539 400.291 87.7246 400.561 87.2129C400.83 86.7012 401.211 86.3105 401.703 86.041C402.199 85.7715 402.752 85.6367 403.361 85.6367C404.303 85.6367 405.074 85.9434 405.676 86.5566C406.277 87.166 406.578 87.9375 406.578 88.8711C406.578 89.8125 406.273 90.5938 405.664 91.2148C405.059 91.832 404.295 92.1406 403.373 92.1406C402.803 92.1406 402.258 92.0117 401.738 91.7539C401.223 91.4961 400.83 91.1191 400.561 90.623C400.291 90.123 400.156 89.5156 400.156 88.8008ZM401.844 88.8887C401.844 89.5059 401.99 89.9785 402.283 90.3066C402.576 90.6348 402.938 90.7988 403.367 90.7988C403.797 90.7988 404.156 90.6348 404.445 90.3066C404.738 89.9785 404.885 89.502 404.885 88.877C404.885 88.2676 404.738 87.7988 404.445 87.4707C404.156 87.1426 403.797 86.9785 403.367 86.9785C402.938 86.9785 402.576 87.1426 402.283 87.4707C401.99 87.7988 401.844 88.2715 401.844 88.8887ZM401.381 84.9922L402.611 83.2637H404.135L405.348 84.9922H404.023L403.344 84.1191L402.711 84.9922H401.381ZM402.477 94.3496V92.7031H404.123V94.3496H402.477ZM410.727 85.7773V87.0898H409.602V89.5977C409.602 90.1055 409.611 90.4023 409.631 90.4883C409.654 90.5703 409.703 90.6387 409.777 90.6934C409.855 90.748 409.949 90.7754 410.059 90.7754C410.211 90.7754 410.432 90.7227 410.721 90.6172L410.861 91.8945C410.479 92.0586 410.045 92.1406 409.561 92.1406C409.264 92.1406 408.996 92.0918 408.758 91.9941C408.52 91.8926 408.344 91.7637 408.23 91.6074C408.121 91.4473 408.045 91.2324 408.002 90.9629C407.967 90.7715 407.949 90.3848 407.949 89.8027V87.0898H407.193V85.7773H407.949V84.541L409.602 83.5801V85.7773H410.727ZM419.27 85.1152H417.494V84.0195H419.27V83.4102H420.916V84.0195H421.566V85.1152H420.916V92H419.387V91.0859C419.133 91.4414 418.832 91.707 418.484 91.8828C418.141 92.0547 417.793 92.1406 417.441 92.1406C416.727 92.1406 416.113 91.8535 415.602 91.2793C415.094 90.7012 414.84 89.8965 414.84 88.8652C414.84 87.8105 415.088 87.0098 415.584 86.4629C416.08 85.9121 416.707 85.6367 417.465 85.6367C418.16 85.6367 418.762 85.9258 419.27 86.5039V85.1152ZM416.521 88.7539C416.521 89.418 416.613 89.8984 416.797 90.1953C417.062 90.625 417.434 90.8398 417.91 90.8398C418.289 90.8398 418.611 90.6797 418.877 90.3594C419.143 90.0352 419.275 89.5527 419.275 88.9121C419.275 88.1973 419.146 87.6836 418.889 87.3711C418.631 87.0547 418.301 86.8965 417.898 86.8965C417.508 86.8965 417.18 87.0527 416.914 87.3652C416.652 87.6738 416.521 88.1367 416.521 88.7539ZM428.727 85.7773H430.373V86.9551C430.373 87.4395 430.33 87.8184 430.244 88.0918C430.162 88.3652 430.008 88.6094 429.781 88.8242C429.434 89.1602 428.896 89.3867 428.17 89.5039V92H426.641V91.0684C426.152 91.7832 425.465 92.1406 424.578 92.1406C423.66 92.1406 423.045 91.791 422.732 91.0918C422.584 90.7598 422.51 90.3008 422.51 89.7148V85.7773H424.156V88.6367C424.156 89.457 424.188 89.9922 424.25 90.2422C424.293 90.4297 424.402 90.5859 424.578 90.7109C424.738 90.8281 424.941 90.8867 425.188 90.8867C425.465 90.8867 425.715 90.8105 425.938 90.6582C426.164 90.5059 426.318 90.3145 426.4 90.084C426.482 89.8535 426.523 89.293 426.523 88.4023V85.7773H428.17V88.8359C428.713 88.7266 429.094 88.5234 429.312 88.2266C429.445 88.0469 429.516 87.7793 429.523 87.4238H428.727V85.7773ZM432.547 88.8887C432.547 89.4863 432.693 89.959 432.986 90.3066C433.264 90.6348 433.625 90.7988 434.07 90.7988C434.516 90.7988 434.875 90.6348 435.148 90.3066C435.441 89.959 435.588 89.4824 435.588 88.877C435.588 88.2832 435.441 87.8145 435.148 87.4707C434.875 87.1426 434.516 86.9785 434.07 86.9785C433.625 86.9785 433.264 87.1426 432.986 87.4707C432.693 87.8184 432.547 88.291 432.547 88.8887ZM437.264 85.7773H438.91V86.9551C438.91 87.4395 438.867 87.8184 438.781 88.0918C438.699 88.3652 438.545 88.6094 438.318 88.8242C438.057 89.0781 437.699 89.2773 437.246 89.4219C437.148 90.1211 436.857 90.7168 436.373 91.209C435.764 91.8301 434.998 92.1406 434.076 92.1406C433.486 92.1406 432.943 92.0117 432.447 91.7539C431.92 91.4805 431.523 91.0996 431.258 90.6113C430.992 90.1191 430.859 89.5156 430.859 88.8008C430.859 88.2383 430.994 87.709 431.264 87.2129C431.545 86.6934 431.93 86.3008 432.418 86.0352C432.906 85.7695 433.455 85.6367 434.064 85.6367C435.006 85.6367 435.777 85.9414 436.379 86.5508C436.922 87.1055 437.221 87.791 437.275 88.6074C437.783 88.4004 438.045 88.0059 438.061 87.4238H437.264V85.7773ZM434.896 85.0156H433.859L432.242 83.2637H434.088L434.896 85.0156ZM445.432 92H443.785V88.8242C443.785 88.1523 443.75 87.7188 443.68 87.5234C443.609 87.3242 443.494 87.1699 443.334 87.0605C443.178 86.9512 442.988 86.8965 442.766 86.8965C442.48 86.8965 442.225 86.9746 441.998 87.1309C441.771 87.2871 441.615 87.4941 441.529 87.752C441.447 88.0098 441.406 88.4863 441.406 89.1816V92H439.76V85.7773H441.289V86.6914C441.832 85.9883 442.516 85.6367 443.34 85.6367C443.703 85.6367 444.035 85.7031 444.336 85.8359C444.637 85.9648 444.863 86.1309 445.016 86.334C445.172 86.5371 445.279 86.7676 445.338 87.0254C445.4 87.2832 445.432 87.6523 445.432 88.1328V92ZM446.955 92.4102L448.836 92.6387C448.867 92.8574 448.939 93.0078 449.053 93.0898C449.209 93.207 449.455 93.2656 449.791 93.2656C450.221 93.2656 450.543 93.2012 450.758 93.0723C450.902 92.9863 451.012 92.8477 451.086 92.6562C451.137 92.5195 451.162 92.2676 451.162 91.9004V90.9922C450.67 91.6641 450.049 92 449.299 92C448.463 92 447.801 91.6465 447.312 90.9395C446.93 90.3809 446.738 89.6855 446.738 88.8535C446.738 87.8105 446.988 87.0137 447.488 86.4629C447.992 85.9121 448.617 85.6367 449.363 85.6367C450.133 85.6367 450.768 85.9746 451.268 86.6504V85.7773H452.809V91.3613C452.809 92.0957 452.748 92.6445 452.627 93.0078C452.506 93.3711 452.336 93.6562 452.117 93.8633C451.898 94.0703 451.605 94.2324 451.238 94.3496C450.875 94.4668 450.414 94.5254 449.855 94.5254C448.801 94.5254 448.053 94.3438 447.611 93.9805C447.17 93.6211 446.949 93.1641 446.949 92.6094C446.949 92.5547 446.951 92.4883 446.955 92.4102ZM448.426 88.7598C448.426 89.4199 448.553 89.9043 448.807 90.2129C449.064 90.5176 449.381 90.6699 449.756 90.6699C450.158 90.6699 450.498 90.5137 450.775 90.2012C451.053 89.8848 451.191 89.418 451.191 88.8008C451.191 88.1562 451.059 87.6777 450.793 87.3652C450.527 87.0527 450.191 86.8965 449.785 86.8965C449.391 86.8965 449.064 87.0508 448.807 87.3594C448.553 87.6641 448.426 88.1309 448.426 88.7598Z" fill="white"/>
</svg>
