<svg width="560" height="210" viewBox="0 0 560 210" fill="none" xmlns="http://www.w3.org/2000/svg">
<rect x="0.5" y="0.5" width="559" height="209" stroke="#3B4252"/>
<path d="M187.963 110.138V101.548H189.697V104.929H193.096V101.548H194.83V110.138H193.096V106.382H189.697V110.138H187.963ZM196.617 103.071V101.548H198.264V103.071H196.617ZM196.617 110.138V103.915H198.264V110.138H196.617ZM203.561 108.157L205.201 108.433C204.99 109.034 204.656 109.493 204.199 109.81C203.746 110.122 203.178 110.278 202.494 110.278C201.412 110.278 200.611 109.925 200.092 109.218C199.682 108.651 199.477 107.937 199.477 107.073C199.477 106.042 199.746 105.235 200.285 104.653C200.824 104.067 201.506 103.774 202.33 103.774C203.256 103.774 203.986 104.081 204.521 104.694C205.057 105.304 205.312 106.239 205.289 107.501H201.164C201.176 107.989 201.309 108.37 201.562 108.644C201.816 108.913 202.133 109.048 202.512 109.048C202.77 109.048 202.986 108.978 203.162 108.837C203.338 108.696 203.471 108.47 203.561 108.157ZM203.654 106.493C203.643 106.017 203.52 105.655 203.285 105.409C203.051 105.159 202.766 105.034 202.43 105.034C202.07 105.034 201.773 105.165 201.539 105.427C201.305 105.688 201.189 106.044 201.193 106.493H203.654ZM200.402 103.13L201.633 101.401H203.156L204.369 103.13H203.045L202.365 102.257L201.732 103.13H200.402ZM202.037 100.587C202.26 100.563 202.402 100.542 202.465 100.522C202.672 100.472 202.777 100.382 202.781 100.253C202.785 100.163 202.73 100.087 202.617 100.024C202.453 99.9346 202.193 99.8896 201.838 99.8896C201.717 99.8896 201.533 99.8975 201.287 99.9131L201.223 99.3154C201.375 99.2842 201.656 99.2705 202.066 99.2744C202.547 99.2783 202.939 99.3564 203.244 99.5088C203.58 99.6729 203.752 99.9014 203.76 100.194C203.775 100.601 203.42 100.849 202.693 100.938V101.231H202.037V100.587ZM212.297 110.138H210.65V106.962C210.65 106.29 210.615 105.856 210.545 105.661C210.475 105.462 210.359 105.308 210.199 105.198C210.043 105.089 209.854 105.034 209.631 105.034C209.346 105.034 209.09 105.112 208.863 105.269C208.637 105.425 208.48 105.632 208.395 105.89C208.312 106.147 208.271 106.624 208.271 107.319V110.138H206.625V103.915H208.154V104.829C208.697 104.126 209.381 103.774 210.205 103.774C210.568 103.774 210.9 103.841 211.201 103.974C211.502 104.103 211.729 104.269 211.881 104.472C212.037 104.675 212.145 104.905 212.203 105.163C212.266 105.421 212.297 105.79 212.297 106.271V110.138ZM220.166 103.915V105.228H219.041V107.735C219.041 108.243 219.051 108.54 219.07 108.626C219.094 108.708 219.143 108.776 219.217 108.831C219.295 108.886 219.389 108.913 219.498 108.913C219.65 108.913 219.871 108.86 220.16 108.755L220.301 110.032C219.918 110.196 219.484 110.278 219 110.278C218.703 110.278 218.436 110.229 218.197 110.132C217.959 110.03 217.783 109.901 217.67 109.745C217.561 109.585 217.484 109.37 217.441 109.101C217.406 108.909 217.389 108.522 217.389 107.94V105.228H216.633V103.915H217.389V102.679L219.041 101.718V103.915H220.166ZM222.949 101.548V104.706C223.48 104.085 224.115 103.774 224.854 103.774C225.232 103.774 225.574 103.845 225.879 103.985C226.184 104.126 226.412 104.306 226.564 104.524C226.721 104.743 226.826 104.985 226.881 105.251C226.939 105.517 226.969 105.929 226.969 106.487V110.138H225.322V106.851C225.322 106.198 225.291 105.784 225.229 105.608C225.166 105.433 225.055 105.294 224.895 105.192C224.738 105.087 224.541 105.034 224.303 105.034C224.029 105.034 223.785 105.101 223.57 105.233C223.355 105.366 223.197 105.567 223.096 105.837C222.998 106.103 222.949 106.497 222.949 107.021V110.138H221.303V101.548H222.949ZM228.645 103.071V101.548H230.291V103.071H228.645ZM228.645 110.138V103.915H230.291V110.138H228.645ZM228.65 112.487V110.841H230.297V112.487H228.65ZM239.385 103.253H237.609V102.157H239.385V101.548H241.031V102.157H241.682V103.253H241.031V110.138H239.502V109.224C239.248 109.579 238.947 109.845 238.6 110.021C238.256 110.192 237.908 110.278 237.557 110.278C236.842 110.278 236.229 109.991 235.717 109.417C235.209 108.839 234.955 108.034 234.955 107.003C234.955 105.948 235.203 105.147 235.699 104.601C236.195 104.05 236.822 103.774 237.58 103.774C238.275 103.774 238.877 104.063 239.385 104.642V103.253ZM236.637 106.892C236.637 107.556 236.729 108.036 236.912 108.333C237.178 108.763 237.549 108.978 238.025 108.978C238.404 108.978 238.727 108.817 238.992 108.497C239.258 108.173 239.391 107.69 239.391 107.05C239.391 106.335 239.262 105.821 239.004 105.509C238.746 105.192 238.416 105.034 238.014 105.034C237.623 105.034 237.295 105.19 237.029 105.503C236.768 105.812 236.637 106.274 236.637 106.892ZM242.279 106.938C242.279 106.392 242.414 105.862 242.684 105.351C242.953 104.839 243.334 104.448 243.826 104.179C244.322 103.909 244.875 103.774 245.484 103.774C246.426 103.774 247.197 104.081 247.799 104.694C248.4 105.304 248.701 106.075 248.701 107.009C248.701 107.95 248.396 108.731 247.787 109.353C247.182 109.97 246.418 110.278 245.496 110.278C244.926 110.278 244.381 110.149 243.861 109.892C243.346 109.634 242.953 109.257 242.684 108.761C242.414 108.261 242.279 107.653 242.279 106.938ZM243.967 107.026C243.967 107.644 244.113 108.116 244.406 108.444C244.699 108.772 245.061 108.937 245.49 108.937C245.92 108.937 246.279 108.772 246.568 108.444C246.861 108.116 247.008 107.64 247.008 107.015C247.008 106.405 246.861 105.937 246.568 105.608C246.279 105.28 245.92 105.116 245.49 105.116C245.061 105.116 244.699 105.28 244.406 105.608C244.113 105.937 243.967 106.409 243.967 107.026ZM243.504 103.13L244.734 101.401H246.258L247.471 103.13H246.146L245.467 102.257L244.834 103.13H243.504ZM246.275 101.085H245.238L243.621 99.4326H245.467L246.275 101.085ZM256.189 103.915V105.228H255.064V107.735C255.064 108.243 255.074 108.54 255.094 108.626C255.117 108.708 255.166 108.776 255.24 108.831C255.318 108.886 255.412 108.913 255.521 108.913C255.674 108.913 255.895 108.86 256.184 108.755L256.324 110.032C255.941 110.196 255.508 110.278 255.023 110.278C254.727 110.278 254.459 110.229 254.221 110.132C253.982 110.03 253.807 109.901 253.693 109.745C253.584 109.585 253.508 109.37 253.465 109.101C253.43 108.909 253.412 108.522 253.412 107.94V105.228H252.656V103.915H253.412V102.679L255.064 101.718V103.915H256.189ZM258.973 101.548V104.706C259.504 104.085 260.139 103.774 260.877 103.774C261.256 103.774 261.598 103.845 261.902 103.985C262.207 104.126 262.436 104.306 262.588 104.524C262.744 104.743 262.85 104.985 262.904 105.251C262.963 105.517 262.992 105.929 262.992 106.487V110.138H261.346V106.851C261.346 106.198 261.314 105.784 261.252 105.608C261.189 105.433 261.078 105.294 260.918 105.192C260.762 105.087 260.564 105.034 260.326 105.034C260.053 105.034 259.809 105.101 259.594 105.233C259.379 105.366 259.221 105.567 259.119 105.837C259.021 106.103 258.973 106.497 258.973 107.021V110.138H257.326V101.548H258.973ZM264.668 103.071V101.548H266.314V103.071H264.668ZM264.668 110.138V103.915H266.314V110.138H264.668ZM264.674 112.487V110.841H266.32V112.487H264.674ZM277.008 110.138H275.361V106.962C275.361 106.29 275.326 105.856 275.256 105.661C275.186 105.462 275.07 105.308 274.91 105.198C274.754 105.089 274.564 105.034 274.342 105.034C274.057 105.034 273.801 105.112 273.574 105.269C273.348 105.425 273.191 105.632 273.105 105.89C273.023 106.147 272.982 106.624 272.982 107.319V110.138H271.336V103.915H272.865V104.829C273.408 104.126 274.092 103.774 274.916 103.774C275.279 103.774 275.611 103.841 275.912 103.974C276.213 104.103 276.439 104.269 276.592 104.472C276.748 104.675 276.855 104.905 276.914 105.163C276.977 105.421 277.008 105.79 277.008 106.271V110.138ZM280.324 101.548V104.706C280.855 104.085 281.49 103.774 282.229 103.774C282.607 103.774 282.949 103.845 283.254 103.985C283.559 104.126 283.787 104.306 283.939 104.524C284.096 104.743 284.201 104.985 284.256 105.251C284.314 105.517 284.344 105.929 284.344 106.487V110.138H282.697V106.851C282.697 106.198 282.666 105.784 282.604 105.608C282.541 105.433 282.43 105.294 282.27 105.192C282.113 105.087 281.916 105.034 281.678 105.034C281.404 105.034 281.16 105.101 280.945 105.233C280.73 105.366 280.572 105.567 280.471 105.837C280.373 106.103 280.324 106.497 280.324 107.021V110.138H278.678V101.548H280.324ZM292.201 103.915H293.848V105.093C293.848 105.577 293.805 105.956 293.719 106.229C293.637 106.503 293.482 106.747 293.256 106.962C292.908 107.298 292.371 107.524 291.645 107.642V110.138H290.115V109.206C289.627 109.921 288.939 110.278 288.053 110.278C287.135 110.278 286.52 109.929 286.207 109.229C286.059 108.897 285.984 108.438 285.984 107.853V103.915H287.631V106.774C287.631 107.595 287.662 108.13 287.725 108.38C287.768 108.567 287.877 108.724 288.053 108.849C288.213 108.966 288.416 109.024 288.662 109.024C288.939 109.024 289.189 108.948 289.412 108.796C289.639 108.644 289.793 108.452 289.875 108.222C289.957 107.991 289.998 107.431 289.998 106.54V103.915H291.645V106.974C292.188 106.864 292.568 106.661 292.787 106.364C292.92 106.185 292.99 105.917 292.998 105.562H292.201V103.915ZM300.908 103.915V105.228H299.783V107.735C299.783 108.243 299.793 108.54 299.812 108.626C299.836 108.708 299.885 108.776 299.959 108.831C300.037 108.886 300.131 108.913 300.24 108.913C300.393 108.913 300.613 108.86 300.902 108.755L301.043 110.032C300.66 110.196 300.227 110.278 299.742 110.278C299.445 110.278 299.178 110.229 298.939 110.132C298.701 110.03 298.525 109.901 298.412 109.745C298.303 109.585 298.227 109.37 298.184 109.101C298.148 108.909 298.131 108.522 298.131 107.94V105.228H297.375V103.915H298.131V102.679L299.783 101.718V103.915H300.908ZM303.627 110.138H301.98V103.915H303.51V104.8C303.771 104.382 304.006 104.106 304.213 103.974C304.424 103.841 304.662 103.774 304.928 103.774C305.303 103.774 305.664 103.878 306.012 104.085L305.502 105.521C305.225 105.341 304.967 105.251 304.729 105.251C304.498 105.251 304.303 105.315 304.143 105.444C303.982 105.569 303.855 105.798 303.762 106.13C303.672 106.462 303.627 107.157 303.627 108.216V110.138ZM310.33 108.157L311.971 108.433C311.76 109.034 311.426 109.493 310.969 109.81C310.516 110.122 309.947 110.278 309.264 110.278C308.182 110.278 307.381 109.925 306.861 109.218C306.451 108.651 306.246 107.937 306.246 107.073C306.246 106.042 306.516 105.235 307.055 104.653C307.594 104.067 308.275 103.774 309.1 103.774C310.025 103.774 310.756 104.081 311.291 104.694C311.826 105.304 312.082 106.239 312.059 107.501H307.934C307.945 107.989 308.078 108.37 308.332 108.644C308.586 108.913 308.902 109.048 309.281 109.048C309.539 109.048 309.756 108.978 309.932 108.837C310.107 108.696 310.24 108.47 310.33 108.157ZM310.424 106.493C310.412 106.017 310.289 105.655 310.055 105.409C309.82 105.159 309.535 105.034 309.199 105.034C308.84 105.034 308.543 105.165 308.309 105.427C308.074 105.688 307.959 106.044 307.963 106.493H310.424ZM307.172 103.13L308.402 101.401H309.926L311.139 103.13H309.814L309.135 102.257L308.502 103.13H307.172ZM319.066 110.138H317.42V106.962C317.42 106.29 317.385 105.856 317.314 105.661C317.244 105.462 317.129 105.308 316.969 105.198C316.812 105.089 316.623 105.034 316.4 105.034C316.115 105.034 315.859 105.112 315.633 105.269C315.406 105.425 315.25 105.632 315.164 105.89C315.082 106.147 315.041 106.624 315.041 107.319V110.138H313.395V103.915H314.924V104.829C315.467 104.126 316.15 103.774 316.975 103.774C317.338 103.774 317.67 103.841 317.971 103.974C318.271 104.103 318.498 104.269 318.65 104.472C318.807 104.675 318.914 104.905 318.973 105.163C319.035 105.421 319.066 105.79 319.066 106.271V110.138ZM325.723 101.548V104.706C326.254 104.085 326.889 103.774 327.627 103.774C328.006 103.774 328.348 103.845 328.652 103.985C328.957 104.126 329.186 104.306 329.338 104.524C329.494 104.743 329.6 104.985 329.654 105.251C329.713 105.517 329.742 105.929 329.742 106.487V110.138H328.096V106.851C328.096 106.198 328.064 105.784 328.002 105.608C327.939 105.433 327.828 105.294 327.668 105.192C327.512 105.087 327.314 105.034 327.076 105.034C326.803 105.034 326.559 105.101 326.344 105.233C326.129 105.366 325.971 105.567 325.869 105.837C325.771 106.103 325.723 106.497 325.723 107.021V110.138H324.076V101.548H325.723ZM335.021 108.157L336.662 108.433C336.451 109.034 336.117 109.493 335.66 109.81C335.207 110.122 334.639 110.278 333.955 110.278C332.873 110.278 332.072 109.925 331.553 109.218C331.143 108.651 330.938 107.937 330.938 107.073C330.938 106.042 331.207 105.235 331.746 104.653C332.285 104.067 332.967 103.774 333.791 103.774C334.717 103.774 335.447 104.081 335.982 104.694C336.518 105.304 336.773 106.239 336.75 107.501H332.625C332.637 107.989 332.77 108.37 333.023 108.644C333.277 108.913 333.594 109.048 333.973 109.048C334.23 109.048 334.447 108.978 334.623 108.837C334.799 108.696 334.932 108.47 335.021 108.157ZM335.115 106.493C335.104 106.017 334.98 105.655 334.746 105.409C334.512 105.159 334.227 105.034 333.891 105.034C333.531 105.034 333.234 105.165 333 105.427C332.766 105.688 332.65 106.044 332.654 106.493H335.115ZM331.863 103.13L333.094 101.401H334.617L335.83 103.13H334.506L333.826 102.257L333.193 103.13H331.863ZM333.064 112.487V110.841H334.711V112.487H333.064ZM344.291 103.915V105.228H343.166V107.735C343.166 108.243 343.176 108.54 343.195 108.626C343.219 108.708 343.268 108.776 343.342 108.831C343.42 108.886 343.514 108.913 343.623 108.913C343.775 108.913 343.996 108.86 344.285 108.755L344.426 110.032C344.043 110.196 343.609 110.278 343.125 110.278C342.828 110.278 342.561 110.229 342.322 110.132C342.084 110.03 341.908 109.901 341.795 109.745C341.686 109.585 341.609 109.37 341.566 109.101C341.531 108.909 341.514 108.522 341.514 107.94V105.228H340.758V103.915H341.514V102.679L343.166 101.718V103.915H344.291ZM347.074 101.548V104.706C347.605 104.085 348.24 103.774 348.979 103.774C349.357 103.774 349.699 103.845 350.004 103.985C350.309 104.126 350.537 104.306 350.689 104.524C350.846 104.743 350.951 104.985 351.006 105.251C351.064 105.517 351.094 105.929 351.094 106.487V110.138H349.447V106.851C349.447 106.198 349.416 105.784 349.354 105.608C349.291 105.433 349.18 105.294 349.02 105.192C348.863 105.087 348.666 105.034 348.428 105.034C348.154 105.034 347.91 105.101 347.695 105.233C347.48 105.366 347.322 105.567 347.221 105.837C347.123 106.103 347.074 106.497 347.074 107.021V110.138H345.428V101.548H347.074ZM352.389 106.938C352.389 106.392 352.523 105.862 352.793 105.351C353.062 104.839 353.443 104.448 353.936 104.179C354.432 103.909 354.984 103.774 355.594 103.774C356.535 103.774 357.307 104.081 357.908 104.694C358.51 105.304 358.811 106.075 358.811 107.009C358.811 107.95 358.506 108.731 357.896 109.353C357.291 109.97 356.527 110.278 355.605 110.278C355.035 110.278 354.49 110.149 353.971 109.892C353.455 109.634 353.062 109.257 352.793 108.761C352.523 108.261 352.389 107.653 352.389 106.938ZM354.076 107.026C354.076 107.644 354.223 108.116 354.516 108.444C354.809 108.772 355.17 108.937 355.6 108.937C356.029 108.937 356.389 108.772 356.678 108.444C356.971 108.116 357.117 107.64 357.117 107.015C357.117 106.405 356.971 105.937 356.678 105.608C356.389 105.28 356.029 105.116 355.6 105.116C355.17 105.116 354.809 105.28 354.516 105.608C354.223 105.937 354.076 106.409 354.076 107.026ZM353.613 103.13L354.844 101.401H356.367L357.58 103.13H356.256L355.576 102.257L354.943 103.13H353.613ZM354.82 101.085L355.576 99.4326H357.422L355.863 101.085H354.82ZM365.766 110.138H364.119V106.962C364.119 106.29 364.084 105.856 364.014 105.661C363.943 105.462 363.828 105.308 363.668 105.198C363.512 105.089 363.322 105.034 363.1 105.034C362.814 105.034 362.559 105.112 362.332 105.269C362.105 105.425 361.949 105.632 361.863 105.89C361.781 106.147 361.74 106.624 361.74 107.319V110.138H360.094V103.915H361.623V104.829C362.166 104.126 362.85 103.774 363.674 103.774C364.037 103.774 364.369 103.841 364.67 103.974C364.971 104.103 365.197 104.269 365.35 104.472C365.506 104.675 365.613 104.905 365.672 105.163C365.734 105.421 365.766 105.79 365.766 106.271V110.138ZM367.289 110.548L369.17 110.776C369.201 110.995 369.273 111.146 369.387 111.228C369.543 111.345 369.789 111.403 370.125 111.403C370.555 111.403 370.877 111.339 371.092 111.21C371.236 111.124 371.346 110.985 371.42 110.794C371.471 110.657 371.496 110.405 371.496 110.038V109.13C371.004 109.802 370.383 110.138 369.633 110.138C368.797 110.138 368.135 109.784 367.646 109.077C367.264 108.519 367.072 107.823 367.072 106.991C367.072 105.948 367.322 105.151 367.822 104.601C368.326 104.05 368.951 103.774 369.697 103.774C370.467 103.774 371.102 104.112 371.602 104.788V103.915H373.143V109.499C373.143 110.233 373.082 110.782 372.961 111.146C372.84 111.509 372.67 111.794 372.451 112.001C372.232 112.208 371.939 112.37 371.572 112.487C371.209 112.604 370.748 112.663 370.189 112.663C369.135 112.663 368.387 112.481 367.945 112.118C367.504 111.759 367.283 111.302 367.283 110.747C367.283 110.692 367.285 110.626 367.289 110.548ZM368.76 106.897C368.76 107.558 368.887 108.042 369.141 108.351C369.398 108.655 369.715 108.808 370.09 108.808C370.492 108.808 370.832 108.651 371.109 108.339C371.387 108.022 371.525 107.556 371.525 106.938C371.525 106.294 371.393 105.815 371.127 105.503C370.861 105.19 370.525 105.034 370.119 105.034C369.725 105.034 369.398 105.188 369.141 105.497C368.887 105.802 368.76 106.269 368.76 106.897Z" fill="white"/>
</svg>
