<svg width="389" height="139" viewBox="0 0 389 139" fill="none" xmlns="http://www.w3.org/2000/svg">
<path d="M1.43359 33.2051L3.12109 33.041C3.22266 33.6074 3.42773 34.0234 3.73633 34.2891C4.04883 34.5547 4.46875 34.6875 4.99609 34.6875C5.55469 34.6875 5.97461 34.5703 6.25586 34.3359C6.54102 34.0977 6.68359 33.8203 6.68359 33.5039C6.68359 33.3008 6.62305 33.1289 6.50195 32.9883C6.38477 32.8438 6.17773 32.7188 5.88086 32.6133C5.67773 32.543 5.21484 32.418 4.49219 32.2383C3.5625 32.0078 2.91016 31.7246 2.53516 31.3887C2.00781 30.916 1.74414 30.3398 1.74414 29.6602C1.74414 29.2227 1.86719 28.8145 2.11328 28.4355C2.36328 28.0527 2.7207 27.7617 3.18555 27.5625C3.6543 27.3633 4.21875 27.2637 4.87891 27.2637C5.95703 27.2637 6.76758 27.5 7.31055 27.9727C7.85742 28.4453 8.14453 29.0762 8.17188 29.8652L6.4375 29.9414C6.36328 29.5 6.20312 29.1836 5.95703 28.9922C5.71484 28.7969 5.34961 28.6992 4.86133 28.6992C4.35742 28.6992 3.96289 28.8027 3.67773 29.0098C3.49414 29.1426 3.40234 29.3203 3.40234 29.543C3.40234 29.7461 3.48828 29.9199 3.66016 30.0645C3.87891 30.248 4.41016 30.4395 5.25391 30.6387C6.09766 30.8379 6.7207 31.0449 7.12305 31.2598C7.5293 31.4707 7.8457 31.7617 8.07227 32.1328C8.30273 32.5 8.41797 32.9551 8.41797 33.498C8.41797 33.9902 8.28125 34.4512 8.00781 34.8809C7.73438 35.3105 7.34766 35.6309 6.84766 35.8418C6.34766 36.0488 5.72461 36.1523 4.97852 36.1523C3.89258 36.1523 3.05859 35.9023 2.47656 35.4023C1.89453 34.8984 1.54688 34.166 1.43359 33.2051ZM11.1719 32.8887C11.1719 33.4863 11.3184 33.959 11.6113 34.3066C11.8887 34.6348 12.25 34.7988 12.6953 34.7988C13.1406 34.7988 13.5 34.6348 13.7734 34.3066C14.0664 33.959 14.2129 33.4824 14.2129 32.877C14.2129 32.2832 14.0664 31.8145 13.7734 31.4707C13.5 31.1426 13.1406 30.9785 12.6953 30.9785C12.25 30.9785 11.8887 31.1426 11.6113 31.4707C11.3184 31.8184 11.1719 32.291 11.1719 32.8887ZM15.8887 29.7773H17.5352V30.9551C17.5352 31.4395 17.4922 31.8184 17.4062 32.0918C17.3242 32.3652 17.1699 32.6094 16.9434 32.8242C16.6816 33.0781 16.3242 33.2773 15.8711 33.4219C15.7734 34.1211 15.4824 34.7168 14.998 35.209C14.3887 35.8301 13.623 36.1406 12.7012 36.1406C12.1113 36.1406 11.5684 36.0117 11.0723 35.7539C10.5449 35.4805 10.1484 35.0996 9.88281 34.6113C9.61719 34.1191 9.48438 33.5156 9.48438 32.8008C9.48438 32.2383 9.61914 31.709 9.88867 31.2129C10.1699 30.6934 10.5547 30.3008 11.043 30.0352C11.5312 29.7695 12.0801 29.6367 12.6895 29.6367C13.6309 29.6367 14.4023 29.9414 15.0039 30.5508C15.5469 31.1055 15.8457 31.791 15.9004 32.6074C16.4082 32.4004 16.6699 32.0059 16.6855 31.4238H15.8887V29.7773ZM12.3613 28.3711C12.584 28.3477 12.7266 28.3262 12.7891 28.3066C12.9961 28.2559 13.1016 28.166 13.1055 28.0371C13.1094 27.9473 13.0547 27.8711 12.9414 27.8086C12.7773 27.7188 12.5176 27.6738 12.1621 27.6738C12.041 27.6738 11.8574 27.6816 11.6113 27.6973L11.5469 27.0996C11.6992 27.0684 11.9805 27.0547 12.3906 27.0586C12.8711 27.0625 13.2637 27.1406 13.5684 27.293C13.9043 27.457 14.0762 27.6855 14.084 27.9785C14.0996 28.3848 13.7441 28.6328 13.0176 28.7227V29.0156H12.3613V28.3711ZM23.377 27.4102V30.5684C23.9082 29.9473 24.543 29.6367 25.2812 29.6367C25.6602 29.6367 26.002 29.707 26.3066 29.8477C26.6113 29.9883 26.8398 30.168 26.9922 30.3867C27.1484 30.6055 27.2539 30.8477 27.3086 31.1133C27.3672 31.3789 27.3965 31.791 27.3965 32.3496V36H25.75V32.7129C25.75 32.0605 25.7188 31.6465 25.6562 31.4707C25.5938 31.2949 25.4824 31.1562 25.3223 31.0547C25.166 30.9492 24.9688 30.8965 24.7305 30.8965C24.457 30.8965 24.2129 30.9629 23.998 31.0957C23.7832 31.2285 23.625 31.4297 23.5234 31.6992C23.4258 31.9648 23.377 32.3594 23.377 32.8828V36H21.7305V27.4102H23.377ZM35.2539 29.7773H36.9004V30.9551C36.9004 31.4395 36.8574 31.8184 36.7715 32.0918C36.6895 32.3652 36.5352 32.6094 36.3086 32.8242C35.9609 33.1602 35.4238 33.3867 34.6973 33.5039V36H33.168V35.0684C32.6797 35.7832 31.9922 36.1406 31.1055 36.1406C30.1875 36.1406 29.5723 35.791 29.2598 35.0918C29.1113 34.7598 29.0371 34.3008 29.0371 33.7148V29.7773H30.6836V32.6367C30.6836 33.457 30.7148 33.9922 30.7773 34.2422C30.8203 34.4297 30.9297 34.5859 31.1055 34.7109C31.2656 34.8281 31.4688 34.8867 31.7148 34.8867C31.9922 34.8867 32.2422 34.8105 32.4648 34.6582C32.6914 34.5059 32.8457 34.3145 32.9277 34.084C33.0098 33.8535 33.0508 33.293 33.0508 32.4023V29.7773H34.6973V32.8359C35.2402 32.7266 35.6211 32.5234 35.8398 32.2266C35.9727 32.0469 36.043 31.7793 36.0508 31.4238H35.2539V29.7773ZM30.5605 28.9395H29.8105C29.8066 28.8496 29.8047 28.7793 29.8047 28.7285C29.8047 28.3184 29.9043 28.0039 30.1035 27.7852C30.3027 27.5625 30.5586 27.4512 30.8711 27.4512C31.0078 27.4512 31.1348 27.4668 31.252 27.498C31.3691 27.5254 31.582 27.6094 31.8906 27.75C32.2031 27.8867 32.4473 27.9551 32.623 27.9551C32.748 27.9551 32.8516 27.916 32.9336 27.8379C33.0195 27.7598 33.0742 27.6289 33.0977 27.4453H33.8594C33.8555 27.9727 33.7559 28.3496 33.5605 28.5762C33.3691 28.8027 33.1211 28.916 32.8164 28.916C32.6836 28.916 32.5527 28.9023 32.4238 28.875C32.334 28.8516 32.1094 28.7715 31.75 28.6348C31.3906 28.498 31.1289 28.4297 30.9648 28.4297C30.8398 28.4297 30.7422 28.4688 30.6719 28.5469C30.6016 28.6211 30.5645 28.752 30.5605 28.9395ZM41.8633 36V35.0684C41.6367 35.4004 41.3379 35.6621 40.9668 35.8535C40.5996 36.0449 40.2109 36.1406 39.8008 36.1406C39.3828 36.1406 39.0078 36.0488 38.6758 35.8652C38.3438 35.6816 38.1035 35.4238 37.9551 35.0918C37.8066 34.7598 37.7324 34.3008 37.7324 33.7148V29.7773H39.3789V32.6367C39.3789 33.5117 39.4082 34.0488 39.4668 34.248C39.5293 34.4434 39.6406 34.5996 39.8008 34.7168C39.9609 34.8301 40.1641 34.8867 40.4102 34.8867C40.6914 34.8867 40.9434 34.8105 41.166 34.6582C41.3887 34.502 41.541 34.3105 41.623 34.084C41.7051 33.8535 41.7461 33.293 41.7461 32.4023V29.7773H43.3926V36H41.8633ZM54.1035 36H52.457V32.8242C52.457 32.1523 52.4219 31.7188 52.3516 31.5234C52.2812 31.3242 52.166 31.1699 52.0059 31.0605C51.8496 30.9512 51.6602 30.8965 51.4375 30.8965C51.1523 30.8965 50.8965 30.9746 50.6699 31.1309C50.4434 31.2871 50.2871 31.4941 50.2012 31.752C50.1191 32.0098 50.0781 32.4863 50.0781 33.1816V36H48.4316V29.7773H49.9609V30.6914C50.5039 29.9883 51.1875 29.6367 52.0117 29.6367C52.375 29.6367 52.707 29.7031 53.0078 29.8359C53.3086 29.9648 53.5352 30.1309 53.6875 30.334C53.8438 30.5371 53.9512 30.7676 54.0098 31.0254C54.0723 31.2832 54.1035 31.6523 54.1035 32.1328V36ZM61.9609 29.7773H63.6074V30.9551C63.6074 31.4395 63.5645 31.8184 63.4785 32.0918C63.3965 32.3652 63.2422 32.6094 63.0156 32.8242C62.668 33.1602 62.1309 33.3867 61.4043 33.5039V36H59.875V35.0684C59.3867 35.7832 58.6992 36.1406 57.8125 36.1406C56.8945 36.1406 56.2793 35.791 55.9668 35.0918C55.8184 34.7598 55.7441 34.3008 55.7441 33.7148V29.7773H57.3906V32.6367C57.3906 33.457 57.4219 33.9922 57.4844 34.2422C57.5273 34.4297 57.6367 34.5859 57.8125 34.7109C57.9727 34.8281 58.1758 34.8867 58.4219 34.8867C58.6992 34.8867 58.9492 34.8105 59.1719 34.6582C59.3984 34.5059 59.5527 34.3145 59.6348 34.084C59.7168 33.8535 59.7578 33.293 59.7578 32.4023V29.7773H61.4043V32.8359C61.9473 32.7266 62.3281 32.5234 62.5469 32.2266C62.6797 32.0469 62.75 31.7793 62.7578 31.4238H61.9609V29.7773ZM65.7812 32.8887C65.7812 33.4863 65.9277 33.959 66.2207 34.3066C66.498 34.6348 66.8594 34.7988 67.3047 34.7988C67.75 34.7988 68.1094 34.6348 68.3828 34.3066C68.6758 33.959 68.8223 33.4824 68.8223 32.877C68.8223 32.2832 68.6758 31.8145 68.3828 31.4707C68.1094 31.1426 67.75 30.9785 67.3047 30.9785C66.8594 30.9785 66.498 31.1426 66.2207 31.4707C65.9277 31.8184 65.7812 32.291 65.7812 32.8887ZM70.498 29.7773H72.1445V30.9551C72.1445 31.4395 72.1016 31.8184 72.0156 32.0918C71.9336 32.3652 71.7793 32.6094 71.5527 32.8242C71.291 33.0781 70.9336 33.2773 70.4805 33.4219C70.3828 34.1211 70.0918 34.7168 69.6074 35.209C68.998 35.8301 68.2324 36.1406 67.3105 36.1406C66.7207 36.1406 66.1777 36.0117 65.6816 35.7539C65.1543 35.4805 64.7578 35.0996 64.4922 34.6113C64.2266 34.1191 64.0938 33.5156 64.0938 32.8008C64.0938 32.2383 64.2285 31.709 64.498 31.2129C64.7793 30.6934 65.1641 30.3008 65.6523 30.0352C66.1406 29.7695 66.6895 29.6367 67.2988 29.6367C68.2402 29.6367 69.0117 29.9414 69.6133 30.5508C70.1562 31.1055 70.4551 31.791 70.5098 32.6074C71.0176 32.4004 71.2793 32.0059 71.2949 31.4238H70.498V29.7773ZM66.4727 29.0156L67.2812 27.2637H69.127L67.5156 29.0156H66.4727ZM78.4316 31.6172L76.8086 31.9102C76.7539 31.5859 76.6289 31.3418 76.4336 31.1777C76.2422 31.0137 75.9922 30.9316 75.6836 30.9316C75.2734 30.9316 74.9453 31.0742 74.6992 31.3594C74.457 31.6406 74.3359 32.1133 74.3359 32.7773C74.3359 33.5156 74.459 34.0371 74.7051 34.3418C74.9551 34.6465 75.2891 34.7988 75.707 34.7988C76.0195 34.7988 76.2754 34.7109 76.4746 34.5352C76.6738 34.3555 76.8145 34.0488 76.8965 33.6152L78.5137 33.8906C78.3457 34.6328 78.0234 35.1934 77.5469 35.5723C77.0703 35.9512 76.4316 36.1406 75.6309 36.1406C74.7207 36.1406 73.9941 35.8535 73.4512 35.2793C72.9121 34.7051 72.6426 33.9102 72.6426 32.8945C72.6426 31.8672 72.9141 31.0684 73.457 30.498C74 29.9238 74.7344 29.6367 75.6602 29.6367C76.418 29.6367 77.0195 29.8008 77.4648 30.1289C77.9141 30.4531 78.2363 30.9492 78.4316 31.6172ZM88.6855 36H87.0391V32.8242C87.0391 32.1523 87.0039 31.7188 86.9336 31.5234C86.8633 31.3242 86.748 31.1699 86.5879 31.0605C86.4316 30.9512 86.2422 30.8965 86.0195 30.8965C85.7344 30.8965 85.4785 30.9746 85.252 31.1309C85.0254 31.2871 84.8691 31.4941 84.7832 31.752C84.7012 32.0098 84.6602 32.4863 84.6602 33.1816V36H83.0137V29.7773H84.543V30.6914C85.0859 29.9883 85.7695 29.6367 86.5938 29.6367C86.957 29.6367 87.2891 29.7031 87.5898 29.8359C87.8906 29.9648 88.1172 30.1309 88.2695 30.334C88.4258 30.5371 88.5332 30.7676 88.5918 31.0254C88.6543 31.2832 88.6855 31.6523 88.6855 32.1328V36ZM90.209 36.4102L92.0898 36.6387C92.1211 36.8574 92.1934 37.0078 92.3066 37.0898C92.4629 37.207 92.709 37.2656 93.0449 37.2656C93.4746 37.2656 93.7969 37.2012 94.0117 37.0723C94.1562 36.9863 94.2656 36.8477 94.3398 36.6562C94.3906 36.5195 94.416 36.2676 94.416 35.9004V34.9922C93.9238 35.6641 93.3027 36 92.5527 36C91.7168 36 91.0547 35.6465 90.5664 34.9395C90.1836 34.3809 89.9922 33.6855 89.9922 32.8535C89.9922 31.8105 90.2422 31.0137 90.7422 30.4629C91.2461 29.9121 91.8711 29.6367 92.6172 29.6367C93.3867 29.6367 94.0215 29.9746 94.5215 30.6504V29.7773H96.0625V35.3613C96.0625 36.0957 96.002 36.6445 95.8809 37.0078C95.7598 37.3711 95.5898 37.6562 95.3711 37.8633C95.1523 38.0703 94.8594 38.2324 94.4922 38.3496C94.1289 38.4668 93.668 38.5254 93.1094 38.5254C92.0547 38.5254 91.3066 38.3438 90.8652 37.9805C90.4238 37.6211 90.2031 37.1641 90.2031 36.6094C90.2031 36.5547 90.2051 36.4883 90.209 36.4102ZM91.6797 32.7598C91.6797 33.4199 91.8066 33.9043 92.0605 34.2129C92.3184 34.5176 92.6348 34.6699 93.0098 34.6699C93.4121 34.6699 93.752 34.5137 94.0293 34.2012C94.3066 33.8848 94.4453 33.418 94.4453 32.8008C94.4453 32.1562 94.3125 31.6777 94.0469 31.3652C93.7812 31.0527 93.4453 30.8965 93.0391 30.8965C92.6445 30.8965 92.3184 31.0508 92.0605 31.3594C91.8066 31.6641 91.6797 32.1309 91.6797 32.7598ZM97.3164 32.8008C97.3164 32.2539 97.4512 31.7246 97.7207 31.2129C97.9902 30.7012 98.3711 30.3105 98.8633 30.041C99.3594 29.7715 99.9121 29.6367 100.521 29.6367C101.463 29.6367 102.234 29.9434 102.836 30.5566C103.438 31.166 103.738 31.9375 103.738 32.8711C103.738 33.8125 103.434 34.5938 102.824 35.2148C102.219 35.832 101.455 36.1406 100.533 36.1406C99.9629 36.1406 99.418 36.0117 98.8984 35.7539C98.3828 35.4961 97.9902 35.1191 97.7207 34.623C97.4512 34.123 97.3164 33.5156 97.3164 32.8008ZM99.0039 32.8887C99.0039 33.5059 99.1504 33.9785 99.4434 34.3066C99.7363 34.6348 100.098 34.7988 100.527 34.7988C100.957 34.7988 101.316 34.6348 101.605 34.3066C101.898 33.9785 102.045 33.502 102.045 32.877C102.045 32.2676 101.898 31.7988 101.605 31.4707C101.316 31.1426 100.957 30.9785 100.527 30.9785C100.098 30.9785 99.7363 31.1426 99.4434 31.4707C99.1504 31.7988 99.0039 32.2715 99.0039 32.8887ZM106.264 31.6758L104.77 31.4062C104.938 30.8047 105.227 30.3594 105.637 30.0703C106.047 29.7812 106.656 29.6367 107.465 29.6367C108.199 29.6367 108.746 29.7246 109.105 29.9004C109.465 30.0723 109.717 30.293 109.861 30.5625C110.01 30.8281 110.084 31.3184 110.084 32.0332L110.066 33.9551C110.066 34.502 110.092 34.9062 110.143 35.168C110.197 35.4258 110.297 35.7031 110.441 36H108.812C108.77 35.8906 108.717 35.7285 108.654 35.5137C108.627 35.416 108.607 35.3516 108.596 35.3203C108.314 35.5938 108.014 35.7988 107.693 35.9355C107.373 36.0723 107.031 36.1406 106.668 36.1406C106.027 36.1406 105.521 35.9668 105.15 35.6191C104.783 35.2715 104.6 34.832 104.6 34.3008C104.6 33.9492 104.684 33.6367 104.852 33.3633C105.02 33.0859 105.254 32.875 105.555 32.7305C105.859 32.582 106.297 32.4531 106.867 32.3438C107.637 32.1992 108.17 32.0645 108.467 31.9395V31.7754C108.467 31.459 108.389 31.2344 108.232 31.1016C108.076 30.9648 107.781 30.8965 107.348 30.8965C107.055 30.8965 106.826 30.9551 106.662 31.0723C106.498 31.1855 106.365 31.3867 106.264 31.6758ZM108.467 33.0117C108.256 33.082 107.922 33.166 107.465 33.2637C107.008 33.3613 106.709 33.457 106.568 33.5508C106.354 33.7031 106.246 33.8965 106.246 34.1309C106.246 34.3613 106.332 34.5605 106.504 34.7285C106.676 34.8965 106.895 34.9805 107.16 34.9805C107.457 34.9805 107.74 34.8828 108.01 34.6875C108.209 34.5391 108.34 34.3574 108.402 34.1426C108.445 34.002 108.467 33.7344 108.467 33.3398V33.0117ZM108.35 29.0156H107.312L105.695 27.2637H107.541L108.35 29.0156ZM111.713 28.9336V27.4102H113.359V28.9336H111.713ZM111.713 36V29.7773H113.359V36H111.713Z" fill="white"/>
<path d="M310.879 79V70.4102H314.529C315.447 70.4102 316.113 70.4883 316.527 70.6445C316.945 70.7969 317.279 71.0703 317.529 71.4648C317.779 71.8594 317.904 72.3105 317.904 72.8184C317.904 73.4629 317.715 73.9961 317.336 74.418C316.957 74.8359 316.391 75.0996 315.637 75.209C316.012 75.4277 316.32 75.668 316.562 75.9297C316.809 76.1914 317.139 76.6562 317.553 77.3242L318.602 79H316.527L315.273 77.1309C314.828 76.4629 314.523 76.043 314.359 75.8711C314.195 75.6953 314.021 75.5762 313.838 75.5137C313.654 75.4473 313.363 75.4141 312.965 75.4141H312.613V79H310.879ZM312.613 74.043H313.896C314.729 74.043 315.248 74.0078 315.455 73.9375C315.662 73.8672 315.824 73.7461 315.941 73.5742C316.059 73.4023 316.117 73.1875 316.117 72.9297C316.117 72.6406 316.039 72.4082 315.883 72.2324C315.73 72.0527 315.514 71.9395 315.232 71.8926C315.092 71.873 314.67 71.8633 313.967 71.8633H312.613V74.043ZM319.152 75.8008C319.152 75.2539 319.287 74.7246 319.557 74.2129C319.826 73.7012 320.207 73.3105 320.699 73.041C321.195 72.7715 321.748 72.6367 322.357 72.6367C323.299 72.6367 324.07 72.9434 324.672 73.5566C325.273 74.166 325.574 74.9375 325.574 75.8711C325.574 76.8125 325.27 77.5938 324.66 78.2148C324.055 78.832 323.291 79.1406 322.369 79.1406C321.799 79.1406 321.254 79.0117 320.734 78.7539C320.219 78.4961 319.826 78.1191 319.557 77.623C319.287 77.123 319.152 76.5156 319.152 75.8008ZM320.84 75.8887C320.84 76.5059 320.986 76.9785 321.279 77.3066C321.572 77.6348 321.934 77.7988 322.363 77.7988C322.793 77.7988 323.152 77.6348 323.441 77.3066C323.734 76.9785 323.881 76.502 323.881 75.877C323.881 75.2676 323.734 74.7988 323.441 74.4707C323.152 74.1426 322.793 73.9785 322.363 73.9785C321.934 73.9785 321.572 74.1426 321.279 74.4707C320.986 74.7988 320.84 75.2715 320.84 75.8887ZM326.488 75.8008C326.488 75.2539 326.623 74.7246 326.893 74.2129C327.162 73.7012 327.543 73.3105 328.035 73.041C328.531 72.7715 329.084 72.6367 329.693 72.6367C330.635 72.6367 331.406 72.9434 332.008 73.5566C332.609 74.166 332.91 74.9375 332.91 75.8711C332.91 76.8125 332.605 77.5938 331.996 78.2148C331.391 78.832 330.627 79.1406 329.705 79.1406C329.135 79.1406 328.59 79.0117 328.07 78.7539C327.555 78.4961 327.162 78.1191 326.893 77.623C326.623 77.123 326.488 76.5156 326.488 75.8008ZM328.176 75.8887C328.176 76.5059 328.322 76.9785 328.615 77.3066C328.908 77.6348 329.27 77.7988 329.699 77.7988C330.129 77.7988 330.488 77.6348 330.777 77.3066C331.07 76.9785 331.217 76.502 331.217 75.877C331.217 75.2676 331.07 74.7988 330.777 74.4707C330.488 74.1426 330.129 73.9785 329.699 73.9785C329.27 73.9785 328.908 74.1426 328.615 74.4707C328.322 74.7988 328.176 75.2715 328.176 75.8887ZM334.082 72.7773H335.6V73.627C336.143 72.9668 336.789 72.6367 337.539 72.6367C337.938 72.6367 338.283 72.7188 338.576 72.8828C338.869 73.0469 339.109 73.2949 339.297 73.627C339.57 73.2949 339.865 73.0469 340.182 72.8828C340.498 72.7188 340.836 72.6367 341.195 72.6367C341.652 72.6367 342.039 72.7305 342.355 72.918C342.672 73.1016 342.908 73.373 343.064 73.7324C343.178 73.998 343.234 74.4277 343.234 75.0215V79H341.588V75.4434C341.588 74.8262 341.531 74.4277 341.418 74.248C341.266 74.0137 341.031 73.8965 340.715 73.8965C340.484 73.8965 340.268 73.9668 340.064 74.1074C339.861 74.248 339.715 74.4551 339.625 74.7285C339.535 74.998 339.49 75.4258 339.49 76.0117V79H337.844V75.5898C337.844 74.9844 337.814 74.5938 337.756 74.418C337.697 74.2422 337.605 74.1113 337.48 74.0254C337.359 73.9395 337.193 73.8965 336.982 73.8965C336.729 73.8965 336.5 73.9648 336.297 74.1016C336.094 74.2383 335.947 74.4355 335.857 74.6934C335.771 74.9512 335.729 75.3789 335.729 75.9766V79H334.082V72.7773ZM353.646 74.6172L352.023 74.9102C351.969 74.5859 351.844 74.3418 351.648 74.1777C351.457 74.0137 351.207 73.9316 350.898 73.9316C350.488 73.9316 350.16 74.0742 349.914 74.3594C349.672 74.6406 349.551 75.1133 349.551 75.7773C349.551 76.5156 349.674 77.0371 349.92 77.3418C350.17 77.6465 350.504 77.7988 350.922 77.7988C351.234 77.7988 351.49 77.7109 351.689 77.5352C351.889 77.3555 352.029 77.0488 352.111 76.6152L353.729 76.8906C353.561 77.6328 353.238 78.1934 352.762 78.5723C352.285 78.9512 351.646 79.1406 350.846 79.1406C349.936 79.1406 349.209 78.8535 348.666 78.2793C348.127 77.7051 347.857 76.9102 347.857 75.8945C347.857 74.8672 348.129 74.0684 348.672 73.498C349.215 72.9238 349.949 72.6367 350.875 72.6367C351.633 72.6367 352.234 72.8008 352.68 73.1289C353.129 73.4531 353.451 73.9492 353.646 74.6172ZM354.52 75.8008C354.52 75.2539 354.654 74.7246 354.924 74.2129C355.193 73.7012 355.574 73.3105 356.066 73.041C356.562 72.7715 357.115 72.6367 357.725 72.6367C358.666 72.6367 359.438 72.9434 360.039 73.5566C360.641 74.166 360.941 74.9375 360.941 75.8711C360.941 76.8125 360.637 77.5938 360.027 78.2148C359.422 78.832 358.658 79.1406 357.736 79.1406C357.166 79.1406 356.621 79.0117 356.102 78.7539C355.586 78.4961 355.193 78.1191 354.924 77.623C354.654 77.123 354.52 76.5156 354.52 75.8008ZM356.207 75.8887C356.207 76.5059 356.354 76.9785 356.646 77.3066C356.939 77.6348 357.301 77.7988 357.73 77.7988C358.16 77.7988 358.52 77.6348 358.809 77.3066C359.102 76.9785 359.248 76.502 359.248 75.877C359.248 75.2676 359.102 74.7988 358.809 74.4707C358.52 74.1426 358.16 73.9785 357.73 73.9785C357.301 73.9785 356.939 74.1426 356.646 74.4707C356.354 74.7988 356.207 75.2715 356.207 75.8887ZM358.557 72.0156H357.52L355.902 70.2637H357.748L358.557 72.0156ZM367.896 79H366.25V75.8242C366.25 75.1523 366.215 74.7188 366.145 74.5234C366.074 74.3242 365.959 74.1699 365.799 74.0605C365.643 73.9512 365.453 73.8965 365.23 73.8965C364.945 73.8965 364.689 73.9746 364.463 74.1309C364.236 74.2871 364.08 74.4941 363.994 74.752C363.912 75.0098 363.871 75.4863 363.871 76.1816V79H362.225V72.7773H363.754V73.6914C364.297 72.9883 364.98 72.6367 365.805 72.6367C366.168 72.6367 366.5 72.7031 366.801 72.8359C367.102 72.9648 367.328 73.1309 367.48 73.334C367.637 73.5371 367.744 73.7676 367.803 74.0254C367.865 74.2832 367.896 74.6523 367.896 75.1328V79ZM372.912 79V70.4102H374.559V79H372.912ZM377.482 74.6758L375.988 74.4062C376.156 73.8047 376.445 73.3594 376.855 73.0703C377.266 72.7812 377.875 72.6367 378.684 72.6367C379.418 72.6367 379.965 72.7246 380.324 72.9004C380.684 73.0723 380.936 73.293 381.08 73.5625C381.229 73.8281 381.303 74.3184 381.303 75.0332L381.285 76.9551C381.285 77.502 381.311 77.9062 381.361 78.168C381.416 78.4258 381.516 78.7031 381.66 79H380.031C379.988 78.8906 379.936 78.7285 379.873 78.5137C379.846 78.416 379.826 78.3516 379.814 78.3203C379.533 78.5938 379.232 78.7988 378.912 78.9355C378.592 79.0723 378.25 79.1406 377.887 79.1406C377.246 79.1406 376.74 78.9668 376.369 78.6191C376.002 78.2715 375.818 77.832 375.818 77.3008C375.818 76.9492 375.902 76.6367 376.07 76.3633C376.238 76.0859 376.473 75.875 376.773 75.7305C377.078 75.582 377.516 75.4531 378.086 75.3438C378.855 75.1992 379.389 75.0645 379.686 74.9395V74.7754C379.686 74.459 379.607 74.2344 379.451 74.1016C379.295 73.9648 379 73.8965 378.566 73.8965C378.273 73.8965 378.045 73.9551 377.881 74.0723C377.717 74.1855 377.584 74.3867 377.482 74.6758ZM379.686 76.0117C379.475 76.082 379.141 76.166 378.684 76.2637C378.227 76.3613 377.928 76.457 377.787 76.5508C377.572 76.7031 377.465 76.8965 377.465 77.1309C377.465 77.3613 377.551 77.5605 377.723 77.7285C377.895 77.8965 378.113 77.9805 378.379 77.9805C378.676 77.9805 378.959 77.8828 379.229 77.6875C379.428 77.5391 379.559 77.3574 379.621 77.1426C379.664 77.002 379.686 76.7344 379.686 76.3398V76.0117ZM377.664 81.3496V79.7031H379.311V81.3496H377.664ZM382.932 71.9336V70.4102H384.578V71.9336H382.932ZM382.932 79V72.7773H384.578V79H382.932Z" fill="white"/>
<path opacity="0.8" d="M206.03 0C189.597 -1.91742e-07 173.672 5.57524 160.969 15.7758C148.266 25.9763 139.571 40.171 136.365 55.9412C133.159 71.7115 135.641 88.0815 143.387 102.262C151.134 116.443 163.666 127.556 178.848 133.71C194.03 139.863 210.923 140.675 226.648 136.007C242.374 131.34 255.959 121.481 265.089 108.112C274.218 94.7428 278.328 78.6896 276.717 62.6878C275.107 46.6861 267.875 31.7258 256.255 20.3561L206.03 69.5V0Z" fill="#D7131C"/>
<path opacity="0.8" d="M206.03 0C224.868 2.19806e-07 242.935 7.3223 256.255 20.3561L206.03 69.5V0Z" fill="#008C03"/>
<path d="M174.442 92.0566V90.5273H180.073V91.7227C179.608 92.1797 179.135 92.8359 178.655 93.6914C178.174 94.5469 177.807 95.457 177.553 96.4219C177.303 97.3828 177.18 98.2422 177.184 99H175.596C175.624 97.8125 175.868 96.6016 176.329 95.3672C176.793 94.1328 177.413 93.0293 178.186 92.0566H174.442ZM186.7 92.5137L185.106 92.6895C185.067 92.3613 184.965 92.1191 184.801 91.9629C184.637 91.8066 184.424 91.7285 184.163 91.7285C183.815 91.7285 183.52 91.8848 183.278 92.1973C183.04 92.5098 182.889 93.1602 182.827 94.1484C183.237 93.6641 183.747 93.4219 184.356 93.4219C185.043 93.4219 185.631 93.6836 186.12 94.207C186.612 94.7305 186.858 95.4062 186.858 96.2344C186.858 97.1133 186.6 97.8184 186.084 98.3496C185.569 98.8809 184.907 99.1465 184.098 99.1465C183.231 99.1465 182.518 98.8105 181.959 98.1387C181.401 97.4629 181.122 96.3574 181.122 94.8223C181.122 93.248 181.413 92.1133 181.995 91.418C182.577 90.7227 183.333 90.375 184.262 90.375C184.915 90.375 185.454 90.5586 185.879 90.9258C186.309 91.2891 186.583 91.8184 186.7 92.5137ZM182.967 96.1055C182.967 96.6406 183.09 97.0547 183.336 97.3477C183.583 97.6367 183.864 97.7812 184.18 97.7812C184.485 97.7812 184.739 97.6621 184.942 97.4238C185.145 97.1855 185.247 96.7949 185.247 96.252C185.247 95.6934 185.137 95.2852 184.918 95.0273C184.7 94.7656 184.426 94.6348 184.098 94.6348C183.782 94.6348 183.514 94.7598 183.295 95.0098C183.077 95.2559 182.967 95.6211 182.967 96.1055ZM188.153 99V97.3535H189.799V99H188.153ZM191.165 96.791L192.805 96.6211C192.852 96.9922 192.991 97.2871 193.221 97.5059C193.452 97.7207 193.717 97.8281 194.018 97.8281C194.362 97.8281 194.653 97.6895 194.891 97.4121C195.129 97.1309 195.249 96.709 195.249 96.1465C195.249 95.6191 195.129 95.2246 194.891 94.9629C194.657 94.6973 194.35 94.5645 193.971 94.5645C193.499 94.5645 193.075 94.7734 192.7 95.1914L191.364 94.998L192.208 90.5273H196.561V92.0684H193.456L193.198 93.5273C193.565 93.3438 193.94 93.252 194.323 93.252C195.053 93.252 195.672 93.5176 196.18 94.0488C196.688 94.5801 196.942 95.2695 196.942 96.1172C196.942 96.8242 196.737 97.4551 196.327 98.0098C195.768 98.7676 194.993 99.1465 194 99.1465C193.208 99.1465 192.561 98.9336 192.061 98.5078C191.561 98.082 191.262 97.5098 191.165 96.791ZM197.833 92.5312C197.833 91.7617 198 91.1914 198.336 90.8203C198.676 90.4492 199.135 90.2637 199.713 90.2637C200.311 90.2637 200.778 90.4492 201.114 90.8203C201.454 91.1875 201.624 91.7578 201.624 92.5312C201.624 93.3008 201.454 93.8711 201.114 94.2422C200.778 94.6133 200.321 94.7988 199.743 94.7988C199.145 94.7988 198.676 94.6152 198.336 94.248C198 93.877 197.833 93.3047 197.833 92.5312ZM199.116 92.5195C199.116 93.0781 199.18 93.4531 199.309 93.6445C199.407 93.7852 199.542 93.8555 199.713 93.8555C199.889 93.8555 200.026 93.7852 200.124 93.6445C200.249 93.4531 200.311 93.0781 200.311 92.5195C200.311 91.9609 200.249 91.5879 200.124 91.4004C200.026 91.2559 199.889 91.1836 199.713 91.1836C199.542 91.1836 199.407 91.2539 199.309 91.3945C199.18 91.5859 199.116 91.9609 199.116 92.5195ZM200.967 99.3281H199.749L204.325 90.2637H205.508L200.967 99.3281ZM203.627 97.0723C203.627 96.3027 203.795 95.7324 204.131 95.3613C204.471 94.9902 204.934 94.8047 205.52 94.8047C206.11 94.8047 206.573 94.9902 206.909 95.3613C207.249 95.7324 207.418 96.3027 207.418 97.0723C207.418 97.8457 207.249 98.418 206.909 98.7891C206.573 99.1602 206.116 99.3457 205.538 99.3457C204.94 99.3457 204.471 99.1602 204.131 98.7891C203.795 98.418 203.627 97.8457 203.627 97.0723ZM204.911 97.0664C204.911 97.625 204.975 97.998 205.104 98.1855C205.202 98.3301 205.336 98.4023 205.508 98.4023C205.684 98.4023 205.819 98.332 205.913 98.1914C206.042 98 206.106 97.625 206.106 97.0664C206.106 96.5078 206.043 96.1328 205.918 95.9414C205.821 95.8008 205.684 95.7305 205.508 95.7305C205.333 95.7305 205.198 95.8008 205.104 95.9414C204.975 96.1328 204.911 96.5078 204.911 97.0664Z" fill="white"/>
<path d="M216.795 27.4707V29H211.023C211.086 28.4219 211.273 27.875 211.586 27.3594C211.898 26.8398 212.515 26.1523 213.437 25.2969C214.179 24.6055 214.635 24.1367 214.802 23.8906C215.029 23.5508 215.142 23.2148 215.142 22.8828C215.142 22.5156 215.043 22.2344 214.844 22.0391C214.648 21.8398 214.377 21.7402 214.029 21.7402C213.685 21.7402 213.412 21.8438 213.209 22.0508C213.006 22.2578 212.888 22.6016 212.857 23.082L211.217 22.918C211.314 22.0117 211.621 21.3613 212.136 20.9668C212.652 20.5723 213.297 20.375 214.07 20.375C214.918 20.375 215.584 20.6035 216.068 21.0605C216.552 21.5176 216.795 22.0859 216.795 22.7656C216.795 23.1523 216.724 23.5215 216.584 23.873C216.447 24.2207 216.228 24.5859 215.927 24.9688C215.728 25.2227 215.369 25.5879 214.849 26.0645C214.33 26.541 214 26.8574 213.859 27.0137C213.722 27.1699 213.611 27.3223 213.525 27.4707H216.795ZM221.142 29V27.2715H217.627V25.8301L221.353 20.375H222.736V25.8242H223.802V27.2715H222.736V29H221.142ZM221.142 25.8242V22.8887L219.168 25.8242H221.142ZM224.945 29V27.3535H226.592V29H224.945ZM227.957 26.791L229.597 26.6211C229.644 26.9922 229.783 27.2871 230.013 27.5059C230.244 27.7207 230.51 27.8281 230.81 27.8281C231.154 27.8281 231.445 27.6895 231.683 27.4121C231.922 27.1309 232.041 26.709 232.041 26.1465C232.041 25.6191 231.922 25.2246 231.683 24.9629C231.449 24.6973 231.142 24.5645 230.763 24.5645C230.291 24.5645 229.867 24.7734 229.492 25.1914L228.156 24.998L229 20.5273H233.353V22.0684H230.248L229.99 23.5273C230.357 23.3438 230.732 23.252 231.115 23.252C231.845 23.252 232.465 23.5176 232.972 24.0488C233.48 24.5801 233.734 25.2695 233.734 26.1172C233.734 26.8242 233.529 27.4551 233.119 28.0098C232.56 28.7676 231.785 29.1465 230.793 29.1465C230 29.1465 229.353 28.9336 228.853 28.5078C228.353 28.082 228.054 27.5098 227.957 26.791ZM234.625 22.5312C234.625 21.7617 234.793 21.1914 235.129 20.8203C235.469 20.4492 235.927 20.2637 236.506 20.2637C237.103 20.2637 237.57 20.4492 237.906 20.8203C238.246 21.1875 238.416 21.7578 238.416 22.5312C238.416 23.3008 238.246 23.8711 237.906 24.2422C237.57 24.6133 237.113 24.7988 236.535 24.7988C235.937 24.7988 235.469 24.6152 235.129 24.248C234.793 23.877 234.625 23.3047 234.625 22.5312ZM235.908 22.5195C235.908 23.0781 235.972 23.4531 236.101 23.6445C236.199 23.7852 236.334 23.8555 236.506 23.8555C236.681 23.8555 236.818 23.7852 236.916 23.6445C237.041 23.4531 237.103 23.0781 237.103 22.5195C237.103 21.9609 237.041 21.5879 236.916 21.4004C236.818 21.2559 236.681 21.1836 236.506 21.1836C236.334 21.1836 236.199 21.2539 236.101 21.3945C235.972 21.5859 235.908 21.9609 235.908 22.5195ZM237.76 29.3281H236.541L241.117 20.2637H242.301L237.76 29.3281ZM240.42 27.0723C240.42 26.3027 240.588 25.7324 240.924 25.3613C241.263 24.9902 241.726 24.8047 242.312 24.8047C242.902 24.8047 243.365 24.9902 243.701 25.3613C244.041 25.7324 244.211 26.3027 244.211 27.0723C244.211 27.8457 244.041 28.418 243.701 28.7891C243.365 29.1602 242.908 29.3457 242.33 29.3457C241.732 29.3457 241.263 29.1602 240.924 28.7891C240.588 28.418 240.42 27.8457 240.42 27.0723ZM241.703 27.0664C241.703 27.625 241.767 27.998 241.896 28.1855C241.994 28.3301 242.129 28.4023 242.301 28.4023C242.476 28.4023 242.611 28.332 242.705 28.1914C242.834 28 242.898 27.625 242.898 27.0664C242.898 26.5078 242.836 26.1328 242.711 25.9414C242.613 25.8008 242.476 25.7305 242.301 25.7305C242.125 25.7305 241.99 25.8008 241.896 25.9414C241.767 26.1328 241.703 26.5078 241.703 27.0664Z" fill="white"/>
<path d="M0 52H118L143.5 78" stroke="white"/>
<path d="M224 44.5L305 86H388.5" stroke="white"/>
</svg>
