<svg width="1253" height="246" viewBox="0 0 1253 246" fill="none" xmlns="http://www.w3.org/2000/svg">
<rect width="1253" height="246" fill="#1A1B25"/>
<path d="M265.873 118.41H269.037C269.764 118.41 270.314 118.467 270.689 118.58C271.197 118.732 271.631 119.002 271.99 119.389C272.35 119.771 272.619 120.236 272.799 120.783C272.982 121.33 273.074 122.006 273.074 122.811C273.074 123.518 272.973 124.156 272.77 124.727C272.57 125.293 272.275 125.766 271.885 126.145C271.584 126.43 271.18 126.654 270.672 126.818C270.289 126.939 269.775 127 269.131 127H265.873V123.25H264.982V122.16H265.873V118.41ZM267.602 119.863V122.16H269.441V123.25H267.602V125.553H268.902C269.477 125.553 269.891 125.506 270.145 125.412C270.48 125.295 270.736 125.08 270.912 124.768C271.158 124.326 271.281 123.652 271.281 122.746C271.281 122.102 271.229 121.605 271.123 121.258C271.021 120.906 270.869 120.623 270.666 120.408C270.467 120.193 270.205 120.043 269.881 119.957C269.631 119.895 269.133 119.863 268.387 119.863H267.602ZM274.193 122.758C274.193 121.883 274.324 121.148 274.586 120.555C274.781 120.117 275.047 119.725 275.383 119.377C275.723 119.029 276.094 118.771 276.496 118.604C277.031 118.377 277.648 118.264 278.348 118.264C279.613 118.264 280.625 118.656 281.383 119.441C282.145 120.227 282.525 121.318 282.525 122.717C282.525 124.104 282.148 125.189 281.395 125.975C280.641 126.756 279.633 127.146 278.371 127.146C277.094 127.146 276.078 126.758 275.324 125.98C274.57 125.199 274.193 124.125 274.193 122.758ZM275.98 122.699C275.98 123.672 276.205 124.41 276.654 124.914C277.104 125.414 277.674 125.664 278.365 125.664C279.057 125.664 279.623 125.416 280.064 124.92C280.51 124.42 280.732 123.672 280.732 122.676C280.732 121.691 280.516 120.957 280.082 120.473C279.652 119.988 279.08 119.746 278.365 119.746C277.65 119.746 277.074 119.992 276.637 120.484C276.199 120.973 275.98 121.711 275.98 122.699ZM278.336 117.684L277.691 118.117H276.537L277.814 117.355H278.857L280.135 118.117H278.98L278.336 117.684ZM279.027 117.156H277.99L276.49 116.201H278.336L279.027 117.156ZM289.158 127V119.863H286.609V118.41H293.436V119.863H290.893V127H289.158ZM294.566 127V118.41H296.301V121.791H299.699V118.41H301.434V127H299.699V123.244H296.301V127H294.566ZM303.18 127V118.41H304.914V127H303.18ZM303.227 129.35V127.703H304.873V129.35H303.227ZM315.408 123.842L317.09 124.375C316.832 125.312 316.402 126.01 315.801 126.467C315.203 126.92 314.443 127.146 313.521 127.146C312.381 127.146 311.443 126.758 310.709 125.98C309.975 125.199 309.607 124.133 309.607 122.781C309.607 121.352 309.977 120.242 310.715 119.453C311.453 118.66 312.424 118.264 313.627 118.264C314.678 118.264 315.531 118.574 316.188 119.195C316.578 119.562 316.871 120.09 317.066 120.777L315.35 121.188C315.248 120.742 315.035 120.391 314.711 120.133C314.391 119.875 314 119.746 313.539 119.746C312.902 119.746 312.385 119.975 311.986 120.432C311.592 120.889 311.395 121.629 311.395 122.652C311.395 123.738 311.59 124.512 311.98 124.973C312.371 125.434 312.879 125.664 313.504 125.664C313.965 125.664 314.361 125.518 314.693 125.225C315.025 124.932 315.264 124.471 315.408 123.842ZM320.02 122.699C320.02 123.645 320.244 124.383 320.693 124.914C321.119 125.414 321.689 125.664 322.404 125.664C323.119 125.664 323.688 125.414 324.109 124.914C324.551 124.391 324.771 123.645 324.771 122.676C324.771 121.715 324.557 120.98 324.127 120.473C323.713 119.988 323.139 119.746 322.404 119.746C321.67 119.746 321.094 119.992 320.676 120.484C320.238 120.996 320.02 121.734 320.02 122.699ZM326.301 118.41H327.947V119.588C327.947 120.072 327.904 120.451 327.818 120.725C327.736 120.998 327.584 121.242 327.361 121.457C327.139 121.668 326.859 121.836 326.523 121.961C326.551 122.203 326.564 122.455 326.564 122.717C326.564 124.092 326.189 125.174 325.439 125.963C324.689 126.752 323.68 127.146 322.41 127.146C321.129 127.146 320.111 126.756 319.357 125.975C318.607 125.189 318.232 124.117 318.232 122.758C318.232 121.32 318.631 120.193 319.428 119.377C320.146 118.635 321.133 118.264 322.387 118.264C323.652 118.264 324.666 118.656 325.428 119.441C325.885 119.918 326.205 120.506 326.389 121.205C326.846 120.998 327.082 120.615 327.098 120.057H326.301V118.41ZM337.662 123.842L339.344 124.375C339.086 125.312 338.656 126.01 338.055 126.467C337.457 126.92 336.697 127.146 335.775 127.146C334.635 127.146 333.697 126.758 332.963 125.98C332.229 125.199 331.861 124.133 331.861 122.781C331.861 121.352 332.23 120.242 332.969 119.453C333.707 118.66 334.678 118.264 335.881 118.264C336.932 118.264 337.785 118.574 338.441 119.195C338.832 119.562 339.125 120.09 339.32 120.777L337.604 121.188C337.502 120.742 337.289 120.391 336.965 120.133C336.645 119.875 336.254 119.746 335.793 119.746C335.156 119.746 334.639 119.975 334.24 120.432C333.846 120.889 333.648 121.629 333.648 122.652C333.648 123.738 333.844 124.512 334.234 124.973C334.625 125.434 335.133 125.664 335.758 125.664C336.219 125.664 336.615 125.518 336.947 125.225C337.279 124.932 337.518 124.471 337.662 123.842ZM348.584 127H346.697L345.947 125.049H342.514L341.805 127H339.965L343.311 118.41H345.145L348.584 127ZM345.391 123.602L344.207 120.414L343.047 123.602H345.391ZM344.201 117.684L343.557 118.117H342.402L343.68 117.355H344.723L346 118.117H344.846L344.201 117.684ZM343.492 117.156L344.201 116.201H346.047L344.535 117.156H343.492ZM349.498 118.41H351.232V123.062C351.232 123.801 351.254 124.279 351.297 124.498C351.371 124.85 351.547 125.133 351.824 125.348C352.105 125.559 352.488 125.664 352.973 125.664C353.465 125.664 353.836 125.564 354.086 125.365C354.336 125.162 354.486 124.914 354.537 124.621C354.588 124.328 354.613 123.842 354.613 123.162V118.41H356.348V122.922C356.348 123.953 356.301 124.682 356.207 125.107C356.113 125.533 355.939 125.893 355.686 126.186C355.436 126.479 355.1 126.713 354.678 126.889C354.256 127.061 353.705 127.146 353.025 127.146C352.205 127.146 351.582 127.053 351.156 126.865C350.734 126.674 350.4 126.428 350.154 126.127C349.908 125.822 349.746 125.504 349.668 125.172C349.555 124.68 349.498 123.953 349.498 122.992V118.41ZM361.082 124.205L362.77 124.041C362.871 124.607 363.076 125.023 363.385 125.289C363.697 125.555 364.117 125.688 364.645 125.688C365.203 125.688 365.623 125.57 365.904 125.336C366.189 125.098 366.332 124.82 366.332 124.504C366.332 124.301 366.271 124.129 366.15 123.988C366.033 123.844 365.826 123.719 365.529 123.613C365.326 123.543 364.863 123.418 364.141 123.238C363.211 123.008 362.559 122.725 362.184 122.389C361.656 121.916 361.393 121.34 361.393 120.66C361.393 120.223 361.516 119.814 361.762 119.436C362.012 119.053 362.369 118.762 362.834 118.562C363.303 118.363 363.867 118.264 364.527 118.264C365.605 118.264 366.416 118.5 366.959 118.973C367.506 119.445 367.793 120.076 367.82 120.865L366.086 120.941C366.012 120.5 365.852 120.184 365.605 119.992C365.363 119.797 364.998 119.699 364.51 119.699C364.006 119.699 363.611 119.803 363.326 120.01C363.143 120.143 363.051 120.32 363.051 120.543C363.051 120.746 363.137 120.92 363.309 121.064C363.527 121.248 364.059 121.439 364.902 121.639C365.746 121.838 366.369 122.045 366.771 122.26C367.178 122.471 367.494 122.762 367.721 123.133C367.951 123.5 368.066 123.955 368.066 124.498C368.066 124.99 367.93 125.451 367.656 125.881C367.383 126.311 366.996 126.631 366.496 126.842C365.996 127.049 365.373 127.152 364.627 127.152C363.541 127.152 362.707 126.902 362.125 126.402C361.543 125.898 361.195 125.166 361.082 124.205ZM370.961 122.699C370.961 123.645 371.186 124.383 371.635 124.914C372.061 125.414 372.631 125.664 373.346 125.664C374.061 125.664 374.629 125.414 375.051 124.914C375.492 124.391 375.713 123.645 375.713 122.676C375.713 121.715 375.498 120.98 375.068 120.473C374.654 119.988 374.08 119.746 373.346 119.746C372.611 119.746 372.035 119.992 371.617 120.484C371.18 120.996 370.961 121.734 370.961 122.699ZM377.242 118.41H378.889V119.588C378.889 120.072 378.846 120.451 378.76 120.725C378.678 120.998 378.525 121.242 378.303 121.457C378.08 121.668 377.801 121.836 377.465 121.961C377.492 122.203 377.506 122.455 377.506 122.717C377.506 124.092 377.131 125.174 376.381 125.963C375.631 126.752 374.621 127.146 373.352 127.146C372.07 127.146 371.053 126.756 370.299 125.975C369.549 125.189 369.174 124.117 369.174 122.758C369.174 121.32 369.572 120.193 370.369 119.377C371.088 118.635 372.074 118.264 373.328 118.264C374.594 118.264 375.607 118.656 376.369 119.441C376.826 119.918 377.146 120.506 377.33 121.205C377.787 120.998 378.023 120.615 378.039 120.057H377.242V118.41ZM373 117.449C373.223 117.426 373.365 117.404 373.428 117.385C373.635 117.334 373.74 117.244 373.744 117.115C373.748 117.025 373.693 116.949 373.58 116.887C373.416 116.797 373.156 116.752 372.801 116.752C372.68 116.752 372.496 116.76 372.25 116.775L372.186 116.178C372.338 116.146 372.619 116.133 373.029 116.137C373.51 116.141 373.902 116.219 374.207 116.371C374.543 116.535 374.715 116.764 374.723 117.057C374.738 117.463 374.383 117.711 373.656 117.801V118.094H373V117.449ZM383.113 127V118.41H384.848V121.791H388.246V118.41H389.98V127H388.246V123.244H384.848V127H383.113ZM399.215 118.41H400.861V119.588C400.861 120.072 400.818 120.451 400.732 120.725C400.65 120.998 400.498 121.242 400.275 121.457C399.916 121.801 399.363 122.029 398.617 122.143V122.922C398.617 123.934 398.57 124.662 398.477 125.107C398.387 125.525 398.215 125.885 397.961 126.186C397.406 126.826 396.518 127.146 395.295 127.146C393.936 127.146 392.979 126.805 392.424 126.121C392.178 125.82 392.016 125.504 391.938 125.172C391.824 124.684 391.768 123.957 391.768 122.992V118.41H393.502V123.062C393.502 123.809 393.523 124.287 393.566 124.498C393.727 125.275 394.285 125.664 395.242 125.664C396.164 125.664 396.686 125.316 396.807 124.621C396.857 124.328 396.883 123.842 396.883 123.162V118.41H398.617V121.475C399.184 121.369 399.578 121.164 399.801 120.859C399.934 120.68 400.004 120.412 400.012 120.057H399.215V118.41ZM393.924 117.936H393.174C393.17 117.846 393.168 117.775 393.168 117.725C393.168 117.314 393.268 117 393.467 116.781C393.666 116.559 393.922 116.447 394.234 116.447C394.371 116.447 394.498 116.463 394.615 116.494C394.732 116.521 394.945 116.605 395.254 116.746C395.566 116.883 395.811 116.951 395.986 116.951C396.111 116.951 396.215 116.912 396.297 116.834C396.383 116.756 396.438 116.625 396.461 116.441H397.223C397.219 116.969 397.119 117.346 396.924 117.572C396.732 117.799 396.484 117.912 396.18 117.912C396.047 117.912 395.916 117.898 395.787 117.871C395.697 117.848 395.473 117.768 395.113 117.631C394.754 117.494 394.492 117.426 394.328 117.426C394.203 117.426 394.105 117.465 394.035 117.543C393.965 117.617 393.928 117.748 393.924 117.936ZM401.729 118.41H403.463V123.062C403.463 123.801 403.484 124.279 403.527 124.498C403.602 124.85 403.777 125.133 404.055 125.348C404.336 125.559 404.719 125.664 405.203 125.664C405.695 125.664 406.066 125.564 406.316 125.365C406.566 125.162 406.717 124.914 406.768 124.621C406.818 124.328 406.844 123.842 406.844 123.162V118.41H408.578V122.922C408.578 123.953 408.531 124.682 408.438 125.107C408.344 125.533 408.17 125.893 407.916 126.186C407.666 126.479 407.33 126.713 406.908 126.889C406.486 127.061 405.936 127.146 405.256 127.146C404.436 127.146 403.812 127.053 403.387 126.865C402.965 126.674 402.631 126.428 402.385 126.127C402.139 125.822 401.977 125.504 401.898 125.172C401.785 124.68 401.729 123.953 401.729 122.992V118.41ZM419.248 123.842L420.93 124.375C420.672 125.312 420.242 126.01 419.641 126.467C419.043 126.92 418.283 127.146 417.361 127.146C416.221 127.146 415.283 126.758 414.549 125.98C413.814 125.199 413.447 124.133 413.447 122.781C413.447 121.352 413.816 120.242 414.555 119.453C415.293 118.66 416.264 118.264 417.467 118.264C418.518 118.264 419.371 118.574 420.027 119.195C420.418 119.562 420.711 120.09 420.906 120.777L419.189 121.188C419.088 120.742 418.875 120.391 418.551 120.133C418.23 119.875 417.84 119.746 417.379 119.746C416.742 119.746 416.225 119.975 415.826 120.432C415.432 120.889 415.234 121.629 415.234 122.652C415.234 123.738 415.43 124.512 415.82 124.973C416.211 125.434 416.719 125.664 417.344 125.664C417.805 125.664 418.201 125.518 418.533 125.225C418.865 124.932 419.104 124.471 419.248 123.842ZM422.412 118.41H424.146V123.062C424.146 123.801 424.168 124.279 424.211 124.498C424.285 124.85 424.461 125.133 424.738 125.348C425.02 125.559 425.402 125.664 425.887 125.664C426.379 125.664 426.75 125.564 427 125.365C427.25 125.162 427.4 124.914 427.451 124.621C427.502 124.328 427.527 123.842 427.527 123.162V118.41H429.262V122.922C429.262 123.953 429.215 124.682 429.121 125.107C429.027 125.533 428.854 125.893 428.6 126.186C428.35 126.479 428.014 126.713 427.592 126.889C427.17 127.061 426.619 127.146 425.939 127.146C425.119 127.146 424.496 127.053 424.07 126.865C423.648 126.674 423.314 126.428 423.068 126.127C422.822 125.822 422.66 125.504 422.582 125.172C422.469 124.68 422.412 123.953 422.412 122.992V118.41ZM425.506 117.449C425.729 117.426 425.871 117.404 425.934 117.385C426.141 117.334 426.246 117.244 426.25 117.115C426.254 117.025 426.199 116.949 426.086 116.887C425.922 116.797 425.662 116.752 425.307 116.752C425.186 116.752 425.002 116.76 424.756 116.775L424.691 116.178C424.844 116.146 425.125 116.133 425.535 116.137C426.016 116.141 426.408 116.219 426.713 116.371C427.049 116.535 427.221 116.764 427.229 117.057C427.244 117.463 426.889 117.711 426.162 117.801V118.094H425.506V117.449ZM438.842 127H436.955L436.205 125.049H432.771L432.062 127H430.223L433.568 118.41H435.402L438.842 127ZM435.648 123.602L434.465 120.414L433.305 123.602H435.648ZM442.639 127V118.41H445.234L446.793 124.27L448.334 118.41H450.936V127H449.324V120.238L447.619 127H445.949L444.25 120.238V127H442.639ZM460.404 127H458.518L457.768 125.049H454.334L453.625 127H451.785L455.131 118.41H456.965L460.404 127ZM457.211 123.602L456.027 120.414L454.867 123.602H457.211ZM454.686 117.936H453.936C453.932 117.846 453.93 117.775 453.93 117.725C453.93 117.314 454.029 117 454.229 116.781C454.428 116.559 454.684 116.447 454.996 116.447C455.133 116.447 455.26 116.463 455.377 116.494C455.494 116.521 455.707 116.605 456.016 116.746C456.328 116.883 456.572 116.951 456.748 116.951C456.873 116.951 456.977 116.912 457.059 116.834C457.145 116.756 457.199 116.625 457.223 116.441H457.984C457.98 116.969 457.881 117.346 457.686 117.572C457.494 117.799 457.246 117.912 456.941 117.912C456.809 117.912 456.678 117.898 456.549 117.871C456.459 117.848 456.234 117.768 455.875 117.631C455.516 117.494 455.254 117.426 455.09 117.426C454.965 117.426 454.867 117.465 454.797 117.543C454.727 117.617 454.689 117.748 454.686 117.936ZM470.166 123.842L471.848 124.375C471.59 125.312 471.16 126.01 470.559 126.467C469.961 126.92 469.201 127.146 468.279 127.146C467.139 127.146 466.201 126.758 465.467 125.98C464.732 125.199 464.365 124.133 464.365 122.781C464.365 121.352 464.734 120.242 465.473 119.453C466.211 118.66 467.182 118.264 468.385 118.264C469.436 118.264 470.289 118.574 470.945 119.195C471.336 119.562 471.629 120.09 471.824 120.777L470.107 121.188C470.006 120.742 469.793 120.391 469.469 120.133C469.148 119.875 468.758 119.746 468.297 119.746C467.66 119.746 467.143 119.975 466.744 120.432C466.35 120.889 466.152 121.629 466.152 122.652C466.152 123.738 466.348 124.512 466.738 124.973C467.129 125.434 467.637 125.664 468.262 125.664C468.723 125.664 469.119 125.518 469.451 125.225C469.783 124.932 470.021 124.471 470.166 123.842ZM473.348 127V118.41H475.082V121.791H478.48V118.41H480.215V127H478.48V123.244H475.082V127H473.348ZM489.449 118.41H491.096V119.588C491.096 120.072 491.053 120.451 490.967 120.725C490.885 120.998 490.732 121.242 490.51 121.457C490.15 121.801 489.598 122.029 488.852 122.143V122.922C488.852 123.934 488.805 124.662 488.711 125.107C488.621 125.525 488.449 125.885 488.195 126.186C487.641 126.826 486.752 127.146 485.529 127.146C484.17 127.146 483.213 126.805 482.658 126.121C482.412 125.82 482.25 125.504 482.172 125.172C482.059 124.684 482.002 123.957 482.002 122.992V118.41H483.736V123.062C483.736 123.809 483.758 124.287 483.801 124.498C483.961 125.275 484.52 125.664 485.477 125.664C486.398 125.664 486.92 125.316 487.041 124.621C487.092 124.328 487.117 123.842 487.117 123.162V118.41H488.852V121.475C489.418 121.369 489.812 121.164 490.035 120.859C490.168 120.68 490.238 120.412 490.246 120.057H489.449V118.41ZM484.363 117.918L485.172 116.166H487.018L485.406 117.918H484.363ZM491.992 127V118.41H493.68L497.195 124.146V118.41H498.807V127H497.066L493.604 121.398V127H491.992ZM504.643 123.842V122.395H508.381V125.816C508.018 126.168 507.49 126.479 506.799 126.748C506.111 127.014 505.414 127.146 504.707 127.146C503.809 127.146 503.025 126.959 502.357 126.584C501.689 126.205 501.188 125.666 500.852 124.967C500.516 124.264 500.348 123.5 500.348 122.676C500.348 121.781 500.535 120.986 500.91 120.291C501.285 119.596 501.834 119.062 502.557 118.691C503.107 118.406 503.793 118.264 504.613 118.264C505.68 118.264 506.512 118.488 507.109 118.938C507.711 119.383 508.098 120 508.27 120.789L506.547 121.111C506.426 120.689 506.197 120.357 505.861 120.115C505.529 119.869 505.113 119.746 504.613 119.746C503.855 119.746 503.252 119.986 502.803 120.467C502.357 120.947 502.135 121.66 502.135 122.605C502.135 123.625 502.361 124.391 502.814 124.902C503.268 125.41 503.861 125.664 504.596 125.664C504.959 125.664 505.322 125.594 505.686 125.453C506.053 125.309 506.367 125.135 506.629 124.932V123.842H504.643ZM513.35 127V118.41H515.084V122.225L518.588 118.41H520.92L517.686 121.756L521.096 127H518.852L516.49 122.969L515.084 124.404V127H513.35ZM522.004 127V118.41H523.738V121.791H527.137V118.41H528.871V127H527.137V123.244H523.738V127H522.004ZM530.318 122.758C530.318 121.883 530.449 121.148 530.711 120.555C530.906 120.117 531.172 119.725 531.508 119.377C531.848 119.029 532.219 118.771 532.621 118.604C533.156 118.377 533.773 118.264 534.473 118.264C535.738 118.264 536.75 118.656 537.508 119.441C538.27 120.227 538.65 121.318 538.65 122.717C538.65 124.104 538.273 125.189 537.52 125.975C536.766 126.756 535.758 127.146 534.496 127.146C533.219 127.146 532.203 126.758 531.449 125.98C530.695 125.199 530.318 124.125 530.318 122.758ZM532.105 122.699C532.105 123.672 532.33 124.41 532.779 124.914C533.229 125.414 533.799 125.664 534.49 125.664C535.182 125.664 535.748 125.416 536.189 124.92C536.635 124.42 536.857 123.672 536.857 122.676C536.857 121.691 536.641 120.957 536.207 120.473C535.777 119.988 535.205 119.746 534.49 119.746C533.775 119.746 533.199 119.992 532.762 120.484C532.324 120.973 532.105 121.711 532.105 122.699ZM547.756 127H545.869L545.119 125.049H541.686L540.977 127H539.137L542.482 118.41H544.316L547.756 127ZM544.562 123.602L543.379 120.414L542.219 123.602H544.562ZM542.383 117.918L543.191 116.166H545.037L543.426 117.918H542.383ZM548.699 127V118.41H550.387L553.902 124.146V118.41H555.514V127H553.773L550.311 121.398V127H548.699ZM557.658 122.424V120.777H559.305V122.424H557.658ZM557.658 127V125.354H559.305V127H557.658ZM566.623 127V119.863H564.074V118.41H570.9V119.863H568.357V127H566.623ZM579.461 118.41H581.107V119.588C581.107 120.072 581.064 120.451 580.979 120.725C580.896 120.998 580.744 121.242 580.521 121.457C580.162 121.801 579.609 122.029 578.863 122.143V122.922C578.863 123.934 578.816 124.662 578.723 125.107C578.633 125.525 578.461 125.885 578.207 126.186C577.652 126.826 576.764 127.146 575.541 127.146C574.182 127.146 573.225 126.805 572.67 126.121C572.424 125.82 572.262 125.504 572.184 125.172C572.07 124.684 572.014 123.957 572.014 122.992V118.41H573.748V123.062C573.748 123.809 573.77 124.287 573.812 124.498C573.973 125.275 574.531 125.664 575.488 125.664C576.41 125.664 576.932 125.316 577.053 124.621C577.104 124.328 577.129 123.842 577.129 123.162V118.41H578.863V121.475C579.43 121.369 579.824 121.164 580.047 120.859C580.18 120.68 580.25 120.412 580.258 120.057H579.461V118.41ZM583.422 122.699C583.422 123.645 583.646 124.383 584.096 124.914C584.521 125.414 585.092 125.664 585.807 125.664C586.521 125.664 587.09 125.414 587.512 124.914C587.953 124.391 588.174 123.645 588.174 122.676C588.174 121.715 587.959 120.98 587.529 120.473C587.115 119.988 586.541 119.746 585.807 119.746C585.072 119.746 584.496 119.992 584.078 120.484C583.641 120.996 583.422 121.734 583.422 122.699ZM589.703 118.41H591.35V119.588C591.35 120.072 591.307 120.451 591.221 120.725C591.139 120.998 590.986 121.242 590.764 121.457C590.541 121.668 590.262 121.836 589.926 121.961C589.953 122.203 589.967 122.455 589.967 122.717C589.967 124.092 589.592 125.174 588.842 125.963C588.092 126.752 587.082 127.146 585.812 127.146C584.531 127.146 583.514 126.756 582.76 125.975C582.01 125.189 581.635 124.117 581.635 122.758C581.635 121.32 582.033 120.193 582.83 119.377C583.549 118.635 584.535 118.264 585.789 118.264C587.055 118.264 588.068 118.656 588.83 119.441C589.287 119.918 589.607 120.506 589.791 121.205C590.248 120.998 590.484 120.615 590.5 120.057H589.703V118.41ZM592.246 127V118.41H593.934L597.449 124.146V118.41H599.061V127H597.32L593.857 121.398V127H592.246ZM604.896 123.842V122.395H608.635V125.816C608.271 126.168 607.744 126.479 607.053 126.748C606.365 127.014 605.668 127.146 604.961 127.146C604.062 127.146 603.279 126.959 602.611 126.584C601.943 126.205 601.441 125.666 601.105 124.967C600.77 124.264 600.602 123.5 600.602 122.676C600.602 121.781 600.789 120.986 601.164 120.291C601.539 119.596 602.088 119.062 602.811 118.691C603.361 118.406 604.047 118.264 604.867 118.264C605.934 118.264 606.766 118.488 607.363 118.938C607.965 119.383 608.352 120 608.523 120.789L606.801 121.111C606.68 120.689 606.451 120.357 606.115 120.115C605.783 119.869 605.367 119.746 604.867 119.746C604.109 119.746 603.506 119.986 603.057 120.467C602.611 120.947 602.389 121.66 602.389 122.605C602.389 123.625 602.615 124.391 603.068 124.902C603.521 125.41 604.115 125.664 604.85 125.664C605.213 125.664 605.576 125.594 605.939 125.453C606.307 125.309 606.621 125.135 606.883 124.932V123.842H604.896ZM615.514 127V119.863H612.965V118.41H619.791V119.863H617.248V127H615.514ZM628.352 118.41H629.998V119.588C629.998 120.072 629.955 120.451 629.869 120.725C629.787 120.998 629.635 121.242 629.412 121.457C629.053 121.801 628.5 122.029 627.754 122.143V122.922C627.754 123.934 627.707 124.662 627.613 125.107C627.523 125.525 627.352 125.885 627.098 126.186C626.543 126.826 625.654 127.146 624.432 127.146C623.072 127.146 622.115 126.805 621.561 126.121C621.314 125.82 621.152 125.504 621.074 125.172C620.961 124.684 620.904 123.957 620.904 122.992V118.41H622.639V123.062C622.639 123.809 622.66 124.287 622.703 124.498C622.863 125.275 623.422 125.664 624.379 125.664C625.301 125.664 625.822 125.316 625.943 124.621C625.994 124.328 626.02 123.842 626.02 123.162V118.41H627.754V121.475C628.32 121.369 628.715 121.164 628.938 120.859C629.07 120.68 629.141 120.412 629.148 120.057H628.352V118.41ZM623.547 129.35V127.703H625.193V129.35H623.547ZM634.217 127V118.41H637C638.055 118.41 638.742 118.453 639.062 118.539C639.555 118.668 639.967 118.949 640.299 119.383C640.631 119.812 640.797 120.369 640.797 121.053C640.797 121.58 640.701 122.023 640.51 122.383C640.318 122.742 640.074 123.025 639.777 123.232C639.484 123.436 639.186 123.57 638.881 123.637C638.467 123.719 637.867 123.76 637.082 123.76H635.951V127H634.217ZM635.951 119.863V122.301H636.9C637.584 122.301 638.041 122.256 638.271 122.166C638.502 122.076 638.682 121.936 638.811 121.744C638.943 121.553 639.01 121.33 639.01 121.076C639.01 120.764 638.918 120.506 638.734 120.303C638.551 120.1 638.318 119.973 638.037 119.922C637.83 119.883 637.414 119.863 636.789 119.863H635.951ZM642.227 127V118.41H643.961V121.791H647.359V118.41H649.094V127H647.359V123.244H643.961V127H642.227ZM658.639 127H656.752L656.002 125.049H652.568L651.859 127H650.02L653.365 118.41H655.199L658.639 127ZM655.445 123.602L654.262 120.414L653.102 123.602H655.445ZM654.256 117.684L653.611 118.117H652.457L653.734 117.355H654.777L656.055 118.117H654.9L654.256 117.684ZM654.947 117.156H653.91L652.41 116.201H654.256L654.947 117.156ZM659.582 127V118.41H661.27L664.785 124.146V118.41H666.396V127H664.656L661.193 121.398V127H659.582ZM671.67 121.463L671.359 119.863V118.41H673.152V119.863L672.883 121.463H671.67ZM674.312 121.463L674.002 119.863V118.41H675.795V119.863L675.525 121.463H674.312ZM677.277 118.41H680.711C681.391 118.41 681.896 118.439 682.229 118.498C682.564 118.553 682.863 118.67 683.125 118.85C683.391 119.029 683.611 119.27 683.787 119.57C683.963 119.867 684.051 120.201 684.051 120.572C684.051 120.975 683.941 121.344 683.723 121.68C683.508 122.016 683.215 122.268 682.844 122.436C683.367 122.588 683.77 122.848 684.051 123.215C684.332 123.582 684.473 124.014 684.473 124.51C684.473 124.9 684.381 125.281 684.197 125.652C684.018 126.02 683.77 126.314 683.453 126.537C683.141 126.756 682.754 126.891 682.293 126.941C682.004 126.973 681.307 126.992 680.201 127H677.277V118.41ZM679.012 119.84V121.826H680.148C680.824 121.826 681.244 121.816 681.408 121.797C681.705 121.762 681.938 121.66 682.105 121.492C682.277 121.32 682.363 121.096 682.363 120.818C682.363 120.553 682.289 120.338 682.141 120.174C681.996 120.006 681.779 119.904 681.49 119.869C681.318 119.85 680.824 119.84 680.008 119.84H679.012ZM679.012 123.256V125.553H680.617C681.242 125.553 681.639 125.535 681.807 125.5C682.064 125.453 682.273 125.34 682.434 125.16C682.598 124.977 682.68 124.732 682.68 124.428C682.68 124.17 682.617 123.951 682.492 123.771C682.367 123.592 682.186 123.461 681.947 123.379C681.713 123.297 681.201 123.256 680.412 123.256H679.012ZM685.99 127V118.48H687.725V125.553H692.037V127H685.99ZM693.279 118.41H696.443C697.17 118.41 697.721 118.467 698.096 118.58C698.604 118.732 699.037 119.002 699.396 119.389C699.756 119.771 700.025 120.236 700.205 120.783C700.389 121.33 700.48 122.006 700.48 122.811C700.48 123.518 700.379 124.156 700.176 124.727C699.977 125.293 699.682 125.766 699.291 126.145C698.99 126.43 698.586 126.654 698.078 126.818C697.695 126.939 697.182 127 696.537 127H693.279V123.25H692.389V122.16H693.279V118.41ZM695.008 119.863V122.16H696.848V123.25H695.008V125.553H696.309C696.883 125.553 697.297 125.506 697.551 125.412C697.887 125.295 698.143 125.08 698.318 124.768C698.564 124.326 698.688 123.652 698.688 122.746C698.688 122.102 698.635 121.605 698.529 121.258C698.428 120.906 698.275 120.623 698.072 120.408C697.873 120.193 697.611 120.043 697.287 119.957C697.037 119.895 696.539 119.863 695.793 119.863H695.008ZM707.482 127L704.412 118.41H706.293L708.467 124.768L710.57 118.41H712.41L709.334 127H707.482ZM721.041 127H719.154L718.404 125.049H714.971L714.262 127H712.422L715.768 118.41H717.602L721.041 127ZM717.848 123.602L716.664 120.414L715.504 123.602H717.848ZM717.643 117.918H716.605L714.988 116.166H716.834L717.643 117.918ZM724.867 124.205L726.555 124.041C726.656 124.607 726.861 125.023 727.17 125.289C727.482 125.555 727.902 125.688 728.43 125.688C728.988 125.688 729.408 125.57 729.689 125.336C729.975 125.098 730.117 124.82 730.117 124.504C730.117 124.301 730.057 124.129 729.936 123.988C729.818 123.844 729.611 123.719 729.314 123.613C729.111 123.543 728.648 123.418 727.926 123.238C726.996 123.008 726.344 122.725 725.969 122.389C725.441 121.916 725.178 121.34 725.178 120.66C725.178 120.223 725.301 119.814 725.547 119.436C725.797 119.053 726.154 118.762 726.619 118.562C727.088 118.363 727.652 118.264 728.312 118.264C729.391 118.264 730.201 118.5 730.744 118.973C731.291 119.445 731.578 120.076 731.605 120.865L729.871 120.941C729.797 120.5 729.637 120.184 729.391 119.992C729.148 119.797 728.783 119.699 728.295 119.699C727.791 119.699 727.396 119.803 727.111 120.01C726.928 120.143 726.836 120.32 726.836 120.543C726.836 120.746 726.922 120.92 727.094 121.064C727.312 121.248 727.844 121.439 728.688 121.639C729.531 121.838 730.154 122.045 730.557 122.26C730.963 122.471 731.279 122.762 731.506 123.133C731.736 123.5 731.852 123.955 731.852 124.498C731.852 124.99 731.715 125.451 731.441 125.881C731.168 126.311 730.781 126.631 730.281 126.842C729.781 127.049 729.158 127.152 728.412 127.152C727.326 127.152 726.492 126.902 725.91 126.402C725.328 125.898 724.98 125.166 724.867 124.205ZM734.746 122.699C734.746 123.645 734.971 124.383 735.42 124.914C735.846 125.414 736.416 125.664 737.131 125.664C737.846 125.664 738.414 125.414 738.836 124.914C739.277 124.391 739.498 123.645 739.498 122.676C739.498 121.715 739.283 120.98 738.854 120.473C738.439 119.988 737.865 119.746 737.131 119.746C736.396 119.746 735.82 119.992 735.402 120.484C734.965 120.996 734.746 121.734 734.746 122.699ZM741.027 118.41H742.674V119.588C742.674 120.072 742.631 120.451 742.545 120.725C742.463 120.998 742.311 121.242 742.088 121.457C741.865 121.668 741.586 121.836 741.25 121.961C741.277 122.203 741.291 122.455 741.291 122.717C741.291 124.092 740.916 125.174 740.166 125.963C739.416 126.752 738.406 127.146 737.137 127.146C735.855 127.146 734.838 126.756 734.084 125.975C733.334 125.189 732.959 124.117 732.959 122.758C732.959 121.32 733.357 120.193 734.154 119.377C734.873 118.635 735.859 118.264 737.113 118.264C738.379 118.264 739.393 118.656 740.154 119.441C740.611 119.918 740.932 120.506 741.115 121.205C741.572 120.998 741.809 120.615 741.824 120.057H741.027V118.41ZM736.785 117.449C737.008 117.426 737.15 117.404 737.213 117.385C737.42 117.334 737.525 117.244 737.529 117.115C737.533 117.025 737.479 116.949 737.365 116.887C737.201 116.797 736.941 116.752 736.586 116.752C736.465 116.752 736.281 116.76 736.035 116.775L735.971 116.178C736.123 116.146 736.404 116.133 736.814 116.137C737.295 116.141 737.688 116.219 737.992 116.371C738.328 116.535 738.5 116.764 738.508 117.057C738.523 117.463 738.168 117.711 737.441 117.801V118.094H736.785V117.449ZM746.898 127V118.41H748.633V121.791H752.031V118.41H753.766V127H752.031V123.244H748.633V127H746.898ZM763 118.41H764.646V119.588C764.646 120.072 764.604 120.451 764.518 120.725C764.436 120.998 764.283 121.242 764.061 121.457C763.701 121.801 763.148 122.029 762.402 122.143V122.922C762.402 123.934 762.355 124.662 762.262 125.107C762.172 125.525 762 125.885 761.746 126.186C761.191 126.826 760.303 127.146 759.08 127.146C757.721 127.146 756.764 126.805 756.209 126.121C755.963 125.82 755.801 125.504 755.723 125.172C755.609 124.684 755.553 123.957 755.553 122.992V118.41H757.287V123.062C757.287 123.809 757.309 124.287 757.352 124.498C757.512 125.275 758.07 125.664 759.027 125.664C759.949 125.664 760.471 125.316 760.592 124.621C760.643 124.328 760.668 123.842 760.668 123.162V118.41H762.402V121.475C762.969 121.369 763.363 121.164 763.586 120.859C763.719 120.68 763.789 120.412 763.797 120.057H763V118.41ZM757.709 117.936H756.959C756.955 117.846 756.953 117.775 756.953 117.725C756.953 117.314 757.053 117 757.252 116.781C757.451 116.559 757.707 116.447 758.02 116.447C758.156 116.447 758.283 116.463 758.4 116.494C758.518 116.521 758.73 116.605 759.039 116.746C759.352 116.883 759.596 116.951 759.771 116.951C759.896 116.951 760 116.912 760.082 116.834C760.168 116.756 760.223 116.625 760.246 116.441H761.008C761.004 116.969 760.904 117.346 760.709 117.572C760.518 117.799 760.27 117.912 759.965 117.912C759.832 117.912 759.701 117.898 759.572 117.871C759.482 117.848 759.258 117.768 758.898 117.631C758.539 117.494 758.277 117.426 758.113 117.426C757.988 117.426 757.891 117.465 757.82 117.543C757.75 117.617 757.713 117.748 757.709 117.936ZM765.514 118.41H767.248V123.062C767.248 123.801 767.27 124.279 767.312 124.498C767.387 124.85 767.562 125.133 767.84 125.348C768.121 125.559 768.504 125.664 768.988 125.664C769.48 125.664 769.852 125.564 770.102 125.365C770.352 125.162 770.502 124.914 770.553 124.621C770.604 124.328 770.629 123.842 770.629 123.162V118.41H772.363V122.922C772.363 123.953 772.316 124.682 772.223 125.107C772.129 125.533 771.955 125.893 771.701 126.186C771.451 126.479 771.115 126.713 770.693 126.889C770.271 127.061 769.721 127.146 769.041 127.146C768.221 127.146 767.598 127.053 767.172 126.865C766.75 126.674 766.416 126.428 766.17 126.127C765.924 125.822 765.762 125.504 765.684 125.172C765.57 124.68 765.514 123.953 765.514 122.992V118.41ZM774.291 121.463L773.98 119.863V118.41H775.773V119.863L775.504 121.463H774.291ZM776.934 121.463L776.623 119.863V118.41H778.416V119.863L778.146 121.463H776.934ZM785.166 127V119.863H782.617V118.41H789.443V119.863H786.9V127H785.166ZM790.574 127V118.41H794.225C795.143 118.41 795.809 118.488 796.223 118.645C796.641 118.797 796.975 119.07 797.225 119.465C797.475 119.859 797.6 120.311 797.6 120.818C797.6 121.463 797.41 121.996 797.031 122.418C796.652 122.836 796.086 123.1 795.332 123.209C795.707 123.428 796.016 123.668 796.258 123.93C796.504 124.191 796.834 124.656 797.248 125.324L798.297 127H796.223L794.969 125.131C794.523 124.463 794.219 124.043 794.055 123.871C793.891 123.695 793.717 123.576 793.533 123.514C793.35 123.447 793.059 123.414 792.66 123.414H792.309V127H790.574ZM792.309 122.043H793.592C794.424 122.043 794.943 122.008 795.15 121.938C795.357 121.867 795.52 121.746 795.637 121.574C795.754 121.402 795.812 121.188 795.812 120.93C795.812 120.641 795.734 120.408 795.578 120.232C795.426 120.053 795.209 119.939 794.928 119.893C794.787 119.873 794.365 119.863 793.662 119.863H792.309V122.043ZM798.889 122.758C798.889 121.883 799.02 121.148 799.281 120.555C799.477 120.117 799.742 119.725 800.078 119.377C800.418 119.029 800.789 118.771 801.191 118.604C801.727 118.377 802.344 118.264 803.043 118.264C804.309 118.264 805.32 118.656 806.078 119.441C806.84 120.227 807.221 121.318 807.221 122.717C807.221 124.104 806.844 125.189 806.09 125.975C805.336 126.756 804.328 127.146 803.066 127.146C801.789 127.146 800.773 126.758 800.02 125.98C799.266 125.199 798.889 124.125 798.889 122.758ZM800.676 122.699C800.676 123.672 800.9 124.41 801.35 124.914C801.799 125.414 802.369 125.664 803.061 125.664C803.752 125.664 804.318 125.416 804.76 124.92C805.205 124.42 805.428 123.672 805.428 122.676C805.428 121.691 805.211 120.957 804.777 120.473C804.348 119.988 803.775 119.746 803.061 119.746C802.346 119.746 801.77 119.992 801.332 120.484C800.895 120.973 800.676 121.711 800.676 122.699ZM808.598 127V118.41H810.285L813.801 124.146V118.41H815.412V127H813.672L810.209 121.398V127H808.598ZM821.248 123.842V122.395H824.986V125.816C824.623 126.168 824.096 126.479 823.404 126.748C822.717 127.014 822.02 127.146 821.312 127.146C820.414 127.146 819.631 126.959 818.963 126.584C818.295 126.205 817.793 125.666 817.457 124.967C817.121 124.264 816.953 123.5 816.953 122.676C816.953 121.781 817.141 120.986 817.516 120.291C817.891 119.596 818.439 119.062 819.162 118.691C819.713 118.406 820.398 118.264 821.219 118.264C822.285 118.264 823.117 118.488 823.715 118.938C824.316 119.383 824.703 120 824.875 120.789L823.152 121.111C823.031 120.689 822.803 120.357 822.467 120.115C822.135 119.869 821.719 119.746 821.219 119.746C820.461 119.746 819.857 119.986 819.408 120.467C818.963 120.947 818.74 121.66 818.74 122.605C818.74 123.625 818.967 124.391 819.42 124.902C819.873 125.41 820.467 125.664 821.201 125.664C821.564 125.664 821.928 125.594 822.291 125.453C822.658 125.309 822.973 125.135 823.234 124.932V123.842H821.248ZM833.928 123.842V122.395H837.666V125.816C837.303 126.168 836.775 126.479 836.084 126.748C835.396 127.014 834.699 127.146 833.992 127.146C833.094 127.146 832.311 126.959 831.643 126.584C830.975 126.205 830.473 125.666 830.137 124.967C829.801 124.264 829.633 123.5 829.633 122.676C829.633 121.781 829.82 120.986 830.195 120.291C830.57 119.596 831.119 119.062 831.842 118.691C832.393 118.406 833.078 118.264 833.898 118.264C834.965 118.264 835.797 118.488 836.395 118.938C836.996 119.383 837.383 120 837.555 120.789L835.832 121.111C835.711 120.689 835.482 120.357 835.146 120.115C834.814 119.869 834.398 119.746 833.898 119.746C833.141 119.746 832.537 119.986 832.088 120.467C831.643 120.947 831.42 121.66 831.42 122.605C831.42 123.625 831.646 124.391 832.1 124.902C832.553 125.41 833.146 125.664 833.881 125.664C834.244 125.664 834.607 125.594 834.971 125.453C835.338 125.309 835.652 125.135 835.914 124.932V123.842H833.928ZM839.219 127V118.41H840.953V127H839.219ZM850.357 127H848.471L847.721 125.049H844.287L843.578 127H841.738L845.084 118.41H846.918L850.357 127ZM847.164 123.602L845.98 120.414L844.82 123.602H847.164ZM850.932 122.758C850.932 121.883 851.062 121.148 851.324 120.555C851.52 120.117 851.785 119.725 852.121 119.377C852.461 119.029 852.832 118.771 853.234 118.604C853.77 118.377 854.387 118.264 855.086 118.264C856.352 118.264 857.363 118.656 858.121 119.441C858.883 120.227 859.264 121.318 859.264 122.717C859.264 124.104 858.887 125.189 858.133 125.975C857.379 126.756 856.371 127.146 855.109 127.146C853.832 127.146 852.816 126.758 852.062 125.98C851.309 125.199 850.932 124.125 850.932 122.758ZM852.719 122.699C852.719 123.672 852.943 124.41 853.393 124.914C853.842 125.414 854.412 125.664 855.104 125.664C855.795 125.664 856.361 125.416 856.803 124.92C857.248 124.42 857.471 123.672 857.471 122.676C857.471 121.691 857.254 120.957 856.82 120.473C856.391 119.988 855.818 119.746 855.104 119.746C854.389 119.746 853.812 119.992 853.375 120.484C852.938 120.973 852.719 121.711 852.719 122.699ZM863.957 118.41H867.127C867.842 118.41 868.387 118.465 868.762 118.574C869.266 118.723 869.697 118.986 870.057 119.365C870.416 119.744 870.689 120.209 870.877 120.76C871.064 121.307 871.158 121.982 871.158 122.787C871.158 123.494 871.07 124.104 870.895 124.615C870.68 125.24 870.373 125.746 869.975 126.133C869.674 126.426 869.268 126.654 868.756 126.818C868.373 126.939 867.861 127 867.221 127H863.957V118.41ZM865.691 119.863V125.553H866.986C867.471 125.553 867.82 125.525 868.035 125.471C868.316 125.4 868.549 125.281 868.732 125.113C868.92 124.945 869.072 124.67 869.189 124.287C869.307 123.9 869.365 123.375 869.365 122.711C869.365 122.047 869.307 121.537 869.189 121.182C869.072 120.826 868.908 120.549 868.697 120.35C868.486 120.15 868.219 120.016 867.895 119.945C867.652 119.891 867.178 119.863 866.471 119.863H865.691ZM872.582 127V118.41H874.316V127H872.582ZM875.975 127V118.41H882.344V119.863H877.709V121.768H882.021V123.215H877.709V125.553H882.508V127H875.975ZM879.338 117.684L878.693 118.117H877.539L878.816 117.355H879.859L881.137 118.117H879.982L879.338 117.684ZM878.547 129.35V127.703H880.193V129.35H878.547ZM883.996 127V118.41H885.684L889.199 124.146V118.41H890.811V127H889.07L885.607 121.398V127H883.996ZM895.967 127V118.41H898.562L900.121 124.27L901.662 118.41H904.264V127H902.652V120.238L900.947 127H899.277L897.578 120.238V127H895.967ZM913.732 127H911.846L911.096 125.049H907.662L906.953 127H905.113L908.459 118.41H910.293L913.732 127ZM910.539 123.602L909.355 120.414L908.195 123.602H910.539ZM908.014 117.936H907.264C907.26 117.846 907.258 117.775 907.258 117.725C907.258 117.314 907.357 117 907.557 116.781C907.756 116.559 908.012 116.447 908.324 116.447C908.461 116.447 908.588 116.463 908.705 116.494C908.822 116.521 909.035 116.605 909.344 116.746C909.656 116.883 909.9 116.951 910.076 116.951C910.201 116.951 910.305 116.912 910.387 116.834C910.473 116.756 910.527 116.625 910.551 116.441H911.312C911.309 116.969 911.209 117.346 911.014 117.572C910.822 117.799 910.574 117.912 910.27 117.912C910.137 117.912 910.006 117.898 909.877 117.871C909.787 117.848 909.562 117.768 909.203 117.631C908.844 117.494 908.582 117.426 908.418 117.426C908.293 117.426 908.195 117.465 908.125 117.543C908.055 117.617 908.018 117.748 908.014 117.936ZM919.932 127V119.863H917.383V118.41H924.209V119.863H921.666V127H919.932ZM925.34 127V118.41H928.99C929.908 118.41 930.574 118.488 930.988 118.645C931.406 118.797 931.74 119.07 931.99 119.465C932.24 119.859 932.365 120.311 932.365 120.818C932.365 121.463 932.176 121.996 931.797 122.418C931.418 122.836 930.852 123.1 930.098 123.209C930.473 123.428 930.781 123.668 931.023 123.93C931.27 124.191 931.6 124.656 932.014 125.324L933.062 127H930.988L929.734 125.131C929.289 124.463 928.984 124.043 928.82 123.871C928.656 123.695 928.482 123.576 928.299 123.514C928.115 123.447 927.824 123.414 927.426 123.414H927.074V127H925.34ZM927.074 122.043H928.357C929.189 122.043 929.709 122.008 929.916 121.938C930.123 121.867 930.285 121.746 930.402 121.574C930.52 121.402 930.578 121.188 930.578 120.93C930.578 120.641 930.5 120.408 930.344 120.232C930.191 120.053 929.975 119.939 929.693 119.893C929.553 119.873 929.131 119.863 928.428 119.863H927.074V122.043ZM934.006 127V118.41H940.375V119.863H935.74V121.768H940.053V123.215H935.74V125.553H940.539V127H934.006ZM935.107 117.918L936.338 116.189H937.861L939.074 117.918H937.75L937.07 117.045L936.438 117.918H935.107ZM942.027 127V118.41H943.715L947.23 124.146V118.41H948.842V127H947.102L943.639 121.398V127H942.027ZM961.322 127H959.436L958.686 125.049H955.252L954.543 127H952.703L956.049 118.41H957.883L961.322 127ZM958.129 123.602L956.945 120.414L955.785 123.602H958.129ZM962.295 127V118.48H964.029V125.553H968.342V127H962.295ZM973.58 123.842V122.395H977.318V125.816C976.955 126.168 976.428 126.479 975.736 126.748C975.049 127.014 974.352 127.146 973.645 127.146C972.746 127.146 971.963 126.959 971.295 126.584C970.627 126.205 970.125 125.666 969.789 124.967C969.453 124.264 969.285 123.5 969.285 122.676C969.285 121.781 969.473 120.986 969.848 120.291C970.223 119.596 970.771 119.062 971.494 118.691C972.045 118.406 972.73 118.264 973.551 118.264C974.617 118.264 975.449 118.488 976.047 118.938C976.648 119.383 977.035 120 977.207 120.789L975.484 121.111C975.363 120.689 975.135 120.357 974.799 120.115C974.467 119.869 974.051 119.746 973.551 119.746C972.793 119.746 972.189 119.986 971.74 120.467C971.295 120.947 971.072 121.66 971.072 122.605C971.072 123.625 971.299 124.391 971.752 124.902C972.205 125.41 972.799 125.664 973.533 125.664C973.896 125.664 974.26 125.594 974.623 125.453C974.99 125.309 975.305 125.135 975.566 124.932V123.842H973.58ZM978.572 122.758C978.572 121.883 978.703 121.148 978.965 120.555C979.16 120.117 979.426 119.725 979.762 119.377C980.102 119.029 980.473 118.771 980.875 118.604C981.41 118.377 982.027 118.264 982.727 118.264C983.992 118.264 985.004 118.656 985.762 119.441C986.523 120.227 986.904 121.318 986.904 122.717C986.904 124.104 986.527 125.189 985.773 125.975C985.02 126.756 984.012 127.146 982.75 127.146C981.473 127.146 980.457 126.758 979.703 125.98C978.949 125.199 978.572 124.125 978.572 122.758ZM980.359 122.699C980.359 123.672 980.584 124.41 981.033 124.914C981.482 125.414 982.053 125.664 982.744 125.664C983.436 125.664 984.002 125.416 984.443 124.92C984.889 124.42 985.111 123.672 985.111 122.676C985.111 121.691 984.895 120.957 984.461 120.473C984.031 119.988 983.459 119.746 982.744 119.746C982.029 119.746 981.453 119.992 981.016 120.484C980.578 120.973 980.359 121.711 980.359 122.699Z" fill="white"/>
</svg>
