<svg width="1145" height="221" viewBox="0 0 1145 221" fill="none" xmlns="http://www.w3.org/2000/svg">
<rect x="0.5" y="0.5" width="1144" height="220" stroke="#2E3440"/>
<path d="M266.338 106.41H269.502C270.229 106.41 270.779 106.467 271.154 106.58C271.662 106.732 272.096 107.002 272.455 107.389C272.814 107.771 273.084 108.236 273.264 108.783C273.447 109.33 273.539 110.006 273.539 110.811C273.539 111.518 273.438 112.156 273.234 112.727C273.035 113.293 272.74 113.766 272.35 114.145C272.049 114.43 271.645 114.654 271.137 114.818C270.754 114.939 270.24 115 269.596 115H266.338V111.25H265.447V110.16H266.338V106.41ZM268.066 107.863V110.16H269.906V111.25H268.066V113.553H269.367C269.941 113.553 270.355 113.506 270.609 113.412C270.945 113.295 271.201 113.08 271.377 112.768C271.623 112.326 271.746 111.652 271.746 110.746C271.746 110.102 271.693 109.605 271.588 109.258C271.486 108.906 271.334 108.623 271.131 108.408C270.932 108.193 270.67 108.043 270.346 107.957C270.096 107.895 269.598 107.863 268.852 107.863H268.066ZM274.658 110.758C274.658 109.883 274.789 109.148 275.051 108.555C275.246 108.117 275.512 107.725 275.848 107.377C276.188 107.029 276.559 106.771 276.961 106.604C277.496 106.377 278.113 106.264 278.812 106.264C280.078 106.264 281.09 106.656 281.848 107.441C282.609 108.227 282.99 109.318 282.99 110.717C282.99 112.104 282.613 113.189 281.859 113.975C281.105 114.756 280.098 115.146 278.836 115.146C277.559 115.146 276.543 114.758 275.789 113.98C275.035 113.199 274.658 112.125 274.658 110.758ZM276.445 110.699C276.445 111.672 276.67 112.41 277.119 112.914C277.568 113.414 278.139 113.664 278.83 113.664C279.521 113.664 280.088 113.416 280.529 112.92C280.975 112.42 281.197 111.672 281.197 110.676C281.197 109.691 280.98 108.957 280.547 108.473C280.117 107.988 279.545 107.746 278.83 107.746C278.115 107.746 277.539 107.992 277.102 108.484C276.664 108.973 276.445 109.711 276.445 110.699ZM278.801 105.684L278.156 106.117H277.002L278.279 105.355H279.322L280.6 106.117H279.445L278.801 105.684ZM279.492 105.156H278.455L276.955 104.201H278.801L279.492 105.156ZM289.623 115V107.863H287.074V106.41H293.9V107.863H291.357V115H289.623ZM295.031 115V106.41H296.766V109.791H300.164V106.41H301.898V115H300.164V111.244H296.766V115H295.031ZM303.645 115V106.41H305.379V115H303.645ZM303.691 117.35V115.703H305.338V117.35H303.691ZM312.311 115V107.863H309.762V106.41H316.588V107.863H314.045V115H312.311ZM317.719 115V106.41H319.453V109.791H322.852V106.41H324.586V115H322.852V111.244H319.453V115H317.719ZM326.385 115V106.41H332.754V107.863H328.119V109.768H332.432V111.215H328.119V113.553H332.918V115H326.385ZM329.748 105.684L329.104 106.117H327.949L329.227 105.355H330.27L331.547 106.117H330.393L329.748 105.684ZM329.508 104.898C329.66 104.891 329.771 104.879 329.842 104.863C330.033 104.82 330.131 104.766 330.135 104.699C330.139 104.648 330.088 104.605 329.982 104.57C329.83 104.52 329.59 104.494 329.262 104.494C329.23 104.494 329.158 104.502 329.045 104.518C328.932 104.529 328.836 104.537 328.758 104.541L328.693 104.16C328.834 104.141 329.096 104.133 329.479 104.137C330.502 104.141 331.023 104.277 331.043 104.547C331.055 104.812 330.725 104.99 330.053 105.08V105.156H329.508V104.898ZM337.734 115V106.41H339.469V109.791H342.867V106.41H344.602V115H342.867V111.244H339.469V115H337.734ZM346.348 115V106.41H348.082V115H346.348ZM349.74 115V106.41H356.109V107.863H351.475V109.768H355.787V111.215H351.475V113.553H356.273V115H349.74ZM353.104 105.684L352.459 106.117H351.305L352.582 105.355H353.625L354.902 106.117H353.748L353.104 105.684ZM352.312 117.35V115.703H353.959V117.35H352.312ZM357.762 115V106.41H359.449L362.965 112.146V106.41H364.576V115H362.836L359.373 109.398V115H357.762ZM369.779 115V106.41H371.514V110.225L375.018 106.41H377.35L374.115 109.756L377.525 115H375.281L372.92 110.969L371.514 112.404V115H369.779ZM378.434 115V106.41H380.168V109.791H383.566V106.41H385.301V115H383.566V111.244H380.168V115H378.434ZM386.748 110.758C386.748 109.883 386.879 109.148 387.141 108.555C387.336 108.117 387.602 107.725 387.938 107.377C388.277 107.029 388.648 106.771 389.051 106.604C389.586 106.377 390.203 106.264 390.902 106.264C392.168 106.264 393.18 106.656 393.938 107.441C394.699 108.227 395.08 109.318 395.08 110.717C395.08 112.104 394.703 113.189 393.949 113.975C393.195 114.756 392.188 115.146 390.926 115.146C389.648 115.146 388.633 114.758 387.879 113.98C387.125 113.199 386.748 112.125 386.748 110.758ZM388.535 110.699C388.535 111.672 388.76 112.41 389.209 112.914C389.658 113.414 390.229 113.664 390.92 113.664C391.611 113.664 392.178 113.416 392.619 112.92C393.064 112.42 393.287 111.672 393.287 110.676C393.287 109.691 393.07 108.957 392.637 108.473C392.207 107.988 391.635 107.746 390.92 107.746C390.205 107.746 389.629 107.992 389.191 108.484C388.754 108.973 388.535 109.711 388.535 110.699ZM390.891 105.684L390.246 106.117H389.092L390.369 105.355H391.412L392.689 106.117H391.535L390.891 105.684ZM390.182 105.156L390.891 104.201H392.736L391.225 105.156H390.182ZM396.387 115V106.41H398.121V115H396.387ZM403.166 115V106.48H404.9V113.553H409.213V115H403.166ZM417.891 106.41H419.537V107.588C419.537 108.072 419.494 108.451 419.408 108.725C419.326 108.998 419.174 109.242 418.951 109.457C418.592 109.801 418.039 110.029 417.293 110.143V110.922C417.293 111.934 417.246 112.662 417.152 113.107C417.062 113.525 416.891 113.885 416.637 114.186C416.082 114.826 415.193 115.146 413.971 115.146C412.611 115.146 411.654 114.805 411.1 114.121C410.854 113.82 410.691 113.504 410.613 113.172C410.5 112.684 410.443 111.957 410.443 110.992V106.41H412.178V111.062C412.178 111.809 412.199 112.287 412.242 112.498C412.402 113.275 412.961 113.664 413.918 113.664C414.84 113.664 415.361 113.316 415.482 112.621C415.533 112.328 415.559 111.842 415.559 111.162V106.41H417.293V109.475C417.859 109.369 418.254 109.164 418.477 108.859C418.609 108.68 418.68 108.412 418.688 108.057H417.891V106.41ZM421.852 110.699C421.852 111.645 422.076 112.383 422.525 112.914C422.951 113.414 423.521 113.664 424.236 113.664C424.951 113.664 425.52 113.414 425.941 112.914C426.383 112.391 426.604 111.645 426.604 110.676C426.604 109.715 426.389 108.98 425.959 108.473C425.545 107.988 424.971 107.746 424.236 107.746C423.502 107.746 422.926 107.992 422.508 108.484C422.07 108.996 421.852 109.734 421.852 110.699ZM428.133 106.41H429.779V107.588C429.779 108.072 429.736 108.451 429.65 108.725C429.568 108.998 429.416 109.242 429.193 109.457C428.971 109.668 428.691 109.836 428.355 109.961C428.383 110.203 428.396 110.455 428.396 110.717C428.396 112.092 428.021 113.174 427.271 113.963C426.521 114.752 425.512 115.146 424.242 115.146C422.961 115.146 421.943 114.756 421.189 113.975C420.439 113.189 420.064 112.117 420.064 110.758C420.064 109.32 420.463 108.193 421.26 107.377C421.979 106.635 422.965 106.264 424.219 106.264C425.484 106.264 426.498 106.656 427.26 107.441C427.717 107.918 428.037 108.506 428.221 109.205C428.678 108.998 428.914 108.615 428.93 108.057H428.133V106.41ZM423.34 117.35V115.703H424.986V117.35H423.34ZM430.676 115V106.41H432.363L435.879 112.146V106.41H437.49V115H435.75L432.287 109.398V115H430.676ZM443.326 111.842V110.395H447.064V113.816C446.701 114.168 446.174 114.479 445.482 114.748C444.795 115.014 444.098 115.146 443.391 115.146C442.492 115.146 441.709 114.959 441.041 114.584C440.373 114.205 439.871 113.666 439.535 112.967C439.199 112.264 439.031 111.5 439.031 110.676C439.031 109.781 439.219 108.986 439.594 108.291C439.969 107.596 440.518 107.062 441.24 106.691C441.791 106.406 442.477 106.264 443.297 106.264C444.363 106.264 445.195 106.488 445.793 106.938C446.395 107.383 446.781 108 446.953 108.789L445.23 109.111C445.109 108.689 444.881 108.357 444.545 108.115C444.213 107.869 443.797 107.746 443.297 107.746C442.539 107.746 441.936 107.986 441.486 108.467C441.041 108.947 440.818 109.66 440.818 110.605C440.818 111.625 441.045 112.391 441.498 112.902C441.951 113.41 442.545 113.664 443.279 113.664C443.643 113.664 444.006 113.594 444.369 113.453C444.736 113.309 445.051 113.135 445.312 112.932V111.842H443.326ZM453.943 115V107.863H451.395V106.41H458.221V107.863H455.678V115H453.943ZM459.352 115V106.41H461.086V109.791H464.484V106.41H466.219V115H464.484V111.244H461.086V115H459.352ZM468.018 115V106.41H474.387V107.863H469.752V109.768H474.064V111.215H469.752V113.553H474.551V115H468.018ZM475.67 110.758C475.67 109.883 475.801 109.148 476.062 108.555C476.258 108.117 476.523 107.725 476.859 107.377C477.199 107.029 477.57 106.771 477.973 106.604C478.508 106.377 479.125 106.264 479.824 106.264C481.09 106.264 482.102 106.656 482.859 107.441C483.621 108.227 484.002 109.318 484.002 110.717C484.002 112.104 483.625 113.189 482.871 113.975C482.117 114.756 481.109 115.146 479.848 115.146C478.57 115.146 477.555 114.758 476.801 113.98C476.047 113.199 475.67 112.125 475.67 110.758ZM477.457 110.699C477.457 111.672 477.682 112.41 478.131 112.914C478.58 113.414 479.15 113.664 479.842 113.664C480.533 113.664 481.1 113.416 481.541 112.92C481.986 112.42 482.209 111.672 482.209 110.676C482.209 109.691 481.992 108.957 481.559 108.473C481.129 107.988 480.557 107.746 479.842 107.746C479.127 107.746 478.551 107.992 478.113 108.484C477.676 108.973 477.457 109.711 477.457 110.699ZM492.551 115H490.904V108.795C490.303 109.357 489.594 109.773 488.777 110.043V108.549C489.207 108.408 489.674 108.143 490.178 107.752C490.682 107.357 491.027 106.898 491.215 106.375H492.551V115ZM497.801 106.375C498.633 106.375 499.283 106.672 499.752 107.266C500.311 107.969 500.59 109.135 500.59 110.764C500.59 112.389 500.309 113.557 499.746 114.268C499.281 114.854 498.633 115.146 497.801 115.146C496.965 115.146 496.291 114.826 495.779 114.186C495.268 113.541 495.012 112.395 495.012 110.746C495.012 109.129 495.293 107.965 495.855 107.254C496.32 106.668 496.969 106.375 497.801 106.375ZM497.801 107.74C497.602 107.74 497.424 107.805 497.268 107.934C497.111 108.059 496.99 108.285 496.904 108.613C496.791 109.039 496.734 109.756 496.734 110.764C496.734 111.771 496.785 112.465 496.887 112.844C496.988 113.219 497.115 113.469 497.268 113.594C497.424 113.719 497.602 113.781 497.801 113.781C498 113.781 498.178 113.719 498.334 113.594C498.49 113.465 498.611 113.236 498.697 112.908C498.811 112.486 498.867 111.771 498.867 110.764C498.867 109.756 498.816 109.064 498.715 108.689C498.613 108.311 498.484 108.059 498.328 107.934C498.176 107.805 498 107.74 497.801 107.74ZM505.406 106.41H508.84C509.52 106.41 510.025 106.439 510.357 106.498C510.693 106.553 510.992 106.67 511.254 106.85C511.52 107.029 511.74 107.27 511.916 107.57C512.092 107.867 512.18 108.201 512.18 108.572C512.18 108.975 512.07 109.344 511.852 109.68C511.637 110.016 511.344 110.268 510.973 110.436C511.496 110.588 511.898 110.848 512.18 111.215C512.461 111.582 512.602 112.014 512.602 112.51C512.602 112.9 512.51 113.281 512.326 113.652C512.146 114.02 511.898 114.314 511.582 114.537C511.27 114.756 510.883 114.891 510.422 114.941C510.133 114.973 509.436 114.992 508.33 115H505.406V106.41ZM507.141 107.84V109.826H508.277C508.953 109.826 509.373 109.816 509.537 109.797C509.834 109.762 510.066 109.66 510.234 109.492C510.406 109.32 510.492 109.096 510.492 108.818C510.492 108.553 510.418 108.338 510.27 108.174C510.125 108.006 509.908 107.904 509.619 107.869C509.447 107.85 508.953 107.84 508.137 107.84H507.141ZM507.141 111.256V113.553H508.746C509.371 113.553 509.768 113.535 509.936 113.5C510.193 113.453 510.402 113.34 510.562 113.16C510.727 112.977 510.809 112.732 510.809 112.428C510.809 112.17 510.746 111.951 510.621 111.771C510.496 111.592 510.314 111.461 510.076 111.379C509.842 111.297 509.33 111.256 508.541 111.256H507.141ZM521.508 106.41H523.154V107.588C523.154 108.072 523.111 108.451 523.025 108.725C522.943 108.998 522.791 109.242 522.568 109.457C522.209 109.801 521.656 110.029 520.91 110.143V110.922C520.91 111.934 520.863 112.662 520.77 113.107C520.68 113.525 520.508 113.885 520.254 114.186C519.699 114.826 518.811 115.146 517.588 115.146C516.229 115.146 515.271 114.805 514.717 114.121C514.471 113.82 514.309 113.504 514.23 113.172C514.117 112.684 514.061 111.957 514.061 110.992V106.41H515.795V111.062C515.795 111.809 515.816 112.287 515.859 112.498C516.02 113.275 516.578 113.664 517.535 113.664C518.457 113.664 518.979 113.316 519.1 112.621C519.15 112.328 519.176 111.842 519.176 111.162V106.41H520.91V109.475C521.477 109.369 521.871 109.164 522.094 108.859C522.227 108.68 522.297 108.412 522.305 108.057H521.508V106.41ZM525.469 110.699C525.469 111.645 525.693 112.383 526.143 112.914C526.568 113.414 527.139 113.664 527.854 113.664C528.568 113.664 529.137 113.414 529.559 112.914C530 112.391 530.221 111.645 530.221 110.676C530.221 109.715 530.006 108.98 529.576 108.473C529.162 107.988 528.588 107.746 527.854 107.746C527.119 107.746 526.543 107.992 526.125 108.484C525.688 108.996 525.469 109.734 525.469 110.699ZM531.75 106.41H533.396V107.588C533.396 108.072 533.354 108.451 533.268 108.725C533.186 108.998 533.033 109.242 532.811 109.457C532.588 109.668 532.309 109.836 531.973 109.961C532 110.203 532.014 110.455 532.014 110.717C532.014 112.092 531.639 113.174 530.889 113.963C530.139 114.752 529.129 115.146 527.859 115.146C526.578 115.146 525.561 114.756 524.807 113.975C524.057 113.189 523.682 112.117 523.682 110.758C523.682 109.32 524.08 108.193 524.877 107.377C525.596 106.635 526.582 106.264 527.836 106.264C529.102 106.264 530.115 106.656 530.877 107.441C531.334 107.918 531.654 108.506 531.838 109.205C532.295 108.998 532.531 108.615 532.547 108.057H531.75V106.41ZM526.781 105.918L527.59 104.166H529.436L527.824 105.918H526.781ZM539.771 111.842L541.453 112.375C541.195 113.312 540.766 114.01 540.164 114.467C539.566 114.92 538.807 115.146 537.885 115.146C536.744 115.146 535.807 114.758 535.072 113.98C534.338 113.199 533.971 112.133 533.971 110.781C533.971 109.352 534.34 108.242 535.078 107.453C535.816 106.66 536.787 106.264 537.99 106.264C539.041 106.264 539.895 106.574 540.551 107.195C540.941 107.562 541.234 108.09 541.43 108.777L539.713 109.188C539.611 108.742 539.398 108.391 539.074 108.133C538.754 107.875 538.363 107.746 537.902 107.746C537.266 107.746 536.748 107.975 536.35 108.432C535.955 108.889 535.758 109.629 535.758 110.652C535.758 111.738 535.953 112.512 536.344 112.973C536.734 113.434 537.242 113.664 537.867 113.664C538.328 113.664 538.725 113.518 539.057 113.225C539.389 112.932 539.627 112.471 539.771 111.842ZM550.283 111.842V110.395H554.021V113.816C553.658 114.168 553.131 114.479 552.439 114.748C551.752 115.014 551.055 115.146 550.348 115.146C549.449 115.146 548.666 114.959 547.998 114.584C547.33 114.205 546.828 113.666 546.492 112.967C546.156 112.264 545.988 111.5 545.988 110.676C545.988 109.781 546.176 108.986 546.551 108.291C546.926 107.596 547.475 107.062 548.197 106.691C548.748 106.406 549.434 106.264 550.254 106.264C551.32 106.264 552.152 106.488 552.75 106.938C553.352 107.383 553.738 108 553.91 108.789L552.188 109.111C552.066 108.689 551.838 108.357 551.502 108.115C551.17 107.869 550.754 107.746 550.254 107.746C549.496 107.746 548.893 107.986 548.443 108.467C547.998 108.947 547.775 109.66 547.775 110.605C547.775 111.625 548.002 112.391 548.455 112.902C548.908 113.41 549.502 113.664 550.236 113.664C550.6 113.664 550.963 113.594 551.326 113.453C551.693 113.309 552.008 113.135 552.27 112.932V111.842H550.283ZM555.574 115V106.41H557.309V115H555.574ZM566.713 115H564.826L564.076 113.049H560.643L559.934 115H558.094L561.439 106.41H563.273L566.713 115ZM563.52 111.602L562.336 108.414L561.176 111.602H563.52ZM561.34 105.918L562.148 104.166H563.994L562.383 105.918H561.34ZM567.627 115V113.354H569.273V115H567.627ZM576.252 115V107.863H573.703V106.41H580.529V107.863H577.986V115H576.252ZM581.66 115V106.41H585.311C586.229 106.41 586.895 106.488 587.309 106.645C587.727 106.797 588.061 107.07 588.311 107.465C588.561 107.859 588.686 108.311 588.686 108.818C588.686 109.463 588.496 109.996 588.117 110.418C587.738 110.836 587.172 111.1 586.418 111.209C586.793 111.428 587.102 111.668 587.344 111.93C587.59 112.191 587.92 112.656 588.334 113.324L589.383 115H587.309L586.055 113.131C585.609 112.463 585.305 112.043 585.141 111.871C584.977 111.695 584.803 111.576 584.619 111.514C584.436 111.447 584.145 111.414 583.746 111.414H583.395V115H581.66ZM583.395 110.043H584.678C585.51 110.043 586.029 110.008 586.236 109.938C586.443 109.867 586.605 109.746 586.723 109.574C586.84 109.402 586.898 109.188 586.898 108.93C586.898 108.641 586.82 108.408 586.664 108.232C586.512 108.053 586.295 107.939 586.014 107.893C585.873 107.873 585.451 107.863 584.748 107.863H583.395V110.043ZM590.314 106.41H592.049V111.062C592.049 111.801 592.07 112.279 592.113 112.498C592.188 112.85 592.363 113.133 592.641 113.348C592.922 113.559 593.305 113.664 593.789 113.664C594.281 113.664 594.652 113.564 594.902 113.365C595.152 113.162 595.303 112.914 595.354 112.621C595.404 112.328 595.43 111.842 595.43 111.162V106.41H597.164V110.922C597.164 111.953 597.117 112.682 597.023 113.107C596.93 113.533 596.756 113.893 596.502 114.186C596.252 114.479 595.916 114.713 595.494 114.889C595.072 115.061 594.521 115.146 593.842 115.146C593.021 115.146 592.398 115.053 591.973 114.865C591.551 114.674 591.217 114.428 590.971 114.127C590.725 113.822 590.562 113.504 590.484 113.172C590.371 112.68 590.314 111.953 590.314 110.992V106.41ZM592.957 117.35V115.703H594.604V117.35H592.957ZM604.494 111.842L606.176 112.375C605.918 113.312 605.488 114.01 604.887 114.467C604.289 114.92 603.529 115.146 602.607 115.146C601.467 115.146 600.529 114.758 599.795 113.98C599.061 113.199 598.693 112.133 598.693 110.781C598.693 109.352 599.062 108.242 599.801 107.453C600.539 106.66 601.51 106.264 602.713 106.264C603.764 106.264 604.617 106.574 605.273 107.195C605.664 107.562 605.957 108.09 606.152 108.777L604.436 109.188C604.334 108.742 604.121 108.391 603.797 108.133C603.477 107.875 603.086 107.746 602.625 107.746C601.988 107.746 601.471 107.975 601.072 108.432C600.678 108.889 600.48 109.629 600.48 110.652C600.48 111.738 600.676 112.512 601.066 112.973C601.457 113.434 601.965 113.664 602.59 113.664C603.051 113.664 603.447 113.518 603.779 113.225C604.111 112.932 604.35 112.471 604.494 111.842ZM612.943 115V107.863H610.395V106.41H617.221V107.863H614.678V115H612.943ZM618.334 106.41H620.068V111.062C620.068 111.801 620.09 112.279 620.133 112.498C620.207 112.85 620.383 113.133 620.66 113.348C620.941 113.559 621.324 113.664 621.809 113.664C622.301 113.664 622.672 113.564 622.922 113.365C623.172 113.162 623.322 112.914 623.373 112.621C623.424 112.328 623.449 111.842 623.449 111.162V106.41H625.184V110.922C625.184 111.953 625.137 112.682 625.043 113.107C624.949 113.533 624.775 113.893 624.521 114.186C624.271 114.479 623.936 114.713 623.514 114.889C623.092 115.061 622.541 115.146 621.861 115.146C621.041 115.146 620.418 115.053 619.992 114.865C619.57 114.674 619.236 114.428 618.99 114.127C618.744 113.822 618.582 113.504 618.504 113.172C618.391 112.68 618.334 111.953 618.334 110.992V106.41ZM627.035 115V106.41H628.723L632.238 112.146V106.41H633.85V115H632.109L628.646 109.398V115H627.035ZM639.686 111.842V110.395H643.424V113.816C643.061 114.168 642.533 114.479 641.842 114.748C641.154 115.014 640.457 115.146 639.75 115.146C638.852 115.146 638.068 114.959 637.4 114.584C636.732 114.205 636.23 113.666 635.895 112.967C635.559 112.264 635.391 111.5 635.391 110.676C635.391 109.781 635.578 108.986 635.953 108.291C636.328 107.596 636.877 107.062 637.6 106.691C638.15 106.406 638.836 106.264 639.656 106.264C640.723 106.264 641.555 106.488 642.152 106.938C642.754 107.383 643.141 108 643.312 108.789L641.59 109.111C641.469 108.689 641.24 108.357 640.904 108.115C640.572 107.869 640.156 107.746 639.656 107.746C638.898 107.746 638.295 107.986 637.846 108.467C637.4 108.947 637.178 109.66 637.178 110.605C637.178 111.625 637.404 112.391 637.857 112.902C638.311 113.41 638.904 113.664 639.639 113.664C640.002 113.664 640.365 113.594 640.729 113.453C641.096 113.309 641.41 113.135 641.672 112.932V111.842H639.686ZM648.416 115V106.48H650.15V113.553H654.463V115H648.416ZM663.451 115H661.564L660.814 113.049H657.381L656.672 115H654.832L658.178 106.41H660.012L663.451 115ZM660.258 111.602L659.074 108.414L657.914 111.602H660.258ZM660.053 105.918H659.016L657.398 104.166H659.244L660.053 105.918ZM667.74 115V106.41H669.475V110.225L672.979 106.41H675.311L672.076 109.756L675.486 115H673.242L670.881 110.969L669.475 112.404V115H667.74ZM676.395 115V106.41H678.129V109.791H681.527V106.41H683.262V115H681.527V111.244H678.129V115H676.395ZM684.709 110.758C684.709 109.883 684.84 109.148 685.102 108.555C685.297 108.117 685.562 107.725 685.898 107.377C686.238 107.029 686.609 106.771 687.012 106.604C687.547 106.377 688.164 106.264 688.863 106.264C690.129 106.264 691.141 106.656 691.898 107.441C692.66 108.227 693.041 109.318 693.041 110.717C693.041 112.104 692.664 113.189 691.91 113.975C691.156 114.756 690.148 115.146 688.887 115.146C687.609 115.146 686.594 114.758 685.84 113.98C685.086 113.199 684.709 112.125 684.709 110.758ZM686.496 110.699C686.496 111.672 686.721 112.41 687.17 112.914C687.619 113.414 688.189 113.664 688.881 113.664C689.572 113.664 690.139 113.416 690.58 112.92C691.025 112.42 691.248 111.672 691.248 110.676C691.248 109.691 691.031 108.957 690.598 108.473C690.168 107.988 689.596 107.746 688.881 107.746C688.166 107.746 687.59 107.992 687.152 108.484C686.715 108.973 686.496 109.711 686.496 110.699ZM688.852 105.684L688.207 106.117H687.053L688.33 105.355H689.373L690.65 106.117H689.496L688.852 105.684ZM688.143 105.156L688.852 104.201H690.697L689.186 105.156H688.143ZM694.348 115V106.41H696.082V115H694.348ZM701.127 115V106.48H702.861V113.553H707.174V115H701.127ZM715.852 106.41H717.498V107.588C717.498 108.072 717.455 108.451 717.369 108.725C717.287 108.998 717.135 109.242 716.912 109.457C716.553 109.801 716 110.029 715.254 110.143V110.922C715.254 111.934 715.207 112.662 715.113 113.107C715.023 113.525 714.852 113.885 714.598 114.186C714.043 114.826 713.154 115.146 711.932 115.146C710.572 115.146 709.615 114.805 709.061 114.121C708.814 113.82 708.652 113.504 708.574 113.172C708.461 112.684 708.404 111.957 708.404 110.992V106.41H710.139V111.062C710.139 111.809 710.16 112.287 710.203 112.498C710.363 113.275 710.922 113.664 711.879 113.664C712.801 113.664 713.322 113.316 713.443 112.621C713.494 112.328 713.52 111.842 713.52 111.162V106.41H715.254V109.475C715.82 109.369 716.215 109.164 716.438 108.859C716.57 108.68 716.641 108.412 716.648 108.057H715.852V106.41ZM719.812 110.699C719.812 111.645 720.037 112.383 720.486 112.914C720.912 113.414 721.482 113.664 722.197 113.664C722.912 113.664 723.48 113.414 723.902 112.914C724.344 112.391 724.564 111.645 724.564 110.676C724.564 109.715 724.35 108.98 723.92 108.473C723.506 107.988 722.932 107.746 722.197 107.746C721.463 107.746 720.887 107.992 720.469 108.484C720.031 108.996 719.812 109.734 719.812 110.699ZM726.094 106.41H727.74V107.588C727.74 108.072 727.697 108.451 727.611 108.725C727.529 108.998 727.377 109.242 727.154 109.457C726.932 109.668 726.652 109.836 726.316 109.961C726.344 110.203 726.357 110.455 726.357 110.717C726.357 112.092 725.982 113.174 725.232 113.963C724.482 114.752 723.473 115.146 722.203 115.146C720.922 115.146 719.904 114.756 719.15 113.975C718.4 113.189 718.025 112.117 718.025 110.758C718.025 109.32 718.424 108.193 719.221 107.377C719.939 106.635 720.926 106.264 722.18 106.264C723.445 106.264 724.459 106.656 725.221 107.441C725.678 107.918 725.998 108.506 726.182 109.205C726.639 108.998 726.875 108.615 726.891 108.057H726.094V106.41ZM721.301 117.35V115.703H722.947V117.35H721.301ZM728.637 115V106.41H730.324L733.84 112.146V106.41H735.451V115H733.711L730.248 109.398V115H728.637ZM741.287 111.842V110.395H745.025V113.816C744.662 114.168 744.135 114.479 743.443 114.748C742.756 115.014 742.059 115.146 741.352 115.146C740.453 115.146 739.67 114.959 739.002 114.584C738.334 114.205 737.832 113.666 737.496 112.967C737.16 112.264 736.992 111.5 736.992 110.676C736.992 109.781 737.18 108.986 737.555 108.291C737.93 107.596 738.479 107.062 739.201 106.691C739.752 106.406 740.438 106.264 741.258 106.264C742.324 106.264 743.156 106.488 743.754 106.938C744.355 107.383 744.742 108 744.914 108.789L743.191 109.111C743.07 108.689 742.842 108.357 742.506 108.115C742.174 107.869 741.758 107.746 741.258 107.746C740.5 107.746 739.896 107.986 739.447 108.467C739.002 108.947 738.779 109.66 738.779 110.605C738.779 111.625 739.006 112.391 739.459 112.902C739.912 113.41 740.506 113.664 741.24 113.664C741.604 113.664 741.967 113.594 742.33 113.453C742.697 113.309 743.012 113.135 743.273 112.932V111.842H741.287ZM746.578 113.354H748.225V114.531C748.225 115.008 748.184 115.383 748.102 115.656C748.02 115.934 747.863 116.182 747.633 116.4C747.406 116.619 747.117 116.791 746.766 116.916L746.443 116.236C746.775 116.127 747.012 115.977 747.152 115.785C747.293 115.594 747.367 115.332 747.375 115H746.578V113.354ZM755.244 115V107.863H752.695V106.41H759.521V107.863H756.979V115H755.244ZM760.652 115V106.41H764.303C765.221 106.41 765.887 106.488 766.301 106.645C766.719 106.797 767.053 107.07 767.303 107.465C767.553 107.859 767.678 108.311 767.678 108.818C767.678 109.463 767.488 109.996 767.109 110.418C766.73 110.836 766.164 111.1 765.41 111.209C765.785 111.428 766.094 111.668 766.336 111.93C766.582 112.191 766.912 112.656 767.326 113.324L768.375 115H766.301L765.047 113.131C764.602 112.463 764.297 112.043 764.133 111.871C763.969 111.695 763.795 111.576 763.611 111.514C763.428 111.447 763.137 111.414 762.738 111.414H762.387V115H760.652ZM762.387 110.043H763.67C764.502 110.043 765.021 110.008 765.229 109.938C765.436 109.867 765.598 109.746 765.715 109.574C765.832 109.402 765.891 109.188 765.891 108.93C765.891 108.641 765.812 108.408 765.656 108.232C765.504 108.053 765.287 107.939 765.006 107.893C764.865 107.873 764.443 107.863 763.74 107.863H762.387V110.043ZM769.307 106.41H771.041V111.062C771.041 111.801 771.062 112.279 771.105 112.498C771.18 112.85 771.355 113.133 771.633 113.348C771.914 113.559 772.297 113.664 772.781 113.664C773.273 113.664 773.645 113.564 773.895 113.365C774.145 113.162 774.295 112.914 774.346 112.621C774.396 112.328 774.422 111.842 774.422 111.162V106.41H776.156V110.922C776.156 111.953 776.109 112.682 776.016 113.107C775.922 113.533 775.748 113.893 775.494 114.186C775.244 114.479 774.908 114.713 774.486 114.889C774.064 115.061 773.514 115.146 772.834 115.146C772.014 115.146 771.391 115.053 770.965 114.865C770.543 114.674 770.209 114.428 769.963 114.127C769.717 113.822 769.555 113.504 769.477 113.172C769.363 112.68 769.307 111.953 769.307 110.992V106.41ZM771.949 117.35V115.703H773.596V117.35H771.949ZM783.486 111.842L785.168 112.375C784.91 113.312 784.48 114.01 783.879 114.467C783.281 114.92 782.521 115.146 781.6 115.146C780.459 115.146 779.521 114.758 778.787 113.98C778.053 113.199 777.686 112.133 777.686 110.781C777.686 109.352 778.055 108.242 778.793 107.453C779.531 106.66 780.502 106.264 781.705 106.264C782.756 106.264 783.609 106.574 784.266 107.195C784.656 107.562 784.949 108.09 785.145 108.777L783.428 109.188C783.326 108.742 783.113 108.391 782.789 108.133C782.469 107.875 782.078 107.746 781.617 107.746C780.98 107.746 780.463 107.975 780.064 108.432C779.67 108.889 779.473 109.629 779.473 110.652C779.473 111.738 779.668 112.512 780.059 112.973C780.449 113.434 780.957 113.664 781.582 113.664C782.043 113.664 782.439 113.518 782.771 113.225C783.104 112.932 783.342 112.471 783.486 111.842ZM790.008 115V106.41H791.742V109.791H795.141V106.41H796.875V115H795.141V111.244H791.742V115H790.008ZM798.322 110.758C798.322 109.883 798.453 109.148 798.715 108.555C798.91 108.117 799.176 107.725 799.512 107.377C799.852 107.029 800.223 106.771 800.625 106.604C801.16 106.377 801.777 106.264 802.477 106.264C803.742 106.264 804.754 106.656 805.512 107.441C806.273 108.227 806.654 109.318 806.654 110.717C806.654 112.104 806.277 113.189 805.523 113.975C804.77 114.756 803.762 115.146 802.5 115.146C801.223 115.146 800.207 114.758 799.453 113.98C798.699 113.199 798.322 112.125 798.322 110.758ZM800.109 110.699C800.109 111.672 800.334 112.41 800.783 112.914C801.232 113.414 801.803 113.664 802.494 113.664C803.186 113.664 803.752 113.416 804.193 112.92C804.639 112.42 804.861 111.672 804.861 110.676C804.861 109.691 804.645 108.957 804.211 108.473C803.781 107.988 803.209 107.746 802.494 107.746C801.779 107.746 801.203 107.992 800.766 108.484C800.328 108.973 800.109 109.711 800.109 110.699ZM815.76 115H813.873L813.123 113.049H809.689L808.98 115H807.141L810.486 106.41H812.32L815.76 115ZM812.566 111.602L811.383 108.414L810.223 111.602H812.566ZM812.361 105.918H811.324L809.707 104.166H811.553L812.361 105.918ZM816.703 115V106.41H818.391L821.906 112.146V106.41H823.518V115H821.777L818.314 109.398V115H816.703ZM825.363 115V106.41H827.098V109.791H830.496V106.41H832.23V115H830.496V111.244H827.098V115H825.363ZM837.416 115V106.48H839.15V113.553H843.463V115H837.416ZM852.451 115H850.564L849.814 113.049H846.381L845.672 115H843.832L847.178 106.41H849.012L852.451 115ZM849.258 111.602L848.074 108.414L846.914 111.602H849.258ZM849.053 105.918H848.016L846.398 104.166H848.244L849.053 105.918ZM860.713 111.842V110.395H864.451V113.816C864.088 114.168 863.561 114.479 862.869 114.748C862.182 115.014 861.484 115.146 860.777 115.146C859.879 115.146 859.096 114.959 858.428 114.584C857.76 114.205 857.258 113.666 856.922 112.967C856.586 112.264 856.418 111.5 856.418 110.676C856.418 109.781 856.605 108.986 856.98 108.291C857.355 107.596 857.904 107.062 858.627 106.691C859.178 106.406 859.863 106.264 860.684 106.264C861.75 106.264 862.582 106.488 863.18 106.938C863.781 107.383 864.168 108 864.34 108.789L862.617 109.111C862.496 108.689 862.268 108.357 861.932 108.115C861.6 107.869 861.184 107.746 860.684 107.746C859.926 107.746 859.322 107.986 858.873 108.467C858.428 108.947 858.205 109.66 858.205 110.605C858.205 111.625 858.432 112.391 858.885 112.902C859.338 113.41 859.932 113.664 860.666 113.664C861.029 113.664 861.393 113.594 861.756 113.453C862.123 113.309 862.438 113.135 862.699 112.932V111.842H860.713ZM866.004 115V106.41H867.738V115H866.004ZM877.143 115H875.256L874.506 113.049H871.072L870.363 115H868.523L871.869 106.41H873.703L877.143 115ZM873.949 111.602L872.766 108.414L871.605 111.602H873.949ZM871.77 105.918L872.578 104.166H874.424L872.812 105.918H871.77ZM878.057 115V113.354H879.703V115H878.057Z" fill="white"/>
</svg>
