<svg width="562" height="268" viewBox="0 0 562 268" fill="none" xmlns="http://www.w3.org/2000/svg">
<rect width="562" height="268" fill="#1A1B25"/>
<path d="M227.867 22.4102H231.037C231.752 22.4102 232.297 22.4648 232.672 22.5742C233.176 22.7227 233.607 22.9863 233.967 23.3652C234.326 23.7441 234.6 24.209 234.787 24.7598C234.975 25.3066 235.068 25.9824 235.068 26.7871C235.068 27.4941 234.98 28.1035 234.805 28.6152C234.59 29.2402 234.283 29.7461 233.885 30.1328C233.584 30.4258 233.178 30.6543 232.666 30.8184C232.283 30.9395 231.771 31 231.131 31H227.867V22.4102ZM229.602 23.8633V29.5527H230.896C231.381 29.5527 231.73 29.5254 231.945 29.4707C232.227 29.4004 232.459 29.2812 232.643 29.1133C232.83 28.9453 232.982 28.6699 233.1 28.2871C233.217 27.9004 233.275 27.375 233.275 26.7109C233.275 26.0469 233.217 25.5371 233.1 25.1816C232.982 24.8262 232.818 24.5488 232.607 24.3496C232.396 24.1504 232.129 24.0156 231.805 23.9453C231.562 23.8906 231.088 23.8633 230.381 23.8633H229.602ZM243.98 22.4102H245.627V23.5879C245.627 24.0723 245.584 24.4512 245.498 24.7246C245.416 24.998 245.264 25.2422 245.041 25.457C244.682 25.8008 244.129 26.0293 243.383 26.1426V26.9219C243.383 27.9336 243.336 28.6621 243.242 29.1074C243.152 29.5254 242.98 29.8848 242.727 30.1855C242.172 30.8262 241.283 31.1465 240.061 31.1465C238.701 31.1465 237.744 30.8047 237.189 30.1211C236.943 29.8203 236.781 29.5039 236.703 29.1719C236.59 28.6836 236.533 27.957 236.533 26.9922V22.4102H238.268V27.0625C238.268 27.8086 238.289 28.2871 238.332 28.498C238.492 29.2754 239.051 29.6641 240.008 29.6641C240.93 29.6641 241.451 29.3164 241.572 28.6211C241.623 28.3281 241.648 27.8418 241.648 27.1621V22.4102H243.383V25.4746C243.949 25.3691 244.344 25.1641 244.566 24.8594C244.699 24.6797 244.77 24.4121 244.777 24.0566H243.98V22.4102ZM249.822 31V22.4102H252.418L253.977 28.2695L255.518 22.4102H258.119V31H256.508V24.2383L254.803 31H253.133L251.434 24.2383V31H249.822ZM259.83 22.4102H261.564V27.0625C261.564 27.8008 261.586 28.2793 261.629 28.498C261.703 28.8496 261.879 29.1328 262.156 29.3477C262.438 29.5586 262.82 29.6641 263.305 29.6641C263.797 29.6641 264.168 29.5645 264.418 29.3652C264.668 29.1621 264.818 28.9141 264.869 28.6211C264.92 28.3281 264.945 27.8418 264.945 27.1621V22.4102H266.68V26.9219C266.68 27.9531 266.633 28.6816 266.539 29.1074C266.445 29.5332 266.271 29.8926 266.018 30.1855C265.768 30.4785 265.432 30.7129 265.01 30.8887C264.588 31.0605 264.037 31.1465 263.357 31.1465C262.537 31.1465 261.914 31.0527 261.488 30.8652C261.066 30.6738 260.732 30.4277 260.486 30.127C260.24 29.8223 260.078 29.5039 260 29.1719C259.887 28.6797 259.83 27.9531 259.83 26.9922V22.4102ZM276.26 31H274.373L273.623 29.0488H270.189L269.48 31H267.641L270.986 22.4102H272.82L276.26 31ZM273.066 27.6016L271.883 24.4141L270.723 27.6016H273.066ZM279.881 28.709V27.0625H283.115V28.709H279.881ZM287.41 22.4102H290.58C291.295 22.4102 291.84 22.4648 292.215 22.5742C292.719 22.7227 293.15 22.9863 293.51 23.3652C293.869 23.7441 294.143 24.209 294.33 24.7598C294.518 25.3066 294.611 25.9824 294.611 26.7871C294.611 27.4941 294.523 28.1035 294.348 28.6152C294.133 29.2402 293.826 29.7461 293.428 30.1328C293.127 30.4258 292.721 30.6543 292.209 30.8184C291.826 30.9395 291.314 31 290.674 31H287.41V22.4102ZM289.145 23.8633V29.5527H290.439C290.924 29.5527 291.273 29.5254 291.488 29.4707C291.77 29.4004 292.002 29.2812 292.186 29.1133C292.373 28.9453 292.525 28.6699 292.643 28.2871C292.76 27.9004 292.818 27.375 292.818 26.7109C292.818 26.0469 292.76 25.5371 292.643 25.1816C292.525 24.8262 292.361 24.5488 292.15 24.3496C291.939 24.1504 291.672 24.0156 291.348 23.9453C291.105 23.8906 290.631 23.8633 289.924 23.8633H289.145ZM303.523 22.4102H305.17V23.5879C305.17 24.0723 305.127 24.4512 305.041 24.7246C304.959 24.998 304.807 25.2422 304.584 25.457C304.225 25.8008 303.672 26.0293 302.926 26.1426V26.9219C302.926 27.9336 302.879 28.6621 302.785 29.1074C302.695 29.5254 302.523 29.8848 302.27 30.1855C301.715 30.8262 300.826 31.1465 299.604 31.1465C298.244 31.1465 297.287 30.8047 296.732 30.1211C296.486 29.8203 296.324 29.5039 296.246 29.1719C296.133 28.6836 296.076 27.957 296.076 26.9922V22.4102H297.811V27.0625C297.811 27.8086 297.832 28.2871 297.875 28.498C298.035 29.2754 298.594 29.6641 299.551 29.6641C300.473 29.6641 300.994 29.3164 301.115 28.6211C301.166 28.3281 301.191 27.8418 301.191 27.1621V22.4102H302.926V25.4746C303.492 25.3691 303.887 25.1641 304.109 24.8594C304.242 24.6797 304.312 24.4121 304.32 24.0566H303.523V22.4102ZM298.719 33.3496V31.7031H300.365V33.3496H298.719ZM309.395 22.4102H312.828C313.508 22.4102 314.014 22.4395 314.346 22.498C314.682 22.5527 314.98 22.6699 315.242 22.8496C315.508 23.0293 315.729 23.2695 315.904 23.5703C316.08 23.8672 316.168 24.2012 316.168 24.5723C316.168 24.9746 316.059 25.3438 315.84 25.6797C315.625 26.0156 315.332 26.2676 314.961 26.4355C315.484 26.5879 315.887 26.8477 316.168 27.2148C316.449 27.582 316.59 28.0137 316.59 28.5098C316.59 28.9004 316.498 29.2812 316.314 29.6523C316.135 30.0195 315.887 30.3145 315.57 30.5371C315.258 30.7559 314.871 30.8906 314.41 30.9414C314.121 30.9727 313.424 30.9922 312.318 31H309.395V22.4102ZM311.129 23.8398V25.8262H312.266C312.941 25.8262 313.361 25.8164 313.525 25.7969C313.822 25.7617 314.055 25.6602 314.223 25.4922C314.395 25.3203 314.48 25.0957 314.48 24.8184C314.48 24.5527 314.406 24.3379 314.258 24.1738C314.113 24.0059 313.896 23.9043 313.607 23.8691C313.436 23.8496 312.941 23.8398 312.125 23.8398H311.129ZM311.129 27.2559V29.5527H312.734C313.359 29.5527 313.756 29.5352 313.924 29.5C314.182 29.4531 314.391 29.3398 314.551 29.1602C314.715 28.9766 314.797 28.7324 314.797 28.4277C314.797 28.1699 314.734 27.9512 314.609 27.7715C314.484 27.5918 314.303 27.4609 314.064 27.3789C313.83 27.2969 313.318 27.2559 312.529 27.2559H311.129ZM325.807 31H323.92L323.17 29.0488H319.736L319.027 31H317.188L320.533 22.4102H322.367L325.807 31ZM322.613 27.6016L321.43 24.4141L320.27 27.6016H322.613ZM320.434 21.918L321.242 20.166H323.088L321.477 21.918H320.434ZM326.75 31V22.4102H328.438L331.953 28.1465V22.4102H333.564V31H331.824L328.361 25.3984V31H326.75Z" fill="white"/>
<path d="M154.867 116.41H158.037C158.752 116.41 159.297 116.465 159.672 116.574C160.176 116.723 160.607 116.986 160.967 117.365C161.326 117.744 161.6 118.209 161.787 118.76C161.975 119.307 162.068 119.982 162.068 120.787C162.068 121.494 161.98 122.104 161.805 122.615C161.59 123.24 161.283 123.746 160.885 124.133C160.584 124.426 160.178 124.654 159.666 124.818C159.283 124.939 158.771 125 158.131 125H154.867V116.41ZM156.602 117.863V123.553H157.896C158.381 123.553 158.73 123.525 158.945 123.471C159.227 123.4 159.459 123.281 159.643 123.113C159.83 122.945 159.982 122.67 160.1 122.287C160.217 121.9 160.275 121.375 160.275 120.711C160.275 120.047 160.217 119.537 160.1 119.182C159.982 118.826 159.818 118.549 159.607 118.35C159.396 118.15 159.129 118.016 158.805 117.945C158.562 117.891 158.088 117.863 157.381 117.863H156.602ZM169.715 118.777H171.361V119.955C171.361 120.439 171.318 120.818 171.232 121.092C171.15 121.365 170.996 121.609 170.77 121.824C170.422 122.16 169.885 122.387 169.158 122.504V125H167.629V124.068C167.141 124.783 166.453 125.141 165.566 125.141C164.648 125.141 164.033 124.791 163.721 124.092C163.572 123.76 163.498 123.301 163.498 122.715V118.777H165.145V121.637C165.145 122.457 165.176 122.992 165.238 123.242C165.281 123.43 165.391 123.586 165.566 123.711C165.727 123.828 165.93 123.887 166.176 123.887C166.453 123.887 166.703 123.811 166.926 123.658C167.152 123.506 167.307 123.314 167.389 123.084C167.471 122.854 167.512 122.293 167.512 121.402V118.777H169.158V121.836C169.701 121.727 170.082 121.523 170.301 121.227C170.434 121.047 170.504 120.779 170.512 120.424H169.715V118.777ZM175.498 125V116.41H177.145V119.504C177.652 118.926 178.254 118.637 178.949 118.637C179.707 118.637 180.334 118.912 180.83 119.463C181.326 120.01 181.574 120.797 181.574 121.824C181.574 122.887 181.32 123.705 180.812 124.279C180.309 124.854 179.695 125.141 178.973 125.141C178.617 125.141 178.266 125.053 177.918 124.877C177.574 124.697 177.277 124.434 177.027 124.086V125H175.498ZM177.133 121.754C177.133 122.398 177.234 122.875 177.438 123.184C177.723 123.621 178.102 123.84 178.574 123.84C178.938 123.84 179.246 123.686 179.5 123.377C179.758 123.064 179.887 122.574 179.887 121.906C179.887 121.195 179.758 120.684 179.5 120.371C179.242 120.055 178.912 119.896 178.51 119.896C178.115 119.896 177.787 120.051 177.525 120.359C177.264 120.664 177.133 121.129 177.133 121.754ZM184.135 120.676L182.641 120.406C182.809 119.805 183.098 119.359 183.508 119.07C183.918 118.781 184.527 118.637 185.336 118.637C186.07 118.637 186.617 118.725 186.977 118.9C187.336 119.072 187.588 119.293 187.732 119.562C187.881 119.828 187.955 120.318 187.955 121.033L187.938 122.955C187.938 123.502 187.963 123.906 188.014 124.168C188.068 124.426 188.168 124.703 188.312 125H186.684C186.641 124.891 186.588 124.729 186.525 124.514C186.498 124.416 186.479 124.352 186.467 124.32C186.186 124.594 185.885 124.799 185.564 124.936C185.244 125.072 184.902 125.141 184.539 125.141C183.898 125.141 183.393 124.967 183.021 124.619C182.654 124.271 182.471 123.832 182.471 123.301C182.471 122.949 182.555 122.637 182.723 122.363C182.891 122.086 183.125 121.875 183.426 121.73C183.73 121.582 184.168 121.453 184.738 121.344C185.508 121.199 186.041 121.064 186.338 120.939V120.775C186.338 120.459 186.26 120.234 186.104 120.102C185.947 119.965 185.652 119.896 185.219 119.896C184.926 119.896 184.697 119.955 184.533 120.072C184.369 120.186 184.236 120.387 184.135 120.676ZM186.338 122.012C186.127 122.082 185.793 122.166 185.336 122.264C184.879 122.361 184.58 122.457 184.439 122.551C184.225 122.703 184.117 122.896 184.117 123.131C184.117 123.361 184.203 123.561 184.375 123.729C184.547 123.896 184.766 123.98 185.031 123.98C185.328 123.98 185.611 123.883 185.881 123.688C186.08 123.539 186.211 123.357 186.273 123.143C186.316 123.002 186.338 122.734 186.338 122.34V122.012ZM184.557 118.016L185.365 116.264H187.211L185.6 118.016H184.557ZM195.244 125H193.598V121.824C193.598 121.152 193.562 120.719 193.492 120.523C193.422 120.324 193.307 120.17 193.146 120.061C192.99 119.951 192.801 119.896 192.578 119.896C192.293 119.896 192.037 119.975 191.811 120.131C191.584 120.287 191.428 120.494 191.342 120.752C191.26 121.01 191.219 121.486 191.219 122.182V125H189.572V118.777H191.102V119.691C191.645 118.988 192.328 118.637 193.152 118.637C193.516 118.637 193.848 118.703 194.148 118.836C194.449 118.965 194.676 119.131 194.828 119.334C194.984 119.537 195.092 119.768 195.15 120.025C195.213 120.283 195.244 120.652 195.244 121.133V125Z" fill="white"/>
<path d="M377.867 148.41H381.037C381.752 148.41 382.297 148.465 382.672 148.574C383.176 148.723 383.607 148.986 383.967 149.365C384.326 149.744 384.6 150.209 384.787 150.76C384.975 151.307 385.068 151.982 385.068 152.787C385.068 153.494 384.98 154.104 384.805 154.615C384.59 155.24 384.283 155.746 383.885 156.133C383.584 156.426 383.178 156.654 382.666 156.818C382.283 156.939 381.771 157 381.131 157H377.867V148.41ZM379.602 149.863V155.553H380.896C381.381 155.553 381.73 155.525 381.945 155.471C382.227 155.4 382.459 155.281 382.643 155.113C382.83 154.945 382.982 154.67 383.1 154.287C383.217 153.9 383.275 153.375 383.275 152.711C383.275 152.047 383.217 151.537 383.1 151.182C382.982 150.826 382.818 150.549 382.607 150.35C382.396 150.15 382.129 150.016 381.805 149.945C381.562 149.891 381.088 149.863 380.381 149.863H379.602ZM392.715 150.777H394.361V151.955C394.361 152.439 394.318 152.818 394.232 153.092C394.15 153.365 393.996 153.609 393.77 153.824C393.422 154.16 392.885 154.387 392.158 154.504V157H390.629V156.068C390.141 156.783 389.453 157.141 388.566 157.141C387.648 157.141 387.033 156.791 386.721 156.092C386.572 155.76 386.498 155.301 386.498 154.715V150.777H388.145V153.637C388.145 154.457 388.176 154.992 388.238 155.242C388.281 155.43 388.391 155.586 388.566 155.711C388.727 155.828 388.93 155.887 389.176 155.887C389.453 155.887 389.703 155.811 389.926 155.658C390.152 155.506 390.307 155.314 390.389 155.084C390.471 154.854 390.512 154.293 390.512 153.402V150.777H392.158V153.836C392.701 153.727 393.082 153.523 393.301 153.227C393.434 153.047 393.504 152.779 393.512 152.424H392.715V150.777ZM398.445 150.777H399.963V151.627C400.506 150.967 401.152 150.637 401.902 150.637C402.301 150.637 402.646 150.719 402.939 150.883C403.232 151.047 403.473 151.295 403.66 151.627C403.934 151.295 404.229 151.047 404.545 150.883C404.861 150.719 405.199 150.637 405.559 150.637C406.016 150.637 406.402 150.73 406.719 150.918C407.035 151.102 407.271 151.373 407.428 151.732C407.541 151.998 407.598 152.428 407.598 153.021V157H405.951V153.443C405.951 152.826 405.895 152.428 405.781 152.248C405.629 152.014 405.395 151.896 405.078 151.896C404.848 151.896 404.631 151.967 404.428 152.107C404.225 152.248 404.078 152.455 403.988 152.729C403.898 152.998 403.854 153.426 403.854 154.012V157H402.207V153.59C402.207 152.984 402.178 152.594 402.119 152.418C402.061 152.242 401.969 152.111 401.844 152.025C401.723 151.939 401.557 151.896 401.346 151.896C401.092 151.896 400.863 151.965 400.66 152.102C400.457 152.238 400.311 152.436 400.221 152.693C400.135 152.951 400.092 153.379 400.092 153.977V157H398.445V150.777ZM413.34 157V156.068C413.113 156.4 412.814 156.662 412.443 156.854C412.076 157.045 411.688 157.141 411.277 157.141C410.859 157.141 410.484 157.049 410.152 156.865C409.82 156.682 409.58 156.424 409.432 156.092C409.283 155.76 409.209 155.301 409.209 154.715V150.777H410.855V153.637C410.855 154.512 410.885 155.049 410.943 155.248C411.006 155.443 411.117 155.6 411.277 155.717C411.438 155.83 411.641 155.887 411.887 155.887C412.168 155.887 412.42 155.811 412.643 155.658C412.865 155.502 413.018 155.311 413.1 155.084C413.182 154.854 413.223 154.293 413.223 153.402V150.777H414.869V157H413.34ZM417.811 152.676L416.316 152.406C416.484 151.805 416.773 151.359 417.184 151.07C417.594 150.781 418.203 150.637 419.012 150.637C419.746 150.637 420.293 150.725 420.652 150.9C421.012 151.072 421.264 151.293 421.408 151.562C421.557 151.828 421.631 152.318 421.631 153.033L421.613 154.955C421.613 155.502 421.639 155.906 421.689 156.168C421.744 156.426 421.844 156.703 421.988 157H420.359C420.316 156.891 420.264 156.729 420.201 156.514C420.174 156.416 420.154 156.352 420.143 156.32C419.861 156.594 419.561 156.799 419.24 156.936C418.92 157.072 418.578 157.141 418.215 157.141C417.574 157.141 417.068 156.967 416.697 156.619C416.33 156.271 416.146 155.832 416.146 155.301C416.146 154.949 416.23 154.637 416.398 154.363C416.566 154.086 416.801 153.875 417.102 153.73C417.406 153.582 417.844 153.453 418.414 153.344C419.184 153.199 419.717 153.064 420.014 152.939V152.775C420.014 152.459 419.936 152.234 419.779 152.102C419.623 151.965 419.328 151.896 418.895 151.896C418.602 151.896 418.373 151.955 418.209 152.072C418.045 152.186 417.912 152.387 417.811 152.676ZM420.014 154.012C419.803 154.082 419.469 154.166 419.012 154.264C418.555 154.361 418.256 154.457 418.115 154.551C417.9 154.703 417.793 154.896 417.793 155.131C417.793 155.361 417.879 155.561 418.051 155.729C418.223 155.896 418.441 155.98 418.707 155.98C419.004 155.98 419.287 155.883 419.557 155.688C419.756 155.539 419.887 155.357 419.949 155.143C419.992 155.002 420.014 154.734 420.014 154.34V154.012Z" fill="white"/>
<path opacity="0.8" d="M286.03 78C269.597 78 253.672 83.5752 240.969 93.7758C228.266 103.976 219.571 118.171 216.365 133.941C213.159 149.711 215.641 166.081 223.387 180.262C231.134 194.443 243.666 205.556 258.848 211.71C274.03 217.863 290.923 218.675 306.648 214.007C322.374 209.34 335.959 199.481 345.089 186.112C354.218 172.743 358.328 156.69 356.717 140.688C355.107 124.686 347.875 109.726 336.255 98.3561L286.03 147.5L286.03 78Z" fill="#D7131C"/>
<path opacity="0.8" d="M286.03 78C304.868 78 322.935 85.3223 336.255 98.3561L286.03 147.5L286.03 78Z" fill="#008C03"/>
<path d="M254.442 170.057V168.527H260.073V169.723C259.608 170.18 259.135 170.836 258.655 171.691C258.174 172.547 257.807 173.457 257.553 174.422C257.303 175.383 257.18 176.242 257.184 177H255.596C255.624 175.812 255.868 174.602 256.329 173.367C256.793 172.133 257.413 171.029 258.186 170.057H254.442ZM266.7 170.514L265.106 170.689C265.067 170.361 264.965 170.119 264.801 169.963C264.637 169.807 264.424 169.729 264.163 169.729C263.815 169.729 263.52 169.885 263.278 170.197C263.04 170.51 262.889 171.16 262.827 172.148C263.237 171.664 263.747 171.422 264.356 171.422C265.043 171.422 265.631 171.684 266.12 172.207C266.612 172.73 266.858 173.406 266.858 174.234C266.858 175.113 266.6 175.818 266.084 176.35C265.569 176.881 264.907 177.146 264.098 177.146C263.231 177.146 262.518 176.811 261.959 176.139C261.401 175.463 261.122 174.357 261.122 172.822C261.122 171.248 261.413 170.113 261.995 169.418C262.577 168.723 263.333 168.375 264.262 168.375C264.915 168.375 265.454 168.559 265.879 168.926C266.309 169.289 266.583 169.818 266.7 170.514ZM262.967 174.105C262.967 174.641 263.09 175.055 263.336 175.348C263.583 175.637 263.864 175.781 264.18 175.781C264.485 175.781 264.739 175.662 264.942 175.424C265.145 175.186 265.247 174.795 265.247 174.252C265.247 173.693 265.137 173.285 264.918 173.027C264.7 172.766 264.426 172.635 264.098 172.635C263.782 172.635 263.514 172.76 263.295 173.01C263.077 173.256 262.967 173.621 262.967 174.105ZM268.153 177V175.354H269.799V177H268.153ZM271.165 174.791L272.805 174.621C272.852 174.992 272.991 175.287 273.221 175.506C273.452 175.721 273.717 175.828 274.018 175.828C274.362 175.828 274.653 175.689 274.891 175.412C275.129 175.131 275.249 174.709 275.249 174.146C275.249 173.619 275.129 173.225 274.891 172.963C274.657 172.697 274.35 172.564 273.971 172.564C273.499 172.564 273.075 172.773 272.7 173.191L271.364 172.998L272.208 168.527H276.561V170.068H273.456L273.198 171.527C273.565 171.344 273.94 171.252 274.323 171.252C275.053 171.252 275.672 171.518 276.18 172.049C276.688 172.58 276.942 173.27 276.942 174.117C276.942 174.824 276.737 175.455 276.327 176.01C275.768 176.768 274.993 177.146 274 177.146C273.208 177.146 272.561 176.934 272.061 176.508C271.561 176.082 271.262 175.51 271.165 174.791ZM277.833 170.531C277.833 169.762 278 169.191 278.336 168.82C278.676 168.449 279.135 168.264 279.713 168.264C280.311 168.264 280.778 168.449 281.114 168.82C281.454 169.188 281.624 169.758 281.624 170.531C281.624 171.301 281.454 171.871 281.114 172.242C280.778 172.613 280.321 172.799 279.743 172.799C279.145 172.799 278.676 172.615 278.336 172.248C278 171.877 277.833 171.305 277.833 170.531ZM279.116 170.52C279.116 171.078 279.18 171.453 279.309 171.645C279.407 171.785 279.542 171.855 279.713 171.855C279.889 171.855 280.026 171.785 280.124 171.645C280.249 171.453 280.311 171.078 280.311 170.52C280.311 169.961 280.249 169.588 280.124 169.4C280.026 169.256 279.889 169.184 279.713 169.184C279.542 169.184 279.407 169.254 279.309 169.395C279.18 169.586 279.116 169.961 279.116 170.52ZM280.967 177.328H279.749L284.325 168.264H285.508L280.967 177.328ZM283.627 175.072C283.627 174.303 283.795 173.732 284.131 173.361C284.471 172.99 284.934 172.805 285.52 172.805C286.11 172.805 286.573 172.99 286.909 173.361C287.249 173.732 287.418 174.303 287.418 175.072C287.418 175.846 287.249 176.418 286.909 176.789C286.573 177.16 286.116 177.346 285.538 177.346C284.94 177.346 284.471 177.16 284.131 176.789C283.795 176.418 283.627 175.846 283.627 175.072ZM284.911 175.066C284.911 175.625 284.975 175.998 285.104 176.186C285.202 176.33 285.336 176.402 285.508 176.402C285.684 176.402 285.819 176.332 285.913 176.191C286.042 176 286.106 175.625 286.106 175.066C286.106 174.508 286.043 174.133 285.918 173.941C285.821 173.801 285.684 173.73 285.508 173.73C285.333 173.73 285.198 173.801 285.104 173.941C284.975 174.133 284.911 174.508 284.911 175.066Z" fill="white"/>
<path d="M296.795 105.471V107H291.023C291.086 106.422 291.273 105.875 291.586 105.359C291.898 104.84 292.515 104.152 293.437 103.297C294.179 102.605 294.635 102.137 294.802 101.891C295.029 101.551 295.142 101.215 295.142 100.883C295.142 100.516 295.043 100.234 294.844 100.039C294.648 99.8398 294.377 99.7402 294.029 99.7402C293.685 99.7402 293.412 99.8438 293.209 100.051C293.006 100.258 292.888 100.602 292.857 101.082L291.217 100.918C291.314 100.012 291.621 99.3613 292.136 98.9668C292.652 98.5723 293.297 98.375 294.07 98.375C294.918 98.375 295.584 98.6035 296.068 99.0605C296.552 99.5176 296.795 100.086 296.795 100.766C296.795 101.152 296.724 101.521 296.584 101.873C296.447 102.221 296.228 102.586 295.927 102.969C295.728 103.223 295.369 103.588 294.849 104.064C294.33 104.541 294 104.857 293.859 105.014C293.722 105.17 293.611 105.322 293.525 105.471H296.795ZM301.142 107V105.271H297.627V103.83L301.353 98.375H302.736V103.824H303.802V105.271H302.736V107H301.142ZM301.142 103.824V100.889L299.168 103.824H301.142ZM304.945 107V105.354H306.592V107H304.945ZM307.957 104.791L309.597 104.621C309.644 104.992 309.783 105.287 310.013 105.506C310.244 105.721 310.51 105.828 310.81 105.828C311.154 105.828 311.445 105.689 311.683 105.412C311.922 105.131 312.041 104.709 312.041 104.146C312.041 103.619 311.922 103.225 311.683 102.963C311.449 102.697 311.142 102.564 310.763 102.564C310.291 102.564 309.867 102.773 309.492 103.191L308.156 102.998L309 98.5273H313.353V100.068H310.248L309.99 101.527C310.357 101.344 310.732 101.252 311.115 101.252C311.845 101.252 312.465 101.518 312.972 102.049C313.48 102.58 313.734 103.27 313.734 104.117C313.734 104.824 313.529 105.455 313.119 106.01C312.56 106.768 311.785 107.146 310.793 107.146C310 107.146 309.353 106.934 308.853 106.508C308.353 106.082 308.054 105.51 307.957 104.791ZM314.625 100.531C314.625 99.7617 314.793 99.1914 315.129 98.8203C315.469 98.4492 315.927 98.2637 316.506 98.2637C317.103 98.2637 317.57 98.4492 317.906 98.8203C318.246 99.1875 318.416 99.7578 318.416 100.531C318.416 101.301 318.246 101.871 317.906 102.242C317.57 102.613 317.113 102.799 316.535 102.799C315.937 102.799 315.469 102.615 315.129 102.248C314.793 101.877 314.625 101.305 314.625 100.531ZM315.908 100.52C315.908 101.078 315.972 101.453 316.101 101.645C316.199 101.785 316.334 101.855 316.506 101.855C316.681 101.855 316.818 101.785 316.916 101.645C317.041 101.453 317.103 101.078 317.103 100.52C317.103 99.9609 317.041 99.5879 316.916 99.4004C316.818 99.2559 316.681 99.1836 316.506 99.1836C316.334 99.1836 316.199 99.2539 316.101 99.3945C315.972 99.5859 315.908 99.9609 315.908 100.52ZM317.76 107.328H316.541L321.117 98.2637H322.301L317.76 107.328ZM320.42 105.072C320.42 104.303 320.588 103.732 320.924 103.361C321.263 102.99 321.726 102.805 322.312 102.805C322.902 102.805 323.365 102.99 323.701 103.361C324.041 103.732 324.211 104.303 324.211 105.072C324.211 105.846 324.041 106.418 323.701 106.789C323.365 107.16 322.908 107.346 322.33 107.346C321.732 107.346 321.263 107.16 320.924 106.789C320.588 106.418 320.42 105.846 320.42 105.072ZM321.703 105.066C321.703 105.625 321.767 105.998 321.896 106.186C321.994 106.33 322.129 106.402 322.301 106.402C322.476 106.402 322.611 106.332 322.705 106.191C322.834 106 322.898 105.625 322.898 105.066C322.898 104.508 322.836 104.133 322.711 103.941C322.613 103.801 322.476 103.73 322.301 103.73C322.125 103.73 321.99 103.801 321.896 103.941C321.767 104.133 321.703 104.508 321.703 105.066Z" fill="white"/>
<path d="M151 130H201.839L224 156" stroke="white"/>
<path d="M304 122L374.906 164H426.5" stroke="white"/>
</svg>
