<svg width="562" height="268" viewBox="0 0 562 268" fill="none" xmlns="http://www.w3.org/2000/svg">
<rect width="562" height="268" fill="#1A1B25"/>
<path d="M201.395 31V22.4102H203.129V26.2246L206.633 22.4102H208.965L205.73 25.7559L209.141 31H206.896L204.535 26.9688L203.129 28.4043V31H201.395ZM210.049 31V22.4102H211.783V25.791H215.182V22.4102H216.916V31H215.182V27.2441H211.783V31H210.049ZM220.15 26.6992C220.15 27.6445 220.375 28.3828 220.824 28.9141C221.25 29.4141 221.82 29.6641 222.535 29.6641C223.25 29.6641 223.818 29.4141 224.24 28.9141C224.682 28.3906 224.902 27.6445 224.902 26.6758C224.902 25.7148 224.688 24.9805 224.258 24.4727C223.844 23.9883 223.27 23.7461 222.535 23.7461C221.801 23.7461 221.225 23.9922 220.807 24.4844C220.369 24.9961 220.15 25.7344 220.15 26.6992ZM226.432 22.4102H228.078V23.5879C228.078 24.0723 228.035 24.4512 227.949 24.7246C227.867 24.998 227.715 25.2422 227.492 25.457C227.27 25.668 226.99 25.8359 226.654 25.9609C226.682 26.2031 226.695 26.4551 226.695 26.7168C226.695 28.0918 226.32 29.1738 225.57 29.9629C224.82 30.752 223.811 31.1465 222.541 31.1465C221.26 31.1465 220.242 30.7559 219.488 29.9746C218.738 29.1895 218.363 28.1172 218.363 26.7578C218.363 25.3203 218.762 24.1934 219.559 23.377C220.277 22.6348 221.264 22.2637 222.518 22.2637C223.783 22.2637 224.797 22.6562 225.559 23.4414C226.016 23.918 226.336 24.5059 226.52 25.2051C226.977 24.998 227.213 24.6152 227.229 24.0566H226.432V22.4102ZM221.463 21.918L222.271 20.166H224.117L222.506 21.918H221.463ZM228.957 31V22.4102H231.74C232.795 22.4102 233.482 22.4531 233.803 22.5391C234.295 22.668 234.707 22.9492 235.039 23.3828C235.371 23.8125 235.537 24.3691 235.537 25.0527C235.537 25.5801 235.441 26.0234 235.25 26.3828C235.059 26.7422 234.814 27.0254 234.518 27.2324C234.225 27.4355 233.926 27.5703 233.621 27.6367C233.207 27.7188 232.607 27.7598 231.822 27.7598H230.691V31H228.957ZM230.691 23.8633V26.3008H231.641C232.324 26.3008 232.781 26.2559 233.012 26.166C233.242 26.0762 233.422 25.9355 233.551 25.7441C233.684 25.5527 233.75 25.3301 233.75 25.0762C233.75 24.7637 233.658 24.5059 233.475 24.3027C233.291 24.0996 233.059 23.9727 232.777 23.9219C232.57 23.8828 232.154 23.8633 231.529 23.8633H230.691ZM240.125 31V22.4805H241.859V29.5527H246.172V31H240.125ZM247.414 31V22.4102H253.783V23.8633H249.148V25.7676H253.461V27.2148H249.148V29.5527H253.947V31H247.414ZM250.777 21.6836L250.133 22.1172H248.979L250.256 21.3555H251.299L252.576 22.1172H251.422L250.777 21.6836ZM249.986 33.3496V31.7031H251.633V33.3496H249.986ZM255.436 31V22.4102H257.123L260.639 28.1465V22.4102H262.25V31H260.51L257.047 25.3984V31H255.436ZM264.096 31V22.4102H265.83V25.791H269.229V22.4102H270.963V31H269.229V27.2441H265.83V31H264.096ZM275.902 28.709V27.0625H279.137V28.709H275.902ZM285.371 31V23.8633H282.822V22.4102H289.648V23.8633H287.105V31H285.371ZM290.779 31V22.4102H292.514V25.791H295.912V22.4102H297.646V31H295.912V27.2441H292.514V31H290.779ZM299.094 26.7578C299.094 25.8828 299.225 25.1484 299.486 24.5547C299.682 24.1172 299.947 23.7246 300.283 23.377C300.623 23.0293 300.994 22.7715 301.396 22.6035C301.932 22.377 302.549 22.2637 303.248 22.2637C304.514 22.2637 305.525 22.6562 306.283 23.4414C307.045 24.2266 307.426 25.3184 307.426 26.7168C307.426 28.1035 307.049 29.1895 306.295 29.9746C305.541 30.7559 304.533 31.1465 303.271 31.1465C301.994 31.1465 300.979 30.7578 300.225 29.9805C299.471 29.1992 299.094 28.125 299.094 26.7578ZM300.881 26.6992C300.881 27.6719 301.105 28.4102 301.555 28.9141C302.004 29.4141 302.574 29.6641 303.266 29.6641C303.957 29.6641 304.523 29.416 304.965 28.9199C305.41 28.4199 305.633 27.6719 305.633 26.6758C305.633 25.6914 305.416 24.957 304.982 24.4727C304.553 23.9883 303.98 23.7461 303.266 23.7461C302.551 23.7461 301.975 23.9922 301.537 24.4844C301.1 24.9727 300.881 25.7109 300.881 26.6992ZM302.92 21.4492C303.143 21.4258 303.285 21.4043 303.348 21.3848C303.555 21.334 303.66 21.2441 303.664 21.1152C303.668 21.0254 303.613 20.9492 303.5 20.8867C303.336 20.7969 303.076 20.752 302.721 20.752C302.6 20.752 302.416 20.7598 302.17 20.7754L302.105 20.1777C302.258 20.1465 302.539 20.1328 302.949 20.1367C303.43 20.1406 303.822 20.2188 304.127 20.3711C304.463 20.5352 304.635 20.7637 304.643 21.0566C304.658 21.4629 304.303 21.7109 303.576 21.8008V22.0938H302.92V21.4492ZM316.531 31H314.645L313.895 29.0488H310.461L309.752 31H307.912L311.258 22.4102H313.092L316.531 31ZM313.338 27.6016L312.154 24.4141L310.994 27.6016H313.338ZM322.285 31V23.8633H319.736V22.4102H326.562V23.8633H324.02V31H322.285ZM327.693 31V22.4102H329.428V25.791H332.826V22.4102H334.561V31H332.826V27.2441H329.428V31H327.693ZM336.348 22.4102H338.082V27.0625C338.082 27.8008 338.104 28.2793 338.146 28.498C338.221 28.8496 338.396 29.1328 338.674 29.3477C338.955 29.5586 339.338 29.6641 339.822 29.6641C340.314 29.6641 340.686 29.5645 340.936 29.3652C341.186 29.1621 341.336 28.9141 341.387 28.6211C341.438 28.3281 341.463 27.8418 341.463 27.1621V22.4102H343.197V26.9219C343.197 27.9531 343.15 28.6816 343.057 29.1074C342.963 29.5332 342.789 29.8926 342.535 30.1855C342.285 30.4785 341.949 30.7129 341.527 30.8887C341.105 31.0605 340.555 31.1465 339.875 31.1465C339.055 31.1465 338.432 31.0527 338.006 30.8652C337.584 30.6738 337.25 30.4277 337.004 30.127C336.758 29.8223 336.596 29.5039 336.518 29.1719C336.404 28.6797 336.348 27.9531 336.348 26.9922V22.4102ZM352.777 31H350.891L350.141 29.0488H346.707L345.998 31H344.158L347.504 22.4102H349.338L352.777 31ZM349.584 27.6016L348.4 24.4141L347.24 27.6016H349.584ZM348.395 21.6836L347.75 22.1172H346.596L347.873 21.3555H348.916L350.193 22.1172H349.039L348.395 21.6836ZM347.604 33.3496V31.7031H349.25V33.3496H347.604ZM353.721 31V22.4102H355.408L358.924 28.1465V22.4102H360.535V31H358.795L355.332 25.3984V31H353.721Z" fill="white"/>
<rect opacity="0.8" x="183" y="47" width="12" height="12" fill="#008C03"/>
<rect opacity="0.8" x="299" y="47" width="12" height="12" fill="#D7131C"/>
<path d="M198.896 57V48.4102H200.631V52.2246L204.135 48.4102H206.467L203.232 51.7559L206.643 57H204.398L202.037 52.9688L200.631 54.4043V57H198.896ZM209.174 48.4102V51.5684C209.705 50.9473 210.34 50.6367 211.078 50.6367C211.457 50.6367 211.799 50.707 212.104 50.8477C212.408 50.9883 212.637 51.168 212.789 51.3867C212.945 51.6055 213.051 51.8477 213.105 52.1133C213.164 52.3789 213.193 52.791 213.193 53.3496V57H211.547V53.7129C211.547 53.0605 211.516 52.6465 211.453 52.4707C211.391 52.2949 211.279 52.1562 211.119 52.0547C210.963 51.9492 210.766 51.8965 210.527 51.8965C210.254 51.8965 210.01 51.9629 209.795 52.0957C209.58 52.2285 209.422 52.4297 209.32 52.6992C209.223 52.9648 209.174 53.3594 209.174 53.8828V57H207.527V48.4102H209.174ZM216.176 53.8887C216.176 54.4863 216.322 54.959 216.615 55.3066C216.893 55.6348 217.254 55.7988 217.699 55.7988C218.145 55.7988 218.504 55.6348 218.777 55.3066C219.07 54.959 219.217 54.4824 219.217 53.877C219.217 53.2832 219.07 52.8145 218.777 52.4707C218.504 52.1426 218.145 51.9785 217.699 51.9785C217.254 51.9785 216.893 52.1426 216.615 52.4707C216.322 52.8184 216.176 53.291 216.176 53.8887ZM220.893 50.7773H222.539V51.9551C222.539 52.4395 222.496 52.8184 222.41 53.0918C222.328 53.3652 222.174 53.6094 221.947 53.8242C221.686 54.0781 221.328 54.2773 220.875 54.4219C220.777 55.1211 220.486 55.7168 220.002 56.209C219.393 56.8301 218.627 57.1406 217.705 57.1406C217.115 57.1406 216.572 57.0117 216.076 56.7539C215.549 56.4805 215.152 56.0996 214.887 55.6113C214.621 55.1191 214.488 54.5156 214.488 53.8008C214.488 53.2383 214.623 52.709 214.893 52.2129C215.174 51.6934 215.559 51.3008 216.047 51.0352C216.535 50.7695 217.084 50.6367 217.693 50.6367C218.635 50.6367 219.406 50.9414 220.008 51.5508C220.551 52.1055 220.85 52.791 220.904 53.6074C221.412 53.4004 221.674 53.0059 221.689 52.4238H220.893V50.7773ZM216.867 50.0156L217.676 48.2637H219.521L217.91 50.0156H216.867ZM223.354 50.7773H224.889V51.6914C225.088 51.3789 225.357 51.125 225.697 50.9297C226.037 50.7344 226.414 50.6367 226.828 50.6367C227.551 50.6367 228.164 50.9199 228.668 51.4863C229.172 52.0527 229.424 52.8418 229.424 53.8535C229.424 54.8926 229.17 55.7012 228.662 56.2793C228.154 56.8535 227.539 57.1406 226.816 57.1406C226.473 57.1406 226.16 57.0723 225.879 56.9355C225.602 56.7988 225.309 56.5645 225 56.2324V59.3672H223.354V50.7773ZM224.982 53.7832C224.982 54.4824 225.121 55 225.398 55.3359C225.676 55.668 226.014 55.834 226.412 55.834C226.795 55.834 227.113 55.6816 227.367 55.377C227.621 55.0684 227.748 54.5645 227.748 53.8652C227.748 53.2129 227.617 52.7285 227.355 52.4121C227.094 52.0957 226.77 51.9375 226.383 51.9375C225.98 51.9375 225.646 52.0938 225.381 52.4062C225.115 52.7148 224.982 53.1738 224.982 53.7832ZM234.076 57V48.4102H235.723V57H234.076ZM241.02 55.0195L242.66 55.2949C242.449 55.8965 242.115 56.3555 241.658 56.6719C241.205 56.9844 240.637 57.1406 239.953 57.1406C238.871 57.1406 238.07 56.7871 237.551 56.0801C237.141 55.5137 236.936 54.7988 236.936 53.9355C236.936 52.9043 237.205 52.0977 237.744 51.5156C238.283 50.9297 238.965 50.6367 239.789 50.6367C240.715 50.6367 241.445 50.9434 241.98 51.5566C242.516 52.166 242.771 53.1016 242.748 54.3633H238.623C238.635 54.8516 238.768 55.2324 239.021 55.5059C239.275 55.7754 239.592 55.9102 239.971 55.9102C240.229 55.9102 240.445 55.8398 240.621 55.6992C240.797 55.5586 240.93 55.332 241.02 55.0195ZM241.113 53.3555C241.102 52.8789 240.979 52.5176 240.744 52.2715C240.51 52.0215 240.225 51.8965 239.889 51.8965C239.529 51.8965 239.232 52.0273 238.998 52.2891C238.764 52.5508 238.648 52.9062 238.652 53.3555H241.113ZM237.861 49.9922L239.092 48.2637H240.615L241.828 49.9922H240.504L239.824 49.1191L239.191 49.9922H237.861ZM239.062 59.3496V57.7031H240.709V59.3496H239.062ZM249.756 57H248.109V53.8242C248.109 53.1523 248.074 52.7188 248.004 52.5234C247.934 52.3242 247.818 52.1699 247.658 52.0605C247.502 51.9512 247.312 51.8965 247.09 51.8965C246.805 51.8965 246.549 51.9746 246.322 52.1309C246.096 52.2871 245.939 52.4941 245.854 52.752C245.771 53.0098 245.73 53.4863 245.73 54.1816V57H244.084V50.7773H245.613V51.6914C246.156 50.9883 246.84 50.6367 247.664 50.6367C248.027 50.6367 248.359 50.7031 248.66 50.8359C248.961 50.9648 249.188 51.1309 249.34 51.334C249.496 51.5371 249.604 51.7676 249.662 52.0254C249.725 52.2832 249.756 52.6523 249.756 53.1328V57ZM253.072 48.4102V51.5684C253.604 50.9473 254.238 50.6367 254.977 50.6367C255.355 50.6367 255.697 50.707 256.002 50.8477C256.307 50.9883 256.535 51.168 256.688 51.3867C256.844 51.6055 256.949 51.8477 257.004 52.1133C257.062 52.3789 257.092 52.791 257.092 53.3496V57H255.445V53.7129C255.445 53.0605 255.414 52.6465 255.352 52.4707C255.289 52.2949 255.178 52.1562 255.018 52.0547C254.861 51.9492 254.664 51.8965 254.426 51.8965C254.152 51.8965 253.908 51.9629 253.693 52.0957C253.479 52.2285 253.32 52.4297 253.219 52.6992C253.121 52.9648 253.072 53.3594 253.072 53.8828V57H251.426V48.4102H253.072Z" fill="white"/>
<path d="M317.807 57V49.8633H315.258V48.4102H322.084V49.8633H319.541V57H317.807ZM324.838 48.4102V51.5684C325.369 50.9473 326.004 50.6367 326.742 50.6367C327.121 50.6367 327.463 50.707 327.768 50.8477C328.072 50.9883 328.301 51.168 328.453 51.3867C328.609 51.6055 328.715 51.8477 328.77 52.1133C328.828 52.3789 328.857 52.791 328.857 53.3496V57H327.211V53.7129C327.211 53.0605 327.18 52.6465 327.117 52.4707C327.055 52.2949 326.943 52.1562 326.783 52.0547C326.627 51.9492 326.43 51.8965 326.191 51.8965C325.918 51.8965 325.674 51.9629 325.459 52.0957C325.244 52.2285 325.086 52.4297 324.984 52.6992C324.887 52.9648 324.838 53.3594 324.838 53.8828V57H323.191V48.4102H324.838ZM330.152 53.8008C330.152 53.2539 330.287 52.7246 330.557 52.2129C330.826 51.7012 331.207 51.3105 331.699 51.041C332.195 50.7715 332.748 50.6367 333.357 50.6367C334.299 50.6367 335.07 50.9434 335.672 51.5566C336.273 52.166 336.574 52.9375 336.574 53.8711C336.574 54.8125 336.27 55.5938 335.66 56.2148C335.055 56.832 334.291 57.1406 333.369 57.1406C332.799 57.1406 332.254 57.0117 331.734 56.7539C331.219 56.4961 330.826 56.1191 330.557 55.623C330.287 55.123 330.152 54.5156 330.152 53.8008ZM331.84 53.8887C331.84 54.5059 331.986 54.9785 332.279 55.3066C332.572 55.6348 332.934 55.7988 333.363 55.7988C333.793 55.7988 334.152 55.6348 334.441 55.3066C334.734 54.9785 334.881 54.502 334.881 53.877C334.881 53.2676 334.734 52.7988 334.441 52.4707C334.152 52.1426 333.793 51.9785 333.363 51.9785C332.934 51.9785 332.572 52.1426 332.279 52.4707C331.986 52.7988 331.84 53.2715 331.84 53.8887ZM333.029 49.3711C333.252 49.3477 333.395 49.3262 333.457 49.3066C333.664 49.2559 333.77 49.166 333.773 49.0371C333.777 48.9473 333.723 48.8711 333.609 48.8086C333.445 48.7188 333.186 48.6738 332.83 48.6738C332.709 48.6738 332.525 48.6816 332.279 48.6973L332.215 48.0996C332.367 48.0684 332.648 48.0547 333.059 48.0586C333.539 48.0625 333.932 48.1406 334.236 48.293C334.572 48.457 334.744 48.6855 334.752 48.9785C334.768 49.3848 334.412 49.6328 333.686 49.7227V50.0156H333.029V49.3711ZM339.1 52.6758L337.605 52.4062C337.773 51.8047 338.062 51.3594 338.473 51.0703C338.883 50.7812 339.492 50.6367 340.301 50.6367C341.035 50.6367 341.582 50.7246 341.941 50.9004C342.301 51.0723 342.553 51.293 342.697 51.5625C342.846 51.8281 342.92 52.3184 342.92 53.0332L342.902 54.9551C342.902 55.502 342.928 55.9062 342.979 56.168C343.033 56.4258 343.133 56.7031 343.277 57H341.648C341.605 56.8906 341.553 56.7285 341.49 56.5137C341.463 56.416 341.443 56.3516 341.432 56.3203C341.15 56.5938 340.85 56.7988 340.529 56.9355C340.209 57.0723 339.867 57.1406 339.504 57.1406C338.863 57.1406 338.357 56.9668 337.986 56.6191C337.619 56.2715 337.436 55.832 337.436 55.3008C337.436 54.9492 337.52 54.6367 337.688 54.3633C337.855 54.0859 338.09 53.875 338.391 53.7305C338.695 53.582 339.133 53.4531 339.703 53.3438C340.473 53.1992 341.006 53.0645 341.303 52.9395V52.7754C341.303 52.459 341.225 52.2344 341.068 52.1016C340.912 51.9648 340.617 51.8965 340.184 51.8965C339.891 51.8965 339.662 51.9551 339.498 52.0723C339.334 52.1855 339.201 52.3867 339.1 52.6758ZM341.303 54.0117C341.092 54.082 340.758 54.166 340.301 54.2637C339.844 54.3613 339.545 54.457 339.404 54.5508C339.189 54.7031 339.082 54.8965 339.082 55.1309C339.082 55.3613 339.168 55.5605 339.34 55.7285C339.512 55.8965 339.73 55.9805 339.996 55.9805C340.293 55.9805 340.576 55.8828 340.846 55.6875C341.045 55.5391 341.176 55.3574 341.238 55.1426C341.281 55.002 341.303 54.7344 341.303 54.3398V54.0117ZM350.742 50.7773V52.0898H349.617V54.5977C349.617 55.1055 349.627 55.4023 349.646 55.4883C349.67 55.5703 349.719 55.6387 349.793 55.6934C349.871 55.748 349.965 55.7754 350.074 55.7754C350.227 55.7754 350.447 55.7227 350.736 55.6172L350.877 56.8945C350.494 57.0586 350.061 57.1406 349.576 57.1406C349.279 57.1406 349.012 57.0918 348.773 56.9941C348.535 56.8926 348.359 56.7637 348.246 56.6074C348.137 56.4473 348.061 56.2324 348.018 55.9629C347.982 55.7715 347.965 55.3848 347.965 54.8027V52.0898H347.209V50.7773H347.965V49.541L349.617 48.5801V50.7773H350.742ZM353.525 48.4102V51.5684C354.057 50.9473 354.691 50.6367 355.43 50.6367C355.809 50.6367 356.15 50.707 356.455 50.8477C356.76 50.9883 356.988 51.168 357.141 51.3867C357.297 51.6055 357.402 51.8477 357.457 52.1133C357.516 52.3789 357.545 52.791 357.545 53.3496V57H355.898V53.7129C355.898 53.0605 355.867 52.6465 355.805 52.4707C355.742 52.2949 355.631 52.1562 355.471 52.0547C355.314 51.9492 355.117 51.8965 354.879 51.8965C354.605 51.8965 354.361 51.9629 354.146 52.0957C353.932 52.2285 353.773 52.4297 353.672 52.6992C353.574 52.9648 353.525 53.3594 353.525 53.8828V57H351.879V48.4102H353.525ZM363.316 57V56.0684C363.09 56.4004 362.791 56.6621 362.42 56.8535C362.053 57.0449 361.664 57.1406 361.254 57.1406C360.836 57.1406 360.461 57.0488 360.129 56.8652C359.797 56.6816 359.557 56.4238 359.408 56.0918C359.26 55.7598 359.186 55.3008 359.186 54.7148V50.7773H360.832V53.6367C360.832 54.5117 360.861 55.0488 360.92 55.248C360.982 55.4434 361.094 55.5996 361.254 55.7168C361.414 55.8301 361.617 55.8867 361.863 55.8867C362.145 55.8867 362.396 55.8105 362.619 55.6582C362.842 55.502 362.994 55.3105 363.076 55.084C363.158 54.8535 363.199 54.293 363.199 53.4023V50.7773H364.846V57H363.316ZM367.787 52.6758L366.293 52.4062C366.461 51.8047 366.75 51.3594 367.16 51.0703C367.57 50.7812 368.18 50.6367 368.988 50.6367C369.723 50.6367 370.27 50.7246 370.629 50.9004C370.988 51.0723 371.24 51.293 371.385 51.5625C371.533 51.8281 371.607 52.3184 371.607 53.0332L371.59 54.9551C371.59 55.502 371.615 55.9062 371.666 56.168C371.721 56.4258 371.82 56.7031 371.965 57H370.336C370.293 56.8906 370.24 56.7285 370.178 56.5137C370.15 56.416 370.131 56.3516 370.119 56.3203C369.838 56.5938 369.537 56.7988 369.217 56.9355C368.896 57.0723 368.555 57.1406 368.191 57.1406C367.551 57.1406 367.045 56.9668 366.674 56.6191C366.307 56.2715 366.123 55.832 366.123 55.3008C366.123 54.9492 366.207 54.6367 366.375 54.3633C366.543 54.0859 366.777 53.875 367.078 53.7305C367.383 53.582 367.82 53.4531 368.391 53.3438C369.16 53.1992 369.693 53.0645 369.99 52.9395V52.7754C369.99 52.459 369.912 52.2344 369.756 52.1016C369.6 51.9648 369.305 51.8965 368.871 51.8965C368.578 51.8965 368.35 51.9551 368.186 52.0723C368.021 52.1855 367.889 52.3867 367.787 52.6758ZM369.99 54.0117C369.779 54.082 369.445 54.166 368.988 54.2637C368.531 54.3613 368.232 54.457 368.092 54.5508C367.877 54.7031 367.77 54.8965 367.77 55.1309C367.77 55.3613 367.855 55.5605 368.027 55.7285C368.199 55.8965 368.418 55.9805 368.684 55.9805C368.98 55.9805 369.264 55.8828 369.533 55.6875C369.732 55.5391 369.863 55.3574 369.926 55.1426C369.969 55.002 369.99 54.7344 369.99 54.3398V54.0117ZM367.061 49.9922L368.291 48.2637H369.814L371.027 49.9922H369.703L369.023 49.1191L368.391 49.9922H367.061ZM367.969 59.3496V57.7031H369.615V59.3496H367.969ZM378.896 57H377.25V53.8242C377.25 53.1523 377.215 52.7188 377.145 52.5234C377.074 52.3242 376.959 52.1699 376.799 52.0605C376.643 51.9512 376.453 51.8965 376.23 51.8965C375.945 51.8965 375.689 51.9746 375.463 52.1309C375.236 52.2871 375.08 52.4941 374.994 52.752C374.912 53.0098 374.871 53.4863 374.871 54.1816V57H373.225V50.7773H374.754V51.6914C375.297 50.9883 375.98 50.6367 376.805 50.6367C377.168 50.6367 377.5 50.7031 377.801 50.8359C378.102 50.9648 378.328 51.1309 378.48 51.334C378.637 51.5371 378.744 51.7676 378.803 52.0254C378.865 52.2832 378.896 52.6523 378.896 53.1328V57Z" fill="white"/>
<path d="M147.266 243V234.41H149V238.225L152.504 234.41H154.836L151.602 237.756L155.012 243H152.768L150.406 238.969L149 240.404V243H147.266ZM157.543 234.41V237.568C158.074 236.947 158.709 236.637 159.447 236.637C159.826 236.637 160.168 236.707 160.473 236.848C160.777 236.988 161.006 237.168 161.158 237.387C161.314 237.605 161.42 237.848 161.475 238.113C161.533 238.379 161.562 238.791 161.562 239.35V243H159.916V239.713C159.916 239.061 159.885 238.646 159.822 238.471C159.76 238.295 159.648 238.156 159.488 238.055C159.332 237.949 159.135 237.896 158.896 237.896C158.623 237.896 158.379 237.963 158.164 238.096C157.949 238.229 157.791 238.43 157.689 238.699C157.592 238.965 157.543 239.359 157.543 239.883V243H155.896V234.41H157.543ZM162.857 239.801C162.857 239.254 162.992 238.725 163.262 238.213C163.531 237.701 163.912 237.311 164.404 237.041C164.9 236.771 165.453 236.637 166.062 236.637C167.004 236.637 167.775 236.943 168.377 237.557C168.979 238.166 169.279 238.938 169.279 239.871C169.279 240.812 168.975 241.594 168.365 242.215C167.76 242.832 166.996 243.141 166.074 243.141C165.504 243.141 164.959 243.012 164.439 242.754C163.924 242.496 163.531 242.119 163.262 241.623C162.992 241.123 162.857 240.516 162.857 239.801ZM164.545 239.889C164.545 240.506 164.691 240.979 164.984 241.307C165.277 241.635 165.639 241.799 166.068 241.799C166.498 241.799 166.857 241.635 167.146 241.307C167.439 240.979 167.586 240.502 167.586 239.877C167.586 239.268 167.439 238.799 167.146 238.471C166.857 238.143 166.498 237.979 166.068 237.979C165.639 237.979 165.277 238.143 164.984 238.471C164.691 238.799 164.545 239.271 164.545 239.889ZM164.082 235.992L165.312 234.264H166.836L168.049 235.992H166.725L166.045 235.119L165.412 235.992H164.082ZM165.289 233.947L166.045 232.295H167.891L166.332 233.947H165.289ZM170.574 235.934V234.41H172.221V235.934H170.574ZM170.574 243V236.777H172.221V243H170.574ZM177.254 243V234.41H178.9V243H177.254ZM186.775 236.777H188.422V237.955C188.422 238.439 188.379 238.818 188.293 239.092C188.211 239.365 188.057 239.609 187.83 239.824C187.482 240.16 186.945 240.387 186.219 240.504V243H184.689V242.068C184.201 242.783 183.514 243.141 182.627 243.141C181.709 243.141 181.094 242.791 180.781 242.092C180.633 241.76 180.559 241.301 180.559 240.715V236.777H182.205V239.637C182.205 240.457 182.236 240.992 182.299 241.242C182.342 241.43 182.451 241.586 182.627 241.711C182.787 241.828 182.99 241.887 183.236 241.887C183.514 241.887 183.764 241.811 183.986 241.658C184.213 241.506 184.367 241.314 184.449 241.084C184.531 240.854 184.572 240.293 184.572 239.402V236.777H186.219V239.836C186.762 239.727 187.143 239.523 187.361 239.227C187.494 239.047 187.564 238.779 187.572 238.424H186.775V236.777ZM190.596 239.889C190.596 240.486 190.742 240.959 191.035 241.307C191.312 241.635 191.674 241.799 192.119 241.799C192.564 241.799 192.924 241.635 193.197 241.307C193.49 240.959 193.637 240.482 193.637 239.877C193.637 239.283 193.49 238.814 193.197 238.471C192.924 238.143 192.564 237.979 192.119 237.979C191.674 237.979 191.312 238.143 191.035 238.471C190.742 238.818 190.596 239.291 190.596 239.889ZM195.312 236.777H196.959V237.955C196.959 238.439 196.916 238.818 196.83 239.092C196.748 239.365 196.594 239.609 196.367 239.824C196.105 240.078 195.748 240.277 195.295 240.422C195.197 241.121 194.906 241.717 194.422 242.209C193.812 242.83 193.047 243.141 192.125 243.141C191.535 243.141 190.992 243.012 190.496 242.754C189.969 242.48 189.572 242.1 189.307 241.611C189.041 241.119 188.908 240.516 188.908 239.801C188.908 239.238 189.043 238.709 189.312 238.213C189.594 237.693 189.979 237.301 190.467 237.035C190.955 236.77 191.504 236.637 192.113 236.637C193.055 236.637 193.826 236.941 194.428 237.551C194.971 238.105 195.27 238.791 195.324 239.607C195.832 239.4 196.094 239.006 196.109 238.424H195.312V236.777ZM191.229 245.35V243.703H192.875V245.35H191.229ZM203.48 243H201.834V239.824C201.834 239.152 201.799 238.719 201.729 238.523C201.658 238.324 201.543 238.17 201.383 238.061C201.227 237.951 201.037 237.896 200.814 237.896C200.529 237.896 200.273 237.975 200.047 238.131C199.82 238.287 199.664 238.494 199.578 238.752C199.496 239.01 199.455 239.486 199.455 240.182V243H197.809V236.777H199.338V237.691C199.881 236.988 200.564 236.637 201.389 236.637C201.752 236.637 202.084 236.703 202.385 236.836C202.686 236.965 202.912 237.131 203.064 237.334C203.221 237.537 203.328 237.768 203.387 238.025C203.449 238.283 203.48 238.652 203.48 239.133V243ZM205.004 243.41L206.885 243.639C206.916 243.857 206.988 244.008 207.102 244.09C207.258 244.207 207.504 244.266 207.84 244.266C208.27 244.266 208.592 244.201 208.807 244.072C208.951 243.986 209.061 243.848 209.135 243.656C209.186 243.52 209.211 243.268 209.211 242.9V241.992C208.719 242.664 208.098 243 207.348 243C206.512 243 205.85 242.646 205.361 241.939C204.979 241.381 204.787 240.686 204.787 239.854C204.787 238.811 205.037 238.014 205.537 237.463C206.041 236.912 206.666 236.637 207.412 236.637C208.182 236.637 208.816 236.975 209.316 237.65V236.777H210.857V242.361C210.857 243.096 210.797 243.645 210.676 244.008C210.555 244.371 210.385 244.656 210.166 244.863C209.947 245.07 209.654 245.232 209.287 245.35C208.924 245.467 208.463 245.525 207.904 245.525C206.85 245.525 206.102 245.344 205.66 244.98C205.219 244.621 204.998 244.164 204.998 243.609C204.998 243.555 205 243.488 205.004 243.41ZM206.475 239.76C206.475 240.42 206.602 240.904 206.855 241.213C207.113 241.518 207.43 241.67 207.805 241.67C208.207 241.67 208.547 241.514 208.824 241.201C209.102 240.885 209.24 240.418 209.24 239.801C209.24 239.156 209.107 238.678 208.842 238.365C208.576 238.053 208.24 237.896 207.834 237.896C207.439 237.896 207.113 238.051 206.855 238.359C206.602 238.664 206.475 239.131 206.475 239.76Z" fill="white"/>
<path opacity="0.8" d="M179.03 90C162.597 90 146.672 95.5752 133.969 105.776C121.266 115.976 112.571 130.171 109.365 145.941C106.159 161.711 108.641 178.081 116.387 192.262C124.134 206.443 136.666 217.556 151.848 223.71C167.03 229.863 183.923 230.675 199.648 226.007C215.374 221.34 228.959 211.481 238.089 198.112C247.218 184.743 251.328 168.69 249.717 152.688C248.107 136.686 240.875 121.726 229.255 110.356L179.03 159.5L179.03 90Z" fill="#008C03"/>
<path opacity="0.8" d="M179.03 90C197.868 90 215.935 97.3223 229.255 110.356L179.03 159.5L179.03 90Z" fill="#D7131C"/>
<path d="M147.442 182.057V180.527H153.073V181.723C152.608 182.18 152.135 182.836 151.655 183.691C151.174 184.547 150.807 185.457 150.553 186.422C150.303 187.383 150.18 188.242 150.184 189H148.596C148.624 187.812 148.868 186.602 149.329 185.367C149.793 184.133 150.413 183.029 151.186 182.057H147.442ZM159.7 182.514L158.106 182.689C158.067 182.361 157.965 182.119 157.801 181.963C157.637 181.807 157.424 181.729 157.163 181.729C156.815 181.729 156.52 181.885 156.278 182.197C156.04 182.51 155.889 183.16 155.827 184.148C156.237 183.664 156.747 183.422 157.356 183.422C158.043 183.422 158.631 183.684 159.12 184.207C159.612 184.73 159.858 185.406 159.858 186.234C159.858 187.113 159.6 187.818 159.084 188.35C158.569 188.881 157.907 189.146 157.098 189.146C156.231 189.146 155.518 188.811 154.959 188.139C154.401 187.463 154.122 186.357 154.122 184.822C154.122 183.248 154.413 182.113 154.995 181.418C155.577 180.723 156.333 180.375 157.262 180.375C157.915 180.375 158.454 180.559 158.879 180.926C159.309 181.289 159.583 181.818 159.7 182.514ZM155.967 186.105C155.967 186.641 156.09 187.055 156.336 187.348C156.583 187.637 156.864 187.781 157.18 187.781C157.485 187.781 157.739 187.662 157.942 187.424C158.145 187.186 158.247 186.795 158.247 186.252C158.247 185.693 158.137 185.285 157.918 185.027C157.7 184.766 157.426 184.635 157.098 184.635C156.782 184.635 156.514 184.76 156.295 185.01C156.077 185.256 155.967 185.621 155.967 186.105ZM161.153 189V187.354H162.799V189H161.153ZM164.165 186.791L165.805 186.621C165.852 186.992 165.991 187.287 166.221 187.506C166.452 187.721 166.717 187.828 167.018 187.828C167.362 187.828 167.653 187.689 167.891 187.412C168.129 187.131 168.249 186.709 168.249 186.146C168.249 185.619 168.129 185.225 167.891 184.963C167.657 184.697 167.35 184.564 166.971 184.564C166.499 184.564 166.075 184.773 165.7 185.191L164.364 184.998L165.208 180.527H169.561V182.068H166.456L166.198 183.527C166.565 183.344 166.94 183.252 167.323 183.252C168.053 183.252 168.672 183.518 169.18 184.049C169.688 184.58 169.942 185.27 169.942 186.117C169.942 186.824 169.737 187.455 169.327 188.01C168.768 188.768 167.993 189.146 167 189.146C166.208 189.146 165.561 188.934 165.061 188.508C164.561 188.082 164.262 187.51 164.165 186.791ZM170.833 182.531C170.833 181.762 171 181.191 171.336 180.82C171.676 180.449 172.135 180.264 172.713 180.264C173.311 180.264 173.778 180.449 174.114 180.82C174.454 181.188 174.624 181.758 174.624 182.531C174.624 183.301 174.454 183.871 174.114 184.242C173.778 184.613 173.321 184.799 172.743 184.799C172.145 184.799 171.676 184.615 171.336 184.248C171 183.877 170.833 183.305 170.833 182.531ZM172.116 182.52C172.116 183.078 172.18 183.453 172.309 183.645C172.407 183.785 172.542 183.855 172.713 183.855C172.889 183.855 173.026 183.785 173.124 183.645C173.249 183.453 173.311 183.078 173.311 182.52C173.311 181.961 173.249 181.588 173.124 181.4C173.026 181.256 172.889 181.184 172.713 181.184C172.542 181.184 172.407 181.254 172.309 181.395C172.18 181.586 172.116 181.961 172.116 182.52ZM173.967 189.328H172.749L177.325 180.264H178.508L173.967 189.328ZM176.627 187.072C176.627 186.303 176.795 185.732 177.131 185.361C177.471 184.99 177.934 184.805 178.52 184.805C179.11 184.805 179.573 184.99 179.909 185.361C180.249 185.732 180.418 186.303 180.418 187.072C180.418 187.846 180.249 188.418 179.909 188.789C179.573 189.16 179.116 189.346 178.538 189.346C177.94 189.346 177.471 189.16 177.131 188.789C176.795 188.418 176.627 187.846 176.627 187.072ZM177.911 187.066C177.911 187.625 177.975 187.998 178.104 188.186C178.202 188.33 178.336 188.402 178.508 188.402C178.684 188.402 178.819 188.332 178.913 188.191C179.042 188 179.106 187.625 179.106 187.066C179.106 186.508 179.043 186.133 178.918 185.941C178.821 185.801 178.684 185.73 178.508 185.73C178.333 185.73 178.198 185.801 178.104 185.941C177.975 186.133 177.911 186.508 177.911 187.066Z" fill="white"/>
<path d="M189.795 117.471V119H184.023C184.086 118.422 184.273 117.875 184.586 117.359C184.898 116.84 185.515 116.152 186.437 115.297C187.179 114.605 187.635 114.137 187.802 113.891C188.029 113.551 188.142 113.215 188.142 112.883C188.142 112.516 188.043 112.234 187.844 112.039C187.648 111.84 187.377 111.74 187.029 111.74C186.685 111.74 186.412 111.844 186.209 112.051C186.006 112.258 185.888 112.602 185.857 113.082L184.217 112.918C184.314 112.012 184.621 111.361 185.136 110.967C185.652 110.572 186.297 110.375 187.07 110.375C187.918 110.375 188.584 110.604 189.068 111.061C189.552 111.518 189.795 112.086 189.795 112.766C189.795 113.152 189.724 113.521 189.584 113.873C189.447 114.221 189.228 114.586 188.927 114.969C188.728 115.223 188.369 115.588 187.849 116.064C187.33 116.541 187 116.857 186.859 117.014C186.722 117.17 186.611 117.322 186.525 117.471H189.795ZM194.142 119V117.271H190.627V115.83L194.353 110.375H195.736V115.824H196.802V117.271H195.736V119H194.142ZM194.142 115.824V112.889L192.168 115.824H194.142ZM197.945 119V117.354H199.592V119H197.945ZM200.957 116.791L202.597 116.621C202.644 116.992 202.783 117.287 203.013 117.506C203.244 117.721 203.51 117.828 203.81 117.828C204.154 117.828 204.445 117.689 204.683 117.412C204.922 117.131 205.041 116.709 205.041 116.146C205.041 115.619 204.922 115.225 204.683 114.963C204.449 114.697 204.142 114.564 203.763 114.564C203.291 114.564 202.867 114.773 202.492 115.191L201.156 114.998L202 110.527H206.353V112.068H203.248L202.99 113.527C203.357 113.344 203.732 113.252 204.115 113.252C204.845 113.252 205.465 113.518 205.972 114.049C206.48 114.58 206.734 115.27 206.734 116.117C206.734 116.824 206.529 117.455 206.119 118.01C205.56 118.768 204.785 119.146 203.793 119.146C203 119.146 202.353 118.934 201.853 118.508C201.353 118.082 201.054 117.51 200.957 116.791ZM207.625 112.531C207.625 111.762 207.793 111.191 208.129 110.82C208.469 110.449 208.927 110.264 209.506 110.264C210.103 110.264 210.57 110.449 210.906 110.82C211.246 111.188 211.416 111.758 211.416 112.531C211.416 113.301 211.246 113.871 210.906 114.242C210.57 114.613 210.113 114.799 209.535 114.799C208.937 114.799 208.469 114.615 208.129 114.248C207.793 113.877 207.625 113.305 207.625 112.531ZM208.908 112.52C208.908 113.078 208.972 113.453 209.101 113.645C209.199 113.785 209.334 113.855 209.506 113.855C209.681 113.855 209.818 113.785 209.916 113.645C210.041 113.453 210.103 113.078 210.103 112.52C210.103 111.961 210.041 111.588 209.916 111.4C209.818 111.256 209.681 111.184 209.506 111.184C209.334 111.184 209.199 111.254 209.101 111.395C208.972 111.586 208.908 111.961 208.908 112.52ZM210.76 119.328H209.541L214.117 110.264H215.301L210.76 119.328ZM213.42 117.072C213.42 116.303 213.588 115.732 213.924 115.361C214.263 114.99 214.726 114.805 215.312 114.805C215.902 114.805 216.365 114.99 216.701 115.361C217.041 115.732 217.211 116.303 217.211 117.072C217.211 117.846 217.041 118.418 216.701 118.789C216.365 119.16 215.908 119.346 215.33 119.346C214.732 119.346 214.263 119.16 213.924 118.789C213.588 118.418 213.42 117.846 213.42 117.072ZM214.703 117.066C214.703 117.625 214.767 117.998 214.896 118.186C214.994 118.33 215.129 118.402 215.301 118.402C215.476 118.402 215.611 118.332 215.705 118.191C215.834 118 215.898 117.625 215.898 117.066C215.898 116.508 215.836 116.133 215.711 115.941C215.613 115.801 215.476 115.73 215.301 115.73C215.125 115.73 214.99 115.801 214.896 115.941C214.767 116.133 214.703 116.508 214.703 117.066Z" fill="white"/>
<path d="M371.014 239.842V238.395H374.752V241.816C374.389 242.168 373.861 242.479 373.17 242.748C372.482 243.014 371.785 243.146 371.078 243.146C370.18 243.146 369.396 242.959 368.729 242.584C368.061 242.205 367.559 241.666 367.223 240.967C366.887 240.264 366.719 239.5 366.719 238.676C366.719 237.781 366.906 236.986 367.281 236.291C367.656 235.596 368.205 235.062 368.928 234.691C369.479 234.406 370.164 234.264 370.984 234.264C372.051 234.264 372.883 234.488 373.48 234.938C374.082 235.383 374.469 236 374.641 236.789L372.918 237.111C372.797 236.689 372.568 236.357 372.232 236.115C371.9 235.869 371.484 235.746 370.984 235.746C370.227 235.746 369.623 235.986 369.174 236.467C368.729 236.947 368.506 237.66 368.506 238.605C368.506 239.625 368.732 240.391 369.186 240.902C369.639 241.41 370.232 241.664 370.967 241.664C371.33 241.664 371.693 241.594 372.057 241.453C372.424 241.309 372.738 241.135 373 240.932V239.842H371.014ZM376.346 235.934V234.41H377.992V235.934H376.346ZM376.346 243V236.777H377.992V243H376.346ZM380.916 238.676L379.422 238.406C379.59 237.805 379.879 237.359 380.289 237.07C380.699 236.781 381.309 236.637 382.117 236.637C382.852 236.637 383.398 236.725 383.758 236.9C384.117 237.072 384.369 237.293 384.514 237.562C384.662 237.828 384.736 238.318 384.736 239.033L384.719 240.955C384.719 241.502 384.744 241.906 384.795 242.168C384.85 242.426 384.949 242.703 385.094 243H383.465C383.422 242.891 383.369 242.729 383.307 242.514C383.279 242.416 383.26 242.352 383.248 242.32C382.967 242.594 382.666 242.799 382.346 242.936C382.025 243.072 381.684 243.141 381.32 243.141C380.68 243.141 380.174 242.967 379.803 242.619C379.436 242.271 379.252 241.832 379.252 241.301C379.252 240.949 379.336 240.637 379.504 240.363C379.672 240.086 379.906 239.875 380.207 239.73C380.512 239.582 380.949 239.453 381.52 239.344C382.289 239.199 382.822 239.064 383.119 238.939V238.775C383.119 238.459 383.041 238.234 382.885 238.102C382.729 237.965 382.434 237.896 382 237.896C381.707 237.896 381.479 237.955 381.314 238.072C381.15 238.186 381.018 238.387 380.916 238.676ZM383.119 240.012C382.908 240.082 382.574 240.166 382.117 240.264C381.66 240.361 381.361 240.457 381.221 240.551C381.006 240.703 380.898 240.896 380.898 241.131C380.898 241.361 380.984 241.561 381.156 241.729C381.328 241.896 381.547 241.98 381.812 241.98C382.109 241.98 382.393 241.883 382.662 241.688C382.861 241.539 382.992 241.357 383.055 241.143C383.098 241.002 383.119 240.734 383.119 240.34V240.012ZM381.338 236.016L382.146 234.264H383.992L382.381 236.016H381.338ZM392.559 236.777V238.09H391.434V240.598C391.434 241.105 391.443 241.402 391.463 241.488C391.486 241.57 391.535 241.639 391.609 241.693C391.688 241.748 391.781 241.775 391.891 241.775C392.043 241.775 392.264 241.723 392.553 241.617L392.693 242.895C392.311 243.059 391.877 243.141 391.393 243.141C391.096 243.141 390.828 243.092 390.59 242.994C390.352 242.893 390.176 242.764 390.062 242.607C389.953 242.447 389.877 242.232 389.834 241.963C389.799 241.771 389.781 241.385 389.781 240.803V238.09H389.025V236.777H389.781V235.541L391.434 234.58V236.777H392.559ZM395.277 243H393.631V236.777H395.16V237.662C395.422 237.244 395.656 236.969 395.863 236.836C396.074 236.703 396.312 236.637 396.578 236.637C396.953 236.637 397.314 236.74 397.662 236.947L397.152 238.383C396.875 238.203 396.617 238.113 396.379 238.113C396.148 238.113 395.953 238.178 395.793 238.307C395.633 238.432 395.506 238.66 395.412 238.992C395.322 239.324 395.277 240.02 395.277 241.078V243ZM398.377 235.934V234.41H400.023V235.934H398.377ZM398.377 243V236.777H400.023V243H398.377ZM398.383 245.35V243.703H400.029V245.35H398.383Z" fill="white"/>
<path opacity="0.8" d="M383.03 90C366.597 90 350.672 95.5752 337.969 105.776C325.266 115.976 316.571 130.171 313.365 145.941C310.159 161.711 312.641 178.081 320.387 192.262C328.134 206.443 340.666 217.556 355.848 223.71C371.03 229.863 387.923 230.675 403.648 226.007C419.374 221.34 432.959 211.481 442.089 198.112C451.218 184.743 455.328 168.69 453.717 152.688C452.107 136.686 444.875 121.726 433.255 110.356L383.03 159.5L383.03 90Z" fill="#008C03"/>
<path opacity="0.8" d="M383.03 90C401.868 90 419.935 97.3223 433.255 110.356L383.03 159.5L383.03 90Z" fill="#D7131C"/>
<path d="M351.442 182.057V180.527H357.073V181.723C356.608 182.18 356.135 182.836 355.655 183.691C355.174 184.547 354.807 185.457 354.553 186.422C354.303 187.383 354.18 188.242 354.184 189H352.596C352.624 187.812 352.868 186.602 353.329 185.367C353.793 184.133 354.413 183.029 355.186 182.057H351.442ZM363.7 182.514L362.106 182.689C362.067 182.361 361.965 182.119 361.801 181.963C361.637 181.807 361.424 181.729 361.163 181.729C360.815 181.729 360.52 181.885 360.278 182.197C360.04 182.51 359.889 183.16 359.827 184.148C360.237 183.664 360.747 183.422 361.356 183.422C362.043 183.422 362.631 183.684 363.12 184.207C363.612 184.73 363.858 185.406 363.858 186.234C363.858 187.113 363.6 187.818 363.084 188.35C362.569 188.881 361.907 189.146 361.098 189.146C360.231 189.146 359.518 188.811 358.959 188.139C358.401 187.463 358.122 186.357 358.122 184.822C358.122 183.248 358.413 182.113 358.995 181.418C359.577 180.723 360.333 180.375 361.262 180.375C361.915 180.375 362.454 180.559 362.879 180.926C363.309 181.289 363.583 181.818 363.7 182.514ZM359.967 186.105C359.967 186.641 360.09 187.055 360.336 187.348C360.583 187.637 360.864 187.781 361.18 187.781C361.485 187.781 361.739 187.662 361.942 187.424C362.145 187.186 362.247 186.795 362.247 186.252C362.247 185.693 362.137 185.285 361.918 185.027C361.7 184.766 361.426 184.635 361.098 184.635C360.782 184.635 360.514 184.76 360.295 185.01C360.077 185.256 359.967 185.621 359.967 186.105ZM365.153 189V187.354H366.799V189H365.153ZM368.165 186.791L369.805 186.621C369.852 186.992 369.991 187.287 370.221 187.506C370.452 187.721 370.717 187.828 371.018 187.828C371.362 187.828 371.653 187.689 371.891 187.412C372.129 187.131 372.249 186.709 372.249 186.146C372.249 185.619 372.129 185.225 371.891 184.963C371.657 184.697 371.35 184.564 370.971 184.564C370.499 184.564 370.075 184.773 369.7 185.191L368.364 184.998L369.208 180.527H373.561V182.068H370.456L370.198 183.527C370.565 183.344 370.94 183.252 371.323 183.252C372.053 183.252 372.672 183.518 373.18 184.049C373.688 184.58 373.942 185.27 373.942 186.117C373.942 186.824 373.737 187.455 373.327 188.01C372.768 188.768 371.993 189.146 371 189.146C370.208 189.146 369.561 188.934 369.061 188.508C368.561 188.082 368.262 187.51 368.165 186.791ZM374.833 182.531C374.833 181.762 375 181.191 375.336 180.82C375.676 180.449 376.135 180.264 376.713 180.264C377.311 180.264 377.778 180.449 378.114 180.82C378.454 181.188 378.624 181.758 378.624 182.531C378.624 183.301 378.454 183.871 378.114 184.242C377.778 184.613 377.321 184.799 376.743 184.799C376.145 184.799 375.676 184.615 375.336 184.248C375 183.877 374.833 183.305 374.833 182.531ZM376.116 182.52C376.116 183.078 376.18 183.453 376.309 183.645C376.407 183.785 376.542 183.855 376.713 183.855C376.889 183.855 377.026 183.785 377.124 183.645C377.249 183.453 377.311 183.078 377.311 182.52C377.311 181.961 377.249 181.588 377.124 181.4C377.026 181.256 376.889 181.184 376.713 181.184C376.542 181.184 376.407 181.254 376.309 181.395C376.18 181.586 376.116 181.961 376.116 182.52ZM377.967 189.328H376.749L381.325 180.264H382.508L377.967 189.328ZM380.627 187.072C380.627 186.303 380.795 185.732 381.131 185.361C381.471 184.99 381.934 184.805 382.52 184.805C383.11 184.805 383.573 184.99 383.909 185.361C384.249 185.732 384.418 186.303 384.418 187.072C384.418 187.846 384.249 188.418 383.909 188.789C383.573 189.16 383.116 189.346 382.538 189.346C381.94 189.346 381.471 189.16 381.131 188.789C380.795 188.418 380.627 187.846 380.627 187.072ZM381.911 187.066C381.911 187.625 381.975 187.998 382.104 188.186C382.202 188.33 382.336 188.402 382.508 188.402C382.684 188.402 382.819 188.332 382.913 188.191C383.042 188 383.106 187.625 383.106 187.066C383.106 186.508 383.043 186.133 382.918 185.941C382.821 185.801 382.684 185.73 382.508 185.73C382.333 185.73 382.198 185.801 382.104 185.941C381.975 186.133 381.911 186.508 381.911 187.066Z" fill="white"/>
<path d="M393.795 117.471V119H388.023C388.086 118.422 388.273 117.875 388.586 117.359C388.898 116.84 389.515 116.152 390.437 115.297C391.179 114.605 391.635 114.137 391.802 113.891C392.029 113.551 392.142 113.215 392.142 112.883C392.142 112.516 392.043 112.234 391.844 112.039C391.648 111.84 391.377 111.74 391.029 111.74C390.685 111.74 390.412 111.844 390.209 112.051C390.006 112.258 389.888 112.602 389.857 113.082L388.217 112.918C388.314 112.012 388.621 111.361 389.136 110.967C389.652 110.572 390.297 110.375 391.07 110.375C391.918 110.375 392.584 110.604 393.068 111.061C393.552 111.518 393.795 112.086 393.795 112.766C393.795 113.152 393.724 113.521 393.584 113.873C393.447 114.221 393.228 114.586 392.927 114.969C392.728 115.223 392.369 115.588 391.849 116.064C391.33 116.541 391 116.857 390.859 117.014C390.722 117.17 390.611 117.322 390.525 117.471H393.795ZM398.142 119V117.271H394.627V115.83L398.353 110.375H399.736V115.824H400.802V117.271H399.736V119H398.142ZM398.142 115.824V112.889L396.168 115.824H398.142ZM401.945 119V117.354H403.592V119H401.945ZM404.957 116.791L406.597 116.621C406.644 116.992 406.783 117.287 407.013 117.506C407.244 117.721 407.51 117.828 407.81 117.828C408.154 117.828 408.445 117.689 408.683 117.412C408.922 117.131 409.041 116.709 409.041 116.146C409.041 115.619 408.922 115.225 408.683 114.963C408.449 114.697 408.142 114.564 407.763 114.564C407.291 114.564 406.867 114.773 406.492 115.191L405.156 114.998L406 110.527H410.353V112.068H407.248L406.99 113.527C407.357 113.344 407.732 113.252 408.115 113.252C408.845 113.252 409.465 113.518 409.972 114.049C410.48 114.58 410.734 115.27 410.734 116.117C410.734 116.824 410.529 117.455 410.119 118.01C409.56 118.768 408.785 119.146 407.793 119.146C407 119.146 406.353 118.934 405.853 118.508C405.353 118.082 405.054 117.51 404.957 116.791ZM411.625 112.531C411.625 111.762 411.793 111.191 412.129 110.82C412.469 110.449 412.927 110.264 413.506 110.264C414.103 110.264 414.57 110.449 414.906 110.82C415.246 111.188 415.416 111.758 415.416 112.531C415.416 113.301 415.246 113.871 414.906 114.242C414.57 114.613 414.113 114.799 413.535 114.799C412.937 114.799 412.469 114.615 412.129 114.248C411.793 113.877 411.625 113.305 411.625 112.531ZM412.908 112.52C412.908 113.078 412.972 113.453 413.101 113.645C413.199 113.785 413.334 113.855 413.506 113.855C413.681 113.855 413.818 113.785 413.916 113.645C414.041 113.453 414.103 113.078 414.103 112.52C414.103 111.961 414.041 111.588 413.916 111.4C413.818 111.256 413.681 111.184 413.506 111.184C413.334 111.184 413.199 111.254 413.101 111.395C412.972 111.586 412.908 111.961 412.908 112.52ZM414.76 119.328H413.541L418.117 110.264H419.301L414.76 119.328ZM417.42 117.072C417.42 116.303 417.588 115.732 417.924 115.361C418.263 114.99 418.726 114.805 419.312 114.805C419.902 114.805 420.365 114.99 420.701 115.361C421.041 115.732 421.211 116.303 421.211 117.072C421.211 117.846 421.041 118.418 420.701 118.789C420.365 119.16 419.908 119.346 419.33 119.346C418.732 119.346 418.263 119.16 417.924 118.789C417.588 118.418 417.42 117.846 417.42 117.072ZM418.703 117.066C418.703 117.625 418.767 117.998 418.896 118.186C418.994 118.33 419.129 118.402 419.301 118.402C419.476 118.402 419.611 118.332 419.705 118.191C419.834 118 419.898 117.625 419.898 117.066C419.898 116.508 419.836 116.133 419.711 115.941C419.613 115.801 419.476 115.73 419.301 115.73C419.125 115.73 418.99 115.801 418.896 115.941C418.767 116.133 418.703 116.508 418.703 117.066Z" fill="white"/>
</svg>
