<svg width="562" height="268" viewBox="0 0 562 268" fill="none" xmlns="http://www.w3.org/2000/svg">
<rect width="562" height="268" fill="#1A1B25"/>
<path d="M161.342 31V22.4102H163.076V26.2246L166.58 22.4102H168.912L165.678 25.7559L169.088 31H166.844L164.482 26.9688L163.076 28.4043V31H161.342ZM169.996 31V22.4102H171.73V25.791H175.129V22.4102H176.863V31H175.129V27.2441H171.73V31H169.996ZM178.311 26.7578C178.311 25.8828 178.441 25.1484 178.703 24.5547C178.898 24.1172 179.164 23.7246 179.5 23.377C179.84 23.0293 180.211 22.7715 180.613 22.6035C181.148 22.377 181.766 22.2637 182.465 22.2637C183.73 22.2637 184.742 22.6562 185.5 23.4414C186.262 24.2266 186.643 25.3184 186.643 26.7168C186.643 28.1035 186.266 29.1895 185.512 29.9746C184.758 30.7559 183.75 31.1465 182.488 31.1465C181.211 31.1465 180.195 30.7578 179.441 29.9805C178.688 29.1992 178.311 28.125 178.311 26.7578ZM180.098 26.6992C180.098 27.6719 180.322 28.4102 180.771 28.9141C181.221 29.4141 181.791 29.6641 182.482 29.6641C183.174 29.6641 183.74 29.416 184.182 28.9199C184.627 28.4199 184.85 27.6719 184.85 26.6758C184.85 25.6914 184.633 24.957 184.199 24.4727C183.77 23.9883 183.197 23.7461 182.482 23.7461C181.768 23.7461 181.191 23.9922 180.754 24.4844C180.316 24.9727 180.098 25.7109 180.098 26.6992ZM182.453 21.6836L181.809 22.1172H180.654L181.932 21.3555H182.975L184.252 22.1172H183.098L182.453 21.6836ZM181.744 21.1562L182.453 20.2012H184.299L182.787 21.1562H181.744ZM187.949 31V22.4102H189.684V31H187.949ZM194.729 31V22.4805H196.463V29.5527H200.775V31H194.729ZM209.453 22.4102H211.1V23.5879C211.1 24.0723 211.057 24.4512 210.971 24.7246C210.889 24.998 210.736 25.2422 210.514 25.457C210.154 25.8008 209.602 26.0293 208.855 26.1426V26.9219C208.855 27.9336 208.809 28.6621 208.715 29.1074C208.625 29.5254 208.453 29.8848 208.199 30.1855C207.645 30.8262 206.756 31.1465 205.533 31.1465C204.174 31.1465 203.217 30.8047 202.662 30.1211C202.416 29.8203 202.254 29.5039 202.176 29.1719C202.062 28.6836 202.006 27.957 202.006 26.9922V22.4102H203.74V27.0625C203.74 27.8086 203.762 28.2871 203.805 28.498C203.965 29.2754 204.523 29.6641 205.48 29.6641C206.402 29.6641 206.924 29.3164 207.045 28.6211C207.096 28.3281 207.121 27.8418 207.121 27.1621V22.4102H208.855V25.4746C209.422 25.3691 209.816 25.1641 210.039 24.8594C210.172 24.6797 210.242 24.4121 210.25 24.0566H209.453V22.4102ZM213.414 26.6992C213.414 27.6445 213.639 28.3828 214.088 28.9141C214.514 29.4141 215.084 29.6641 215.799 29.6641C216.514 29.6641 217.082 29.4141 217.504 28.9141C217.945 28.3906 218.166 27.6445 218.166 26.6758C218.166 25.7148 217.951 24.9805 217.521 24.4727C217.107 23.9883 216.533 23.7461 215.799 23.7461C215.064 23.7461 214.488 23.9922 214.07 24.4844C213.633 24.9961 213.414 25.7344 213.414 26.6992ZM219.695 22.4102H221.342V23.5879C221.342 24.0723 221.299 24.4512 221.213 24.7246C221.131 24.998 220.979 25.2422 220.756 25.457C220.533 25.668 220.254 25.8359 219.918 25.9609C219.945 26.2031 219.959 26.4551 219.959 26.7168C219.959 28.0918 219.584 29.1738 218.834 29.9629C218.084 30.752 217.074 31.1465 215.805 31.1465C214.523 31.1465 213.506 30.7559 212.752 29.9746C212.002 29.1895 211.627 28.1172 211.627 26.7578C211.627 25.3203 212.025 24.1934 212.822 23.377C213.541 22.6348 214.527 22.2637 215.781 22.2637C217.047 22.2637 218.061 22.6562 218.822 23.4414C219.279 23.918 219.6 24.5059 219.783 25.2051C220.24 24.998 220.477 24.6152 220.492 24.0566H219.695V22.4102ZM214.902 33.3496V31.7031H216.549V33.3496H214.902ZM222.238 31V22.4102H223.926L227.441 28.1465V22.4102H229.053V31H227.312L223.85 25.3984V31H222.238ZM234.889 27.8418V26.3945H238.627V29.8164C238.264 30.168 237.736 30.4785 237.045 30.748C236.357 31.0137 235.66 31.1465 234.953 31.1465C234.055 31.1465 233.271 30.959 232.604 30.584C231.936 30.2051 231.434 29.666 231.098 28.9668C230.762 28.2637 230.594 27.5 230.594 26.6758C230.594 25.7812 230.781 24.9863 231.156 24.291C231.531 23.5957 232.08 23.0625 232.803 22.6914C233.354 22.4062 234.039 22.2637 234.859 22.2637C235.926 22.2637 236.758 22.4883 237.355 22.9375C237.957 23.3828 238.344 24 238.516 24.7891L236.793 25.1113C236.672 24.6895 236.443 24.3574 236.107 24.1152C235.775 23.8691 235.359 23.7461 234.859 23.7461C234.102 23.7461 233.498 23.9863 233.049 24.4668C232.604 24.9473 232.381 25.6602 232.381 26.6055C232.381 27.625 232.607 28.3906 233.061 28.9023C233.514 29.4102 234.107 29.6641 234.842 29.6641C235.205 29.6641 235.568 29.5938 235.932 29.4531C236.299 29.3086 236.613 29.1348 236.875 28.9316V27.8418H234.889ZM243.59 31V22.4102H245.277L248.793 28.1465V22.4102H250.404V31H248.664L245.201 25.3984V31H243.59ZM259.68 22.4102H261.326V23.5879C261.326 24.0723 261.283 24.4512 261.197 24.7246C261.115 24.998 260.963 25.2422 260.74 25.457C260.381 25.8008 259.828 26.0293 259.082 26.1426V26.9219C259.082 27.9336 259.035 28.6621 258.941 29.1074C258.852 29.5254 258.68 29.8848 258.426 30.1855C257.871 30.8262 256.982 31.1465 255.76 31.1465C254.4 31.1465 253.443 30.8047 252.889 30.1211C252.643 29.8203 252.48 29.5039 252.402 29.1719C252.289 28.6836 252.232 27.957 252.232 26.9922V22.4102H253.967V27.0625C253.967 27.8086 253.988 28.2871 254.031 28.498C254.191 29.2754 254.75 29.6641 255.707 29.6641C256.629 29.6641 257.15 29.3164 257.271 28.6211C257.322 28.3281 257.348 27.8418 257.348 27.1621V22.4102H259.082V25.4746C259.648 25.3691 260.043 25.1641 260.266 24.8594C260.398 24.6797 260.469 24.4121 260.477 24.0566H259.68V22.4102ZM263.641 26.6992C263.641 27.6445 263.865 28.3828 264.314 28.9141C264.74 29.4141 265.311 29.6641 266.025 29.6641C266.74 29.6641 267.309 29.4141 267.73 28.9141C268.172 28.3906 268.393 27.6445 268.393 26.6758C268.393 25.7148 268.178 24.9805 267.748 24.4727C267.334 23.9883 266.76 23.7461 266.025 23.7461C265.291 23.7461 264.715 23.9922 264.297 24.4844C263.859 24.9961 263.641 25.7344 263.641 26.6992ZM269.922 22.4102H271.568V23.5879C271.568 24.0723 271.525 24.4512 271.439 24.7246C271.357 24.998 271.205 25.2422 270.982 25.457C270.76 25.668 270.48 25.8359 270.145 25.9609C270.172 26.2031 270.186 26.4551 270.186 26.7168C270.186 28.0918 269.811 29.1738 269.061 29.9629C268.311 30.752 267.301 31.1465 266.031 31.1465C264.75 31.1465 263.732 30.7559 262.979 29.9746C262.229 29.1895 261.854 28.1172 261.854 26.7578C261.854 25.3203 262.252 24.1934 263.049 23.377C263.768 22.6348 264.754 22.2637 266.008 22.2637C267.273 22.2637 268.287 22.6562 269.049 23.4414C269.506 23.918 269.826 24.5059 270.01 25.2051C270.467 24.998 270.703 24.6152 270.719 24.0566H269.922V22.4102ZM264.953 21.918L265.762 20.166H267.607L265.996 21.918H264.953ZM277.943 27.8418L279.625 28.375C279.367 29.3125 278.938 30.0098 278.336 30.4668C277.738 30.9199 276.979 31.1465 276.057 31.1465C274.916 31.1465 273.979 30.7578 273.244 29.9805C272.51 29.1992 272.143 28.1328 272.143 26.7812C272.143 25.3516 272.512 24.2422 273.25 23.4531C273.988 22.6602 274.959 22.2637 276.162 22.2637C277.213 22.2637 278.066 22.5742 278.723 23.1953C279.113 23.5625 279.406 24.0898 279.602 24.7773L277.885 25.1875C277.783 24.7422 277.57 24.3906 277.246 24.1328C276.926 23.875 276.535 23.7461 276.074 23.7461C275.438 23.7461 274.92 23.9746 274.521 24.4316C274.127 24.8887 273.93 25.6289 273.93 26.6523C273.93 27.7383 274.125 28.5117 274.516 28.9727C274.906 29.4336 275.414 29.6641 276.039 29.6641C276.5 29.6641 276.896 29.5176 277.229 29.2246C277.561 28.9316 277.799 28.4707 277.943 27.8418ZM284.477 31V22.4102H286.164L289.68 28.1465V22.4102H291.291V31H289.551L286.088 25.3984V31H284.477ZM297.127 27.8418V26.3945H300.865V29.8164C300.502 30.168 299.975 30.4785 299.283 30.748C298.596 31.0137 297.898 31.1465 297.191 31.1465C296.293 31.1465 295.51 30.959 294.842 30.584C294.174 30.2051 293.672 29.666 293.336 28.9668C293 28.2637 292.832 27.5 292.832 26.6758C292.832 25.7812 293.02 24.9863 293.395 24.291C293.77 23.5957 294.318 23.0625 295.041 22.6914C295.592 22.4062 296.277 22.2637 297.098 22.2637C298.164 22.2637 298.996 22.4883 299.594 22.9375C300.195 23.3828 300.582 24 300.754 24.7891L299.031 25.1113C298.91 24.6895 298.682 24.3574 298.346 24.1152C298.014 23.8691 297.598 23.7461 297.098 23.7461C296.34 23.7461 295.736 23.9863 295.287 24.4668C294.842 24.9473 294.619 25.6602 294.619 26.6055C294.619 27.625 294.846 28.3906 295.299 28.9023C295.752 29.4102 296.346 29.6641 297.08 29.6641C297.443 29.6641 297.807 29.5938 298.17 29.4531C298.537 29.3086 298.852 29.1348 299.113 28.9316V27.8418H297.127ZM302.119 26.7578C302.119 25.8828 302.25 25.1484 302.512 24.5547C302.707 24.1172 302.973 23.7246 303.309 23.377C303.648 23.0293 304.02 22.7715 304.422 22.6035C304.957 22.377 305.574 22.2637 306.273 22.2637C307.539 22.2637 308.551 22.6562 309.309 23.4414C310.07 24.2266 310.451 25.3184 310.451 26.7168C310.451 28.1035 310.074 29.1895 309.32 29.9746C308.566 30.7559 307.559 31.1465 306.297 31.1465C305.02 31.1465 304.004 30.7578 303.25 29.9805C302.496 29.1992 302.119 28.125 302.119 26.7578ZM303.906 26.6992C303.906 27.6719 304.131 28.4102 304.58 28.9141C305.029 29.4141 305.6 29.6641 306.291 29.6641C306.982 29.6641 307.549 29.416 307.99 28.9199C308.436 28.4199 308.658 27.6719 308.658 26.6758C308.658 25.6914 308.441 24.957 308.008 24.4727C307.578 23.9883 307.006 23.7461 306.291 23.7461C305.576 23.7461 305 23.9922 304.562 24.4844C304.125 24.9727 303.906 25.7109 303.906 26.6992ZM319.557 31H317.67L316.92 29.0488H313.486L312.777 31H310.938L314.283 22.4102H316.117L319.557 31ZM316.363 27.6016L315.18 24.4141L314.02 27.6016H316.363ZM316.158 21.918H315.121L313.504 20.166H315.35L316.158 21.918ZM320.43 31V22.4102H322.164V31H320.43ZM327.139 31V22.4102H329.734L331.293 28.2695L332.834 22.4102H335.436V31H333.824V24.2383L332.119 31H330.449L328.75 24.2383V31H327.139ZM337.146 22.4102H338.881V27.0625C338.881 27.8008 338.902 28.2793 338.945 28.498C339.02 28.8496 339.195 29.1328 339.473 29.3477C339.754 29.5586 340.137 29.6641 340.621 29.6641C341.113 29.6641 341.484 29.5645 341.734 29.3652C341.984 29.1621 342.135 28.9141 342.186 28.6211C342.236 28.3281 342.262 27.8418 342.262 27.1621V22.4102H343.996V26.9219C343.996 27.9531 343.949 28.6816 343.855 29.1074C343.762 29.5332 343.588 29.8926 343.334 30.1855C343.084 30.4785 342.748 30.7129 342.326 30.8887C341.904 31.0605 341.354 31.1465 340.674 31.1465C339.854 31.1465 339.23 31.0527 338.805 30.8652C338.383 30.6738 338.049 30.4277 337.803 30.127C337.557 29.8223 337.395 29.5039 337.316 29.1719C337.203 28.6797 337.146 27.9531 337.146 26.9922V22.4102ZM353.576 31H351.689L350.939 29.0488H347.506L346.797 31H344.957L348.303 22.4102H350.137L353.576 31ZM350.383 27.6016L349.199 24.4141L348.039 27.6016H350.383ZM359.588 31L356.518 22.4102H358.398L360.572 28.7676L362.676 22.4102H364.516L361.439 31H359.588ZM373.146 31H371.26L370.51 29.0488H367.076L366.367 31H364.527L367.873 22.4102H369.707L373.146 31ZM369.953 27.6016L368.77 24.4141L367.609 27.6016H369.953ZM369.748 21.918H368.711L367.094 20.166H368.939L369.748 21.918ZM377.418 22.4102H380.852C381.531 22.4102 382.037 22.4395 382.369 22.498C382.705 22.5527 383.004 22.6699 383.266 22.8496C383.531 23.0293 383.752 23.2695 383.928 23.5703C384.104 23.8672 384.191 24.2012 384.191 24.5723C384.191 24.9746 384.082 25.3438 383.863 25.6797C383.648 26.0156 383.355 26.2676 382.984 26.4355C383.508 26.5879 383.91 26.8477 384.191 27.2148C384.473 27.582 384.613 28.0137 384.613 28.5098C384.613 28.9004 384.521 29.2812 384.338 29.6523C384.158 30.0195 383.91 30.3145 383.594 30.5371C383.281 30.7559 382.895 30.8906 382.434 30.9414C382.145 30.9727 381.447 30.9922 380.342 31H377.418V22.4102ZM379.152 23.8398V25.8262H380.289C380.965 25.8262 381.385 25.8164 381.549 25.7969C381.846 25.7617 382.078 25.6602 382.246 25.4922C382.418 25.3203 382.504 25.0957 382.504 24.8184C382.504 24.5527 382.43 24.3379 382.281 24.1738C382.137 24.0059 381.92 23.9043 381.631 23.8691C381.459 23.8496 380.965 23.8398 380.148 23.8398H379.152ZM379.152 27.2559V29.5527H380.758C381.383 29.5527 381.779 29.5352 381.947 29.5C382.205 29.4531 382.414 29.3398 382.574 29.1602C382.738 28.9766 382.82 28.7324 382.82 28.4277C382.82 28.1699 382.758 27.9512 382.633 27.7715C382.508 27.5918 382.326 27.4609 382.088 27.3789C381.854 27.2969 381.342 27.2559 380.553 27.2559H379.152ZM393.83 31H391.943L391.193 29.0488H387.76L387.051 31H385.211L388.557 22.4102H390.391L393.83 31ZM390.637 27.6016L389.453 24.4141L388.293 27.6016H390.637ZM388.457 21.918L389.266 20.166H391.111L389.5 21.918H388.457ZM394.773 31V22.4102H396.461L399.977 28.1465V22.4102H401.588V31H399.848L396.385 25.3984V31H394.773Z" fill="white"/>
<path d="M154.85 125V116.41H157.445L159.004 122.27L160.545 116.41H163.146V125H161.535V118.238L159.83 125H158.16L156.461 118.238V125H154.85ZM168.953 125V124.068C168.727 124.4 168.428 124.662 168.057 124.854C167.689 125.045 167.301 125.141 166.891 125.141C166.473 125.141 166.098 125.049 165.766 124.865C165.434 124.682 165.193 124.424 165.045 124.092C164.896 123.76 164.822 123.301 164.822 122.715V118.777H166.469V121.637C166.469 122.512 166.498 123.049 166.557 123.248C166.619 123.443 166.73 123.6 166.891 123.717C167.051 123.83 167.254 123.887 167.5 123.887C167.781 123.887 168.033 123.811 168.256 123.658C168.479 123.502 168.631 123.311 168.713 123.084C168.795 122.854 168.836 122.293 168.836 121.402V118.777H170.482V125H168.953ZM173.424 120.676L171.93 120.406C172.098 119.805 172.387 119.359 172.797 119.07C173.207 118.781 173.816 118.637 174.625 118.637C175.359 118.637 175.906 118.725 176.266 118.9C176.625 119.072 176.877 119.293 177.021 119.562C177.17 119.828 177.244 120.318 177.244 121.033L177.227 122.955C177.227 123.502 177.252 123.906 177.303 124.168C177.357 124.426 177.457 124.703 177.602 125H175.973C175.93 124.891 175.877 124.729 175.814 124.514C175.787 124.416 175.768 124.352 175.756 124.32C175.475 124.594 175.174 124.799 174.854 124.936C174.533 125.072 174.191 125.141 173.828 125.141C173.188 125.141 172.682 124.967 172.311 124.619C171.943 124.271 171.76 123.832 171.76 123.301C171.76 122.949 171.844 122.637 172.012 122.363C172.18 122.086 172.414 121.875 172.715 121.73C173.02 121.582 173.457 121.453 174.027 121.344C174.797 121.199 175.33 121.064 175.627 120.939V120.775C175.627 120.459 175.549 120.234 175.393 120.102C175.236 119.965 174.941 119.896 174.508 119.896C174.215 119.896 173.986 119.955 173.822 120.072C173.658 120.186 173.525 120.387 173.424 120.676ZM175.627 122.012C175.416 122.082 175.082 122.166 174.625 122.264C174.168 122.361 173.869 122.457 173.729 122.551C173.514 122.703 173.406 122.896 173.406 123.131C173.406 123.361 173.492 123.561 173.664 123.729C173.836 123.896 174.055 123.98 174.32 123.98C174.617 123.98 174.9 123.883 175.17 123.688C175.369 123.539 175.5 123.357 175.562 123.143C175.605 123.002 175.627 122.734 175.627 122.34V122.012Z" fill="white"/>
<path d="M377.879 148.41H381.312C381.992 148.41 382.498 148.439 382.83 148.498C383.166 148.553 383.465 148.67 383.727 148.85C383.992 149.029 384.213 149.27 384.389 149.57C384.564 149.867 384.652 150.201 384.652 150.572C384.652 150.975 384.543 151.344 384.324 151.68C384.109 152.016 383.816 152.268 383.445 152.436C383.969 152.588 384.371 152.848 384.652 153.215C384.934 153.582 385.074 154.014 385.074 154.51C385.074 154.9 384.982 155.281 384.799 155.652C384.619 156.02 384.371 156.314 384.055 156.537C383.742 156.756 383.355 156.891 382.895 156.941C382.605 156.973 381.908 156.992 380.803 157H377.879V148.41ZM379.613 149.84V151.826H380.75C381.426 151.826 381.846 151.816 382.01 151.797C382.307 151.762 382.539 151.66 382.707 151.492C382.879 151.32 382.965 151.096 382.965 150.818C382.965 150.553 382.891 150.338 382.742 150.174C382.598 150.006 382.381 149.904 382.092 149.869C381.92 149.85 381.426 149.84 380.609 149.84H379.613ZM379.613 153.256V155.553H381.219C381.844 155.553 382.24 155.535 382.408 155.5C382.666 155.453 382.875 155.34 383.035 155.16C383.199 154.977 383.281 154.732 383.281 154.428C383.281 154.17 383.219 153.951 383.094 153.771C382.969 153.592 382.787 153.461 382.549 153.379C382.314 153.297 381.803 153.256 381.014 153.256H379.613ZM387.764 152.676L386.27 152.406C386.438 151.805 386.727 151.359 387.137 151.07C387.547 150.781 388.156 150.637 388.965 150.637C389.699 150.637 390.246 150.725 390.605 150.9C390.965 151.072 391.217 151.293 391.361 151.562C391.51 151.828 391.584 152.318 391.584 153.033L391.566 154.955C391.566 155.502 391.592 155.906 391.643 156.168C391.697 156.426 391.797 156.703 391.941 157H390.312C390.27 156.891 390.217 156.729 390.154 156.514C390.127 156.416 390.107 156.352 390.096 156.32C389.814 156.594 389.514 156.799 389.193 156.936C388.873 157.072 388.531 157.141 388.168 157.141C387.527 157.141 387.021 156.967 386.65 156.619C386.283 156.271 386.1 155.832 386.1 155.301C386.1 154.949 386.184 154.637 386.352 154.363C386.52 154.086 386.754 153.875 387.055 153.73C387.359 153.582 387.797 153.453 388.367 153.344C389.137 153.199 389.67 153.064 389.967 152.939V152.775C389.967 152.459 389.889 152.234 389.732 152.102C389.576 151.965 389.281 151.896 388.848 151.896C388.555 151.896 388.326 151.955 388.162 152.072C387.998 152.186 387.865 152.387 387.764 152.676ZM389.967 154.012C389.756 154.082 389.422 154.166 388.965 154.264C388.508 154.361 388.209 154.457 388.068 154.551C387.854 154.703 387.746 154.896 387.746 155.131C387.746 155.361 387.832 155.561 388.004 155.729C388.176 155.896 388.395 155.98 388.66 155.98C388.957 155.98 389.24 155.883 389.51 155.688C389.709 155.539 389.84 155.357 389.902 155.143C389.945 155.002 389.967 154.734 389.967 154.34V154.012ZM388.186 150.016L388.994 148.264H390.84L389.229 150.016H388.186ZM398.873 157H397.227V153.824C397.227 153.152 397.191 152.719 397.121 152.523C397.051 152.324 396.936 152.17 396.775 152.061C396.619 151.951 396.43 151.896 396.207 151.896C395.922 151.896 395.666 151.975 395.439 152.131C395.213 152.287 395.057 152.494 394.971 152.752C394.889 153.01 394.848 153.486 394.848 154.182V157H393.201V150.777H394.73V151.691C395.273 150.988 395.957 150.637 396.781 150.637C397.145 150.637 397.477 150.703 397.777 150.836C398.078 150.965 398.305 151.131 398.457 151.334C398.613 151.537 398.721 151.768 398.779 152.025C398.842 152.283 398.873 152.652 398.873 153.133V157Z" fill="white"/>
<path opacity="0.8" d="M286.03 78C269.597 78 253.672 83.5752 240.969 93.7758C228.266 103.976 219.571 118.171 216.365 133.941C213.159 149.711 215.641 166.081 223.387 180.262C231.134 194.443 243.666 205.556 258.848 211.71C274.03 217.863 290.923 218.675 306.648 214.007C322.374 209.34 335.959 199.481 345.089 186.112C354.218 172.743 358.328 156.69 356.717 140.688C355.107 124.686 347.875 109.726 336.255 98.3561L286.03 147.5L286.03 78Z" fill="#D7131C"/>
<path opacity="0.8" d="M286.03 78C304.868 78 322.935 85.3223 336.255 98.3561L286.03 147.5L286.03 78Z" fill="#008C03"/>
<path d="M254.442 170.057V168.527H260.073V169.723C259.608 170.18 259.135 170.836 258.655 171.691C258.174 172.547 257.807 173.457 257.553 174.422C257.303 175.383 257.18 176.242 257.184 177H255.596C255.624 175.812 255.868 174.602 256.329 173.367C256.793 172.133 257.413 171.029 258.186 170.057H254.442ZM266.7 170.514L265.106 170.689C265.067 170.361 264.965 170.119 264.801 169.963C264.637 169.807 264.424 169.729 264.163 169.729C263.815 169.729 263.52 169.885 263.278 170.197C263.04 170.51 262.889 171.16 262.827 172.148C263.237 171.664 263.747 171.422 264.356 171.422C265.043 171.422 265.631 171.684 266.12 172.207C266.612 172.73 266.858 173.406 266.858 174.234C266.858 175.113 266.6 175.818 266.084 176.35C265.569 176.881 264.907 177.146 264.098 177.146C263.231 177.146 262.518 176.811 261.959 176.139C261.401 175.463 261.122 174.357 261.122 172.822C261.122 171.248 261.413 170.113 261.995 169.418C262.577 168.723 263.333 168.375 264.262 168.375C264.915 168.375 265.454 168.559 265.879 168.926C266.309 169.289 266.583 169.818 266.7 170.514ZM262.967 174.105C262.967 174.641 263.09 175.055 263.336 175.348C263.583 175.637 263.864 175.781 264.18 175.781C264.485 175.781 264.739 175.662 264.942 175.424C265.145 175.186 265.247 174.795 265.247 174.252C265.247 173.693 265.137 173.285 264.918 173.027C264.7 172.766 264.426 172.635 264.098 172.635C263.782 172.635 263.514 172.76 263.295 173.01C263.077 173.256 262.967 173.621 262.967 174.105ZM268.153 177V175.354H269.799V177H268.153ZM271.165 174.791L272.805 174.621C272.852 174.992 272.991 175.287 273.221 175.506C273.452 175.721 273.717 175.828 274.018 175.828C274.362 175.828 274.653 175.689 274.891 175.412C275.129 175.131 275.249 174.709 275.249 174.146C275.249 173.619 275.129 173.225 274.891 172.963C274.657 172.697 274.35 172.564 273.971 172.564C273.499 172.564 273.075 172.773 272.7 173.191L271.364 172.998L272.208 168.527H276.561V170.068H273.456L273.198 171.527C273.565 171.344 273.94 171.252 274.323 171.252C275.053 171.252 275.672 171.518 276.18 172.049C276.688 172.58 276.942 173.27 276.942 174.117C276.942 174.824 276.737 175.455 276.327 176.01C275.768 176.768 274.993 177.146 274 177.146C273.208 177.146 272.561 176.934 272.061 176.508C271.561 176.082 271.262 175.51 271.165 174.791ZM277.833 170.531C277.833 169.762 278 169.191 278.336 168.82C278.676 168.449 279.135 168.264 279.713 168.264C280.311 168.264 280.778 168.449 281.114 168.82C281.454 169.188 281.624 169.758 281.624 170.531C281.624 171.301 281.454 171.871 281.114 172.242C280.778 172.613 280.321 172.799 279.743 172.799C279.145 172.799 278.676 172.615 278.336 172.248C278 171.877 277.833 171.305 277.833 170.531ZM279.116 170.52C279.116 171.078 279.18 171.453 279.309 171.645C279.407 171.785 279.542 171.855 279.713 171.855C279.889 171.855 280.026 171.785 280.124 171.645C280.249 171.453 280.311 171.078 280.311 170.52C280.311 169.961 280.249 169.588 280.124 169.4C280.026 169.256 279.889 169.184 279.713 169.184C279.542 169.184 279.407 169.254 279.309 169.395C279.18 169.586 279.116 169.961 279.116 170.52ZM280.967 177.328H279.749L284.325 168.264H285.508L280.967 177.328ZM283.627 175.072C283.627 174.303 283.795 173.732 284.131 173.361C284.471 172.99 284.934 172.805 285.52 172.805C286.11 172.805 286.573 172.99 286.909 173.361C287.249 173.732 287.418 174.303 287.418 175.072C287.418 175.846 287.249 176.418 286.909 176.789C286.573 177.16 286.116 177.346 285.538 177.346C284.94 177.346 284.471 177.16 284.131 176.789C283.795 176.418 283.627 175.846 283.627 175.072ZM284.911 175.066C284.911 175.625 284.975 175.998 285.104 176.186C285.202 176.33 285.336 176.402 285.508 176.402C285.684 176.402 285.819 176.332 285.913 176.191C286.042 176 286.106 175.625 286.106 175.066C286.106 174.508 286.043 174.133 285.918 173.941C285.821 173.801 285.684 173.73 285.508 173.73C285.333 173.73 285.198 173.801 285.104 173.941C284.975 174.133 284.911 174.508 284.911 175.066Z" fill="white"/>
<path d="M296.795 105.471V107H291.023C291.086 106.422 291.273 105.875 291.586 105.359C291.898 104.84 292.515 104.152 293.437 103.297C294.179 102.605 294.635 102.137 294.802 101.891C295.029 101.551 295.142 101.215 295.142 100.883C295.142 100.516 295.043 100.234 294.844 100.039C294.648 99.8398 294.377 99.7402 294.029 99.7402C293.685 99.7402 293.412 99.8438 293.209 100.051C293.006 100.258 292.888 100.602 292.857 101.082L291.217 100.918C291.314 100.012 291.621 99.3613 292.136 98.9668C292.652 98.5723 293.297 98.375 294.07 98.375C294.918 98.375 295.584 98.6035 296.068 99.0605C296.552 99.5176 296.795 100.086 296.795 100.766C296.795 101.152 296.724 101.521 296.584 101.873C296.447 102.221 296.228 102.586 295.927 102.969C295.728 103.223 295.369 103.588 294.849 104.064C294.33 104.541 294 104.857 293.859 105.014C293.722 105.17 293.611 105.322 293.525 105.471H296.795ZM301.142 107V105.271H297.627V103.83L301.353 98.375H302.736V103.824H303.802V105.271H302.736V107H301.142ZM301.142 103.824V100.889L299.168 103.824H301.142ZM304.945 107V105.354H306.592V107H304.945ZM307.957 104.791L309.597 104.621C309.644 104.992 309.783 105.287 310.013 105.506C310.244 105.721 310.51 105.828 310.81 105.828C311.154 105.828 311.445 105.689 311.683 105.412C311.922 105.131 312.041 104.709 312.041 104.146C312.041 103.619 311.922 103.225 311.683 102.963C311.449 102.697 311.142 102.564 310.763 102.564C310.291 102.564 309.867 102.773 309.492 103.191L308.156 102.998L309 98.5273H313.353V100.068H310.248L309.99 101.527C310.357 101.344 310.732 101.252 311.115 101.252C311.845 101.252 312.465 101.518 312.972 102.049C313.48 102.58 313.734 103.27 313.734 104.117C313.734 104.824 313.529 105.455 313.119 106.01C312.56 106.768 311.785 107.146 310.793 107.146C310 107.146 309.353 106.934 308.853 106.508C308.353 106.082 308.054 105.51 307.957 104.791ZM314.625 100.531C314.625 99.7617 314.793 99.1914 315.129 98.8203C315.469 98.4492 315.927 98.2637 316.506 98.2637C317.103 98.2637 317.57 98.4492 317.906 98.8203C318.246 99.1875 318.416 99.7578 318.416 100.531C318.416 101.301 318.246 101.871 317.906 102.242C317.57 102.613 317.113 102.799 316.535 102.799C315.937 102.799 315.469 102.615 315.129 102.248C314.793 101.877 314.625 101.305 314.625 100.531ZM315.908 100.52C315.908 101.078 315.972 101.453 316.101 101.645C316.199 101.785 316.334 101.855 316.506 101.855C316.681 101.855 316.818 101.785 316.916 101.645C317.041 101.453 317.103 101.078 317.103 100.52C317.103 99.9609 317.041 99.5879 316.916 99.4004C316.818 99.2559 316.681 99.1836 316.506 99.1836C316.334 99.1836 316.199 99.2539 316.101 99.3945C315.972 99.5859 315.908 99.9609 315.908 100.52ZM317.76 107.328H316.541L321.117 98.2637H322.301L317.76 107.328ZM320.42 105.072C320.42 104.303 320.588 103.732 320.924 103.361C321.263 102.99 321.726 102.805 322.312 102.805C322.902 102.805 323.365 102.99 323.701 103.361C324.041 103.732 324.211 104.303 324.211 105.072C324.211 105.846 324.041 106.418 323.701 106.789C323.365 107.16 322.908 107.346 322.33 107.346C321.732 107.346 321.263 107.16 320.924 106.789C320.588 106.418 320.42 105.846 320.42 105.072ZM321.703 105.066C321.703 105.625 321.767 105.998 321.896 106.186C321.994 106.33 322.129 106.402 322.301 106.402C322.476 106.402 322.611 106.332 322.705 106.191C322.834 106 322.898 105.625 322.898 105.066C322.898 104.508 322.836 104.133 322.711 103.941C322.613 103.801 322.476 103.73 322.301 103.73C322.125 103.73 321.99 103.801 321.896 103.941C321.767 104.133 321.703 104.508 321.703 105.066Z" fill="white"/>
<path d="M151 130H201.839L224 156" stroke="white"/>
<path d="M304 122L374.906 164H426.5" stroke="white"/>
</svg>
