<svg width="1450" height="241" viewBox="0 0 1450 241" fill="none" xmlns="http://www.w3.org/2000/svg">
<path d="M50.6016 236.179L51.5308 236.093C51.6095 236.53 51.7599 236.847 51.9819 237.044C52.2039 237.241 52.4886 237.339 52.8359 237.339C53.1331 237.339 53.3927 237.271 53.6147 237.135C53.8403 236.999 54.0247 236.818 54.168 236.593C54.3112 236.364 54.4312 236.056 54.5278 235.669C54.6245 235.282 54.6729 234.888 54.6729 234.487C54.6729 234.444 54.6711 234.38 54.6675 234.294C54.4741 234.602 54.2091 234.853 53.8726 235.046C53.5396 235.236 53.1779 235.331 52.7876 235.331C52.1359 235.331 51.5845 235.094 51.1333 234.622C50.6821 234.149 50.4565 233.526 50.4565 232.752C50.4565 231.954 50.6911 231.311 51.1602 230.824C51.6328 230.337 52.2236 230.094 52.9326 230.094C53.4447 230.094 53.9119 230.232 54.3345 230.507C54.7606 230.783 55.0828 231.177 55.3013 231.689C55.5233 232.197 55.6343 232.935 55.6343 233.902C55.6343 234.908 55.5251 235.71 55.3066 236.308C55.0882 236.903 54.7624 237.355 54.3291 237.667C53.8994 237.979 53.3945 238.134 52.8145 238.134C52.1986 238.134 51.6955 237.964 51.3052 237.624C50.9149 237.28 50.6803 236.799 50.6016 236.179ZM54.5601 232.704C54.5601 232.149 54.4115 231.709 54.1143 231.383C53.8206 231.057 53.4661 230.894 53.0508 230.894C52.6211 230.894 52.2469 231.069 51.9282 231.42C51.6095 231.771 51.4502 232.226 51.4502 232.785C51.4502 233.286 51.6006 233.694 51.9014 234.009C52.2057 234.321 52.5799 234.477 53.0239 234.477C53.4715 234.477 53.8385 234.321 54.125 234.009C54.415 233.694 54.5601 233.259 54.5601 232.704ZM56.8481 238V230.126H57.8149V232.951C58.2661 232.428 58.8354 232.167 59.5229 232.167C59.9455 232.167 60.3125 232.251 60.624 232.419C60.9355 232.584 61.1576 232.813 61.29 233.107C61.4261 233.401 61.4941 233.827 61.4941 234.385V238H60.5273V234.385C60.5273 233.902 60.4217 233.551 60.2104 233.333C60.0028 233.111 59.7074 233 59.3242 233C59.0378 233 58.7674 233.075 58.5132 233.225C58.2625 233.372 58.0835 233.572 57.9761 233.827C57.8687 234.081 57.8149 234.432 57.8149 234.879V238H56.8481Z" fill="white"/>
<path d="M271.098 238H270.131V231.839C269.899 232.061 269.592 232.283 269.213 232.505C268.837 232.727 268.499 232.894 268.198 233.005V232.07C268.738 231.816 269.211 231.508 269.616 231.146C270.02 230.785 270.307 230.434 270.475 230.094H271.098V238ZM273.58 234.117C273.58 233.186 273.674 232.437 273.864 231.872C274.058 231.302 274.342 230.864 274.718 230.556C275.098 230.248 275.574 230.094 276.147 230.094C276.569 230.094 276.94 230.18 277.259 230.352C277.577 230.52 277.841 230.765 278.048 231.087C278.256 231.406 278.419 231.796 278.537 232.258C278.655 232.717 278.714 233.336 278.714 234.117C278.714 235.041 278.619 235.787 278.43 236.356C278.24 236.922 277.955 237.361 277.576 237.672C277.2 237.98 276.723 238.134 276.147 238.134C275.388 238.134 274.792 237.862 274.358 237.318C273.839 236.663 273.58 235.596 273.58 234.117ZM274.573 234.117C274.573 235.409 274.724 236.271 275.024 236.7C275.329 237.126 275.703 237.339 276.147 237.339C276.591 237.339 276.963 237.125 277.264 236.695C277.569 236.265 277.721 235.406 277.721 234.117C277.721 232.82 277.569 231.959 277.264 231.533C276.963 231.107 276.587 230.894 276.136 230.894C275.692 230.894 275.338 231.082 275.073 231.458C274.74 231.938 274.573 232.824 274.573 234.117ZM279.971 238V230.126H280.938V232.951C281.389 232.428 281.958 232.167 282.646 232.167C283.069 232.167 283.436 232.251 283.747 232.419C284.059 232.584 284.281 232.813 284.413 233.107C284.549 233.401 284.617 233.827 284.617 234.385V238H283.65V234.385C283.65 233.902 283.545 233.551 283.333 233.333C283.126 233.111 282.83 233 282.447 233C282.161 233 281.89 233.075 281.636 233.225C281.386 233.372 281.207 233.572 281.099 233.827C280.992 234.081 280.938 234.432 280.938 234.879V238H279.971Z" fill="white"/>
<path d="M494.098 238H493.131V231.839C492.899 232.061 492.592 232.283 492.213 232.505C491.837 232.727 491.499 232.894 491.198 233.005V232.07C491.738 231.816 492.211 231.508 492.616 231.146C493.02 230.785 493.307 230.434 493.475 230.094H494.098V238ZM499.405 238H498.438V231.839C498.205 232.061 497.899 232.283 497.52 232.505C497.144 232.727 496.805 232.894 496.504 233.005V232.07C497.045 231.816 497.518 231.508 497.922 231.146C498.327 230.785 498.613 230.434 498.782 230.094H499.405V238ZM502.155 238V230.126H503.122V232.951C503.573 232.428 504.142 232.167 504.83 232.167C505.252 232.167 505.619 232.251 505.931 232.419C506.242 232.584 506.464 232.813 506.597 233.107C506.733 233.401 506.801 233.827 506.801 234.385V238H505.834V234.385C505.834 233.902 505.728 233.551 505.517 233.333C505.309 233.111 505.014 233 504.631 233C504.344 233 504.074 233.075 503.82 233.225C503.569 233.372 503.39 233.572 503.283 233.827C503.175 234.081 503.122 234.432 503.122 234.879V238H502.155Z" fill="white"/>
<path d="M709.098 238H708.131V231.839C707.899 232.061 707.592 232.283 707.213 232.505C706.837 232.727 706.499 232.894 706.198 233.005V232.07C706.738 231.816 707.211 231.508 707.616 231.146C708.02 230.785 708.307 230.434 708.475 230.094H709.098V238ZM716.661 237.071V238H711.456C711.449 237.767 711.486 237.543 711.569 237.329C711.701 236.974 711.913 236.625 712.203 236.281C712.496 235.938 712.919 235.54 713.47 235.089C714.326 234.387 714.904 233.832 715.205 233.424C715.506 233.012 715.656 232.624 715.656 232.258C715.656 231.875 715.518 231.553 715.243 231.292C714.971 231.027 714.614 230.894 714.174 230.894C713.708 230.894 713.336 231.034 713.057 231.313C712.777 231.592 712.636 231.979 712.632 232.473L711.639 232.371C711.707 231.63 711.963 231.066 712.407 230.679C712.851 230.289 713.447 230.094 714.195 230.094C714.951 230.094 715.549 230.303 715.989 230.722C716.43 231.141 716.65 231.66 716.65 232.28C716.65 232.595 716.585 232.905 716.457 233.209C716.328 233.513 716.113 233.834 715.812 234.17C715.515 234.507 715.019 234.969 714.324 235.556C713.744 236.043 713.372 236.374 713.207 236.55C713.042 236.722 712.906 236.895 712.799 237.071H716.661ZM717.971 238V230.126H718.938V232.951C719.389 232.428 719.958 232.167 720.646 232.167C721.069 232.167 721.436 232.251 721.747 232.419C722.059 232.584 722.281 232.813 722.413 233.107C722.549 233.401 722.617 233.827 722.617 234.385V238H721.65V234.385C721.65 233.902 721.545 233.551 721.333 233.333C721.126 233.111 720.83 233 720.447 233C720.161 233 719.89 233.075 719.636 233.225C719.386 233.372 719.207 233.572 719.099 233.827C718.992 234.081 718.938 234.432 718.938 234.879V238H717.971Z" fill="white"/>
<path d="M931.098 238H930.131V231.839C929.899 232.061 929.592 232.283 929.213 232.505C928.837 232.727 928.499 232.894 928.198 233.005V232.07C928.738 231.816 929.211 231.508 929.616 231.146C930.02 230.785 930.307 230.434 930.475 230.094H931.098V238ZM933.585 235.921L934.552 235.792C934.663 236.34 934.851 236.736 935.116 236.979C935.384 237.219 935.71 237.339 936.093 237.339C936.548 237.339 936.931 237.182 937.243 236.867C937.558 236.552 937.715 236.161 937.715 235.696C937.715 235.252 937.57 234.887 937.28 234.6C936.99 234.31 936.621 234.165 936.174 234.165C935.991 234.165 935.764 234.201 935.492 234.272L935.599 233.424C935.664 233.431 935.715 233.435 935.755 233.435C936.167 233.435 936.537 233.327 936.867 233.112C937.196 232.897 937.361 232.566 937.361 232.119C937.361 231.764 937.241 231.471 937.001 231.238C936.761 231.005 936.451 230.889 936.072 230.889C935.696 230.889 935.382 231.007 935.132 231.243C934.881 231.479 934.72 231.834 934.648 232.307L933.682 232.135C933.8 231.487 934.068 230.985 934.487 230.631C934.906 230.273 935.427 230.094 936.05 230.094C936.48 230.094 936.876 230.187 937.237 230.373C937.599 230.556 937.875 230.806 938.064 231.125C938.258 231.444 938.354 231.782 938.354 232.14C938.354 232.48 938.263 232.79 938.081 233.069C937.898 233.349 937.628 233.571 937.27 233.735C937.735 233.843 938.097 234.067 938.354 234.407C938.612 234.743 938.741 235.166 938.741 235.674C938.741 236.362 938.491 236.945 937.989 237.425C937.488 237.902 936.854 238.14 936.088 238.14C935.397 238.14 934.822 237.934 934.364 237.522C933.909 237.11 933.649 236.577 933.585 235.921ZM939.971 238V230.126H940.938V232.951C941.389 232.428 941.958 232.167 942.646 232.167C943.069 232.167 943.436 232.251 943.747 232.419C944.059 232.584 944.281 232.813 944.413 233.107C944.549 233.401 944.617 233.827 944.617 234.385V238H943.65V234.385C943.65 233.902 943.545 233.551 943.333 233.333C943.126 233.111 942.83 233 942.447 233C942.161 233 941.89 233.075 941.636 233.225C941.386 233.372 941.207 233.572 941.099 233.827C940.992 234.081 940.938 234.432 940.938 234.879V238H939.971Z" fill="white"/>
<path d="M1155.1 238H1154.13V231.839C1153.9 232.061 1153.59 232.283 1153.21 232.505C1152.84 232.727 1152.5 232.894 1152.2 233.005V232.07C1152.74 231.816 1153.21 231.508 1153.62 231.146C1154.02 230.785 1154.31 230.434 1154.48 230.094H1155.1V238ZM1160.68 238V236.115H1157.26V235.229L1160.86 230.126H1161.65V235.229H1162.71V236.115H1161.65V238H1160.68ZM1160.68 235.229V231.678L1158.21 235.229H1160.68ZM1163.97 238V230.126H1164.94V232.951C1165.39 232.428 1165.96 232.167 1166.65 232.167C1167.07 232.167 1167.44 232.251 1167.75 232.419C1168.06 232.584 1168.28 232.813 1168.41 233.107C1168.55 233.401 1168.62 233.827 1168.62 234.385V238H1167.65V234.385C1167.65 233.902 1167.54 233.551 1167.33 233.333C1167.13 233.111 1166.83 233 1166.45 233C1166.16 233 1165.89 233.075 1165.64 233.225C1165.39 233.372 1165.21 233.572 1165.1 233.827C1164.99 234.081 1164.94 234.432 1164.94 234.879V238H1163.97Z" fill="white"/>
<path d="M1376.1 238H1375.13V231.839C1374.9 232.061 1374.59 232.283 1374.21 232.505C1373.84 232.727 1373.5 232.894 1373.2 233.005V232.07C1373.74 231.816 1374.21 231.508 1374.62 231.146C1375.02 230.785 1375.31 230.434 1375.48 230.094H1376.1V238ZM1378.58 235.938L1379.59 235.852C1379.67 236.346 1379.84 236.718 1380.12 236.969C1380.39 237.216 1380.72 237.339 1381.11 237.339C1381.57 237.339 1381.97 237.164 1382.29 236.813C1382.61 236.462 1382.77 235.997 1382.77 235.417C1382.77 234.865 1382.62 234.43 1382.31 234.111C1382 233.793 1381.59 233.633 1381.09 233.633C1380.78 233.633 1380.5 233.705 1380.25 233.848C1380 233.988 1379.8 234.17 1379.66 234.396L1378.75 234.278L1379.51 230.233H1383.43V231.157H1380.29L1379.86 233.273C1380.34 232.944 1380.83 232.779 1381.35 232.779C1382.04 232.779 1382.62 233.017 1383.09 233.494C1383.56 233.97 1383.8 234.582 1383.8 235.331C1383.8 236.043 1383.59 236.659 1383.18 237.178C1382.67 237.816 1381.98 238.134 1381.11 238.134C1380.39 238.134 1379.81 237.934 1379.35 237.533C1378.9 237.132 1378.64 236.6 1378.58 235.938ZM1384.97 238V230.126H1385.94V232.951C1386.39 232.428 1386.96 232.167 1387.65 232.167C1388.07 232.167 1388.44 232.251 1388.75 232.419C1389.06 232.584 1389.28 232.813 1389.41 233.107C1389.55 233.401 1389.62 233.827 1389.62 234.385V238H1388.65V234.385C1388.65 233.902 1388.54 233.551 1388.33 233.333C1388.13 233.111 1387.83 233 1387.45 233C1387.16 233 1386.89 233.075 1386.64 233.225C1386.39 233.372 1386.21 233.572 1386.1 233.827C1385.99 234.081 1385.94 234.432 1385.94 234.879V238H1384.97Z" fill="white"/>
<path d="M23.9443 218.73C23.5433 218.583 23.2461 218.374 23.0527 218.102C22.8594 217.829 22.7627 217.504 22.7627 217.124C22.7627 216.551 22.9686 216.069 23.3804 215.679C23.7922 215.289 24.34 215.094 25.0239 215.094C25.7114 215.094 26.2646 215.294 26.6836 215.695C27.1025 216.093 27.312 216.578 27.312 217.151C27.312 217.516 27.2153 217.835 27.022 218.107C26.8322 218.375 26.5422 218.583 26.1519 218.73C26.6353 218.888 27.0023 219.142 27.2529 219.493C27.5072 219.844 27.6343 220.263 27.6343 220.75C27.6343 221.423 27.3962 221.988 26.9199 222.447C26.4437 222.905 25.8171 223.134 25.04 223.134C24.263 223.134 23.6364 222.905 23.1602 222.447C22.6839 221.985 22.4458 221.41 22.4458 220.723C22.4458 220.211 22.5747 219.783 22.8325 219.439C23.0939 219.092 23.4645 218.855 23.9443 218.73ZM23.751 217.092C23.751 217.464 23.8709 217.769 24.1108 218.005C24.3507 218.241 24.6623 218.359 25.0454 218.359C25.4178 218.359 25.7222 218.243 25.9585 218.01C26.1984 217.774 26.3184 217.486 26.3184 217.146C26.3184 216.791 26.1948 216.494 25.9478 216.254C25.7043 216.01 25.3999 215.889 25.0347 215.889C24.6659 215.889 24.3597 216.007 24.1162 216.243C23.8727 216.479 23.751 216.762 23.751 217.092ZM23.4395 220.728C23.4395 221.004 23.5039 221.271 23.6328 221.528C23.7653 221.786 23.9604 221.987 24.2183 222.13C24.4761 222.27 24.7536 222.339 25.0508 222.339C25.5127 222.339 25.894 222.191 26.1948 221.894C26.4956 221.596 26.646 221.219 26.646 220.76C26.646 220.295 26.4902 219.91 26.1787 219.605C25.8708 219.301 25.484 219.149 25.0186 219.149C24.5638 219.149 24.186 219.299 23.8853 219.6C23.5881 219.901 23.4395 220.277 23.4395 220.728ZM28.7246 221.179L29.6538 221.093C29.7326 221.53 29.883 221.847 30.105 222.044C30.327 222.241 30.6117 222.339 30.959 222.339C31.2562 222.339 31.5158 222.271 31.7378 222.135C31.9634 221.999 32.1478 221.818 32.291 221.593C32.4342 221.364 32.5542 221.056 32.6509 220.669C32.7476 220.282 32.7959 219.888 32.7959 219.487C32.7959 219.444 32.7941 219.38 32.7905 219.294C32.5972 219.602 32.3322 219.853 31.9956 220.046C31.6626 220.236 31.3009 220.331 30.9106 220.331C30.259 220.331 29.7075 220.094 29.2563 219.622C28.8052 219.149 28.5796 218.526 28.5796 217.752C28.5796 216.954 28.8141 216.311 29.2832 215.824C29.7559 215.337 30.3467 215.094 31.0557 215.094C31.5677 215.094 32.035 215.232 32.4575 215.507C32.8836 215.783 33.2059 216.177 33.4243 216.689C33.6463 217.197 33.7573 217.935 33.7573 218.902C33.7573 219.908 33.6481 220.71 33.4297 221.308C33.2113 221.903 32.8854 222.355 32.4521 222.667C32.0225 222.979 31.5176 223.134 30.9375 223.134C30.3216 223.134 29.8185 222.964 29.4282 222.624C29.0379 222.28 28.8034 221.799 28.7246 221.179ZM32.6831 217.704C32.6831 217.149 32.5345 216.709 32.2373 216.383C31.9437 216.057 31.5892 215.894 31.1738 215.894C30.7441 215.894 30.37 216.069 30.0513 216.42C29.7326 216.771 29.5732 217.226 29.5732 217.785C29.5732 218.286 29.7236 218.694 30.0244 219.009C30.3288 219.321 30.703 219.477 31.147 219.477C31.5946 219.477 31.9616 219.321 32.248 219.009C32.5381 218.694 32.6831 218.259 32.6831 217.704ZM35.2451 223V221.899H36.3462V223H35.2451ZM42.8452 222.071V223H37.6406C37.6335 222.767 37.6711 222.543 37.7534 222.329C37.8859 221.974 38.0972 221.625 38.3872 221.281C38.6808 220.938 39.1034 220.54 39.6548 220.089C40.5106 219.387 41.0889 218.832 41.3896 218.424C41.6904 218.012 41.8408 217.624 41.8408 217.258C41.8408 216.875 41.703 216.553 41.4272 216.292C41.1551 216.027 40.7988 215.894 40.3584 215.894C39.8929 215.894 39.5205 216.034 39.2412 216.313C38.9619 216.592 38.8205 216.979 38.8169 217.473L37.8232 217.371C37.8913 216.63 38.1473 216.066 38.5913 215.679C39.0353 215.289 39.6315 215.094 40.3799 215.094C41.1354 215.094 41.7334 215.303 42.1738 215.722C42.6143 216.141 42.8345 216.66 42.8345 217.28C42.8345 217.595 42.77 217.905 42.6411 218.209C42.5122 218.513 42.2974 218.834 41.9966 219.17C41.6994 219.507 41.2035 219.969 40.5088 220.556C39.9287 221.043 39.5563 221.374 39.3916 221.55C39.2269 221.722 39.0908 221.895 38.9834 222.071H42.8452ZM43.8872 220.938L44.9023 220.852C44.9775 221.346 45.1512 221.718 45.4233 221.969C45.6991 222.216 46.0303 222.339 46.417 222.339C46.8825 222.339 47.2764 222.164 47.5986 221.813C47.9209 221.462 48.082 220.997 48.082 220.417C48.082 219.865 47.9263 219.43 47.6147 219.111C47.3068 218.793 46.9022 218.633 46.4009 218.633C46.0894 218.633 45.8083 218.705 45.5576 218.848C45.307 218.988 45.11 219.17 44.9668 219.396L44.0591 219.278L44.8218 215.233H48.7373V216.157H45.5952L45.1709 218.273C45.6436 217.944 46.1395 217.779 46.6587 217.779C47.3462 217.779 47.9263 218.017 48.3989 218.494C48.8716 218.97 49.1079 219.582 49.1079 220.331C49.1079 221.043 48.9002 221.659 48.4849 222.178C47.98 222.816 47.2907 223.134 46.417 223.134C45.7008 223.134 45.1154 222.934 44.6606 222.533C44.2095 222.132 43.9517 221.6 43.8872 220.938Z" fill="white"/>
<path d="M23.9443 167.73C23.5433 167.583 23.2461 167.374 23.0527 167.102C22.8594 166.829 22.7627 166.504 22.7627 166.124C22.7627 165.551 22.9686 165.069 23.3804 164.679C23.7922 164.289 24.34 164.094 25.0239 164.094C25.7114 164.094 26.2646 164.294 26.6836 164.695C27.1025 165.093 27.312 165.578 27.312 166.151C27.312 166.516 27.2153 166.835 27.022 167.107C26.8322 167.375 26.5422 167.583 26.1519 167.73C26.6353 167.888 27.0023 168.142 27.2529 168.493C27.5072 168.844 27.6343 169.263 27.6343 169.75C27.6343 170.423 27.3962 170.988 26.9199 171.447C26.4437 171.905 25.8171 172.134 25.04 172.134C24.263 172.134 23.6364 171.905 23.1602 171.447C22.6839 170.985 22.4458 170.41 22.4458 169.723C22.4458 169.211 22.5747 168.783 22.8325 168.439C23.0939 168.092 23.4645 167.855 23.9443 167.73ZM23.751 166.092C23.751 166.464 23.8709 166.769 24.1108 167.005C24.3507 167.241 24.6623 167.359 25.0454 167.359C25.4178 167.359 25.7222 167.243 25.9585 167.01C26.1984 166.774 26.3184 166.486 26.3184 166.146C26.3184 165.791 26.1948 165.494 25.9478 165.254C25.7043 165.01 25.3999 164.889 25.0347 164.889C24.6659 164.889 24.3597 165.007 24.1162 165.243C23.8727 165.479 23.751 165.762 23.751 166.092ZM23.4395 169.728C23.4395 170.004 23.5039 170.271 23.6328 170.528C23.7653 170.786 23.9604 170.987 24.2183 171.13C24.4761 171.27 24.7536 171.339 25.0508 171.339C25.5127 171.339 25.894 171.191 26.1948 170.894C26.4956 170.596 26.646 170.219 26.646 169.76C26.646 169.295 26.4902 168.91 26.1787 168.605C25.8708 168.301 25.484 168.149 25.0186 168.149C24.5638 168.149 24.186 168.299 23.8853 168.6C23.5881 168.901 23.4395 169.277 23.4395 169.728ZM28.7246 170.179L29.6538 170.093C29.7326 170.53 29.883 170.847 30.105 171.044C30.327 171.241 30.6117 171.339 30.959 171.339C31.2562 171.339 31.5158 171.271 31.7378 171.135C31.9634 170.999 32.1478 170.818 32.291 170.593C32.4342 170.364 32.5542 170.056 32.6509 169.669C32.7476 169.282 32.7959 168.888 32.7959 168.487C32.7959 168.444 32.7941 168.38 32.7905 168.294C32.5972 168.602 32.3322 168.853 31.9956 169.046C31.6626 169.236 31.3009 169.331 30.9106 169.331C30.259 169.331 29.7075 169.094 29.2563 168.622C28.8052 168.149 28.5796 167.526 28.5796 166.752C28.5796 165.954 28.8141 165.311 29.2832 164.824C29.7559 164.337 30.3467 164.094 31.0557 164.094C31.5677 164.094 32.035 164.232 32.4575 164.507C32.8836 164.783 33.2059 165.177 33.4243 165.689C33.6463 166.197 33.7573 166.935 33.7573 167.902C33.7573 168.908 33.6481 169.71 33.4297 170.308C33.2113 170.903 32.8854 171.355 32.4521 171.667C32.0225 171.979 31.5176 172.134 30.9375 172.134C30.3216 172.134 29.8185 171.964 29.4282 171.624C29.0379 171.28 28.8034 170.799 28.7246 170.179ZM32.6831 166.704C32.6831 166.149 32.5345 165.709 32.2373 165.383C31.9437 165.057 31.5892 164.894 31.1738 164.894C30.7441 164.894 30.37 165.069 30.0513 165.42C29.7326 165.771 29.5732 166.226 29.5732 166.785C29.5732 167.286 29.7236 167.694 30.0244 168.009C30.3288 168.321 30.703 168.477 31.147 168.477C31.5946 168.477 31.9616 168.321 32.248 168.009C32.5381 167.694 32.6831 167.259 32.6831 166.704ZM35.2451 172V170.899H36.3462V172H35.2451ZM37.7642 169.938L38.7793 169.852C38.8545 170.346 39.0282 170.718 39.3003 170.969C39.576 171.216 39.9072 171.339 40.2939 171.339C40.7594 171.339 41.1533 171.164 41.4756 170.813C41.7979 170.462 41.959 169.997 41.959 169.417C41.959 168.865 41.8032 168.43 41.4917 168.111C41.1838 167.793 40.7791 167.633 40.2778 167.633C39.9663 167.633 39.6852 167.705 39.4346 167.848C39.1839 167.988 38.987 168.17 38.8438 168.396L37.936 168.278L38.6987 164.233H42.6143V165.157H39.4722L39.0479 167.273C39.5205 166.944 40.0164 166.779 40.5356 166.779C41.2231 166.779 41.8032 167.017 42.2759 167.494C42.7485 167.97 42.9849 168.582 42.9849 169.331C42.9849 170.043 42.7772 170.659 42.3618 171.178C41.8569 171.816 41.1676 172.134 40.2939 172.134C39.5778 172.134 38.9924 171.934 38.5376 171.533C38.0864 171.132 37.8286 170.6 37.7642 169.938ZM43.8872 168.117C43.8872 167.186 43.9821 166.437 44.1719 165.872C44.3652 165.302 44.6499 164.864 45.0259 164.556C45.4054 164.248 45.8817 164.094 46.4546 164.094C46.8771 164.094 47.2477 164.18 47.5664 164.352C47.8851 164.52 48.1483 164.765 48.356 165.087C48.5636 165.406 48.7266 165.796 48.8447 166.258C48.9629 166.717 49.022 167.336 49.022 168.117C49.022 169.041 48.9271 169.787 48.7373 170.356C48.5475 170.922 48.2629 171.361 47.8833 171.672C47.5073 171.98 47.0311 172.134 46.4546 172.134C45.6955 172.134 45.0993 171.862 44.666 171.318C44.1468 170.663 43.8872 169.596 43.8872 168.117ZM44.8809 168.117C44.8809 169.409 45.0312 170.271 45.332 170.7C45.6364 171.126 46.0106 171.339 46.4546 171.339C46.8986 171.339 47.271 171.125 47.5718 170.695C47.8761 170.265 48.0283 169.406 48.0283 168.117C48.0283 166.82 47.8761 165.959 47.5718 165.533C47.271 165.107 46.895 164.894 46.4438 164.894C45.9998 164.894 45.6453 165.082 45.3804 165.458C45.0474 165.938 44.8809 166.824 44.8809 168.117Z" fill="white"/>
<path d="M23.9443 112.73C23.5433 112.583 23.2461 112.374 23.0527 112.102C22.8594 111.829 22.7627 111.504 22.7627 111.124C22.7627 110.551 22.9686 110.069 23.3804 109.679C23.7922 109.289 24.34 109.094 25.0239 109.094C25.7114 109.094 26.2646 109.294 26.6836 109.695C27.1025 110.093 27.312 110.578 27.312 111.151C27.312 111.516 27.2153 111.835 27.022 112.107C26.8322 112.375 26.5422 112.583 26.1519 112.73C26.6353 112.888 27.0023 113.142 27.2529 113.493C27.5072 113.844 27.6343 114.263 27.6343 114.75C27.6343 115.423 27.3962 115.988 26.9199 116.447C26.4437 116.905 25.8171 117.134 25.04 117.134C24.263 117.134 23.6364 116.905 23.1602 116.447C22.6839 115.985 22.4458 115.41 22.4458 114.723C22.4458 114.211 22.5747 113.783 22.8325 113.439C23.0939 113.092 23.4645 112.855 23.9443 112.73ZM23.751 111.092C23.751 111.464 23.8709 111.769 24.1108 112.005C24.3507 112.241 24.6623 112.359 25.0454 112.359C25.4178 112.359 25.7222 112.243 25.9585 112.01C26.1984 111.774 26.3184 111.486 26.3184 111.146C26.3184 110.791 26.1948 110.494 25.9478 110.254C25.7043 110.01 25.3999 109.889 25.0347 109.889C24.6659 109.889 24.3597 110.007 24.1162 110.243C23.8727 110.479 23.751 110.762 23.751 111.092ZM23.4395 114.728C23.4395 115.004 23.5039 115.271 23.6328 115.528C23.7653 115.786 23.9604 115.987 24.2183 116.13C24.4761 116.27 24.7536 116.339 25.0508 116.339C25.5127 116.339 25.894 116.191 26.1948 115.894C26.4956 115.596 26.646 115.219 26.646 114.76C26.646 114.295 26.4902 113.91 26.1787 113.605C25.8708 113.301 25.484 113.149 25.0186 113.149C24.5638 113.149 24.186 113.299 23.8853 113.6C23.5881 113.901 23.4395 114.277 23.4395 114.728ZM28.7246 115.179L29.6538 115.093C29.7326 115.53 29.883 115.847 30.105 116.044C30.327 116.241 30.6117 116.339 30.959 116.339C31.2562 116.339 31.5158 116.271 31.7378 116.135C31.9634 115.999 32.1478 115.818 32.291 115.593C32.4342 115.364 32.5542 115.056 32.6509 114.669C32.7476 114.282 32.7959 113.888 32.7959 113.487C32.7959 113.444 32.7941 113.38 32.7905 113.294C32.5972 113.602 32.3322 113.853 31.9956 114.046C31.6626 114.236 31.3009 114.331 30.9106 114.331C30.259 114.331 29.7075 114.094 29.2563 113.622C28.8052 113.149 28.5796 112.526 28.5796 111.752C28.5796 110.954 28.8141 110.311 29.2832 109.824C29.7559 109.337 30.3467 109.094 31.0557 109.094C31.5677 109.094 32.035 109.232 32.4575 109.507C32.8836 109.783 33.2059 110.177 33.4243 110.689C33.6463 111.197 33.7573 111.935 33.7573 112.902C33.7573 113.908 33.6481 114.71 33.4297 115.308C33.2113 115.903 32.8854 116.355 32.4521 116.667C32.0225 116.979 31.5176 117.134 30.9375 117.134C30.3216 117.134 29.8185 116.964 29.4282 116.624C29.0379 116.28 28.8034 115.799 28.7246 115.179ZM32.6831 111.704C32.6831 111.149 32.5345 110.709 32.2373 110.383C31.9437 110.057 31.5892 109.894 31.1738 109.894C30.7441 109.894 30.37 110.069 30.0513 110.42C29.7326 110.771 29.5732 111.226 29.5732 111.785C29.5732 112.286 29.7236 112.694 30.0244 113.009C30.3288 113.321 30.703 113.477 31.147 113.477C31.5946 113.477 31.9616 113.321 32.248 113.009C32.5381 112.694 32.6831 112.259 32.6831 111.704ZM35.2451 117V115.899H36.3462V117H35.2451ZM37.8286 110.157V109.228H42.9258V109.98C42.4245 110.514 41.9268 111.222 41.4326 112.107C40.9421 112.991 40.5625 113.901 40.2939 114.835C40.1006 115.494 39.9771 116.216 39.9233 117H38.9297C38.9404 116.381 39.0622 115.632 39.2949 114.755C39.5277 113.878 39.8607 113.033 40.2939 112.22C40.7308 111.403 41.1945 110.716 41.6851 110.157H37.8286ZM43.8872 114.938L44.9023 114.852C44.9775 115.346 45.1512 115.718 45.4233 115.969C45.6991 116.216 46.0303 116.339 46.417 116.339C46.8825 116.339 47.2764 116.164 47.5986 115.813C47.9209 115.462 48.082 114.997 48.082 114.417C48.082 113.865 47.9263 113.43 47.6147 113.111C47.3068 112.793 46.9022 112.633 46.4009 112.633C46.0894 112.633 45.8083 112.705 45.5576 112.848C45.307 112.988 45.11 113.17 44.9668 113.396L44.0591 113.278L44.8218 109.233H48.7373V110.157H45.5952L45.1709 112.273C45.6436 111.944 46.1395 111.779 46.6587 111.779C47.3462 111.779 47.9263 112.017 48.3989 112.494C48.8716 112.97 49.1079 113.582 49.1079 114.331C49.1079 115.043 48.9002 115.659 48.4849 116.178C47.98 116.816 47.2907 117.134 46.417 117.134C45.7008 117.134 45.1154 116.934 44.6606 116.533C44.2095 116.132 43.9517 115.6 43.8872 114.938Z" fill="white"/>
<path d="M22.6016 62.1792L23.5308 62.0933C23.6095 62.5301 23.7599 62.847 23.9819 63.0439C24.2039 63.2409 24.4886 63.3394 24.8359 63.3394C25.1331 63.3394 25.3927 63.2713 25.6147 63.1353C25.8403 62.9992 26.0247 62.8184 26.168 62.5928C26.3112 62.3636 26.4312 62.0557 26.5278 61.6689C26.6245 61.2822 26.6729 60.8883 26.6729 60.4873C26.6729 60.4443 26.6711 60.3799 26.6675 60.2939C26.4741 60.6019 26.2091 60.8525 25.8726 61.0459C25.5396 61.2357 25.1779 61.3306 24.7876 61.3306C24.1359 61.3306 23.5845 61.0942 23.1333 60.6216C22.6821 60.1489 22.4565 59.5259 22.4565 58.7524C22.4565 57.9539 22.6911 57.3112 23.1602 56.8242C23.6328 56.3372 24.2236 56.0938 24.9326 56.0938C25.4447 56.0938 25.9119 56.2316 26.3345 56.5073C26.7606 56.783 27.0828 57.1769 27.3013 57.689C27.5233 58.1974 27.6343 58.9351 27.6343 59.9019C27.6343 60.908 27.5251 61.7101 27.3066 62.3081C27.0882 62.9025 26.7624 63.3555 26.3291 63.667C25.8994 63.9785 25.3945 64.1343 24.8145 64.1343C24.1986 64.1343 23.6955 63.9642 23.3052 63.624C22.9149 63.2803 22.6803 62.7987 22.6016 62.1792ZM26.5601 58.7041C26.5601 58.1491 26.4115 57.7087 26.1143 57.3828C25.8206 57.057 25.4661 56.894 25.0508 56.894C24.6211 56.894 24.2469 57.0695 23.9282 57.4204C23.6095 57.7713 23.4502 58.2261 23.4502 58.7847C23.4502 59.286 23.6006 59.6942 23.9014 60.0093C24.2057 60.3208 24.5799 60.4766 25.0239 60.4766C25.4715 60.4766 25.8385 60.3208 26.125 60.0093C26.415 59.6942 26.5601 59.2591 26.5601 58.7041ZM28.5796 60.1167C28.5796 59.1857 28.6745 58.4373 28.8643 57.8716C29.0576 57.3022 29.3423 56.8636 29.7183 56.5557C30.0978 56.2477 30.5741 56.0938 31.147 56.0938C31.5695 56.0938 31.9401 56.1797 32.2588 56.3516C32.5775 56.5199 32.8407 56.7651 33.0483 57.0874C33.256 57.4061 33.4189 57.7964 33.5371 58.2583C33.6553 58.7166 33.7144 59.3361 33.7144 60.1167C33.7144 61.0405 33.6195 61.7871 33.4297 62.3564C33.2399 62.9222 32.9552 63.3608 32.5757 63.6724C32.1997 63.9803 31.7235 64.1343 31.147 64.1343C30.3879 64.1343 29.7917 63.8621 29.3584 63.3179C28.8392 62.6626 28.5796 61.5955 28.5796 60.1167ZM29.5732 60.1167C29.5732 61.4093 29.7236 62.2705 30.0244 62.7002C30.3288 63.1263 30.703 63.3394 31.147 63.3394C31.591 63.3394 31.9634 63.1245 32.2642 62.6948C32.5685 62.2651 32.7207 61.4058 32.7207 60.1167C32.7207 58.8205 32.5685 57.9593 32.2642 57.5332C31.9634 57.1071 31.5874 56.894 31.1362 56.894C30.6922 56.894 30.3377 57.082 30.0728 57.458C29.7397 57.9378 29.5732 58.8241 29.5732 60.1167ZM35.2451 64V62.8989H36.3462V64H35.2451ZM37.7642 60.1167C37.7642 59.1857 37.859 58.4373 38.0488 57.8716C38.2422 57.3022 38.5269 56.8636 38.9028 56.5557C39.2824 56.2477 39.7586 56.0938 40.3315 56.0938C40.7541 56.0938 41.1247 56.1797 41.4434 56.3516C41.762 56.5199 42.0252 56.7651 42.2329 57.0874C42.4406 57.4061 42.6035 57.7964 42.7217 58.2583C42.8398 58.7166 42.8989 59.3361 42.8989 60.1167C42.8989 61.0405 42.804 61.7871 42.6143 62.3564C42.4245 62.9222 42.1398 63.3608 41.7603 63.6724C41.3843 63.9803 40.908 64.1343 40.3315 64.1343C39.5724 64.1343 38.9762 63.8621 38.543 63.3179C38.0238 62.6626 37.7642 61.5955 37.7642 60.1167ZM38.7578 60.1167C38.7578 61.4093 38.9082 62.2705 39.209 62.7002C39.5133 63.1263 39.8875 63.3394 40.3315 63.3394C40.7756 63.3394 41.1479 63.1245 41.4487 62.6948C41.7531 62.2651 41.9053 61.4058 41.9053 60.1167C41.9053 58.8205 41.7531 57.9593 41.4487 57.5332C41.1479 57.1071 40.772 56.894 40.3208 56.894C39.8768 56.894 39.5223 57.082 39.2573 57.458C38.9243 57.9378 38.7578 58.8241 38.7578 60.1167ZM43.8872 60.1167C43.8872 59.1857 43.9821 58.4373 44.1719 57.8716C44.3652 57.3022 44.6499 56.8636 45.0259 56.5557C45.4054 56.2477 45.8817 56.0938 46.4546 56.0938C46.8771 56.0938 47.2477 56.1797 47.5664 56.3516C47.8851 56.5199 48.1483 56.7651 48.356 57.0874C48.5636 57.4061 48.7266 57.7964 48.8447 58.2583C48.9629 58.7166 49.022 59.3361 49.022 60.1167C49.022 61.0405 48.9271 61.7871 48.7373 62.3564C48.5475 62.9222 48.2629 63.3608 47.8833 63.6724C47.5073 63.9803 47.0311 64.1343 46.4546 64.1343C45.6955 64.1343 45.0993 63.8621 44.666 63.3179C44.1468 62.6626 43.8872 61.5955 43.8872 60.1167ZM44.8809 60.1167C44.8809 61.4093 45.0312 62.2705 45.332 62.7002C45.6364 63.1263 46.0106 63.3394 46.4546 63.3394C46.8986 63.3394 47.271 63.1245 47.5718 62.6948C47.8761 62.2651 48.0283 61.4058 48.0283 60.1167C48.0283 58.8205 47.8761 57.9593 47.5718 57.5332C47.271 57.1071 46.895 56.894 46.4438 56.894C45.9998 56.894 45.6453 57.082 45.3804 57.458C45.0474 57.9378 44.8809 58.8241 44.8809 60.1167Z" fill="white"/>
<path d="M22.6016 10.1792L23.5308 10.0933C23.6095 10.5301 23.7599 10.847 23.9819 11.0439C24.2039 11.2409 24.4886 11.3394 24.8359 11.3394C25.1331 11.3394 25.3927 11.2713 25.6147 11.1353C25.8403 10.9992 26.0247 10.8184 26.168 10.5928C26.3112 10.3636 26.4312 10.0557 26.5278 9.66895C26.6245 9.28223 26.6729 8.88835 26.6729 8.4873C26.6729 8.44434 26.6711 8.37988 26.6675 8.29395C26.4741 8.60189 26.2091 8.85254 25.8726 9.0459C25.5396 9.23568 25.1779 9.33057 24.7876 9.33057C24.1359 9.33057 23.5845 9.09424 23.1333 8.62158C22.6821 8.14893 22.4565 7.52588 22.4565 6.75244C22.4565 5.95394 22.6911 5.3112 23.1602 4.82422C23.6328 4.33724 24.2236 4.09375 24.9326 4.09375C25.4447 4.09375 25.9119 4.23161 26.3345 4.50732C26.7606 4.78304 27.0828 5.17692 27.3013 5.68896C27.5233 6.19743 27.6343 6.93506 27.6343 7.90186C27.6343 8.90804 27.5251 9.71012 27.3066 10.3081C27.0882 10.9025 26.7624 11.3555 26.3291 11.667C25.8994 11.9785 25.3945 12.1343 24.8145 12.1343C24.1986 12.1343 23.6955 11.9642 23.3052 11.624C22.9149 11.2803 22.6803 10.7987 22.6016 10.1792ZM26.5601 6.7041C26.5601 6.14909 26.4115 5.70866 26.1143 5.38281C25.8206 5.05697 25.4661 4.89404 25.0508 4.89404C24.6211 4.89404 24.2469 5.0695 23.9282 5.42041C23.6095 5.77132 23.4502 6.22607 23.4502 6.78467C23.4502 7.28597 23.6006 7.69417 23.9014 8.00928C24.2057 8.3208 24.5799 8.47656 25.0239 8.47656C25.4715 8.47656 25.8385 8.3208 26.125 8.00928C26.415 7.69417 26.5601 7.25911 26.5601 6.7041ZM28.5796 8.1167C28.5796 7.18571 28.6745 6.43734 28.8643 5.87158C29.0576 5.30225 29.3423 4.86361 29.7183 4.55566C30.0978 4.24772 30.5741 4.09375 31.147 4.09375C31.5695 4.09375 31.9401 4.17969 32.2588 4.35156C32.5775 4.51986 32.8407 4.76514 33.0483 5.0874C33.256 5.40609 33.4189 5.79639 33.5371 6.2583C33.6553 6.71663 33.7144 7.3361 33.7144 8.1167C33.7144 9.04053 33.6195 9.78711 33.4297 10.3564C33.2399 10.9222 32.9552 11.3608 32.5757 11.6724C32.1997 11.9803 31.7235 12.1343 31.147 12.1343C30.3879 12.1343 29.7917 11.8621 29.3584 11.3179C28.8392 10.6626 28.5796 9.59554 28.5796 8.1167ZM29.5732 8.1167C29.5732 9.40934 29.7236 10.2705 30.0244 10.7002C30.3288 11.1263 30.703 11.3394 31.147 11.3394C31.591 11.3394 31.9634 11.1245 32.2642 10.6948C32.5685 10.2651 32.7207 9.40576 32.7207 8.1167C32.7207 6.82048 32.5685 5.95931 32.2642 5.5332C31.9634 5.1071 31.5874 4.89404 31.1362 4.89404C30.6922 4.89404 30.3377 5.08203 30.0728 5.45801C29.7397 5.93783 29.5732 6.82406 29.5732 8.1167ZM35.2451 12V10.8989H36.3462V12H35.2451ZM42.8452 11.0708V12H37.6406C37.6335 11.7673 37.6711 11.5435 37.7534 11.3286C37.8859 10.9741 38.0972 10.625 38.3872 10.2812C38.6808 9.9375 39.1034 9.54004 39.6548 9.08887C40.5106 8.38704 41.0889 7.83203 41.3896 7.42383C41.6904 7.01204 41.8408 6.62354 41.8408 6.2583C41.8408 5.87516 41.703 5.5529 41.4272 5.2915C41.1551 5.02653 40.7988 4.89404 40.3584 4.89404C39.8929 4.89404 39.5205 5.03369 39.2412 5.31299C38.9619 5.59229 38.8205 5.979 38.8169 6.47314L37.8232 6.37109C37.8913 5.62988 38.1473 5.06592 38.5913 4.6792C39.0353 4.2889 39.6315 4.09375 40.3799 4.09375C41.1354 4.09375 41.7334 4.30322 42.1738 4.72217C42.6143 5.14111 42.8345 5.66032 42.8345 6.27979C42.8345 6.59489 42.77 6.90462 42.6411 7.20898C42.5122 7.51335 42.2974 7.83382 41.9966 8.17041C41.6994 8.507 41.2035 8.96891 40.5088 9.55615C39.9287 10.0431 39.5563 10.3743 39.3916 10.5498C39.2269 10.7217 39.0908 10.8953 38.9834 11.0708H42.8452ZM43.8872 9.9375L44.9023 9.85156C44.9775 10.3457 45.1512 10.7181 45.4233 10.9688C45.6991 11.2158 46.0303 11.3394 46.417 11.3394C46.8825 11.3394 47.2764 11.1639 47.5986 10.813C47.9209 10.4621 48.082 9.99658 48.082 9.4165C48.082 8.86507 47.9263 8.43001 47.6147 8.11133C47.3068 7.79264 46.9022 7.6333 46.4009 7.6333C46.0894 7.6333 45.8083 7.70492 45.5576 7.84814C45.307 7.98779 45.11 8.17041 44.9668 8.396L44.0591 8.27783L44.8218 4.2334H48.7373V5.15723H45.5952L45.1709 7.27344C45.6436 6.94401 46.1395 6.7793 46.6587 6.7793C47.3462 6.7793 47.9263 7.01742 48.3989 7.49365C48.8716 7.96989 49.1079 8.58219 49.1079 9.33057C49.1079 10.0431 48.9002 10.659 48.4849 11.1782C47.98 11.8156 47.2907 12.1343 46.417 12.1343C45.7008 12.1343 45.1154 11.9338 44.6606 11.5327C44.2095 11.1317 43.9517 10.5999 43.8872 9.9375Z" fill="white"/>
<path d="M6.91162 117.467H5.98779L5.98242 114.131H8.9043C9.3125 114.643 9.62044 115.172 9.82812 115.716C10.0322 116.26 10.1343 116.819 10.1343 117.392C10.1343 118.165 9.96956 118.869 9.64014 119.502C9.30713 120.133 8.82731 120.609 8.20068 120.931C7.57406 121.253 6.87402 121.415 6.10059 121.415C5.33431 121.415 4.61995 121.255 3.95752 120.937C3.2915 120.614 2.79736 120.152 2.4751 119.551C2.15283 118.949 1.9917 118.256 1.9917 117.472C1.9917 116.903 2.0848 116.389 2.271 115.931C2.45361 115.469 2.70964 115.107 3.03906 114.846C3.36849 114.584 3.79818 114.386 4.32813 114.25L4.58594 115.189C4.1849 115.308 3.86979 115.454 3.64063 115.63C3.41146 115.805 3.22884 116.056 3.09277 116.382C2.95313 116.708 2.8833 117.069 2.8833 117.467C2.8833 117.943 2.95671 118.355 3.10352 118.702C3.24674 119.049 3.43652 119.331 3.67285 119.545C3.90918 119.757 4.16878 119.921 4.45166 120.04C4.93864 120.24 5.4668 120.34 6.03613 120.34C6.73796 120.34 7.3252 120.22 7.79785 119.98C8.27051 119.737 8.62142 119.384 8.85059 118.922C9.07975 118.46 9.19434 117.97 9.19434 117.451C9.19434 117 9.1084 116.559 8.93652 116.129C8.76107 115.7 8.57487 115.374 8.37793 115.152H6.91162V117.467ZM3.23779 112.708H2.12598V111.741H3.23779V112.708ZM10 112.708H4.2959V111.741H10V112.708ZM9.29639 106.542C9.60075 106.9 9.81559 107.246 9.94092 107.579C10.0662 107.908 10.1289 108.263 10.1289 108.642C10.1289 109.269 9.97673 109.75 9.67236 110.087C9.36442 110.424 8.97233 110.592 8.49609 110.592C8.2168 110.592 7.96257 110.529 7.7334 110.404C7.50065 110.275 7.31445 110.108 7.1748 109.904C7.03516 109.697 6.92952 109.464 6.85791 109.206C6.80778 109.016 6.75944 108.73 6.71289 108.347C6.61979 107.566 6.50879 106.991 6.37988 106.623C6.2474 106.619 6.16325 106.617 6.12744 106.617C5.73356 106.617 5.45605 106.708 5.29492 106.891C5.0765 107.138 4.96729 107.505 4.96729 107.992C4.96729 108.447 5.04785 108.784 5.20898 109.002C5.36654 109.217 5.64762 109.376 6.05225 109.48L5.92334 110.425C5.51872 110.339 5.19287 110.198 4.9458 110.001C4.69515 109.804 4.50358 109.519 4.37109 109.147C4.23503 108.775 4.16699 108.343 4.16699 107.853C4.16699 107.366 4.22428 106.97 4.33887 106.666C4.45345 106.361 4.59847 106.137 4.77393 105.994C4.9458 105.851 5.16423 105.751 5.4292 105.693C5.59391 105.661 5.89111 105.645 6.3208 105.645H7.60986C8.50863 105.645 9.07796 105.625 9.31787 105.586C9.5542 105.543 9.78158 105.461 10 105.339V106.349C9.79948 106.449 9.56494 106.513 9.29639 106.542ZM7.13721 106.623C7.28044 106.973 7.40218 107.5 7.50244 108.202C7.55973 108.599 7.62419 108.88 7.6958 109.045C7.76742 109.21 7.87305 109.337 8.0127 109.426C8.14876 109.516 8.30094 109.561 8.46924 109.561C8.72705 109.561 8.94189 109.464 9.11377 109.271C9.28564 109.074 9.37158 108.787 9.37158 108.411C9.37158 108.039 9.29102 107.708 9.12988 107.417C8.96517 107.127 8.74137 106.914 8.4585 106.778C8.24007 106.674 7.91781 106.623 7.4917 106.623H7.13721ZM3.58691 108.502L2.08301 107.788V106.521L3.58691 107.702V108.502Z" fill="white"/>
<path d="M1440 107.806H1447.87V108.848H1443.97L1447.87 112.758V114.17L1444.68 110.867L1440 114.315V112.94L1443.99 110.137L1442.73 108.848H1440V107.806ZM1440 115.143H1447.87V116.185H1440.93V120.062H1440V115.143Z" fill="white"/>
<path d="M1408.46 220.117C1408.46 219.186 1408.55 218.437 1408.74 217.872C1408.93 217.302 1409.22 216.864 1409.6 216.556C1409.97 216.248 1410.45 216.094 1411.02 216.094C1411.45 216.094 1411.82 216.18 1412.14 216.352C1412.45 216.52 1412.72 216.765 1412.93 217.087C1413.13 217.406 1413.3 217.796 1413.41 218.258C1413.53 218.717 1413.59 219.336 1413.59 220.117C1413.59 221.041 1413.5 221.787 1413.31 222.356C1413.12 222.922 1412.83 223.361 1412.45 223.672C1412.08 223.98 1411.6 224.134 1411.02 224.134C1410.26 224.134 1409.67 223.862 1409.24 223.318C1408.72 222.663 1408.46 221.596 1408.46 220.117ZM1409.45 220.117C1409.45 221.409 1409.6 222.271 1409.9 222.7C1410.21 223.126 1410.58 223.339 1411.02 223.339C1411.47 223.339 1411.84 223.125 1412.14 222.695C1412.45 222.265 1412.6 221.406 1412.6 220.117C1412.6 218.82 1412.45 217.959 1412.14 217.533C1411.84 217.107 1411.46 216.894 1411.01 216.894C1410.57 216.894 1410.21 217.082 1409.95 217.458C1409.62 217.938 1409.45 218.824 1409.45 220.117Z" fill="white"/>
<path d="M1410.87 117V115.115H1407.46V114.229L1411.05 109.126H1411.84V114.229H1412.9V115.115H1411.84V117H1410.87ZM1410.87 114.229V110.678L1408.41 114.229H1410.87ZM1413.9 113.117C1413.9 112.186 1413.99 111.437 1414.18 110.872C1414.37 110.302 1414.66 109.864 1415.03 109.556C1415.41 109.248 1415.89 109.094 1416.46 109.094C1416.88 109.094 1417.26 109.18 1417.57 109.352C1417.89 109.52 1418.16 109.765 1418.36 110.087C1418.57 110.406 1418.73 110.796 1418.85 111.258C1418.97 111.717 1419.03 112.336 1419.03 113.117C1419.03 114.041 1418.93 114.787 1418.75 115.356C1418.56 115.922 1418.27 116.361 1417.89 116.672C1417.52 116.98 1417.04 117.134 1416.46 117.134C1415.7 117.134 1415.11 116.862 1414.67 116.318C1414.15 115.663 1413.9 114.596 1413.9 113.117ZM1414.89 113.117C1414.89 114.409 1415.04 115.271 1415.34 115.7C1415.64 116.126 1416.02 116.339 1416.46 116.339C1416.91 116.339 1417.28 116.125 1417.58 115.695C1417.88 115.265 1418.04 114.406 1418.04 113.117C1418.04 111.82 1417.88 110.959 1417.58 110.533C1417.28 110.107 1416.9 109.894 1416.45 109.894C1416.01 109.894 1415.65 110.082 1415.39 110.458C1415.06 110.938 1414.89 111.824 1414.89 113.117ZM1420.02 113.117C1420.02 112.186 1420.11 111.437 1420.3 110.872C1420.5 110.302 1420.78 109.864 1421.16 109.556C1421.54 109.248 1422.01 109.094 1422.59 109.094C1423.01 109.094 1423.38 109.18 1423.7 109.352C1424.02 109.52 1424.28 109.765 1424.49 110.087C1424.69 110.406 1424.86 110.796 1424.98 111.258C1425.09 111.717 1425.15 112.336 1425.15 113.117C1425.15 114.041 1425.06 114.787 1424.87 115.356C1424.68 115.922 1424.39 116.361 1424.01 116.672C1423.64 116.98 1423.16 117.134 1422.59 117.134C1421.83 117.134 1421.23 116.862 1420.8 116.318C1420.28 115.663 1420.02 114.596 1420.02 113.117ZM1421.01 113.117C1421.01 114.409 1421.16 115.271 1421.46 115.7C1421.77 116.126 1422.14 116.339 1422.59 116.339C1423.03 116.339 1423.4 116.125 1423.7 115.695C1424.01 115.265 1424.16 114.406 1424.16 113.117C1424.16 111.82 1424.01 110.959 1423.7 110.533C1423.4 110.107 1423.03 109.894 1422.57 109.894C1422.13 109.894 1421.78 110.082 1421.51 110.458C1421.18 110.938 1421.01 111.824 1421.01 113.117Z" fill="white"/>
<path d="M1409.26 5.72998C1408.86 5.58317 1408.56 5.3737 1408.37 5.10156C1408.17 4.82943 1408.08 4.50358 1408.08 4.12402C1408.08 3.55111 1408.28 3.0695 1408.7 2.6792C1409.11 2.2889 1409.66 2.09375 1410.34 2.09375C1411.03 2.09375 1411.58 2.29427 1412 2.69531C1412.42 3.09277 1412.63 3.57796 1412.63 4.15088C1412.63 4.51611 1412.53 4.8348 1412.34 5.10693C1412.15 5.37549 1411.86 5.58317 1411.47 5.72998C1411.95 5.88753 1412.32 6.14176 1412.57 6.49268C1412.82 6.84359 1412.95 7.26253 1412.95 7.74951C1412.95 8.42269 1412.71 8.98844 1412.24 9.44678C1411.76 9.90511 1411.13 10.1343 1410.36 10.1343C1409.58 10.1343 1408.95 9.90511 1408.48 9.44678C1408 8.98486 1407.76 8.41016 1407.76 7.72266C1407.76 7.21061 1407.89 6.78271 1408.15 6.43896C1408.41 6.09163 1408.78 5.85531 1409.26 5.72998ZM1409.07 4.0918C1409.07 4.46419 1409.19 4.76855 1409.43 5.00488C1409.67 5.24121 1409.98 5.35938 1410.36 5.35938C1410.73 5.35938 1411.04 5.243 1411.27 5.01025C1411.51 4.77393 1411.63 4.48568 1411.63 4.14551C1411.63 3.79102 1411.51 3.49382 1411.26 3.25391C1411.02 3.01042 1410.72 2.88867 1410.35 2.88867C1409.98 2.88867 1409.68 3.00684 1409.43 3.24316C1409.19 3.47949 1409.07 3.76237 1409.07 4.0918ZM1408.75 7.72803C1408.75 8.00374 1408.82 8.27051 1408.95 8.52832C1409.08 8.78613 1409.28 8.98665 1409.53 9.12988C1409.79 9.26953 1410.07 9.33936 1410.37 9.33936C1410.83 9.33936 1411.21 9.19076 1411.51 8.89355C1411.81 8.59635 1411.96 8.21859 1411.96 7.76025C1411.96 7.29476 1411.81 6.90983 1411.49 6.60547C1411.19 6.30111 1410.8 6.14893 1410.33 6.14893C1409.88 6.14893 1409.5 6.29932 1409.2 6.6001C1408.9 6.90088 1408.75 7.27686 1408.75 7.72803ZM1413.9 6.1167C1413.9 5.18571 1413.99 4.43734 1414.18 3.87158C1414.37 3.30225 1414.66 2.86361 1415.03 2.55566C1415.41 2.24772 1415.89 2.09375 1416.46 2.09375C1416.88 2.09375 1417.26 2.17969 1417.57 2.35156C1417.89 2.51986 1418.16 2.76514 1418.36 3.0874C1418.57 3.40609 1418.73 3.79639 1418.85 4.2583C1418.97 4.71663 1419.03 5.3361 1419.03 6.1167C1419.03 7.04053 1418.93 7.78711 1418.75 8.35645C1418.56 8.9222 1418.27 9.36084 1417.89 9.67236C1417.52 9.98031 1417.04 10.1343 1416.46 10.1343C1415.7 10.1343 1415.11 9.86214 1414.67 9.31787C1414.15 8.6626 1413.9 7.59554 1413.9 6.1167ZM1414.89 6.1167C1414.89 7.40934 1415.04 8.27051 1415.34 8.7002C1415.64 9.1263 1416.02 9.33936 1416.46 9.33936C1416.91 9.33936 1417.28 9.12451 1417.58 8.69482C1417.88 8.26514 1418.04 7.40576 1418.04 6.1167C1418.04 4.82048 1417.88 3.95931 1417.58 3.5332C1417.28 3.1071 1416.9 2.89404 1416.45 2.89404C1416.01 2.89404 1415.65 3.08203 1415.39 3.45801C1415.06 3.93783 1414.89 4.82406 1414.89 6.1167ZM1420.02 6.1167C1420.02 5.18571 1420.11 4.43734 1420.3 3.87158C1420.5 3.30225 1420.78 2.86361 1421.16 2.55566C1421.54 2.24772 1422.01 2.09375 1422.59 2.09375C1423.01 2.09375 1423.38 2.17969 1423.7 2.35156C1424.02 2.51986 1424.28 2.76514 1424.49 3.0874C1424.69 3.40609 1424.86 3.79639 1424.98 4.2583C1425.09 4.71663 1425.15 5.3361 1425.15 6.1167C1425.15 7.04053 1425.06 7.78711 1424.87 8.35645C1424.68 8.9222 1424.39 9.36084 1424.01 9.67236C1423.64 9.98031 1423.16 10.1343 1422.59 10.1343C1421.83 10.1343 1421.23 9.86214 1420.8 9.31787C1420.28 8.6626 1420.02 7.59554 1420.02 6.1167ZM1421.01 6.1167C1421.01 7.40934 1421.16 8.27051 1421.46 8.7002C1421.77 9.1263 1422.14 9.33936 1422.59 9.33936C1423.03 9.33936 1423.4 9.12451 1423.7 8.69482C1424.01 8.26514 1424.16 7.40576 1424.16 6.1167C1424.16 4.82048 1424.01 3.95931 1423.7 3.5332C1423.4 3.1071 1423.03 2.89404 1422.57 2.89404C1422.13 2.89404 1421.78 3.08203 1421.51 3.45801C1421.18 3.93783 1421.01 4.82406 1421.01 6.1167Z" fill="white"/>
<line y1="-0.5" x2="215.002" y2="-0.5" transform="matrix(-0.00465111 0.999989 -1 0 279 5)" stroke="#4C566A"/>
<line y1="-0.5" x2="215.002" y2="-0.5" transform="matrix(-0.00465111 0.999989 -1 0 502 5)" stroke="#4C566A"/>
<line y1="-0.5" x2="215.002" y2="-0.5" transform="matrix(0.00465111 0.999989 -1 0 725 5)" stroke="#4C566A"/>
<path d="M936 5L937 220" stroke="#4C566A"/>
<line y1="-0.5" x2="215.002" y2="-0.5" transform="matrix(0.00465111 0.999989 -1 0 1161 5)" stroke="#4C566A"/>
<line y1="-0.5" x2="215.002" y2="-0.5" transform="matrix(0.00465111 0.999989 -1 0 1395 5)" stroke="#4C566A"/>
<line x1="54.5" y1="5" x2="54.5" y2="221" stroke="#4C566A"/>
<line opacity="0.5" x1="54" y1="113.5" x2="1395" y2="113.5" stroke="#FFFF00" stroke-dasharray="4 2"/>
<line opacity="0.5" x1="54" y1="165.5" x2="1395" y2="165.5" stroke="#4C566A"/>
<line opacity="0.5" x1="54" y1="219.5" x2="1395" y2="219.5" stroke="#4C566A"/>
<line opacity="0.5" x1="55" y1="58.5" x2="1396" y2="58.5001" stroke="#4C566A"/>
<line opacity="0.5" x1="54" y1="5.5" x2="1395" y2="5.50012" stroke="#4C566A"/>
<rect x="55" y="208.663" width="9.36264" height="11.0495" fill="#4C566A"/>
<rect x="64.3625" y="201.297" width="9.36264" height="18.4158" fill="#4C566A"/>
<rect x="73.7253" y="200.069" width="9.36264" height="19.6436" fill="#4C566A"/>
<rect x="83.0879" y="197" width="9.36264" height="22.7129" fill="#4C566A"/>
<rect x="92.4507" y="200.069" width="9.36264" height="19.6436" fill="#4C566A"/>
<rect x="99.4725" y="201.584" width="9.36264" height="18.4158" fill="#4C566A"/>
<rect x="108.835" y="198.515" width="9.36264" height="21.4852" fill="#4C566A"/>
<rect x="118.198" y="201.584" width="9.36264" height="18.4158" fill="#4C566A"/>
<rect x="127.56" y="190.535" width="9.36264" height="29.4654" fill="#4C566A"/>
<rect x="136.923" y="187.465" width="9.36264" height="32.5347" fill="#4C566A"/>
<rect x="146.286" y="191.762" width="9.36264" height="28.2376" fill="#4C566A"/>
<rect x="155.648" y="193.604" width="9.36264" height="26.396" fill="#4C566A"/>
<rect x="165.011" y="190.535" width="9.36264" height="29.4654" fill="#4C566A"/>
<rect x="174.374" y="193.604" width="9.36264" height="26.396" fill="#4C566A"/>
<rect x="183.736" y="195.446" width="9.36264" height="24.5545" fill="#4C566A"/>
<rect x="193.099" y="179.485" width="9.36264" height="40.5149" fill="#4C566A"/>
<rect x="202.462" y="166.594" width="9.36264" height="53.4059" fill="#4C566A"/>
<rect x="211.824" y="162.911" width="9.36264" height="57.0891" fill="#4C566A"/>
<rect x="221.187" y="173.347" width="9.36264" height="46.6535" fill="#4C566A"/>
<rect x="242.549" y="164.139" width="9.36264" height="55.8614" fill="#4C566A"/>
<rect x="251.912" y="168.436" width="9.36264" height="51.5644" fill="#4C566A"/>
<rect x="261.275" y="169.663" width="9.36264" height="50.3366" fill="#4C566A"/>
<rect x="270.637" y="174.574" width="9.36264" height="45.4258" fill="#4C566A"/>
<rect x="280" y="158" width="9.36264" height="62" fill="#4C566A"/>
<rect x="289.363" y="161.683" width="9.36264" height="58.3168" fill="#4C566A"/>
<rect x="298.725" y="165.366" width="9.36264" height="54.6337" fill="#4C566A"/>
<rect x="308.088" y="173.347" width="9.36264" height="46.6535" fill="#4C566A"/>
<rect x="317.451" y="179.485" width="9.36264" height="40.5149" fill="#4C566A"/>
<rect x="265.956" y="201.584" width="9.36264" height="18.4158" fill="#4C566A"/>
<rect x="275.319" y="203.426" width="9.36264" height="16.5743" fill="#4C566A"/>
<rect x="284.681" y="205.267" width="9.36264" height="14.7327" fill="#4C566A"/>
<rect x="294.044" y="203.426" width="9.36264" height="16.5743" fill="#4C566A"/>
<rect x="303.407" y="205.267" width="9.36264" height="14.7327" fill="#4C566A"/>
<rect x="312.769" y="198.515" width="9.36264" height="21.4852" fill="#4C566A"/>
<rect x="322.132" y="200.356" width="9.36264" height="19.6436" fill="#4C566A"/>
<rect x="331.494" y="197.287" width="9.36264" height="22.7129" fill="#4C566A"/>
<rect x="340.857" y="200.356" width="9.36264" height="19.6436" fill="#4C566A"/>
<rect x="350.22" y="197.287" width="9.36264" height="22.7129" fill="#4C566A"/>
<rect x="359.582" y="201.584" width="9.36264" height="18.4158" fill="#4C566A"/>
<rect x="368.945" y="203.426" width="9.36264" height="16.5743" fill="#4C566A"/>
<rect x="378.308" y="205.267" width="9.36264" height="14.7327" fill="#4C566A"/>
<rect x="387.67" y="203.426" width="9.36264" height="16.5743" fill="#4C566A"/>
<rect x="382.989" y="205.267" width="9.36264" height="14.7327" fill="#4C566A"/>
<rect x="392.352" y="198.515" width="9.36264" height="21.4852" fill="#4C566A"/>
<rect x="401.714" y="193.604" width="9.36264" height="26.396" fill="#4C566A"/>
<rect x="408.736" y="196" width="9.36264" height="24.5545" fill="#4C566A"/>
<rect x="418.099" y="199.069" width="9.36264" height="21.4852" fill="#4C566A"/>
<rect x="427.462" y="205.822" width="9.36264" height="14.7327" fill="#4C566A"/>
<rect x="436.824" y="205.822" width="9.36264" height="14.7327" fill="#4C566A"/>
<rect x="446.187" y="203.98" width="9.36264" height="16.5743" fill="#4C566A"/>
<rect x="450.868" y="202.139" width="9.36264" height="18.4158" fill="#4C566A"/>
<rect x="460.231" y="208.277" width="9.36264" height="12.2772" fill="#4C566A"/>
<rect x="469.593" y="209.505" width="9.36264" height="11.0495" fill="#4C566A"/>
<rect x="464.912" y="203.98" width="9.36264" height="16.5743" fill="#4C566A"/>
<rect x="486.275" y="205.822" width="9.36264" height="14.7327" fill="#4C566A"/>
<rect x="495.637" y="202.139" width="9.36264" height="18.4158" fill="#4C566A"/>
<rect x="510.151" y="208.525" width="10.303" height="12.4753" fill="#4C566A"/>
<rect x="520.455" y="200.208" width="10.303" height="20.7921" fill="#4C566A"/>
<rect x="530.758" y="198.822" width="10.303" height="22.1782" fill="#4C566A"/>
<rect x="541.061" y="195.356" width="10.303" height="25.6436" fill="#4C566A"/>
<rect x="551.364" y="198.822" width="10.303" height="22.1782" fill="#4C566A"/>
<rect x="505" y="200.208" width="10.303" height="20.7921" fill="#4C566A"/>
<rect x="515.303" y="196.743" width="10.303" height="24.2574" fill="#4C566A"/>
<rect x="525.606" y="200.208" width="10.303" height="20.7921" fill="#4C566A"/>
<rect x="535.909" y="187.733" width="10.303" height="33.2673" fill="#4C566A"/>
<rect x="546.212" y="184.267" width="10.303" height="36.7327" fill="#4C566A"/>
<rect x="556.515" y="189.119" width="10.303" height="31.8812" fill="#4C566A"/>
<rect x="566.818" y="191.198" width="10.303" height="29.802" fill="#4C566A"/>
<rect x="577.121" y="187.733" width="10.303" height="33.2673" fill="#4C566A"/>
<rect x="587.424" y="191.198" width="10.303" height="29.802" fill="#4C566A"/>
<rect x="597.727" y="193.277" width="10.303" height="27.7228" fill="#4C566A"/>
<rect x="608.03" y="175.257" width="10.303" height="45.7426" fill="#4C566A"/>
<rect x="618.333" y="160.703" width="10.303" height="60.297" fill="#4C566A"/>
<rect x="628.636" y="156.545" width="10.303" height="64.4555" fill="#4C566A"/>
<rect x="638.939" y="168.327" width="10.303" height="52.6733" fill="#4C566A"/>
<rect x="649.242" y="157.931" width="10.303" height="63.0693" fill="#4C566A"/>
<rect x="659.545" y="162.782" width="10.303" height="58.2178" fill="#4C566A"/>
<rect x="669.849" y="164.168" width="10.303" height="56.8317" fill="#4C566A"/>
<rect x="680.151" y="169.713" width="10.303" height="51.2871" fill="#4C566A"/>
<rect x="690.455" y="151" width="10.303" height="70" fill="#4C566A"/>
<rect x="700.758" y="155.158" width="10.303" height="65.8416" fill="#4C566A"/>
<rect x="711.061" y="159.317" width="10.303" height="61.6832" fill="#4C566A"/>
<rect x="733.364" y="168.327" width="10.303" height="52.6733" fill="#4C566A"/>
<rect x="743.667" y="175.257" width="10.303" height="45.7426" fill="#4C566A"/>
<rect x="751.394" y="200.01" width="10.303" height="20.7921" fill="#4C566A"/>
<rect x="761.697" y="202.089" width="10.303" height="18.7129" fill="#4C566A"/>
<rect x="772" y="204.168" width="10.303" height="16.6337" fill="#4C566A"/>
<rect x="782.303" y="202.089" width="10.303" height="18.7129" fill="#4C566A"/>
<rect x="792.606" y="204.168" width="10.303" height="16.6337" fill="#4C566A"/>
<rect x="802.909" y="196.545" width="10.303" height="24.2574" fill="#4C566A"/>
<rect x="813.212" y="198.624" width="10.303" height="22.1782" fill="#4C566A"/>
<rect x="756.545" y="195.158" width="10.303" height="25.6436" fill="#4C566A"/>
<rect x="766.849" y="198.624" width="10.303" height="22.1782" fill="#4C566A"/>
<rect x="777.151" y="195.158" width="10.303" height="25.6436" fill="#4C566A"/>
<rect x="787.455" y="200.01" width="10.303" height="20.7921" fill="#4C566A"/>
<rect x="797.758" y="202.089" width="10.303" height="18.7129" fill="#4C566A"/>
<rect x="808.061" y="204.168" width="10.303" height="16.6337" fill="#4C566A"/>
<rect x="818.364" y="202.089" width="10.303" height="18.7129" fill="#4C566A"/>
<rect x="813.212" y="204.168" width="10.303" height="16.6337" fill="#4C566A"/>
<rect x="823.515" y="196.545" width="10.303" height="24.2574" fill="#4C566A"/>
<rect x="833.818" y="191" width="10.303" height="29.802" fill="#4C566A"/>
<rect x="844.121" y="193.079" width="10.303" height="27.7228" fill="#4C566A"/>
<rect x="854.424" y="196.545" width="10.303" height="24.2574" fill="#4C566A"/>
<rect x="864.727" y="204.168" width="10.303" height="16.6337" fill="#4C566A"/>
<rect x="875.03" y="204.168" width="10.303" height="16.6337" fill="#4C566A"/>
<rect x="885.333" y="202.089" width="10.303" height="18.7129" fill="#4C566A"/>
<rect x="895.636" y="200.01" width="10.303" height="20.7921" fill="#4C566A"/>
<rect x="905.939" y="206.941" width="10.303" height="13.8614" fill="#4C566A"/>
<rect x="916.242" y="208.327" width="10.303" height="12.4753" fill="#4C566A"/>
<rect x="911.091" y="202.089" width="10.303" height="18.7129" fill="#4C566A"/>
<rect x="921.394" y="204.168" width="10.303" height="16.6337" fill="#4C566A"/>
<rect x="931.697" y="200.01" width="10.303" height="20.7921" fill="#4C566A"/>
<rect x="942" y="204.069" width="4.31434" height="16.9307" fill="#4C566A"/>
<rect x="946.314" y="192.782" width="4.31434" height="28.2178" fill="#4C566A"/>
<rect x="950.628" y="190.901" width="4.31434" height="30.099" fill="#4C566A"/>
<rect x="967.943" y="186.198" width="4.31434" height="34.802" fill="#4C566A"/>
<rect x="972.257" y="190.901" width="4.31434" height="30.099" fill="#4C566A"/>
<rect x="976.572" y="192.782" width="4.31434" height="28.2178" fill="#4C566A"/>
<rect x="980.886" y="188.079" width="4.31434" height="32.9208" fill="#4C566A"/>
<rect x="985.201" y="192.782" width="4.31434" height="28.2178" fill="#4C566A"/>
<rect x="989.515" y="175.852" width="4.31434" height="45.1485" fill="#4C566A"/>
<rect x="993.829" y="171.148" width="4.31434" height="49.8515" fill="#4C566A"/>
<rect x="998.143" y="177.733" width="4.31434" height="43.2673" fill="#4C566A"/>
<rect x="1002.46" y="180.554" width="4.31434" height="40.4455" fill="#4C566A"/>
<rect x="1006.77" y="175.852" width="4.31434" height="45.1485" fill="#4C566A"/>
<rect x="1011.09" y="180.554" width="4.31434" height="40.4455" fill="#4C566A"/>
<rect x="1015.4" y="183.376" width="4.31434" height="37.6238" fill="#4C566A"/>
<rect x="1019.72" y="158.921" width="4.31434" height="62.0792" fill="#4C566A"/>
<rect x="1024.03" y="139.168" width="4.31445" height="81.8317" fill="#4C566A"/>
<rect x="1028.34" y="133.525" width="4.31434" height="87.4753" fill="#4C566A"/>
<rect x="1032.66" y="149.515" width="4.31434" height="71.4851" fill="#4C566A"/>
<rect x="1036.97" y="135.406" width="4.31434" height="85.5941" fill="#4C566A"/>
<rect x="998.413" y="141.99" width="4.31434" height="79.0099" fill="#4C566A"/>
<rect x="1002.73" y="143.871" width="4.31434" height="77.1287" fill="#4C566A"/>
<rect x="1007.04" y="151.396" width="4.31434" height="69.604" fill="#4C566A"/>
<rect x="1011.36" y="126" width="4.31434" height="95" fill="#4C566A"/>
<rect x="1015.67" y="131.644" width="4.31434" height="89.3564" fill="#4C566A"/>
<rect x="1019.98" y="137.287" width="4.31434" height="83.7129" fill="#4C566A"/>
<rect x="1024.3" y="149.515" width="4.31445" height="71.4851" fill="#4C566A"/>
<rect x="1028.61" y="158.921" width="4.31434" height="62.0792" fill="#4C566A"/>
<rect x="1032.93" y="192.782" width="4.31434" height="28.2178" fill="#4C566A"/>
<rect x="1037.24" y="195.604" width="4.31434" height="25.396" fill="#4C566A"/>
<rect x="1041.56" y="198.426" width="4.31434" height="22.5743" fill="#4C566A"/>
<rect x="1045.87" y="195.604" width="4.31434" height="25.396" fill="#4C566A"/>
<rect x="1048.4" y="198.426" width="4.31434" height="22.5743" fill="#4C566A"/>
<rect x="1052.71" y="188.079" width="4.31434" height="32.9208" fill="#4C566A"/>
<rect x="1057.03" y="190.901" width="4.31434" height="30.099" fill="#4C566A"/>
<rect x="1061.34" y="186.198" width="4.31434" height="34.802" fill="#4C566A"/>
<rect x="1065.66" y="190.901" width="4.31445" height="30.099" fill="#4C566A"/>
<rect x="1069.97" y="186.198" width="4.31445" height="34.802" fill="#4C566A"/>
<rect x="1074.28" y="192.782" width="4.31434" height="28.2178" fill="#4C566A"/>
<rect x="1078.6" y="195.604" width="4.31434" height="25.396" fill="#4C566A"/>
<rect x="1082.91" y="198.426" width="4.31434" height="22.5743" fill="#4C566A"/>
<rect x="1087.23" y="195.604" width="4.31434" height="25.396" fill="#4C566A"/>
<rect x="1085.07" y="198.426" width="4.31434" height="22.5743" fill="#4C566A"/>
<rect x="1089.39" y="188.079" width="4.31434" height="32.9208" fill="#4C566A"/>
<rect x="1093.7" y="180.554" width="4.31434" height="40.4455" fill="#4C566A"/>
<rect x="1098.01" y="183.376" width="4.31445" height="37.6238" fill="#4C566A"/>
<rect x="1102.33" y="188.079" width="4.31434" height="32.9208" fill="#4C566A"/>
<rect x="1106.64" y="198.426" width="4.31434" height="22.5743" fill="#4C566A"/>
<rect x="1110.96" y="198.426" width="4.31434" height="22.5743" fill="#4C566A"/>
<rect x="1115.27" y="195.604" width="4.31434" height="25.396" fill="#4C566A"/>
<rect x="1119.58" y="192.782" width="4.31434" height="28.2178" fill="#4C566A"/>
<rect x="1123.9" y="202.188" width="4.31434" height="18.8119" fill="#4C566A"/>
<rect x="1128.21" y="204.069" width="4.31434" height="16.9307" fill="#4C566A"/>
<rect x="1126.06" y="195.604" width="4.31434" height="25.396" fill="#4C566A"/>
<rect x="1130.37" y="198.426" width="4.31434" height="22.5743" fill="#4C566A"/>
<rect x="1134.69" y="192.782" width="4.31434" height="28.2178" fill="#4C566A"/>
<path d="M56 74.7339C60.3093 74.7339 77.1013 75.9241 81.0103 74.3251C85.7259 72.3961 90.4673 70.1811 96.0514 68.5198C103.3 66.3634 108.762 58.5444 118.438 58.5444C125.344 58.5444 132.398 58.2555 139.076 59.1168C143.381 59.672 145.901 59.6348 149.57 61.0383C151.52 61.7843 153.847 62.8276 156.391 62.9597C160.707 63.1839 166.496 64.509 170.907 63.5321C175.792 62.4505 179.138 59.2295 181.926 57.2362C187.595 53.1829 191.799 46.4918 200.028 43.4996C212.597 38.9292 228.223 40.1473 243.227 40.1473C257.949 40.1473 252.178 46.2427 257.481 49.7138C262.473 52.9807 261.639 58.9689 268.5 61.8559C272.173 63.4014 275.139 64.9557 279.868 65.9033C283.04 66.5387 287.728 67.0962 290.362 68.1518C292.404 68.97 292.801 70.2148 295.259 70.8909C305.961 73.8339 331.099 77.4654 342.132 72.6898C350.81 68.9333 362.198 66.9883 370.902 62.9188C374.727 61.1305 378.885 59.9226 382.62 58.1765C386.423 56.399 389.085 54.1291 395.213 54.1291C403.185 54.1291 405.441 60.5214 409.467 63.1233C414.768 66.5491 418.409 70.908 423.109 74.5704C429.55 79.5891 436.938 82.5074 445.496 86.5081C450.622 88.9045 457.551 92.3757 460.887 95.3387C463.468 97.6313 463.604 101.411 467.183 103.27C469.65 104.551 471.258 106.414 474.004 107.849C475.894 108.836 480.137 111.79 481 113" stroke="#32DF32" stroke-width="2" stroke-linecap="round" stroke-linejoin="round"/>
<path d="M506 115.114C517.001 131.192 535.175 141.596 555.293 153.624C570.704 162.838 583.802 173.269 599.202 182.476C605.102 186.004 608.936 190.475 617.946 190.834C628.821 191.267 640.332 190.893 650.877 189.224C659.454 187.867 672.523 178.09 677.491 173.932C687.396 165.642 715.086 166.378 730.098 166.378C753.372 166.378 776.867 166.982 800.103 166.378C818.434 165.902 832.206 156.072 832.206 145.699C832.206 134.434 837.318 132.599 852.711 128.24C866.551 124.321 882.259 121.642 897.447 120.687C911.537 119.8 918.932 117.608 931 114" stroke="#FF0000" stroke-width="2" stroke-linecap="round" stroke-linejoin="round"/>
<path d="M943 113C958.431 89.9573 982.846 81.0639 1004.53 64.8578C1014.65 57.2931 1030.8 41.9151 1043.75 41.9151C1057.66 41.9151 1072.79 37.6061 1086.31 41.9151C1100.91 46.5724 1112.22 53.6134 1127 57.1476" stroke="#32DF32" stroke-width="2" stroke-linecap="round" stroke-linejoin="round"/>
<rect x="1344" y="13" width="41" height="15" rx="2" fill="#32DF32"/>
<path d="M1353.81 24L1350.99 16.126H1352.72L1354.71 21.9536L1356.64 16.126H1358.33L1355.51 24H1353.81ZM1359.15 24V16.126H1360.7L1363.92 21.3843V16.126H1365.4V24H1363.8L1360.63 18.8652V24H1359.15ZM1366.7 21.9106L1368.16 21.7334C1368.21 22.1058 1368.33 22.3905 1368.54 22.5874C1368.74 22.7843 1368.99 22.8828 1369.28 22.8828C1369.59 22.8828 1369.85 22.7646 1370.06 22.5283C1370.28 22.292 1370.38 21.9733 1370.38 21.5723C1370.38 21.1927 1370.28 20.8919 1370.08 20.6699C1369.87 20.4479 1369.63 20.3369 1369.33 20.3369C1369.14 20.3369 1368.91 20.3745 1368.64 20.4497L1368.81 19.2197C1369.21 19.2305 1369.52 19.1427 1369.74 18.9565C1369.95 18.7668 1370.06 18.5161 1370.06 18.2046C1370.06 17.9396 1369.98 17.7284 1369.83 17.5708C1369.67 17.4132 1369.46 17.3345 1369.2 17.3345C1368.94 17.3345 1368.72 17.424 1368.54 17.603C1368.35 17.7821 1368.24 18.0435 1368.2 18.3872L1366.81 18.1509C1366.91 17.6746 1367.05 17.2951 1367.25 17.0122C1367.44 16.7257 1367.72 16.502 1368.06 16.3408C1368.41 16.1761 1368.81 16.0938 1369.24 16.0938C1369.98 16.0938 1370.58 16.3301 1371.02 16.8027C1371.39 17.1895 1371.58 17.6263 1371.58 18.1133C1371.58 18.8044 1371.2 19.3558 1370.44 19.7676C1370.89 19.8643 1371.25 20.0809 1371.52 20.4175C1371.8 20.7541 1371.93 21.1605 1371.93 21.6367C1371.93 22.3278 1371.68 22.9168 1371.17 23.4038C1370.67 23.8908 1370.04 24.1343 1369.29 24.1343C1368.58 24.1343 1367.99 23.9302 1367.52 23.522C1367.05 23.1102 1366.77 22.5731 1366.7 21.9106ZM1375.43 16.0938C1376.19 16.0938 1376.79 16.3659 1377.22 16.9102C1377.73 17.5547 1377.98 18.6235 1377.98 20.1167C1377.98 21.6063 1377.73 22.6769 1377.21 23.3286C1376.78 23.8657 1376.19 24.1343 1375.43 24.1343C1374.66 24.1343 1374.04 23.8407 1373.57 23.2534C1373.11 22.6626 1372.87 21.6117 1372.87 20.1006C1372.87 18.6182 1373.13 17.5511 1373.64 16.8994C1374.07 16.3623 1374.67 16.0938 1375.43 16.0938ZM1375.43 17.3452C1375.25 17.3452 1375.08 17.4043 1374.94 17.5225C1374.8 17.637 1374.68 17.8447 1374.61 18.1455C1374.5 18.5358 1374.45 19.1929 1374.45 20.1167C1374.45 21.0405 1374.5 21.6761 1374.59 22.0234C1374.68 22.3672 1374.8 22.5964 1374.94 22.7109C1375.08 22.8255 1375.25 22.8828 1375.43 22.8828C1375.61 22.8828 1375.77 22.8255 1375.92 22.7109C1376.06 22.5928 1376.17 22.3833 1376.25 22.0825C1376.35 21.6958 1376.41 21.0405 1376.41 20.1167C1376.41 19.1929 1376.36 18.5591 1376.27 18.2153C1376.17 17.868 1376.05 17.637 1375.91 17.5225C1375.77 17.4043 1375.61 17.3452 1375.43 17.3452Z" fill="#2E3440"/>
</svg>
