<svg width="1397" height="269" viewBox="0 0 1397 269" fill="none" xmlns="http://www.w3.org/2000/svg">
<rect x="0.5" y="0.5" width="1396" height="268" stroke="#4C566A"/>
<path d="M296.575 128.115H301.321C302.41 128.115 303.237 128.2 303.799 128.37C304.561 128.599 305.211 129.003 305.75 129.583C306.289 130.157 306.694 130.854 306.963 131.675C307.239 132.495 307.376 133.509 307.376 134.716C307.376 135.776 307.224 136.734 306.919 137.59C306.62 138.439 306.178 139.148 305.592 139.717C305.141 140.145 304.535 140.481 303.773 140.728C303.199 140.909 302.428 141 301.461 141H296.575V135.375H295.239V133.74H296.575V128.115ZM299.167 130.295V133.74H301.927V135.375H299.167V138.829H301.118C301.98 138.829 302.601 138.759 302.982 138.618C303.486 138.442 303.869 138.12 304.133 137.651C304.502 136.989 304.687 135.979 304.687 134.619C304.687 133.652 304.608 132.908 304.45 132.387C304.297 131.859 304.069 131.435 303.764 131.112C303.465 130.79 303.073 130.564 302.586 130.436C302.211 130.342 301.464 130.295 300.345 130.295H299.167ZM308.993 136.201C308.993 135.381 309.196 134.587 309.6 133.819C310.004 133.052 310.576 132.466 311.314 132.062C312.058 131.657 312.887 131.455 313.801 131.455C315.213 131.455 316.37 131.915 317.273 132.835C318.175 133.749 318.626 134.906 318.626 136.307C318.626 137.719 318.169 138.891 317.255 139.822C316.347 140.748 315.202 141.211 313.819 141.211C312.963 141.211 312.146 141.018 311.367 140.631C310.593 140.244 310.004 139.679 309.6 138.935C309.196 138.185 308.993 137.273 308.993 136.201ZM311.525 136.333C311.525 137.259 311.744 137.968 312.184 138.46C312.623 138.952 313.165 139.198 313.81 139.198C314.454 139.198 314.993 138.952 315.427 138.46C315.867 137.968 316.086 137.253 316.086 136.315C316.086 135.401 315.867 134.698 315.427 134.206C314.993 133.714 314.454 133.468 313.81 133.468C313.165 133.468 312.623 133.714 312.184 134.206C311.744 134.698 311.525 135.407 311.525 136.333ZM310.83 130.488L312.676 127.896H314.961L316.781 130.488H314.794L313.775 129.179L312.826 130.488H310.83ZM314.988 127.421H313.432L311.006 124.942H313.775L314.988 127.421ZM329.859 131.666V133.635H328.171V137.396C328.171 138.158 328.186 138.604 328.215 138.732C328.25 138.855 328.324 138.958 328.435 139.04C328.552 139.122 328.693 139.163 328.857 139.163C329.085 139.163 329.416 139.084 329.85 138.926L330.061 140.842C329.487 141.088 328.836 141.211 328.11 141.211C327.664 141.211 327.263 141.138 326.906 140.991C326.548 140.839 326.285 140.646 326.115 140.411C325.951 140.171 325.836 139.849 325.772 139.444C325.719 139.157 325.693 138.577 325.693 137.704V133.635H324.559V131.666H325.693V129.812L328.171 128.37V131.666H329.859ZM334.034 128.115V132.853C334.83 131.921 335.783 131.455 336.89 131.455C337.458 131.455 337.971 131.561 338.428 131.771C338.885 131.982 339.228 132.252 339.456 132.58C339.691 132.908 339.849 133.271 339.931 133.67C340.019 134.068 340.063 134.687 340.063 135.524V141H337.593V136.069C337.593 135.091 337.546 134.47 337.452 134.206C337.359 133.942 337.192 133.734 336.952 133.582C336.717 133.424 336.421 133.345 336.064 133.345C335.654 133.345 335.287 133.444 334.965 133.644C334.643 133.843 334.406 134.145 334.253 134.549C334.107 134.947 334.034 135.539 334.034 136.324V141H331.564V128.115H334.034ZM342.577 130.4V128.115H345.046V130.4H342.577ZM342.577 141V131.666H345.046V141H342.577ZM342.585 144.524V142.055H345.055V144.524H342.585ZM356.876 131.666V133.635H355.189V137.396C355.189 138.158 355.203 138.604 355.233 138.732C355.268 138.855 355.341 138.958 355.452 139.04C355.57 139.122 355.71 139.163 355.874 139.163C356.103 139.163 356.434 139.084 356.868 138.926L357.078 140.842C356.504 141.088 355.854 141.211 355.127 141.211C354.682 141.211 354.281 141.138 353.923 140.991C353.566 140.839 353.302 140.646 353.132 140.411C352.968 140.171 352.854 139.849 352.789 139.444C352.737 139.157 352.71 138.577 352.71 137.704V133.635H351.577V131.666H352.71V129.812L355.189 128.37V131.666H356.876ZM361.051 128.115V132.853C361.848 131.921 362.8 131.455 363.908 131.455C364.476 131.455 364.989 131.561 365.446 131.771C365.903 131.982 366.245 132.252 366.474 132.58C366.708 132.908 366.867 133.271 366.949 133.67C367.036 134.068 367.08 134.687 367.08 135.524V141H364.611V136.069C364.611 135.091 364.564 134.47 364.47 134.206C364.376 133.942 364.209 133.734 363.969 133.582C363.735 133.424 363.439 133.345 363.081 133.345C362.671 133.345 362.305 133.444 361.983 133.644C361.66 133.843 361.423 134.145 361.271 134.549C361.124 134.947 361.051 135.539 361.051 136.324V141H358.581V128.115H361.051ZM374.999 138.029L377.46 138.442C377.144 139.345 376.643 140.033 375.957 140.508C375.278 140.977 374.425 141.211 373.4 141.211C371.777 141.211 370.576 140.681 369.796 139.62C369.181 138.771 368.873 137.698 368.873 136.403C368.873 134.856 369.278 133.646 370.086 132.773C370.895 131.895 371.917 131.455 373.154 131.455C374.542 131.455 375.638 131.915 376.441 132.835C377.243 133.749 377.627 135.152 377.592 137.045H371.405C371.422 137.777 371.621 138.349 372.002 138.759C372.383 139.163 372.858 139.365 373.426 139.365C373.813 139.365 374.138 139.26 374.402 139.049C374.665 138.838 374.865 138.498 374.999 138.029ZM375.14 135.533C375.122 134.818 374.938 134.276 374.586 133.907C374.235 133.532 373.807 133.345 373.303 133.345C372.764 133.345 372.319 133.541 371.967 133.934C371.616 134.326 371.443 134.859 371.449 135.533H375.14ZM370.262 130.488L372.108 127.896H374.393L376.212 130.488H374.226L373.206 129.179L372.257 130.488H370.262ZM372.714 126.674C373.048 126.639 373.262 126.606 373.356 126.577C373.666 126.501 373.825 126.366 373.83 126.173C373.836 126.038 373.754 125.924 373.584 125.83C373.338 125.695 372.949 125.628 372.415 125.628C372.234 125.628 371.958 125.64 371.589 125.663L371.493 124.767C371.721 124.72 372.143 124.699 372.758 124.705C373.479 124.711 374.068 124.828 374.525 125.057C375.029 125.303 375.286 125.646 375.298 126.085C375.322 126.694 374.788 127.066 373.699 127.201V127.641H372.714V126.674ZM387.084 128.115V132.853C387.881 131.921 388.833 131.455 389.941 131.455C390.509 131.455 391.022 131.561 391.479 131.771C391.936 131.982 392.279 132.252 392.507 132.58C392.742 132.908 392.9 133.271 392.982 133.67C393.07 134.068 393.114 134.687 393.114 135.524V141H390.644V136.069C390.644 135.091 390.597 134.47 390.503 134.206C390.41 133.942 390.243 133.734 390.002 133.582C389.768 133.424 389.472 133.345 389.115 133.345C388.704 133.345 388.338 133.444 388.016 133.644C387.694 133.843 387.456 134.145 387.304 134.549C387.158 134.947 387.084 135.539 387.084 136.324V141H384.615V128.115H387.084ZM395.627 130.4V128.115H398.097V130.4H395.627ZM395.627 141V131.666H398.097V141H395.627ZM406.042 138.029L408.503 138.442C408.187 139.345 407.686 140.033 407 140.508C406.321 140.977 405.468 141.211 404.443 141.211C402.82 141.211 401.618 140.681 400.839 139.62C400.224 138.771 399.916 137.698 399.916 136.403C399.916 134.856 400.321 133.646 401.129 132.773C401.938 131.895 402.96 131.455 404.197 131.455C405.585 131.455 406.681 131.915 407.484 132.835C408.286 133.749 408.67 135.152 408.635 137.045H402.448C402.465 137.777 402.664 138.349 403.045 138.759C403.426 139.163 403.901 139.365 404.469 139.365C404.856 139.365 405.181 139.26 405.445 139.049C405.708 138.838 405.908 138.498 406.042 138.029ZM406.183 135.533C406.165 134.818 405.981 134.276 405.629 133.907C405.278 133.532 404.85 133.345 404.346 133.345C403.807 133.345 403.362 133.541 403.01 133.934C402.659 134.326 402.486 134.859 402.492 135.533H406.183ZM401.305 130.488L403.151 127.896H405.436L407.255 130.488H405.269L404.249 129.179L403.3 130.488H401.305ZM403.107 144.524V142.055H405.577V144.524H403.107ZM419.147 141H416.677V136.236C416.677 135.229 416.624 134.578 416.519 134.285C416.413 133.986 416.241 133.755 416 133.591C415.766 133.427 415.482 133.345 415.148 133.345C414.72 133.345 414.336 133.462 413.996 133.696C413.657 133.931 413.422 134.241 413.293 134.628C413.17 135.015 413.109 135.729 413.109 136.772V141H410.639V131.666H412.933V133.037C413.747 131.982 414.773 131.455 416.009 131.455C416.554 131.455 417.052 131.555 417.503 131.754C417.954 131.947 418.294 132.196 418.523 132.501C418.757 132.806 418.918 133.151 419.006 133.538C419.1 133.925 419.147 134.479 419.147 135.199V141ZM426.582 141V128.115H429.052V134.953L431.944 131.666H434.985L431.794 135.076L435.213 141H432.55L430.203 136.808L429.052 138.012V141H426.582ZM439.151 128.115V132.853C439.948 131.921 440.9 131.455 442.007 131.455C442.576 131.455 443.088 131.561 443.545 131.771C444.002 131.982 444.345 132.252 444.574 132.58C444.808 132.908 444.966 133.271 445.048 133.67C445.136 134.068 445.18 134.687 445.18 135.524V141H442.71V136.069C442.71 135.091 442.663 134.47 442.57 134.206C442.476 133.942 442.309 133.734 442.069 133.582C441.834 133.424 441.538 133.345 441.181 133.345C440.771 133.345 440.405 133.444 440.082 133.644C439.76 133.843 439.523 134.145 439.37 134.549C439.224 134.947 439.151 135.539 439.151 136.324V141H436.681V128.115H439.151ZM447.122 136.201C447.122 135.381 447.325 134.587 447.729 133.819C448.133 133.052 448.704 132.466 449.443 132.062C450.187 131.657 451.016 131.455 451.93 131.455C453.342 131.455 454.499 131.915 455.402 132.835C456.304 133.749 456.755 134.906 456.755 136.307C456.755 137.719 456.298 138.891 455.384 139.822C454.476 140.748 453.33 141.211 451.948 141.211C451.092 141.211 450.275 141.018 449.495 140.631C448.722 140.244 448.133 139.679 447.729 138.935C447.325 138.185 447.122 137.273 447.122 136.201ZM449.654 136.333C449.654 137.259 449.873 137.968 450.313 138.46C450.752 138.952 451.294 139.198 451.939 139.198C452.583 139.198 453.122 138.952 453.556 138.46C453.995 137.968 454.215 137.253 454.215 136.315C454.215 135.401 453.995 134.698 453.556 134.206C453.122 133.714 452.583 133.468 451.939 133.468C451.294 133.468 450.752 133.714 450.313 134.206C449.873 134.698 449.654 135.407 449.654 136.333ZM448.959 130.488L450.805 127.896H453.09L454.91 130.488H452.923L451.904 129.179L450.954 130.488H448.959ZM450.77 127.421L451.904 124.942H454.672L452.334 127.421H450.77ZM458.698 130.4V128.115H461.167V130.4H458.698ZM458.698 141V131.666H461.167V141H458.698ZM468.717 141V128.115H471.187V141H468.717ZM482.999 131.666H485.469V133.433C485.469 134.159 485.405 134.728 485.276 135.138C485.153 135.548 484.921 135.914 484.581 136.236C484.06 136.74 483.254 137.08 482.164 137.256V141H479.87V139.603C479.138 140.675 478.107 141.211 476.777 141.211C475.4 141.211 474.477 140.687 474.008 139.638C473.785 139.14 473.674 138.451 473.674 137.572V131.666H476.144V135.955C476.144 137.186 476.191 137.988 476.285 138.363C476.349 138.645 476.513 138.879 476.777 139.066C477.017 139.242 477.322 139.33 477.691 139.33C478.107 139.33 478.482 139.216 478.816 138.987C479.156 138.759 479.387 138.472 479.51 138.126C479.633 137.78 479.695 136.939 479.695 135.604V131.666H482.164V136.254C482.979 136.09 483.55 135.785 483.878 135.34C484.077 135.07 484.183 134.669 484.195 134.136H482.999V131.666ZM488.73 136.333C488.73 137.229 488.95 137.938 489.389 138.46C489.805 138.952 490.347 139.198 491.015 139.198C491.683 139.198 492.222 138.952 492.632 138.46C493.072 137.938 493.291 137.224 493.291 136.315C493.291 135.425 493.072 134.722 492.632 134.206C492.222 133.714 491.683 133.468 491.015 133.468C490.347 133.468 489.805 133.714 489.389 134.206C488.95 134.728 488.73 135.437 488.73 136.333ZM495.805 131.666H498.275V133.433C498.275 134.159 498.21 134.728 498.081 135.138C497.958 135.548 497.727 135.914 497.387 136.236C496.994 136.617 496.458 136.916 495.779 137.133C495.632 138.182 495.196 139.075 494.469 139.813C493.555 140.745 492.407 141.211 491.024 141.211C490.139 141.211 489.325 141.018 488.58 140.631C487.789 140.221 487.195 139.649 486.796 138.917C486.398 138.179 486.199 137.273 486.199 136.201C486.199 135.357 486.401 134.563 486.805 133.819C487.227 133.04 487.804 132.451 488.536 132.053C489.269 131.654 490.092 131.455 491.006 131.455C492.418 131.455 493.576 131.912 494.478 132.826C495.292 133.658 495.741 134.687 495.823 135.911C496.584 135.601 496.977 135.009 497 134.136H495.805V131.666ZM489.679 144.524V142.055H492.149V144.524H489.679ZM508.057 141H505.587V136.236C505.587 135.229 505.535 134.578 505.429 134.285C505.324 133.986 505.151 133.755 504.91 133.591C504.676 133.427 504.392 133.345 504.058 133.345C503.63 133.345 503.246 133.462 502.907 133.696C502.567 133.931 502.332 134.241 502.203 134.628C502.08 135.015 502.019 135.729 502.019 136.772V141H499.549V131.666H501.843V133.037C502.658 131.982 503.683 131.455 504.919 131.455C505.464 131.455 505.962 131.555 506.413 131.754C506.865 131.947 507.204 132.196 507.433 132.501C507.667 132.806 507.828 133.151 507.916 133.538C508.01 133.925 508.057 134.479 508.057 135.199V141ZM510.342 141.615L513.163 141.958C513.21 142.286 513.319 142.512 513.489 142.635C513.723 142.811 514.092 142.898 514.596 142.898C515.241 142.898 515.724 142.802 516.046 142.608C516.263 142.479 516.427 142.271 516.538 141.984C516.615 141.779 516.653 141.401 516.653 140.851V139.488C515.914 140.496 514.983 141 513.858 141C512.604 141 511.611 140.47 510.878 139.409C510.304 138.571 510.017 137.528 510.017 136.28C510.017 134.716 510.392 133.521 511.142 132.694C511.898 131.868 512.835 131.455 513.954 131.455C515.109 131.455 516.061 131.962 516.811 132.976V131.666H519.122V140.042C519.122 141.144 519.032 141.967 518.85 142.512C518.668 143.057 518.413 143.484 518.085 143.795C517.757 144.105 517.318 144.349 516.767 144.524C516.222 144.7 515.531 144.788 514.693 144.788C513.111 144.788 511.989 144.516 511.327 143.971C510.664 143.432 510.333 142.746 510.333 141.914C510.333 141.832 510.336 141.732 510.342 141.615ZM512.548 136.14C512.548 137.13 512.739 137.856 513.119 138.319C513.506 138.776 513.981 139.005 514.543 139.005C515.147 139.005 515.657 138.771 516.073 138.302C516.489 137.827 516.697 137.127 516.697 136.201C516.697 135.234 516.497 134.517 516.099 134.048C515.701 133.579 515.197 133.345 514.587 133.345C513.995 133.345 513.506 133.576 513.119 134.039C512.739 134.496 512.548 135.196 512.548 136.14ZM530.865 131.666V133.635H529.177V137.396C529.177 138.158 529.192 138.604 529.221 138.732C529.256 138.855 529.329 138.958 529.441 139.04C529.558 139.122 529.699 139.163 529.863 139.163C530.091 139.163 530.422 139.084 530.856 138.926L531.067 140.842C530.493 141.088 529.842 141.211 529.116 141.211C528.67 141.211 528.269 141.138 527.911 140.991C527.554 140.839 527.29 140.646 527.12 140.411C526.956 140.171 526.842 139.849 526.778 139.444C526.725 139.157 526.699 138.577 526.699 137.704V133.635H525.565V131.666H526.699V129.812L529.177 128.37V131.666H530.865ZM535.039 128.115V132.853C535.836 131.921 536.788 131.455 537.896 131.455C538.464 131.455 538.977 131.561 539.434 131.771C539.891 131.982 540.234 132.252 540.462 132.58C540.697 132.908 540.855 133.271 540.937 133.67C541.025 134.068 541.069 134.687 541.069 135.524V141H538.599V136.069C538.599 135.091 538.552 134.47 538.458 134.206C538.365 133.942 538.198 133.734 537.957 133.582C537.723 133.424 537.427 133.345 537.07 133.345C536.66 133.345 536.293 133.444 535.971 133.644C535.649 133.843 535.411 134.145 535.259 134.549C535.113 134.947 535.039 135.539 535.039 136.324V141H532.57V128.115H535.039ZM548.988 138.029L551.449 138.442C551.132 139.345 550.631 140.033 549.946 140.508C549.266 140.977 548.413 141.211 547.388 141.211C545.765 141.211 544.564 140.681 543.785 139.62C543.169 138.771 542.862 137.698 542.862 136.403C542.862 134.856 543.266 133.646 544.075 132.773C544.883 131.895 545.906 131.455 547.142 131.455C548.531 131.455 549.626 131.915 550.429 132.835C551.232 133.749 551.616 135.152 551.58 137.045H545.393C545.41 137.777 545.61 138.349 545.991 138.759C546.371 139.163 546.846 139.365 547.414 139.365C547.801 139.365 548.126 139.26 548.39 139.049C548.654 138.838 548.853 138.498 548.988 138.029ZM549.128 135.533C549.111 134.818 548.926 134.276 548.575 133.907C548.223 133.532 547.795 133.345 547.291 133.345C546.752 133.345 546.307 133.541 545.955 133.934C545.604 134.326 545.431 134.859 545.437 135.533H549.128ZM553.031 136.201C553.031 135.381 553.233 134.587 553.637 133.819C554.041 133.052 554.613 132.466 555.351 132.062C556.095 131.657 556.924 131.455 557.838 131.455C559.25 131.455 560.408 131.915 561.31 132.835C562.212 133.749 562.663 134.906 562.663 136.307C562.663 137.719 562.206 138.891 561.292 139.822C560.384 140.748 559.239 141.211 557.856 141.211C557 141.211 556.183 141.018 555.404 140.631C554.63 140.244 554.041 139.679 553.637 138.935C553.233 138.185 553.031 137.273 553.031 136.201ZM555.562 136.333C555.562 137.259 555.782 137.968 556.221 138.46C556.66 138.952 557.202 139.198 557.847 139.198C558.492 139.198 559.031 138.952 559.464 138.46C559.904 137.968 560.123 137.253 560.123 136.315C560.123 135.401 559.904 134.698 559.464 134.206C559.031 133.714 558.492 133.468 557.847 133.468C557.202 133.468 556.66 133.714 556.221 134.206C555.782 134.698 555.562 135.407 555.562 136.333ZM575.408 141H572.938V131.692C572.035 132.536 570.972 133.16 569.747 133.564V131.323C570.392 131.112 571.092 130.714 571.848 130.128C572.604 129.536 573.122 128.848 573.404 128.062H575.408V141ZM583.283 128.062C584.531 128.062 585.506 128.508 586.209 129.398C587.047 130.453 587.466 132.202 587.466 134.646C587.466 137.083 587.044 138.835 586.201 139.901C585.503 140.78 584.531 141.22 583.283 141.22C582.029 141.22 581.018 140.739 580.25 139.778C579.483 138.812 579.099 137.092 579.099 134.619C579.099 132.193 579.521 130.447 580.365 129.381C581.062 128.502 582.035 128.062 583.283 128.062ZM583.283 130.11C582.984 130.11 582.717 130.207 582.483 130.4C582.248 130.588 582.067 130.928 581.938 131.42C581.768 132.059 581.683 133.134 581.683 134.646C581.683 136.157 581.759 137.197 581.911 137.766C582.064 138.328 582.254 138.703 582.483 138.891C582.717 139.078 582.984 139.172 583.283 139.172C583.581 139.172 583.848 139.078 584.082 138.891C584.317 138.697 584.498 138.354 584.627 137.862C584.797 137.229 584.882 136.157 584.882 134.646C584.882 133.134 584.806 132.097 584.654 131.534C584.501 130.966 584.308 130.588 584.074 130.4C583.845 130.207 583.581 130.11 583.283 130.11ZM594.559 141V128.115H597.029V132.756C597.79 131.889 598.693 131.455 599.736 131.455C600.872 131.455 601.813 131.868 602.557 132.694C603.301 133.515 603.673 134.695 603.673 136.236C603.673 137.83 603.292 139.058 602.531 139.919C601.775 140.78 600.855 141.211 599.771 141.211C599.238 141.211 598.71 141.079 598.189 140.815C597.673 140.546 597.228 140.15 596.853 139.629V141H594.559ZM597.011 136.131C597.011 137.098 597.163 137.812 597.468 138.275C597.896 138.932 598.464 139.26 599.173 139.26C599.718 139.26 600.181 139.028 600.562 138.565C600.949 138.097 601.142 137.361 601.142 136.359C601.142 135.293 600.949 134.525 600.562 134.057C600.175 133.582 599.68 133.345 599.077 133.345C598.485 133.345 597.993 133.576 597.6 134.039C597.207 134.496 597.011 135.193 597.011 136.131ZM614.941 131.666H617.41V133.433C617.41 134.159 617.346 134.728 617.217 135.138C617.094 135.548 616.863 135.914 616.523 136.236C616.001 136.74 615.196 137.08 614.106 137.256V141H611.812V139.603C611.079 140.675 610.048 141.211 608.718 141.211C607.341 141.211 606.418 140.687 605.95 139.638C605.727 139.14 605.616 138.451 605.616 137.572V131.666H608.085V135.955C608.085 137.186 608.132 137.988 608.226 138.363C608.29 138.645 608.454 138.879 608.718 139.066C608.958 139.242 609.263 139.33 609.632 139.33C610.048 139.33 610.423 139.216 610.757 138.987C611.097 138.759 611.328 138.472 611.452 138.126C611.575 137.78 611.636 136.939 611.636 135.604V131.666H614.106V136.254C614.92 136.09 615.492 135.785 615.82 135.34C616.019 135.07 616.124 134.669 616.136 134.136H614.941V131.666ZM620.671 136.333C620.671 137.229 620.891 137.938 621.33 138.46C621.746 138.952 622.288 139.198 622.956 139.198C623.624 139.198 624.163 138.952 624.574 138.46C625.013 137.938 625.233 137.224 625.233 136.315C625.233 135.425 625.013 134.722 624.574 134.206C624.163 133.714 623.624 133.468 622.956 133.468C622.288 133.468 621.746 133.714 621.33 134.206C620.891 134.728 620.671 135.437 620.671 136.333ZM627.746 131.666H630.216V133.433C630.216 134.159 630.152 134.728 630.023 135.138C629.9 135.548 629.668 135.914 629.328 136.236C628.936 136.617 628.4 136.916 627.72 137.133C627.574 138.182 627.137 139.075 626.41 139.813C625.496 140.745 624.348 141.211 622.965 141.211C622.08 141.211 621.266 141.018 620.522 140.631C619.731 140.221 619.136 139.649 618.738 138.917C618.339 138.179 618.14 137.273 618.14 136.201C618.14 135.357 618.342 134.563 618.746 133.819C619.168 133.04 619.745 132.451 620.478 132.053C621.21 131.654 622.034 131.455 622.948 131.455C624.36 131.455 625.517 131.912 626.419 132.826C627.234 133.658 627.682 134.687 627.764 135.911C628.526 135.601 628.918 135.009 628.942 134.136H627.746V131.666ZM621.708 130.523L622.921 127.896H625.69L623.273 130.523H621.708ZM639.647 134.426L637.212 134.865C637.13 134.379 636.943 134.013 636.65 133.767C636.363 133.521 635.988 133.397 635.525 133.397C634.91 133.397 634.417 133.611 634.048 134.039C633.685 134.461 633.503 135.17 633.503 136.166C633.503 137.273 633.688 138.056 634.057 138.513C634.432 138.97 634.933 139.198 635.56 139.198C636.029 139.198 636.412 139.066 636.711 138.803C637.01 138.533 637.221 138.073 637.344 137.423L639.77 137.836C639.518 138.949 639.035 139.79 638.32 140.358C637.605 140.927 636.647 141.211 635.446 141.211C634.08 141.211 632.991 140.78 632.176 139.919C631.368 139.058 630.963 137.865 630.963 136.342C630.963 134.801 631.37 133.603 632.185 132.747C632.999 131.886 634.101 131.455 635.49 131.455C636.626 131.455 637.529 131.701 638.197 132.193C638.87 132.68 639.354 133.424 639.647 134.426ZM646.309 141.615L649.13 141.958C649.177 142.286 649.285 142.512 649.455 142.635C649.69 142.811 650.059 142.898 650.563 142.898C651.207 142.898 651.691 142.802 652.013 142.608C652.23 142.479 652.394 142.271 652.505 141.984C652.581 141.779 652.619 141.401 652.619 140.851V139.488C651.881 140.496 650.95 141 649.825 141C648.571 141 647.577 140.47 646.845 139.409C646.271 138.571 645.984 137.528 645.984 136.28C645.984 134.716 646.359 133.521 647.109 132.694C647.865 131.868 648.802 131.455 649.921 131.455C651.076 131.455 652.028 131.962 652.778 132.976V131.666H655.089V140.042C655.089 141.144 654.998 141.967 654.817 142.512C654.635 143.057 654.38 143.484 654.052 143.795C653.724 144.105 653.285 144.349 652.734 144.524C652.189 144.7 651.497 144.788 650.66 144.788C649.077 144.788 647.955 144.516 647.293 143.971C646.631 143.432 646.3 142.746 646.3 141.914C646.3 141.832 646.303 141.732 646.309 141.615ZM648.515 136.14C648.515 137.13 648.705 137.856 649.086 138.319C649.473 138.776 649.948 139.005 650.51 139.005C651.114 139.005 651.623 138.771 652.039 138.302C652.455 137.827 652.663 137.127 652.663 136.201C652.663 135.234 652.464 134.517 652.066 134.048C651.667 133.579 651.163 133.345 650.554 133.345C649.962 133.345 649.473 133.576 649.086 134.039C648.705 134.496 648.515 135.196 648.515 136.14ZM657.541 130.4V128.115H660.011V130.4H657.541ZM657.541 141V131.666H660.011V141H657.541ZM664.397 134.514L662.156 134.109C662.408 133.207 662.841 132.539 663.456 132.105C664.072 131.672 664.986 131.455 666.199 131.455C667.3 131.455 668.12 131.587 668.66 131.851C669.199 132.108 669.577 132.439 669.793 132.844C670.016 133.242 670.127 133.978 670.127 135.05L670.101 137.933C670.101 138.753 670.139 139.359 670.215 139.752C670.297 140.139 670.447 140.555 670.663 141H668.22C668.156 140.836 668.077 140.593 667.983 140.271C667.942 140.124 667.912 140.027 667.895 139.98C667.473 140.391 667.022 140.698 666.541 140.903C666.061 141.108 665.548 141.211 665.003 141.211C664.042 141.211 663.284 140.95 662.727 140.429C662.176 139.907 661.901 139.248 661.901 138.451C661.901 137.924 662.027 137.455 662.279 137.045C662.531 136.629 662.882 136.312 663.333 136.096C663.79 135.873 664.447 135.68 665.302 135.516C666.456 135.299 667.256 135.097 667.702 134.909V134.663C667.702 134.188 667.584 133.852 667.35 133.652C667.116 133.447 666.673 133.345 666.023 133.345C665.583 133.345 665.241 133.433 664.994 133.608C664.748 133.778 664.549 134.08 664.397 134.514ZM667.702 136.518C667.385 136.623 666.884 136.749 666.199 136.896C665.513 137.042 665.065 137.186 664.854 137.326C664.532 137.555 664.37 137.845 664.37 138.196C664.37 138.542 664.499 138.841 664.757 139.093C665.015 139.345 665.343 139.471 665.742 139.471C666.187 139.471 666.612 139.324 667.016 139.031C667.315 138.809 667.511 138.536 667.605 138.214C667.669 138.003 667.702 137.602 667.702 137.01V136.518ZM665.03 130.523L666.243 127.896H669.011L666.594 130.523H665.03ZM672.571 141V138.53H675.04V141H672.571ZM685.508 141V130.295H681.685V128.115H691.924V130.295H688.11V141H685.508ZM694.956 141H692.487V131.666H694.781V132.993C695.173 132.366 695.525 131.953 695.835 131.754C696.152 131.555 696.509 131.455 696.908 131.455C697.47 131.455 698.012 131.61 698.534 131.921L697.769 134.074C697.353 133.805 696.966 133.67 696.609 133.67C696.263 133.67 695.97 133.767 695.73 133.96C695.49 134.147 695.299 134.49 695.159 134.988C695.024 135.486 694.956 136.529 694.956 138.117V141ZM705.749 141V139.603C705.41 140.101 704.961 140.493 704.405 140.78C703.854 141.067 703.271 141.211 702.656 141.211C702.029 141.211 701.466 141.073 700.968 140.798C700.47 140.522 700.11 140.136 699.887 139.638C699.664 139.14 699.553 138.451 699.553 137.572V131.666H702.023V135.955C702.023 137.268 702.067 138.073 702.155 138.372C702.248 138.665 702.415 138.899 702.656 139.075C702.896 139.245 703.201 139.33 703.57 139.33C703.992 139.33 704.369 139.216 704.703 138.987C705.037 138.753 705.266 138.466 705.389 138.126C705.512 137.78 705.574 136.939 705.574 135.604V131.666H708.043V141H705.749ZM702.339 144.524V142.055H704.809V144.524H702.339ZM718.748 134.426L716.314 134.865C716.232 134.379 716.044 134.013 715.751 133.767C715.464 133.521 715.089 133.397 714.626 133.397C714.011 133.397 713.519 133.611 713.15 134.039C712.786 134.461 712.605 135.17 712.605 136.166C712.605 137.273 712.789 138.056 713.159 138.513C713.534 138.97 714.035 139.198 714.661 139.198C715.13 139.198 715.514 139.066 715.813 138.803C716.112 138.533 716.323 138.073 716.446 137.423L718.871 137.836C718.619 138.949 718.136 139.79 717.421 140.358C716.706 140.927 715.748 141.211 714.547 141.211C713.182 141.211 712.092 140.78 711.278 139.919C710.469 139.058 710.065 137.865 710.065 136.342C710.065 134.801 710.472 133.603 711.286 132.747C712.101 131.886 713.202 131.455 714.591 131.455C715.728 131.455 716.63 131.701 717.298 132.193C717.972 132.68 718.455 133.424 718.748 134.426ZM729.919 131.666V133.635H728.232V137.396C728.232 138.158 728.246 138.604 728.276 138.732C728.311 138.855 728.384 138.958 728.495 139.04C728.613 139.122 728.753 139.163 728.917 139.163C729.146 139.163 729.477 139.084 729.91 138.926L730.121 140.842C729.547 141.088 728.897 141.211 728.17 141.211C727.725 141.211 727.324 141.138 726.966 140.991C726.609 140.839 726.345 140.646 726.175 140.411C726.011 140.171 725.897 139.849 725.832 139.444C725.78 139.157 725.753 138.577 725.753 137.704V133.635H724.619V131.666H725.753V129.812L728.232 128.37V131.666H729.919ZM737.777 141V139.603C737.437 140.101 736.989 140.493 736.432 140.78C735.881 141.067 735.298 141.211 734.683 141.211C734.056 141.211 733.493 141.073 732.995 140.798C732.497 140.522 732.137 140.136 731.914 139.638C731.692 139.14 731.58 138.451 731.58 137.572V131.666H734.05V135.955C734.05 137.268 734.094 138.073 734.182 138.372C734.276 138.665 734.443 138.899 734.683 139.075C734.923 139.245 735.228 139.33 735.597 139.33C736.019 139.33 736.397 139.216 736.731 138.987C737.065 138.753 737.293 138.466 737.416 138.126C737.539 137.78 737.601 136.939 737.601 135.604V131.666H740.071V141H737.777ZM751.127 141H748.658V136.236C748.658 135.229 748.605 134.578 748.499 134.285C748.394 133.986 748.221 133.755 747.981 133.591C747.746 133.427 747.462 133.345 747.128 133.345C746.701 133.345 746.317 133.462 745.977 133.696C745.637 133.931 745.403 134.241 745.274 134.628C745.151 135.015 745.089 135.729 745.089 136.772V141H742.619V131.666H744.913V133.037C745.728 131.982 746.753 131.455 747.99 131.455C748.535 131.455 749.033 131.555 749.484 131.754C749.935 131.947 750.275 132.196 750.503 132.501C750.738 132.806 750.899 133.151 750.987 133.538C751.08 133.925 751.127 134.479 751.127 135.199V141ZM753.412 141.615L756.234 141.958C756.281 142.286 756.389 142.512 756.559 142.635C756.793 142.811 757.162 142.898 757.666 142.898C758.311 142.898 758.794 142.802 759.117 142.608C759.333 142.479 759.497 142.271 759.609 141.984C759.685 141.779 759.723 141.401 759.723 140.851V139.488C758.985 140.496 758.053 141 756.928 141C755.674 141 754.681 140.47 753.949 139.409C753.374 138.571 753.087 137.528 753.087 136.28C753.087 134.716 753.462 133.521 754.212 132.694C754.968 131.868 755.906 131.455 757.025 131.455C758.179 131.455 759.131 131.962 759.881 132.976V131.666H762.193V140.042C762.193 141.144 762.102 141.967 761.92 142.512C761.739 143.057 761.484 143.484 761.156 143.795C760.827 144.105 760.388 144.349 759.837 144.524C759.292 144.7 758.601 144.788 757.763 144.788C756.181 144.788 755.059 144.516 754.397 143.971C753.735 143.432 753.404 142.746 753.404 141.914C753.404 141.832 753.407 141.732 753.412 141.615ZM755.618 136.14C755.618 137.13 755.809 137.856 756.19 138.319C756.577 138.776 757.051 139.005 757.614 139.005C758.217 139.005 758.727 138.771 759.143 138.302C759.559 137.827 759.767 137.127 759.767 136.201C759.767 135.234 759.568 134.517 759.169 134.048C758.771 133.579 758.267 133.345 757.658 133.345C757.066 133.345 756.577 133.576 756.19 134.039C755.809 134.496 755.618 135.196 755.618 136.14ZM769.655 141V128.115H772.124V141H769.655ZM776.51 134.514L774.269 134.109C774.521 133.207 774.954 132.539 775.57 132.105C776.185 131.672 777.099 131.455 778.312 131.455C779.413 131.455 780.234 131.587 780.773 131.851C781.312 132.108 781.69 132.439 781.907 132.844C782.129 133.242 782.241 133.978 782.241 135.05L782.214 137.933C782.214 138.753 782.252 139.359 782.328 139.752C782.41 140.139 782.56 140.555 782.777 141H780.333C780.269 140.836 780.19 140.593 780.096 140.271C780.055 140.124 780.026 140.027 780.008 139.98C779.586 140.391 779.135 140.698 778.655 140.903C778.174 141.108 777.661 141.211 777.117 141.211C776.156 141.211 775.397 140.95 774.84 140.429C774.289 139.907 774.014 139.248 774.014 138.451C774.014 137.924 774.14 137.455 774.392 137.045C774.644 136.629 774.995 136.312 775.447 136.096C775.904 135.873 776.56 135.68 777.415 135.516C778.57 135.299 779.369 135.097 779.815 134.909V134.663C779.815 134.188 779.698 133.852 779.463 133.652C779.229 133.447 778.786 133.345 778.136 133.345C777.697 133.345 777.354 133.433 777.108 133.608C776.862 133.778 776.662 134.08 776.51 134.514ZM779.815 136.518C779.498 136.623 778.997 136.749 778.312 136.896C777.626 137.042 777.178 137.186 776.967 137.326C776.645 137.555 776.484 137.845 776.484 138.196C776.484 138.542 776.613 138.841 776.87 139.093C777.128 139.345 777.456 139.471 777.855 139.471C778.3 139.471 778.725 139.324 779.129 139.031C779.428 138.809 779.624 138.536 779.718 138.214C779.783 138.003 779.815 137.602 779.815 137.01V136.518ZM779.639 130.523H778.083L775.658 127.896H778.426L779.639 130.523ZM789.606 141V128.115H792.076V134.953L794.967 131.666H798.008L794.818 135.076L798.237 141H795.574L793.227 136.808L792.076 138.012V141H789.606ZM802.174 128.115V132.853C802.971 131.921 803.923 131.455 805.031 131.455C805.599 131.455 806.112 131.561 806.569 131.771C807.026 131.982 807.368 132.252 807.597 132.58C807.831 132.908 807.99 133.271 808.072 133.67C808.16 134.068 808.203 134.687 808.203 135.524V141H805.734V136.069C805.734 135.091 805.687 134.47 805.593 134.206C805.499 133.942 805.332 133.734 805.092 133.582C804.858 133.424 804.562 133.345 804.204 133.345C803.794 133.345 803.428 133.444 803.106 133.644C802.784 133.843 802.546 134.145 802.394 134.549C802.247 134.947 802.174 135.539 802.174 136.324V141H799.704V128.115H802.174ZM810.146 136.201C810.146 135.381 810.348 134.587 810.752 133.819C811.157 133.052 811.728 132.466 812.466 132.062C813.21 131.657 814.039 131.455 814.953 131.455C816.366 131.455 817.523 131.915 818.425 132.835C819.327 133.749 819.779 134.906 819.779 136.307C819.779 137.719 819.322 138.891 818.408 139.822C817.499 140.748 816.354 141.211 814.971 141.211C814.116 141.211 813.298 141.018 812.519 140.631C811.745 140.244 811.157 139.679 810.752 138.935C810.348 138.185 810.146 137.273 810.146 136.201ZM812.677 136.333C812.677 137.259 812.897 137.968 813.336 138.46C813.776 138.952 814.318 139.198 814.962 139.198C815.607 139.198 816.146 138.952 816.579 138.46C817.019 137.968 817.239 137.253 817.239 136.315C817.239 135.401 817.019 134.698 816.579 134.206C816.146 133.714 815.607 133.468 814.962 133.468C814.318 133.468 813.776 133.714 813.336 134.206C812.897 134.698 812.677 135.407 812.677 136.333ZM811.983 130.488L813.828 127.896H816.114L817.933 130.488H815.947L814.927 129.179L813.978 130.488H811.983ZM813.793 127.421L814.927 124.942H817.696L815.358 127.421H813.793ZM821.721 130.4V128.115H824.191V130.4H821.721ZM821.721 141V131.666H824.191V141H821.721ZM831.741 141V128.115H834.21V141H831.741ZM846.023 131.666H848.493V133.433C848.493 134.159 848.428 134.728 848.299 135.138C848.176 135.548 847.945 135.914 847.605 136.236C847.083 136.74 846.278 137.08 845.188 137.256V141H842.894V139.603C842.161 140.675 841.13 141.211 839.8 141.211C838.423 141.211 837.5 140.687 837.032 139.638C836.809 139.14 836.698 138.451 836.698 137.572V131.666H839.167V135.955C839.167 137.186 839.214 137.988 839.308 138.363C839.372 138.645 839.536 138.879 839.8 139.066C840.04 139.242 840.345 139.33 840.714 139.33C841.13 139.33 841.505 139.216 841.839 138.987C842.179 138.759 842.41 138.472 842.534 138.126C842.657 137.78 842.718 136.939 842.718 135.604V131.666H845.188V136.254C846.002 136.09 846.574 135.785 846.902 135.34C847.101 135.07 847.206 134.669 847.218 134.136H846.023V131.666ZM851.753 136.333C851.753 137.229 851.973 137.938 852.412 138.46C852.828 138.952 853.37 139.198 854.038 139.198C854.706 139.198 855.245 138.952 855.656 138.46C856.095 137.938 856.315 137.224 856.315 136.315C856.315 135.425 856.095 134.722 855.656 134.206C855.245 133.714 854.706 133.468 854.038 133.468C853.37 133.468 852.828 133.714 852.412 134.206C851.973 134.728 851.753 135.437 851.753 136.333ZM858.828 131.666H861.298V133.433C861.298 134.159 861.234 134.728 861.105 135.138C860.982 135.548 860.75 135.914 860.41 136.236C860.018 136.617 859.482 136.916 858.802 137.133C858.656 138.182 858.219 139.075 857.493 139.813C856.578 140.745 855.43 141.211 854.047 141.211C853.162 141.211 852.348 141.018 851.604 140.631C850.813 140.221 850.218 139.649 849.82 138.917C849.421 138.179 849.222 137.273 849.222 136.201C849.222 135.357 849.424 134.563 849.828 133.819C850.25 133.04 850.827 132.451 851.56 132.053C852.292 131.654 853.116 131.455 854.03 131.455C855.442 131.455 856.599 131.912 857.501 132.826C858.316 133.658 858.764 134.687 858.846 135.911C859.608 135.601 860 135.009 860.024 134.136H858.828V131.666ZM852.702 144.524V142.055H855.172V144.524H852.702ZM871.08 141H868.611V136.236C868.611 135.229 868.558 134.578 868.452 134.285C868.347 133.986 868.174 133.755 867.934 133.591C867.7 133.427 867.415 133.345 867.081 133.345C866.654 133.345 866.27 133.462 865.93 133.696C865.59 133.931 865.356 134.241 865.227 134.628C865.104 135.015 865.042 135.729 865.042 136.772V141H862.573V131.666H864.867V133.037C865.681 131.982 866.706 131.455 867.943 131.455C868.488 131.455 868.986 131.555 869.437 131.754C869.888 131.947 870.228 132.196 870.456 132.501C870.691 132.806 870.852 133.151 870.94 133.538C871.034 133.925 871.08 134.479 871.08 135.199V141ZM873.366 141.615L876.187 141.958C876.234 142.286 876.342 142.512 876.512 142.635C876.746 142.811 877.116 142.898 877.619 142.898C878.264 142.898 878.747 142.802 879.07 142.608C879.286 142.479 879.451 142.271 879.562 141.984C879.638 141.779 879.676 141.401 879.676 140.851V139.488C878.938 140.496 878.006 141 876.881 141C875.627 141 874.634 140.47 873.902 139.409C873.327 138.571 873.04 137.528 873.04 136.28C873.04 134.716 873.415 133.521 874.165 132.694C874.921 131.868 875.859 131.455 876.978 131.455C878.132 131.455 879.084 131.962 879.834 132.976V131.666H882.146V140.042C882.146 141.144 882.055 141.967 881.873 142.512C881.692 143.057 881.437 143.484 881.109 143.795C880.781 144.105 880.341 144.349 879.79 144.524C879.245 144.7 878.554 144.788 877.716 144.788C876.134 144.788 875.012 144.516 874.35 143.971C873.688 143.432 873.357 142.746 873.357 141.914C873.357 141.832 873.36 141.732 873.366 141.615ZM875.572 136.14C875.572 137.13 875.762 137.856 876.143 138.319C876.53 138.776 877.004 139.005 877.567 139.005C878.17 139.005 878.68 138.771 879.096 138.302C879.512 137.827 879.72 137.127 879.72 136.201C879.72 135.234 879.521 134.517 879.122 134.048C878.724 133.579 878.22 133.345 877.611 133.345C877.019 133.345 876.53 133.576 876.143 134.039C875.762 134.496 875.572 135.196 875.572 136.14ZM884.536 138.53H887.006V140.297C887.006 141.012 886.945 141.574 886.822 141.984C886.699 142.4 886.464 142.772 886.118 143.101C885.779 143.429 885.345 143.687 884.818 143.874L884.334 142.854C884.832 142.69 885.187 142.465 885.398 142.178C885.609 141.891 885.72 141.498 885.732 141H884.536V138.53ZM898.898 131.666V133.635H897.21V137.396C897.21 138.158 897.225 138.604 897.254 138.732C897.289 138.855 897.363 138.958 897.474 139.04C897.591 139.122 897.732 139.163 897.896 139.163C898.124 139.163 898.455 139.084 898.889 138.926L899.1 140.842C898.526 141.088 897.875 141.211 897.149 141.211C896.703 141.211 896.302 141.138 895.945 140.991C895.587 140.839 895.324 140.646 895.154 140.411C894.99 140.171 894.875 139.849 894.811 139.444C894.758 139.157 894.732 138.577 894.732 137.704V133.635H893.598V131.666H894.732V129.812L897.21 128.37V131.666H898.898ZM902.976 141H900.506V131.666H902.8V132.993C903.193 132.366 903.544 131.953 903.855 131.754C904.171 131.555 904.529 131.455 904.927 131.455C905.49 131.455 906.032 131.61 906.553 131.921L905.788 134.074C905.372 133.805 904.986 133.67 904.628 133.67C904.283 133.67 903.99 133.767 903.749 133.96C903.509 134.147 903.319 134.49 903.178 134.988C903.043 135.486 902.976 136.529 902.976 138.117V141ZM913.769 141V139.603C913.429 140.101 912.981 140.493 912.424 140.78C911.873 141.067 911.29 141.211 910.675 141.211C910.048 141.211 909.486 141.073 908.988 140.798C908.49 140.522 908.129 140.136 907.907 139.638C907.684 139.14 907.573 138.451 907.573 137.572V131.666H910.042V135.955C910.042 137.268 910.086 138.073 910.174 138.372C910.268 138.665 910.435 138.899 910.675 139.075C910.915 139.245 911.22 139.33 911.589 139.33C912.011 139.33 912.389 139.216 912.723 138.987C913.057 138.753 913.285 138.466 913.409 138.126C913.532 137.78 913.593 136.939 913.593 135.604V131.666H916.063V141H913.769ZM910.359 144.524V142.055H912.828V144.524H910.359ZM926.768 134.426L924.333 134.865C924.251 134.379 924.064 134.013 923.771 133.767C923.484 133.521 923.109 133.397 922.646 133.397C922.031 133.397 921.538 133.611 921.169 134.039C920.806 134.461 920.624 135.17 920.624 136.166C920.624 137.273 920.809 138.056 921.178 138.513C921.553 138.97 922.054 139.198 922.681 139.198C923.15 139.198 923.534 139.066 923.832 138.803C924.131 138.533 924.342 138.073 924.465 137.423L926.891 137.836C926.639 138.949 926.156 139.79 925.441 140.358C924.726 140.927 923.768 141.211 922.567 141.211C921.202 141.211 920.112 140.78 919.297 139.919C918.489 139.058 918.084 137.865 918.084 136.342C918.084 134.801 918.492 133.603 919.306 132.747C920.12 131.886 921.222 131.455 922.611 131.455C923.747 131.455 924.65 131.701 925.318 132.193C925.992 132.68 926.475 133.424 926.768 134.426ZM936.119 128.115V132.853C936.916 131.921 937.868 131.455 938.976 131.455C939.544 131.455 940.057 131.561 940.514 131.771C940.971 131.982 941.314 132.252 941.542 132.58C941.777 132.908 941.935 133.271 942.017 133.67C942.105 134.068 942.149 134.687 942.149 135.524V141H939.679V136.069C939.679 135.091 939.632 134.47 939.538 134.206C939.445 133.942 939.278 133.734 939.037 133.582C938.803 133.424 938.507 133.345 938.15 133.345C937.74 133.345 937.373 133.444 937.051 133.644C936.729 133.843 936.492 134.145 936.339 134.549C936.193 134.947 936.119 135.539 936.119 136.324V141H933.65V128.115H936.119ZM944.091 136.201C944.091 135.381 944.293 134.587 944.698 133.819C945.102 133.052 945.673 132.466 946.411 132.062C947.156 131.657 947.985 131.455 948.899 131.455C950.311 131.455 951.468 131.915 952.37 132.835C953.273 133.749 953.724 134.906 953.724 136.307C953.724 137.719 953.267 138.891 952.353 139.822C951.445 140.748 950.299 141.211 948.916 141.211C948.061 141.211 947.243 141.018 946.464 140.631C945.691 140.244 945.102 139.679 944.698 138.935C944.293 138.185 944.091 137.273 944.091 136.201ZM946.622 136.333C946.622 137.259 946.842 137.968 947.282 138.46C947.721 138.952 948.263 139.198 948.908 139.198C949.552 139.198 950.091 138.952 950.525 138.46C950.964 137.968 951.184 137.253 951.184 136.315C951.184 135.401 950.964 134.698 950.525 134.206C950.091 133.714 949.552 133.468 948.908 133.468C948.263 133.468 947.721 133.714 947.282 134.206C946.842 134.698 946.622 135.407 946.622 136.333ZM957.512 134.514L955.271 134.109C955.523 133.207 955.956 132.539 956.572 132.105C957.187 131.672 958.101 131.455 959.314 131.455C960.415 131.455 961.236 131.587 961.775 131.851C962.314 132.108 962.692 132.439 962.909 132.844C963.131 133.242 963.243 133.978 963.243 135.05L963.216 137.933C963.216 138.753 963.254 139.359 963.33 139.752C963.412 140.139 963.562 140.555 963.779 141H961.335C961.271 140.836 961.192 140.593 961.098 140.271C961.057 140.124 961.028 140.027 961.01 139.98C960.588 140.391 960.137 140.698 959.657 140.903C959.176 141.108 958.663 141.211 958.118 141.211C957.158 141.211 956.399 140.95 955.842 140.429C955.291 139.907 955.016 139.248 955.016 138.451C955.016 137.924 955.142 137.455 955.394 137.045C955.646 136.629 955.997 136.312 956.449 136.096C956.906 135.873 957.562 135.68 958.417 135.516C959.572 135.299 960.371 135.097 960.817 134.909V134.663C960.817 134.188 960.7 133.852 960.465 133.652C960.231 133.447 959.788 133.345 959.138 133.345C958.699 133.345 958.356 133.433 958.11 133.608C957.864 133.778 957.664 134.08 957.512 134.514ZM960.817 136.518C960.5 136.623 959.999 136.749 959.314 136.896C958.628 137.042 958.18 137.186 957.969 137.326C957.647 137.555 957.486 137.845 957.486 138.196C957.486 138.542 957.615 138.841 957.872 139.093C958.13 139.345 958.458 139.471 958.857 139.471C959.302 139.471 959.727 139.324 960.131 139.031C960.43 138.809 960.626 138.536 960.72 138.214C960.785 138.003 960.817 137.602 960.817 137.01V136.518ZM960.641 130.523H959.085L956.66 127.896H959.428L960.641 130.523ZM974.176 141H971.706V136.236C971.706 135.229 971.654 134.578 971.548 134.285C971.443 133.986 971.27 133.755 971.03 133.591C970.795 133.427 970.511 133.345 970.177 133.345C969.749 133.345 969.366 133.462 969.026 133.696C968.686 133.931 968.452 134.241 968.323 134.628C968.2 135.015 968.138 135.729 968.138 136.772V141H965.668V131.666H967.962V133.037C968.777 131.982 969.802 131.455 971.038 131.455C971.583 131.455 972.081 131.555 972.533 131.754C972.984 131.947 973.324 132.196 973.552 132.501C973.786 132.806 973.948 133.151 974.035 133.538C974.129 133.925 974.176 134.479 974.176 135.199V141ZM979.151 128.115V132.853C979.948 131.921 980.9 131.455 982.007 131.455C982.576 131.455 983.088 131.561 983.545 131.771C984.002 131.982 984.345 132.252 984.574 132.58C984.808 132.908 984.966 133.271 985.048 133.67C985.136 134.068 985.18 134.687 985.18 135.524V141H982.71V136.069C982.71 135.091 982.663 134.47 982.57 134.206C982.476 133.942 982.309 133.734 982.069 133.582C981.834 133.424 981.538 133.345 981.181 133.345C980.771 133.345 980.405 133.444 980.082 133.644C979.76 133.843 979.523 134.145 979.37 134.549C979.224 134.947 979.151 135.539 979.151 136.324V141H976.681V128.115H979.151ZM992.703 141V128.115H995.173V141H992.703ZM999.559 134.514L997.318 134.109C997.57 133.207 998.003 132.539 998.618 132.105C999.234 131.672 1000.15 131.455 1001.36 131.455C1002.46 131.455 1003.28 131.587 1003.82 131.851C1004.36 132.108 1004.74 132.439 1004.96 132.844C1005.18 133.242 1005.29 133.978 1005.29 135.05L1005.26 137.933C1005.26 138.753 1005.3 139.359 1005.38 139.752C1005.46 140.139 1005.61 140.555 1005.83 141H1003.38C1003.32 140.836 1003.24 140.593 1003.14 140.271C1003.1 140.124 1003.07 140.027 1003.06 139.98C1002.64 140.391 1002.18 140.698 1001.7 140.903C1001.22 141.108 1000.71 141.211 1000.17 141.211C999.204 141.211 998.446 140.95 997.889 140.429C997.338 139.907 997.063 139.248 997.063 138.451C997.063 137.924 997.189 137.455 997.441 137.045C997.693 136.629 998.044 136.312 998.495 136.096C998.952 135.873 999.609 135.68 1000.46 135.516C1001.62 135.299 1002.42 135.097 1002.86 134.909V134.663C1002.86 134.188 1002.75 133.852 1002.51 133.652C1002.28 133.447 1001.84 133.345 1001.18 133.345C1000.75 133.345 1000.4 133.433 1000.16 133.608C999.91 133.778 999.711 134.08 999.559 134.514ZM1002.86 136.518C1002.55 136.623 1002.05 136.749 1001.36 136.896C1000.68 137.042 1000.23 137.186 1000.02 137.326C999.694 137.555 999.533 137.845 999.533 138.196C999.533 138.542 999.661 138.841 999.919 139.093C1000.18 139.345 1000.51 139.471 1000.9 139.471C1001.35 139.471 1001.77 139.324 1002.18 139.031C1002.48 138.809 1002.67 138.536 1002.77 138.214C1002.83 138.003 1002.86 137.602 1002.86 137.01V136.518ZM1002.69 130.523H1001.13L998.706 127.896H1001.47L1002.69 130.523ZM1012.51 141.615L1015.34 141.958C1015.38 142.286 1015.49 142.512 1015.66 142.635C1015.89 142.811 1016.26 142.898 1016.77 142.898C1017.41 142.898 1017.9 142.802 1018.22 142.608C1018.43 142.479 1018.6 142.271 1018.71 141.984C1018.79 141.779 1018.82 141.401 1018.82 140.851V139.488C1018.09 140.496 1017.15 141 1016.03 141C1014.78 141 1013.78 140.47 1013.05 139.409C1012.48 138.571 1012.19 137.528 1012.19 136.28C1012.19 134.716 1012.56 133.521 1013.31 132.694C1014.07 131.868 1015.01 131.455 1016.13 131.455C1017.28 131.455 1018.23 131.962 1018.98 132.976V131.666H1021.29V140.042C1021.29 141.144 1021.2 141.967 1021.02 142.512C1020.84 143.057 1020.59 143.484 1020.26 143.795C1019.93 144.105 1019.49 144.349 1018.94 144.524C1018.39 144.7 1017.7 144.788 1016.86 144.788C1015.28 144.788 1014.16 144.516 1013.5 143.971C1012.84 143.432 1012.51 142.746 1012.51 141.914C1012.51 141.832 1012.51 141.732 1012.51 141.615ZM1014.72 136.14C1014.72 137.13 1014.91 137.856 1015.29 138.319C1015.68 138.776 1016.15 139.005 1016.72 139.005C1017.32 139.005 1017.83 138.771 1018.24 138.302C1018.66 137.827 1018.87 137.127 1018.87 136.201C1018.87 135.234 1018.67 134.517 1018.27 134.048C1017.87 133.579 1017.37 133.345 1016.76 133.345C1016.17 133.345 1015.68 133.576 1015.29 134.039C1014.91 134.496 1014.72 135.196 1014.72 136.14ZM1023.75 130.4V128.115H1026.22V130.4H1023.75ZM1023.75 141V131.666H1026.22V141H1023.75ZM1030.6 134.514L1028.36 134.109C1028.61 133.207 1029.05 132.539 1029.66 132.105C1030.28 131.672 1031.19 131.455 1032.4 131.455C1033.51 131.455 1034.33 131.587 1034.86 131.851C1035.4 132.108 1035.78 132.439 1036 132.844C1036.22 133.242 1036.33 133.978 1036.33 135.05L1036.31 137.933C1036.31 138.753 1036.34 139.359 1036.42 139.752C1036.5 140.139 1036.65 140.555 1036.87 141H1034.43C1034.36 140.836 1034.28 140.593 1034.19 140.271C1034.15 140.124 1034.12 140.027 1034.1 139.98C1033.68 140.391 1033.23 140.698 1032.75 140.903C1032.27 141.108 1031.75 141.211 1031.21 141.211C1030.25 141.211 1029.49 140.95 1028.93 140.429C1028.38 139.907 1028.11 139.248 1028.11 138.451C1028.11 137.924 1028.23 137.455 1028.48 137.045C1028.74 136.629 1029.09 136.312 1029.54 136.096C1030 135.873 1030.65 135.68 1031.51 135.516C1032.66 135.299 1033.46 135.097 1033.91 134.909V134.663C1033.91 134.188 1033.79 133.852 1033.56 133.652C1033.32 133.447 1032.88 133.345 1032.23 133.345C1031.79 133.345 1031.45 133.433 1031.2 133.608C1030.95 133.778 1030.75 134.08 1030.6 134.514ZM1033.91 136.518C1033.59 136.623 1033.09 136.749 1032.4 136.896C1031.72 137.042 1031.27 137.186 1031.06 137.326C1030.74 137.555 1030.58 137.845 1030.58 138.196C1030.58 138.542 1030.7 138.841 1030.96 139.093C1031.22 139.345 1031.55 139.471 1031.95 139.471C1032.39 139.471 1032.82 139.324 1033.22 139.031C1033.52 138.809 1033.72 138.536 1033.81 138.214C1033.87 138.003 1033.91 137.602 1033.91 137.01V136.518ZM1031.23 130.523L1032.45 127.896H1035.22L1032.8 130.523H1031.23Z" fill="white"/>
</svg>
