<svg width="1298" height="222" viewBox="0 0 1298 222" fill="none" xmlns="http://www.w3.org/2000/svg">
<rect x="0.5" y="0.5" width="1297" height="221" stroke="#4C566A"/>
<path d="M414.31 115.115H419.056C420.146 115.115 420.972 115.2 421.534 115.37C422.296 115.599 422.946 116.003 423.485 116.583C424.024 117.157 424.429 117.854 424.698 118.675C424.974 119.495 425.111 120.509 425.111 121.716C425.111 122.776 424.959 123.734 424.654 124.59C424.355 125.439 423.913 126.148 423.327 126.717C422.876 127.145 422.27 127.481 421.508 127.728C420.934 127.909 420.163 128 419.196 128H414.31V122.375H412.974V120.74H414.31V115.115ZM416.902 117.295V120.74H419.662V122.375H416.902V125.829H418.854C419.715 125.829 420.336 125.759 420.717 125.618C421.221 125.442 421.604 125.12 421.868 124.651C422.237 123.989 422.422 122.979 422.422 121.619C422.422 120.652 422.343 119.908 422.185 119.387C422.032 118.859 421.804 118.435 421.499 118.112C421.2 117.79 420.808 117.564 420.321 117.436C419.946 117.342 419.199 117.295 418.08 117.295H416.902ZM426.729 123.201C426.729 122.381 426.931 121.587 427.335 120.819C427.739 120.052 428.311 119.466 429.049 119.062C429.793 118.657 430.622 118.455 431.536 118.455C432.948 118.455 434.105 118.915 435.008 119.835C435.91 120.749 436.361 121.906 436.361 123.307C436.361 124.719 435.904 125.891 434.99 126.822C434.082 127.748 432.937 128.211 431.554 128.211C430.698 128.211 429.881 128.018 429.102 127.631C428.328 127.244 427.739 126.679 427.335 125.935C426.931 125.185 426.729 124.273 426.729 123.201ZM429.26 123.333C429.26 124.259 429.479 124.968 429.919 125.46C430.358 125.952 430.9 126.198 431.545 126.198C432.189 126.198 432.729 125.952 433.162 125.46C433.602 124.968 433.821 124.253 433.821 123.315C433.821 122.401 433.602 121.698 433.162 121.206C432.729 120.714 432.189 120.468 431.545 120.468C430.9 120.468 430.358 120.714 429.919 121.206C429.479 121.698 429.26 122.407 429.26 123.333ZM428.565 117.488L430.411 114.896H432.696L434.516 117.488H432.529L431.51 116.179L430.561 117.488H428.565ZM432.723 114.421H431.167L428.741 111.942H431.51L432.723 114.421ZM447.594 118.666V120.635H445.906V124.396C445.906 125.158 445.921 125.604 445.95 125.732C445.985 125.855 446.059 125.958 446.17 126.04C446.287 126.122 446.428 126.163 446.592 126.163C446.82 126.163 447.151 126.084 447.585 125.926L447.796 127.842C447.222 128.088 446.571 128.211 445.845 128.211C445.399 128.211 444.998 128.138 444.641 127.991C444.283 127.839 444.02 127.646 443.85 127.411C443.686 127.171 443.571 126.849 443.507 126.444C443.454 126.157 443.428 125.577 443.428 124.704V120.635H442.294V118.666H443.428V116.812L445.906 115.37V118.666H447.594ZM451.769 115.115V119.853C452.565 118.921 453.518 118.455 454.625 118.455C455.193 118.455 455.706 118.561 456.163 118.771C456.62 118.982 456.963 119.252 457.191 119.58C457.426 119.908 457.584 120.271 457.666 120.67C457.754 121.068 457.798 121.687 457.798 122.524V128H455.328V123.069C455.328 122.091 455.281 121.47 455.188 121.206C455.094 120.942 454.927 120.734 454.687 120.582C454.452 120.424 454.156 120.345 453.799 120.345C453.389 120.345 453.022 120.444 452.7 120.644C452.378 120.843 452.141 121.145 451.988 121.549C451.842 121.947 451.769 122.539 451.769 123.324V128H449.299V115.115H451.769ZM460.312 117.4V115.115H462.781V117.4H460.312ZM460.312 128V118.666H462.781V128H460.312ZM460.32 131.524V129.055H462.79V131.524H460.32ZM476.422 117.673H473.759V116.029H476.422V115.115H478.892V116.029H479.867V117.673H478.892V128H476.598V126.629C476.217 127.162 475.766 127.561 475.244 127.824C474.729 128.082 474.207 128.211 473.68 128.211C472.607 128.211 471.688 127.78 470.92 126.919C470.158 126.052 469.777 124.845 469.777 123.298C469.777 121.716 470.149 120.515 470.894 119.694C471.638 118.868 472.578 118.455 473.715 118.455C474.758 118.455 475.66 118.889 476.422 119.756V117.673ZM472.3 123.131C472.3 124.127 472.438 124.848 472.713 125.293C473.111 125.938 473.668 126.26 474.383 126.26C474.951 126.26 475.435 126.02 475.833 125.539C476.231 125.053 476.431 124.329 476.431 123.368C476.431 122.296 476.237 121.525 475.851 121.057C475.464 120.582 474.969 120.345 474.365 120.345C473.779 120.345 473.287 120.579 472.889 121.048C472.496 121.511 472.3 122.205 472.3 123.131ZM490.607 118.666H493.077V120.433C493.077 121.159 493.013 121.728 492.884 122.138C492.761 122.548 492.529 122.914 492.189 123.236C491.668 123.74 490.862 124.08 489.772 124.256V128H487.479V126.603C486.746 127.675 485.715 128.211 484.385 128.211C483.008 128.211 482.085 127.687 481.616 126.638C481.394 126.14 481.282 125.451 481.282 124.572V118.666H483.752V122.955C483.752 124.186 483.799 124.988 483.893 125.363C483.957 125.645 484.121 125.879 484.385 126.066C484.625 126.242 484.93 126.33 485.299 126.33C485.715 126.33 486.09 126.216 486.424 125.987C486.764 125.759 486.995 125.472 487.118 125.126C487.241 124.78 487.303 123.939 487.303 122.604V118.666H489.772V123.254C490.587 123.09 491.158 122.785 491.486 122.34C491.686 122.07 491.791 121.669 491.803 121.136H490.607V118.666ZM496.338 123.333C496.338 124.229 496.558 124.938 496.997 125.46C497.413 125.952 497.955 126.198 498.623 126.198C499.291 126.198 499.83 125.952 500.24 125.46C500.68 124.938 500.899 124.224 500.899 123.315C500.899 122.425 500.68 121.722 500.24 121.206C499.83 120.714 499.291 120.468 498.623 120.468C497.955 120.468 497.413 120.714 496.997 121.206C496.558 121.728 496.338 122.437 496.338 123.333ZM503.413 118.666H505.883V120.433C505.883 121.159 505.818 121.728 505.689 122.138C505.566 122.548 505.335 122.914 504.995 123.236C504.603 123.617 504.066 123.916 503.387 124.133C503.24 125.182 502.804 126.075 502.077 126.813C501.163 127.745 500.015 128.211 498.632 128.211C497.747 128.211 496.933 128.018 496.188 127.631C495.397 127.221 494.803 126.649 494.404 125.917C494.006 125.179 493.807 124.273 493.807 123.201C493.807 122.357 494.009 121.563 494.413 120.819C494.835 120.04 495.412 119.451 496.145 119.053C496.877 118.654 497.7 118.455 498.614 118.455C500.026 118.455 501.184 118.912 502.086 119.826C502.9 120.658 503.349 121.687 503.431 122.911C504.192 122.601 504.585 122.009 504.608 121.136H503.413V118.666ZM499.862 117.523H498.307L495.881 114.896H498.649L499.862 117.523ZM515.665 128H513.195V123.236C513.195 122.229 513.143 121.578 513.037 121.285C512.932 120.986 512.759 120.755 512.519 120.591C512.284 120.427 512 120.345 511.666 120.345C511.238 120.345 510.854 120.462 510.515 120.696C510.175 120.931 509.94 121.241 509.812 121.628C509.688 122.015 509.627 122.729 509.627 123.772V128H507.157V118.666H509.451V120.037C510.266 118.982 511.291 118.455 512.527 118.455C513.072 118.455 513.57 118.555 514.021 118.754C514.473 118.947 514.812 119.196 515.041 119.501C515.275 119.806 515.437 120.151 515.524 120.538C515.618 120.925 515.665 121.479 515.665 122.199V128ZM517.95 128.615L520.771 128.958C520.818 129.286 520.927 129.512 521.097 129.635C521.331 129.811 521.7 129.898 522.204 129.898C522.849 129.898 523.332 129.802 523.654 129.608C523.871 129.479 524.035 129.271 524.146 128.984C524.223 128.779 524.261 128.401 524.261 127.851V126.488C523.522 127.496 522.591 128 521.466 128C520.212 128 519.219 127.47 518.486 126.409C517.912 125.571 517.625 124.528 517.625 123.28C517.625 121.716 518 120.521 518.75 119.694C519.506 118.868 520.443 118.455 521.562 118.455C522.717 118.455 523.669 118.962 524.419 119.976V118.666H526.73V127.042C526.73 128.144 526.64 128.967 526.458 129.512C526.276 130.057 526.021 130.484 525.693 130.795C525.365 131.105 524.926 131.349 524.375 131.524C523.83 131.7 523.139 131.788 522.301 131.788C520.719 131.788 519.597 131.516 518.935 130.971C518.272 130.432 517.941 129.746 517.941 128.914C517.941 128.832 517.944 128.732 517.95 128.615ZM520.156 123.14C520.156 124.13 520.347 124.856 520.728 125.319C521.114 125.776 521.589 126.005 522.151 126.005C522.755 126.005 523.265 125.771 523.681 125.302C524.097 124.827 524.305 124.127 524.305 123.201C524.305 122.234 524.105 121.517 523.707 121.048C523.309 120.579 522.805 120.345 522.195 120.345C521.604 120.345 521.114 120.576 520.728 121.039C520.347 121.496 520.156 122.196 520.156 123.14ZM538.473 118.666V120.635H536.785V124.396C536.785 125.158 536.8 125.604 536.829 125.732C536.864 125.855 536.938 125.958 537.049 126.04C537.166 126.122 537.307 126.163 537.471 126.163C537.699 126.163 538.03 126.084 538.464 125.926L538.675 127.842C538.101 128.088 537.45 128.211 536.724 128.211C536.278 128.211 535.877 128.138 535.52 127.991C535.162 127.839 534.898 127.646 534.729 127.411C534.564 127.171 534.45 126.849 534.386 126.444C534.333 126.157 534.307 125.577 534.307 124.704V120.635H533.173V118.666H534.307V116.812L536.785 115.37V118.666H538.473ZM542.647 115.115V119.853C543.444 118.921 544.396 118.455 545.504 118.455C546.072 118.455 546.585 118.561 547.042 118.771C547.499 118.982 547.842 119.252 548.07 119.58C548.305 119.908 548.463 120.271 548.545 120.67C548.633 121.068 548.677 121.687 548.677 122.524V128H546.207V123.069C546.207 122.091 546.16 121.47 546.066 121.206C545.973 120.942 545.806 120.734 545.565 120.582C545.331 120.424 545.035 120.345 544.678 120.345C544.268 120.345 543.901 120.444 543.579 120.644C543.257 120.843 543.02 121.145 542.867 121.549C542.721 121.947 542.647 122.539 542.647 123.324V128H540.178V115.115H542.647ZM550.619 123.201C550.619 122.381 550.821 121.587 551.226 120.819C551.63 120.052 552.201 119.466 552.939 119.062C553.684 118.657 554.513 118.455 555.427 118.455C556.839 118.455 557.996 118.915 558.898 119.835C559.801 120.749 560.252 121.906 560.252 123.307C560.252 124.719 559.795 125.891 558.881 126.822C557.973 127.748 556.827 128.211 555.444 128.211C554.589 128.211 553.771 128.018 552.992 127.631C552.219 127.244 551.63 126.679 551.226 125.935C550.821 125.185 550.619 124.273 550.619 123.201ZM553.15 123.333C553.15 124.259 553.37 124.968 553.81 125.46C554.249 125.952 554.791 126.198 555.436 126.198C556.08 126.198 556.619 125.952 557.053 125.46C557.492 124.968 557.712 124.253 557.712 123.315C557.712 122.401 557.492 121.698 557.053 121.206C556.619 120.714 556.08 120.468 555.436 120.468C554.791 120.468 554.249 120.714 553.81 121.206C553.37 121.698 553.15 122.407 553.15 123.333ZM552.456 117.488L554.302 114.896H556.587L558.406 117.488H556.42L555.4 116.179L554.451 117.488H552.456ZM554.267 114.421L555.4 111.942H558.169L555.831 114.421H554.267ZM570.685 128H568.215V123.236C568.215 122.229 568.162 121.578 568.057 121.285C567.951 120.986 567.778 120.755 567.538 120.591C567.304 120.427 567.02 120.345 566.686 120.345C566.258 120.345 565.874 120.462 565.534 120.696C565.194 120.931 564.96 121.241 564.831 121.628C564.708 122.015 564.646 122.729 564.646 123.772V128H562.177V118.666H564.471V120.037C565.285 118.982 566.311 118.455 567.547 118.455C568.092 118.455 568.59 118.555 569.041 118.754C569.492 118.947 569.832 119.196 570.061 119.501C570.295 119.806 570.456 120.151 570.544 120.538C570.638 120.925 570.685 121.479 570.685 122.199V128ZM572.97 128.615L575.791 128.958C575.838 129.286 575.946 129.512 576.116 129.635C576.351 129.811 576.72 129.898 577.224 129.898C577.868 129.898 578.352 129.802 578.674 129.608C578.891 129.479 579.055 129.271 579.166 128.984C579.242 128.779 579.28 128.401 579.28 127.851V126.488C578.542 127.496 577.61 128 576.485 128C575.231 128 574.238 127.47 573.506 126.409C572.932 125.571 572.645 124.528 572.645 123.28C572.645 121.716 573.02 120.521 573.77 119.694C574.525 118.868 575.463 118.455 576.582 118.455C577.736 118.455 578.688 118.962 579.438 119.976V118.666H581.75V127.042C581.75 128.144 581.659 128.967 581.478 129.512C581.296 130.057 581.041 130.484 580.713 130.795C580.385 131.105 579.945 131.349 579.395 131.524C578.85 131.7 578.158 131.788 577.32 131.788C575.738 131.788 574.616 131.516 573.954 130.971C573.292 130.432 572.961 129.746 572.961 128.914C572.961 128.832 572.964 128.732 572.97 128.615ZM575.176 123.14C575.176 124.13 575.366 124.856 575.747 125.319C576.134 125.776 576.608 126.005 577.171 126.005C577.774 126.005 578.284 125.771 578.7 125.302C579.116 124.827 579.324 124.127 579.324 123.201C579.324 122.234 579.125 121.517 578.727 121.048C578.328 120.579 577.824 120.345 577.215 120.345C576.623 120.345 576.134 120.576 575.747 121.039C575.366 121.496 575.176 122.196 575.176 123.14ZM589.124 128V115.115H591.594V121.953L594.485 118.666H597.526L594.336 122.076L597.755 128H595.092L592.745 123.808L591.594 125.012V128H589.124ZM604.637 125.029L607.098 125.442C606.781 126.345 606.28 127.033 605.595 127.508C604.915 127.977 604.062 128.211 603.037 128.211C601.414 128.211 600.213 127.681 599.434 126.62C598.818 125.771 598.511 124.698 598.511 123.403C598.511 121.856 598.915 120.646 599.724 119.773C600.532 118.895 601.555 118.455 602.791 118.455C604.18 118.455 605.275 118.915 606.078 119.835C606.881 120.749 607.265 122.152 607.229 124.045H601.042C601.06 124.777 601.259 125.349 601.64 125.759C602.021 126.163 602.495 126.365 603.063 126.365C603.45 126.365 603.775 126.26 604.039 126.049C604.303 125.838 604.502 125.498 604.637 125.029ZM604.777 122.533C604.76 121.818 604.575 121.276 604.224 120.907C603.872 120.532 603.444 120.345 602.94 120.345C602.401 120.345 601.956 120.541 601.604 120.934C601.253 121.326 601.08 121.859 601.086 122.533H604.777ZM599.899 117.488L601.745 114.896H604.03L605.85 117.488H603.863L602.844 116.179L601.895 117.488H599.899ZM613.751 121.637C613.751 120.324 613.947 119.223 614.34 118.332C614.633 117.676 615.031 117.087 615.535 116.565C616.045 116.044 616.602 115.657 617.205 115.405C618.008 115.065 618.934 114.896 619.982 114.896C621.881 114.896 623.398 115.484 624.535 116.662C625.678 117.84 626.249 119.478 626.249 121.575C626.249 123.655 625.684 125.284 624.553 126.462C623.422 127.634 621.91 128.22 620.018 128.22C618.102 128.22 616.578 127.637 615.447 126.471C614.316 125.299 613.751 123.688 613.751 121.637ZM616.432 121.549C616.432 123.008 616.769 124.115 617.442 124.871C618.116 125.621 618.972 125.996 620.009 125.996C621.046 125.996 621.896 125.624 622.558 124.88C623.226 124.13 623.56 123.008 623.56 121.514C623.56 120.037 623.234 118.936 622.584 118.209C621.939 117.482 621.081 117.119 620.009 117.119C618.937 117.119 618.072 117.488 617.416 118.227C616.76 118.959 616.432 120.066 616.432 121.549ZM628.209 128V115.115H630.811V128H628.209ZM646.429 121.426L643.994 121.865C643.912 121.379 643.725 121.013 643.432 120.767C643.145 120.521 642.77 120.397 642.307 120.397C641.691 120.397 641.199 120.611 640.83 121.039C640.467 121.461 640.285 122.17 640.285 123.166C640.285 124.273 640.47 125.056 640.839 125.513C641.214 125.97 641.715 126.198 642.342 126.198C642.811 126.198 643.194 126.066 643.493 125.803C643.792 125.533 644.003 125.073 644.126 124.423L646.552 124.836C646.3 125.949 645.816 126.79 645.102 127.358C644.387 127.927 643.429 128.211 642.228 128.211C640.862 128.211 639.772 127.78 638.958 126.919C638.149 126.058 637.745 124.865 637.745 123.342C637.745 121.801 638.152 120.603 638.967 119.747C639.781 118.886 640.883 118.455 642.271 118.455C643.408 118.455 644.311 118.701 644.979 119.193C645.652 119.68 646.136 120.424 646.429 121.426ZM654.453 128V126.603C654.113 127.101 653.665 127.493 653.108 127.78C652.558 128.067 651.975 128.211 651.359 128.211C650.732 128.211 650.17 128.073 649.672 127.798C649.174 127.522 648.813 127.136 648.591 126.638C648.368 126.14 648.257 125.451 648.257 124.572V118.666H650.727V122.955C650.727 124.268 650.771 125.073 650.858 125.372C650.952 125.665 651.119 125.899 651.359 126.075C651.6 126.245 651.904 126.33 652.273 126.33C652.695 126.33 653.073 126.216 653.407 125.987C653.741 125.753 653.97 125.466 654.093 125.126C654.216 124.78 654.277 123.939 654.277 122.604V118.666H656.747V128H654.453ZM652.062 116.557C652.396 116.521 652.61 116.489 652.704 116.46C653.015 116.384 653.173 116.249 653.179 116.056C653.185 115.921 653.103 115.807 652.933 115.713C652.687 115.578 652.297 115.511 651.764 115.511C651.582 115.511 651.307 115.522 650.938 115.546L650.841 114.649C651.069 114.603 651.491 114.582 652.106 114.588C652.827 114.594 653.416 114.711 653.873 114.939C654.377 115.186 654.635 115.528 654.646 115.968C654.67 116.577 654.137 116.949 653.047 117.084V117.523H652.062V116.557ZM661.159 121.514L658.918 121.109C659.17 120.207 659.604 119.539 660.219 119.105C660.834 118.672 661.748 118.455 662.961 118.455C664.062 118.455 664.883 118.587 665.422 118.851C665.961 119.108 666.339 119.439 666.556 119.844C666.778 120.242 666.89 120.978 666.89 122.05L666.863 124.933C666.863 125.753 666.901 126.359 666.978 126.752C667.06 127.139 667.209 127.555 667.426 128H664.982C664.918 127.836 664.839 127.593 664.745 127.271C664.704 127.124 664.675 127.027 664.657 126.98C664.235 127.391 663.784 127.698 663.304 127.903C662.823 128.108 662.311 128.211 661.766 128.211C660.805 128.211 660.046 127.95 659.489 127.429C658.938 126.907 658.663 126.248 658.663 125.451C658.663 124.924 658.789 124.455 659.041 124.045C659.293 123.629 659.645 123.312 660.096 123.096C660.553 122.873 661.209 122.68 662.064 122.516C663.219 122.299 664.019 122.097 664.464 121.909V121.663C664.464 121.188 664.347 120.852 664.112 120.652C663.878 120.447 663.436 120.345 662.785 120.345C662.346 120.345 662.003 120.433 661.757 120.608C661.511 120.778 661.312 121.08 661.159 121.514ZM664.464 123.518C664.147 123.623 663.646 123.749 662.961 123.896C662.275 124.042 661.827 124.186 661.616 124.326C661.294 124.555 661.133 124.845 661.133 125.196C661.133 125.542 661.262 125.841 661.52 126.093C661.777 126.345 662.105 126.471 662.504 126.471C662.949 126.471 663.374 126.324 663.778 126.031C664.077 125.809 664.273 125.536 664.367 125.214C664.432 125.003 664.464 124.602 664.464 124.01V123.518ZM674.158 118.666H676.435V119.94C677.249 118.95 678.219 118.455 679.344 118.455C679.941 118.455 680.46 118.578 680.899 118.824C681.339 119.07 681.699 119.442 681.98 119.94C682.391 119.442 682.833 119.07 683.308 118.824C683.782 118.578 684.289 118.455 684.828 118.455C685.514 118.455 686.094 118.596 686.568 118.877C687.043 119.152 687.397 119.56 687.632 120.099C687.802 120.497 687.887 121.142 687.887 122.032V128H685.417V122.665C685.417 121.739 685.332 121.142 685.162 120.872C684.934 120.521 684.582 120.345 684.107 120.345C683.762 120.345 683.437 120.45 683.132 120.661C682.827 120.872 682.607 121.183 682.473 121.593C682.338 121.997 682.271 122.639 682.271 123.518V128H679.801V122.885C679.801 121.977 679.757 121.391 679.669 121.127C679.581 120.863 679.443 120.667 679.256 120.538C679.074 120.409 678.825 120.345 678.509 120.345C678.128 120.345 677.785 120.447 677.48 120.652C677.176 120.857 676.956 121.153 676.821 121.54C676.692 121.927 676.628 122.568 676.628 123.465V128H674.158V118.666ZM692.202 121.514L689.961 121.109C690.213 120.207 690.646 119.539 691.262 119.105C691.877 118.672 692.791 118.455 694.004 118.455C695.105 118.455 695.926 118.587 696.465 118.851C697.004 119.108 697.382 119.439 697.599 119.844C697.821 120.242 697.933 120.978 697.933 122.05L697.906 124.933C697.906 125.753 697.944 126.359 698.021 126.752C698.103 127.139 698.252 127.555 698.469 128H696.025C695.961 127.836 695.882 127.593 695.788 127.271C695.747 127.124 695.718 127.027 695.7 126.98C695.278 127.391 694.827 127.698 694.347 127.903C693.866 128.108 693.354 128.211 692.809 128.211C691.848 128.211 691.089 127.95 690.532 127.429C689.981 126.907 689.706 126.248 689.706 125.451C689.706 124.924 689.832 124.455 690.084 124.045C690.336 123.629 690.688 123.312 691.139 123.096C691.596 122.873 692.252 122.68 693.107 122.516C694.262 122.299 695.062 122.097 695.507 121.909V121.663C695.507 121.188 695.39 120.852 695.155 120.652C694.921 120.447 694.479 120.345 693.828 120.345C693.389 120.345 693.046 120.433 692.8 120.608C692.554 120.778 692.354 121.08 692.202 121.514ZM695.507 123.518C695.19 123.623 694.689 123.749 694.004 123.896C693.318 124.042 692.87 124.186 692.659 124.326C692.337 124.555 692.176 124.845 692.176 125.196C692.176 125.542 692.305 125.841 692.562 126.093C692.82 126.345 693.148 126.471 693.547 126.471C693.992 126.471 694.417 126.324 694.821 126.031C695.12 125.809 695.316 125.536 695.41 125.214C695.475 125.003 695.507 124.602 695.507 124.01V123.518ZM692.185 117.409H691.06C691.054 117.274 691.051 117.169 691.051 117.093C691.051 116.478 691.2 116.006 691.499 115.678C691.798 115.344 692.182 115.177 692.65 115.177C692.855 115.177 693.046 115.2 693.222 115.247C693.397 115.288 693.717 115.414 694.18 115.625C694.648 115.83 695.015 115.933 695.278 115.933C695.466 115.933 695.621 115.874 695.744 115.757C695.873 115.64 695.955 115.443 695.99 115.168H697.133C697.127 115.959 696.978 116.524 696.685 116.864C696.397 117.204 696.025 117.374 695.568 117.374C695.369 117.374 695.173 117.354 694.979 117.312C694.845 117.277 694.508 117.157 693.969 116.952C693.43 116.747 693.037 116.645 692.791 116.645C692.604 116.645 692.457 116.703 692.352 116.82C692.246 116.932 692.19 117.128 692.185 117.409ZM707.847 115.115V119.853C708.644 118.921 709.596 118.455 710.703 118.455C711.271 118.455 711.784 118.561 712.241 118.771C712.698 118.982 713.041 119.252 713.27 119.58C713.504 119.908 713.662 120.271 713.744 120.67C713.832 121.068 713.876 121.687 713.876 122.524V128H711.406V123.069C711.406 122.091 711.359 121.47 711.266 121.206C711.172 120.942 711.005 120.734 710.765 120.582C710.53 120.424 710.234 120.345 709.877 120.345C709.467 120.345 709.101 120.444 708.778 120.644C708.456 120.843 708.219 121.145 708.066 121.549C707.92 121.947 707.847 122.539 707.847 123.324V128H705.377V115.115H707.847ZM718.35 123.333C718.35 124.229 718.569 124.938 719.009 125.46C719.425 125.952 719.967 126.198 720.635 126.198C721.303 126.198 721.842 125.952 722.252 125.46C722.691 124.938 722.911 124.224 722.911 123.315C722.911 122.425 722.691 121.722 722.252 121.206C721.842 120.714 721.303 120.468 720.635 120.468C719.967 120.468 719.425 120.714 719.009 121.206C718.569 121.728 718.35 122.437 718.35 123.333ZM725.425 118.666H727.895V120.433C727.895 121.159 727.83 121.728 727.701 122.138C727.578 122.548 727.347 122.914 727.007 123.236C726.614 123.617 726.078 123.916 725.398 124.133C725.252 125.182 724.815 126.075 724.089 126.813C723.175 127.745 722.026 128.211 720.644 128.211C719.759 128.211 718.944 128.018 718.2 127.631C717.409 127.221 716.814 126.649 716.416 125.917C716.018 125.179 715.818 124.273 715.818 123.201C715.818 122.357 716.021 121.563 716.425 120.819C716.847 120.04 717.424 119.451 718.156 119.053C718.889 118.654 719.712 118.455 720.626 118.455C722.038 118.455 723.195 118.912 724.098 119.826C724.912 120.658 725.36 121.687 725.442 122.911C726.204 122.601 726.597 122.009 726.62 121.136H725.425V118.666ZM719.299 131.524V129.055H721.769V131.524H719.299ZM729.116 118.666H731.419V120.037C731.718 119.568 732.122 119.188 732.632 118.895C733.142 118.602 733.707 118.455 734.328 118.455C735.412 118.455 736.332 118.88 737.088 119.729C737.844 120.579 738.222 121.763 738.222 123.28C738.222 124.839 737.841 126.052 737.079 126.919C736.317 127.78 735.395 128.211 734.311 128.211C733.795 128.211 733.326 128.108 732.904 127.903C732.488 127.698 732.049 127.347 731.586 126.849V131.551H729.116V118.666ZM731.56 123.175C731.56 124.224 731.768 125 732.184 125.504C732.6 126.002 733.106 126.251 733.704 126.251C734.278 126.251 734.756 126.022 735.137 125.565C735.518 125.103 735.708 124.347 735.708 123.298C735.708 122.319 735.512 121.593 735.119 121.118C734.727 120.644 734.24 120.406 733.66 120.406C733.057 120.406 732.556 120.641 732.157 121.109C731.759 121.572 731.56 122.261 731.56 123.175ZM751.291 117.673H748.628V116.029H751.291V115.115H753.761V116.029H754.736V117.673H753.761V128H751.467V126.629C751.086 127.162 750.635 127.561 750.113 127.824C749.598 128.082 749.076 128.211 748.549 128.211C747.477 128.211 746.557 127.78 745.789 126.919C745.027 126.052 744.646 124.845 744.646 123.298C744.646 121.716 745.019 120.515 745.763 119.694C746.507 118.868 747.447 118.455 748.584 118.455C749.627 118.455 750.529 118.889 751.291 119.756V117.673ZM747.169 123.131C747.169 124.127 747.307 124.848 747.582 125.293C747.98 125.938 748.537 126.26 749.252 126.26C749.82 126.26 750.304 126.02 750.702 125.539C751.101 125.053 751.3 124.329 751.3 123.368C751.3 122.296 751.106 121.525 750.72 121.057C750.333 120.582 749.838 120.345 749.234 120.345C748.648 120.345 748.156 120.579 747.758 121.048C747.365 121.511 747.169 122.205 747.169 123.131ZM755.633 123.201C755.633 122.381 755.835 121.587 756.239 120.819C756.644 120.052 757.215 119.466 757.953 119.062C758.697 118.657 759.526 118.455 760.44 118.455C761.853 118.455 763.01 118.915 763.912 119.835C764.814 120.749 765.266 121.906 765.266 123.307C765.266 124.719 764.809 125.891 763.895 126.822C762.986 127.748 761.841 128.211 760.458 128.211C759.603 128.211 758.785 128.018 758.006 127.631C757.232 127.244 756.644 126.679 756.239 125.935C755.835 125.185 755.633 124.273 755.633 123.201ZM758.164 123.333C758.164 124.259 758.384 124.968 758.823 125.46C759.263 125.952 759.805 126.198 760.449 126.198C761.094 126.198 761.633 125.952 762.066 125.46C762.506 124.968 762.726 124.253 762.726 123.315C762.726 122.401 762.506 121.698 762.066 121.206C761.633 120.714 761.094 120.468 760.449 120.468C759.805 120.468 759.263 120.714 758.823 121.206C758.384 121.698 758.164 122.407 758.164 123.333ZM757.47 117.488L759.315 114.896H761.601L763.42 117.488H761.434L760.414 116.179L759.465 117.488H757.47ZM761.627 114.421H760.071L757.646 111.942H760.414L761.627 114.421ZM775.698 128H773.229V123.236C773.229 122.229 773.176 121.578 773.07 121.285C772.965 120.986 772.792 120.755 772.552 120.591C772.317 120.427 772.033 120.345 771.699 120.345C771.271 120.345 770.888 120.462 770.548 120.696C770.208 120.931 769.974 121.241 769.845 121.628C769.722 122.015 769.66 122.729 769.66 123.772V128H767.19V118.666H769.484V120.037C770.299 118.982 771.324 118.455 772.561 118.455C773.105 118.455 773.604 118.555 774.055 118.754C774.506 118.947 774.846 119.196 775.074 119.501C775.309 119.806 775.47 120.151 775.558 120.538C775.651 120.925 775.698 121.479 775.698 122.199V128ZM777.983 128.615L780.805 128.958C780.852 129.286 780.96 129.512 781.13 129.635C781.364 129.811 781.733 129.898 782.237 129.898C782.882 129.898 783.365 129.802 783.688 129.608C783.904 129.479 784.068 129.271 784.18 128.984C784.256 128.779 784.294 128.401 784.294 127.851V126.488C783.556 127.496 782.624 128 781.499 128C780.245 128 779.252 127.47 778.52 126.409C777.945 125.571 777.658 124.528 777.658 123.28C777.658 121.716 778.033 120.521 778.783 119.694C779.539 118.868 780.477 118.455 781.596 118.455C782.75 118.455 783.702 118.962 784.452 119.976V118.666H786.764V127.042C786.764 128.144 786.673 128.967 786.491 129.512C786.31 130.057 786.055 130.484 785.727 130.795C785.398 131.105 784.959 131.349 784.408 131.524C783.863 131.7 783.172 131.788 782.334 131.788C780.752 131.788 779.63 131.516 778.968 130.971C778.306 130.432 777.975 129.746 777.975 128.914C777.975 128.832 777.978 128.732 777.983 128.615ZM780.189 123.14C780.189 124.13 780.38 124.856 780.761 125.319C781.147 125.776 781.622 126.005 782.185 126.005C782.788 126.005 783.298 125.771 783.714 125.302C784.13 124.827 784.338 124.127 784.338 123.201C784.338 122.234 784.139 121.517 783.74 121.048C783.342 120.579 782.838 120.345 782.229 120.345C781.637 120.345 781.147 120.576 780.761 121.039C780.38 121.496 780.189 122.196 780.189 123.14ZM794.138 128V115.115H796.607V121.953L799.499 118.666H802.54L799.35 122.076L802.769 128H800.105L797.759 123.808L796.607 125.012V128H794.138ZM809.65 125.029L812.111 125.442C811.795 126.345 811.294 127.033 810.608 127.508C809.929 127.977 809.076 128.211 808.051 128.211C806.428 128.211 805.227 127.681 804.447 126.62C803.832 125.771 803.524 124.698 803.524 123.403C803.524 121.856 803.929 120.646 804.737 119.773C805.546 118.895 806.568 118.455 807.805 118.455C809.193 118.455 810.289 118.915 811.092 119.835C811.895 120.749 812.278 122.152 812.243 124.045H806.056C806.073 124.777 806.272 125.349 806.653 125.759C807.034 126.163 807.509 126.365 808.077 126.365C808.464 126.365 808.789 126.26 809.053 126.049C809.316 125.838 809.516 125.498 809.65 125.029ZM809.791 122.533C809.773 121.818 809.589 121.276 809.237 120.907C808.886 120.532 808.458 120.345 807.954 120.345C807.415 120.345 806.97 120.541 806.618 120.934C806.267 121.326 806.094 121.859 806.1 122.533H809.791ZM804.913 117.488L806.759 114.896H809.044L810.863 117.488H808.877L807.857 116.179L806.908 117.488H804.913ZM807.365 113.674C807.699 113.639 807.913 113.606 808.007 113.577C808.317 113.501 808.476 113.366 808.481 113.173C808.487 113.038 808.405 112.924 808.235 112.83C807.989 112.695 807.6 112.628 807.066 112.628C806.885 112.628 806.609 112.64 806.24 112.663L806.144 111.767C806.372 111.72 806.794 111.699 807.409 111.705C808.13 111.711 808.719 111.828 809.176 112.057C809.68 112.303 809.938 112.646 809.949 113.085C809.973 113.694 809.439 114.066 808.35 114.201V114.641H807.365V113.674ZM823.555 118.666V120.635H821.867V124.396C821.867 125.158 821.882 125.604 821.911 125.732C821.946 125.855 822.02 125.958 822.131 126.04C822.248 126.122 822.389 126.163 822.553 126.163C822.781 126.163 823.112 126.084 823.546 125.926L823.757 127.842C823.183 128.088 822.532 128.211 821.806 128.211C821.36 128.211 820.959 128.138 820.602 127.991C820.244 127.839 819.98 127.646 819.811 127.411C819.646 127.171 819.532 126.849 819.468 126.444C819.415 126.157 819.389 125.577 819.389 124.704V120.635H818.255V118.666H819.389V116.812L821.867 115.37V118.666H823.555ZM834.541 118.666H837.011V120.433C837.011 121.159 836.946 121.728 836.817 122.138C836.694 122.548 836.463 122.914 836.123 123.236C835.602 123.74 834.796 124.08 833.706 124.256V128H831.412V126.603C830.68 127.675 829.648 128.211 828.318 128.211C826.941 128.211 826.019 127.687 825.55 126.638C825.327 126.14 825.216 125.451 825.216 124.572V118.666H827.686V122.955C827.686 124.186 827.732 124.988 827.826 125.363C827.891 125.645 828.055 125.879 828.318 126.066C828.559 126.242 828.863 126.33 829.232 126.33C829.648 126.33 830.023 126.216 830.357 125.987C830.697 125.759 830.929 125.472 831.052 125.126C831.175 124.78 831.236 123.939 831.236 122.604V118.666H833.706V123.254C834.521 123.09 835.092 122.785 835.42 122.34C835.619 122.07 835.725 121.669 835.736 121.136H834.541V118.666ZM830.709 117.523H829.153L826.728 114.896H829.496L830.709 117.523ZM843.233 128V115.115H845.703V121.953L848.595 118.666H851.636L848.445 122.076L851.864 128H849.201L846.854 123.808L845.703 125.012V128H843.233ZM855.802 115.115V119.853C856.599 118.921 857.551 118.455 858.658 118.455C859.227 118.455 859.739 118.561 860.196 118.771C860.653 118.982 860.996 119.252 861.225 119.58C861.459 119.908 861.617 120.271 861.699 120.67C861.787 121.068 861.831 121.687 861.831 122.524V128H859.361V123.069C859.361 122.091 859.314 121.47 859.221 121.206C859.127 120.942 858.96 120.734 858.72 120.582C858.485 120.424 858.189 120.345 857.832 120.345C857.422 120.345 857.056 120.444 856.733 120.644C856.411 120.843 856.174 121.145 856.021 121.549C855.875 121.947 855.802 122.539 855.802 123.324V128H853.332V115.115H855.802ZM864.345 117.4V115.115H866.814V117.4H864.345ZM864.345 128V118.666H866.814V128H864.345ZM876.825 115.115V119.853C877.622 118.921 878.574 118.455 879.682 118.455C880.25 118.455 880.763 118.561 881.22 118.771C881.677 118.982 882.02 119.252 882.248 119.58C882.482 119.908 882.641 120.271 882.723 120.67C882.811 121.068 882.854 121.687 882.854 122.524V128H880.385V123.069C880.385 122.091 880.338 121.47 880.244 121.206C880.15 120.942 879.983 120.734 879.743 120.582C879.509 120.424 879.213 120.345 878.855 120.345C878.445 120.345 878.079 120.444 877.757 120.644C877.435 120.843 877.197 121.145 877.045 121.549C876.898 121.947 876.825 122.539 876.825 123.324V128H874.355V115.115H876.825ZM885.368 128V118.666H887.838V128H885.368ZM887.855 117.523H886.3L883.874 114.896H886.643L887.855 117.523ZM898.868 128H896.398V123.236C896.398 122.229 896.346 121.578 896.24 121.285C896.135 120.986 895.962 120.755 895.722 120.591C895.487 120.427 895.203 120.345 894.869 120.345C894.441 120.345 894.058 120.462 893.718 120.696C893.378 120.931 893.144 121.241 893.015 121.628C892.892 122.015 892.83 122.729 892.83 123.772V128H890.36V118.666H892.654V120.037C893.469 118.982 894.494 118.455 895.73 118.455C896.275 118.455 896.773 118.555 897.225 118.754C897.676 118.947 898.016 119.196 898.244 119.501C898.479 119.806 898.64 120.151 898.728 120.538C898.821 120.925 898.868 121.479 898.868 122.199V128ZM903.843 115.115V119.853C904.64 118.921 905.592 118.455 906.699 118.455C907.268 118.455 907.78 118.561 908.237 118.771C908.694 118.982 909.037 119.252 909.266 119.58C909.5 119.908 909.658 120.271 909.74 120.67C909.828 121.068 909.872 121.687 909.872 122.524V128H907.402V123.069C907.402 122.091 907.355 121.47 907.262 121.206C907.168 120.942 907.001 120.734 906.761 120.582C906.526 120.424 906.23 120.345 905.873 120.345C905.463 120.345 905.097 120.444 904.774 120.644C904.452 120.843 904.215 121.145 904.062 121.549C903.916 121.947 903.843 122.539 903.843 123.324V128H901.373V115.115H903.843ZM921.676 118.666V120.635H919.988V124.396C919.988 125.158 920.003 125.604 920.032 125.732C920.067 125.855 920.141 125.958 920.252 126.04C920.369 126.122 920.51 126.163 920.674 126.163C920.902 126.163 921.233 126.084 921.667 125.926L921.878 127.842C921.304 128.088 920.653 128.211 919.927 128.211C919.481 128.211 919.08 128.138 918.723 127.991C918.365 127.839 918.102 127.646 917.932 127.411C917.768 127.171 917.653 126.849 917.589 126.444C917.536 126.157 917.51 125.577 917.51 124.704V120.635H916.376V118.666H917.51V116.812L919.988 115.37V118.666H921.676ZM925.851 115.115V119.853C926.647 118.921 927.6 118.455 928.707 118.455C929.275 118.455 929.788 118.561 930.245 118.771C930.702 118.982 931.045 119.252 931.273 119.58C931.508 119.908 931.666 120.271 931.748 120.67C931.836 121.068 931.88 121.687 931.88 122.524V128H929.41V123.069C929.41 122.091 929.363 121.47 929.27 121.206C929.176 120.942 929.009 120.734 928.769 120.582C928.534 120.424 928.238 120.345 927.881 120.345C927.471 120.345 927.104 120.444 926.782 120.644C926.46 120.843 926.223 121.145 926.07 121.549C925.924 121.947 925.851 122.539 925.851 123.324V128H923.381V115.115H925.851ZM936.239 121.514L933.998 121.109C934.25 120.207 934.684 119.539 935.299 119.105C935.914 118.672 936.828 118.455 938.041 118.455C939.143 118.455 939.963 118.587 940.502 118.851C941.041 119.108 941.419 119.439 941.636 119.844C941.858 120.242 941.97 120.978 941.97 122.05L941.943 124.933C941.943 125.753 941.981 126.359 942.058 126.752C942.14 127.139 942.289 127.555 942.506 128H940.062C939.998 127.836 939.919 127.593 939.825 127.271C939.784 127.124 939.755 127.027 939.737 126.98C939.315 127.391 938.864 127.698 938.384 127.903C937.903 128.108 937.391 128.211 936.846 128.211C935.885 128.211 935.126 127.95 934.569 127.429C934.019 126.907 933.743 126.248 933.743 125.451C933.743 124.924 933.869 124.455 934.121 124.045C934.373 123.629 934.725 123.312 935.176 123.096C935.633 122.873 936.289 122.68 937.145 122.516C938.299 122.299 939.099 122.097 939.544 121.909V121.663C939.544 121.188 939.427 120.852 939.192 120.652C938.958 120.447 938.516 120.345 937.865 120.345C937.426 120.345 937.083 120.433 936.837 120.608C936.591 120.778 936.392 121.08 936.239 121.514ZM939.544 123.518C939.228 123.623 938.727 123.749 938.041 123.896C937.355 124.042 936.907 124.186 936.696 124.326C936.374 124.555 936.213 124.845 936.213 125.196C936.213 125.542 936.342 125.841 936.6 126.093C936.857 126.345 937.186 126.471 937.584 126.471C938.029 126.471 938.454 126.324 938.858 126.031C939.157 125.809 939.354 125.536 939.447 125.214C939.512 125.003 939.544 124.602 939.544 124.01V123.518ZM939.368 117.523H937.812L935.387 114.896H938.155L939.368 117.523ZM952.903 128H950.434V123.236C950.434 122.229 950.381 121.578 950.275 121.285C950.17 120.986 949.997 120.755 949.757 120.591C949.522 120.427 949.238 120.345 948.904 120.345C948.477 120.345 948.093 120.462 947.753 120.696C947.413 120.931 947.179 121.241 947.05 121.628C946.927 122.015 946.865 122.729 946.865 123.772V128H944.396V118.666H946.689V120.037C947.504 118.982 948.529 118.455 949.766 118.455C950.311 118.455 950.809 118.555 951.26 118.754C951.711 118.947 952.051 119.196 952.279 119.501C952.514 119.806 952.675 120.151 952.763 120.538C952.856 120.925 952.903 121.479 952.903 122.199V128ZM957.878 115.115V119.853C958.675 118.921 959.627 118.455 960.734 118.455C961.303 118.455 961.815 118.561 962.272 118.771C962.729 118.982 963.072 119.252 963.301 119.58C963.535 119.908 963.693 120.271 963.775 120.67C963.863 121.068 963.907 121.687 963.907 122.524V128H961.438V123.069C961.438 122.091 961.391 121.47 961.297 121.206C961.203 120.942 961.036 120.734 960.796 120.582C960.562 120.424 960.266 120.345 959.908 120.345C959.498 120.345 959.132 120.444 958.81 120.644C958.487 120.843 958.25 121.145 958.098 121.549C957.951 121.947 957.878 122.539 957.878 123.324V128H955.408V115.115H957.878ZM966.421 128V125.53H968.891V128H966.421Z" fill="white"/>
</svg>
