<svg width="1298" height="222" viewBox="0 0 1298 222" fill="none" xmlns="http://www.w3.org/2000/svg">
<rect x="0.5" y="0.5" width="1297" height="221" stroke="#4C566A"/>
<path d="M259.31 104.115H264.056C265.146 104.115 265.972 104.2 266.534 104.37C267.296 104.599 267.946 105.003 268.485 105.583C269.024 106.157 269.429 106.854 269.698 107.675C269.974 108.495 270.111 109.509 270.111 110.716C270.111 111.776 269.959 112.734 269.654 113.59C269.355 114.439 268.913 115.148 268.327 115.717C267.876 116.145 267.27 116.481 266.508 116.728C265.934 116.909 265.163 117 264.196 117H259.31V111.375H257.974V109.74H259.31V104.115ZM261.902 106.295V109.74H264.662V111.375H261.902V114.829H263.854C264.715 114.829 265.336 114.759 265.717 114.618C266.221 114.442 266.604 114.12 266.868 113.651C267.237 112.989 267.422 111.979 267.422 110.619C267.422 109.652 267.343 108.908 267.185 108.387C267.032 107.859 266.804 107.435 266.499 107.112C266.2 106.79 265.808 106.564 265.321 106.436C264.946 106.342 264.199 106.295 263.08 106.295H261.902ZM271.729 112.201C271.729 111.381 271.931 110.587 272.335 109.819C272.739 109.052 273.311 108.466 274.049 108.062C274.793 107.657 275.622 107.455 276.536 107.455C277.948 107.455 279.105 107.915 280.008 108.835C280.91 109.749 281.361 110.906 281.361 112.307C281.361 113.719 280.904 114.891 279.99 115.822C279.082 116.748 277.937 117.211 276.554 117.211C275.698 117.211 274.881 117.018 274.102 116.631C273.328 116.244 272.739 115.679 272.335 114.935C271.931 114.185 271.729 113.273 271.729 112.201ZM274.26 112.333C274.26 113.259 274.479 113.968 274.919 114.46C275.358 114.952 275.9 115.198 276.545 115.198C277.189 115.198 277.729 114.952 278.162 114.46C278.602 113.968 278.821 113.253 278.821 112.315C278.821 111.401 278.602 110.698 278.162 110.206C277.729 109.714 277.189 109.468 276.545 109.468C275.9 109.468 275.358 109.714 274.919 110.206C274.479 110.698 274.26 111.407 274.26 112.333ZM273.565 106.488L275.411 103.896H277.696L279.516 106.488H277.529L276.51 105.179L275.561 106.488H273.565ZM277.723 103.421H276.167L273.741 100.942H276.51L277.723 103.421ZM292.594 107.666V109.635H290.906V113.396C290.906 114.158 290.921 114.604 290.95 114.732C290.985 114.855 291.059 114.958 291.17 115.04C291.287 115.122 291.428 115.163 291.592 115.163C291.82 115.163 292.151 115.084 292.585 114.926L292.796 116.842C292.222 117.088 291.571 117.211 290.845 117.211C290.399 117.211 289.998 117.138 289.641 116.991C289.283 116.839 289.02 116.646 288.85 116.411C288.686 116.171 288.571 115.849 288.507 115.444C288.454 115.157 288.428 114.577 288.428 113.704V109.635H287.294V107.666H288.428V105.812L290.906 104.37V107.666H292.594ZM296.769 104.115V108.853C297.565 107.921 298.518 107.455 299.625 107.455C300.193 107.455 300.706 107.561 301.163 107.771C301.62 107.982 301.963 108.252 302.191 108.58C302.426 108.908 302.584 109.271 302.666 109.67C302.754 110.068 302.798 110.687 302.798 111.524V117H300.328V112.069C300.328 111.091 300.281 110.47 300.188 110.206C300.094 109.942 299.927 109.734 299.687 109.582C299.452 109.424 299.156 109.345 298.799 109.345C298.389 109.345 298.022 109.444 297.7 109.644C297.378 109.843 297.141 110.145 296.988 110.549C296.842 110.947 296.769 111.539 296.769 112.324V117H294.299V104.115H296.769ZM305.312 106.4V104.115H307.781V106.4H305.312ZM305.312 117V107.666H307.781V117H305.312ZM305.32 120.524V118.055H307.79V120.524H305.32ZM317.792 104.115V108.853C318.589 107.921 319.541 107.455 320.648 107.455C321.217 107.455 321.729 107.561 322.187 107.771C322.644 107.982 322.986 108.252 323.215 108.58C323.449 108.908 323.607 109.271 323.689 109.67C323.777 110.068 323.821 110.687 323.821 111.524V117H321.352V112.069C321.352 111.091 321.305 110.47 321.211 110.206C321.117 109.942 320.95 109.734 320.71 109.582C320.476 109.424 320.18 109.345 319.822 109.345C319.412 109.345 319.046 109.444 318.724 109.644C318.401 109.843 318.164 110.145 318.012 110.549C317.865 110.947 317.792 111.539 317.792 112.324V117H315.322V104.115H317.792ZM326.335 106.4V104.115H328.805V106.4H326.335ZM326.335 117V107.666H328.805V117H326.335ZM330.475 114.337L332.953 113.959C333.059 114.439 333.272 114.806 333.595 115.058C333.917 115.304 334.368 115.427 334.948 115.427C335.587 115.427 336.067 115.31 336.39 115.075C336.606 114.911 336.715 114.691 336.715 114.416C336.715 114.229 336.656 114.073 336.539 113.95C336.416 113.833 336.141 113.725 335.713 113.625C333.721 113.186 332.458 112.784 331.925 112.421C331.187 111.917 330.817 111.217 330.817 110.32C330.817 109.512 331.137 108.832 331.775 108.281C332.414 107.73 333.404 107.455 334.746 107.455C336.023 107.455 336.973 107.663 337.594 108.079C338.215 108.495 338.643 109.11 338.877 109.925L336.548 110.355C336.448 109.992 336.258 109.714 335.977 109.521C335.701 109.327 335.306 109.23 334.79 109.23C334.14 109.23 333.674 109.321 333.393 109.503C333.205 109.632 333.111 109.799 333.111 110.004C333.111 110.18 333.193 110.329 333.357 110.452C333.58 110.616 334.348 110.848 335.66 111.146C336.979 111.445 337.898 111.812 338.42 112.245C338.936 112.685 339.193 113.297 339.193 114.082C339.193 114.938 338.836 115.673 338.121 116.288C337.406 116.903 336.349 117.211 334.948 117.211C333.677 117.211 332.669 116.953 331.925 116.438C331.187 115.922 330.703 115.222 330.475 114.337ZM345.645 107.666V109.635H343.957V113.396C343.957 114.158 343.972 114.604 344.001 114.732C344.036 114.855 344.109 114.958 344.221 115.04C344.338 115.122 344.479 115.163 344.643 115.163C344.871 115.163 345.202 115.084 345.636 114.926L345.847 116.842C345.272 117.088 344.622 117.211 343.896 117.211C343.45 117.211 343.049 117.138 342.691 116.991C342.334 116.839 342.07 116.646 341.9 116.411C341.736 116.171 341.622 115.849 341.558 115.444C341.505 115.157 341.479 114.577 341.479 113.704V109.635H340.345V107.666H341.479V105.812L343.957 104.37V107.666H345.645ZM346.787 112.201C346.787 111.381 346.989 110.587 347.394 109.819C347.798 109.052 348.369 108.466 349.107 108.062C349.852 107.657 350.681 107.455 351.595 107.455C353.007 107.455 354.164 107.915 355.066 108.835C355.969 109.749 356.42 110.906 356.42 112.307C356.42 113.719 355.963 114.891 355.049 115.822C354.141 116.748 352.995 117.211 351.612 117.211C350.757 117.211 349.939 117.018 349.16 116.631C348.387 116.244 347.798 115.679 347.394 114.935C346.989 114.185 346.787 113.273 346.787 112.201ZM349.318 112.333C349.318 113.259 349.538 113.968 349.978 114.46C350.417 114.952 350.959 115.198 351.604 115.198C352.248 115.198 352.787 114.952 353.221 114.46C353.66 113.968 353.88 113.253 353.88 112.315C353.88 111.401 353.66 110.698 353.221 110.206C352.787 109.714 352.248 109.468 351.604 109.468C350.959 109.468 350.417 109.714 349.978 110.206C349.538 110.698 349.318 111.407 349.318 112.333ZM358.134 117.615L360.955 117.958C361.002 118.286 361.11 118.512 361.28 118.635C361.515 118.811 361.884 118.898 362.388 118.898C363.032 118.898 363.516 118.802 363.838 118.608C364.055 118.479 364.219 118.271 364.33 117.984C364.406 117.779 364.444 117.401 364.444 116.851V115.488C363.706 116.496 362.774 117 361.649 117C360.396 117 359.402 116.47 358.67 115.409C358.096 114.571 357.809 113.528 357.809 112.28C357.809 110.716 358.184 109.521 358.934 108.694C359.689 107.868 360.627 107.455 361.746 107.455C362.9 107.455 363.853 107.962 364.603 108.976V107.666H366.914V116.042C366.914 117.144 366.823 117.967 366.642 118.512C366.46 119.057 366.205 119.484 365.877 119.795C365.549 120.105 365.109 120.349 364.559 120.524C364.014 120.7 363.322 120.788 362.484 120.788C360.902 120.788 359.78 120.516 359.118 119.971C358.456 119.432 358.125 118.746 358.125 117.914C358.125 117.832 358.128 117.732 358.134 117.615ZM360.34 112.14C360.34 113.13 360.53 113.856 360.911 114.319C361.298 114.776 361.772 115.005 362.335 115.005C362.938 115.005 363.448 114.771 363.864 114.302C364.28 113.827 364.488 113.127 364.488 112.201C364.488 111.234 364.289 110.517 363.891 110.048C363.492 109.579 362.988 109.345 362.379 109.345C361.787 109.345 361.298 109.576 360.911 110.039C360.53 110.496 360.34 111.196 360.34 112.14ZM371.73 117H369.261V107.666H371.555V108.993C371.947 108.366 372.299 107.953 372.609 107.754C372.926 107.555 373.283 107.455 373.682 107.455C374.244 107.455 374.786 107.61 375.308 107.921L374.543 110.074C374.127 109.805 373.74 109.67 373.383 109.67C373.037 109.67 372.744 109.767 372.504 109.96C372.264 110.147 372.073 110.49 371.933 110.988C371.798 111.486 371.73 112.529 371.73 114.117V117ZM378.226 110.514L375.984 110.109C376.236 109.207 376.67 108.539 377.285 108.105C377.9 107.672 378.814 107.455 380.027 107.455C381.129 107.455 381.949 107.587 382.488 107.851C383.027 108.108 383.405 108.439 383.622 108.844C383.845 109.242 383.956 109.978 383.956 111.05L383.93 113.933C383.93 114.753 383.968 115.359 384.044 115.752C384.126 116.139 384.275 116.555 384.492 117H382.049C381.984 116.836 381.905 116.593 381.812 116.271C381.771 116.124 381.741 116.027 381.724 115.98C381.302 116.391 380.851 116.698 380.37 116.903C379.89 117.108 379.377 117.211 378.832 117.211C377.871 117.211 377.112 116.95 376.556 116.429C376.005 115.907 375.729 115.248 375.729 114.451C375.729 113.924 375.855 113.455 376.107 113.045C376.359 112.629 376.711 112.312 377.162 112.096C377.619 111.873 378.275 111.68 379.131 111.516C380.285 111.299 381.085 111.097 381.53 110.909V110.663C381.53 110.188 381.413 109.852 381.179 109.652C380.944 109.447 380.502 109.345 379.852 109.345C379.412 109.345 379.069 109.433 378.823 109.608C378.577 109.778 378.378 110.08 378.226 110.514ZM381.53 112.518C381.214 112.623 380.713 112.749 380.027 112.896C379.342 113.042 378.894 113.186 378.683 113.326C378.36 113.555 378.199 113.845 378.199 114.196C378.199 114.542 378.328 114.841 378.586 115.093C378.844 115.345 379.172 115.471 379.57 115.471C380.016 115.471 380.44 115.324 380.845 115.031C381.144 114.809 381.34 114.536 381.434 114.214C381.498 114.003 381.53 113.602 381.53 113.01V112.518ZM386.215 107.666H388.491V108.94C389.306 107.95 390.275 107.455 391.4 107.455C391.998 107.455 392.517 107.578 392.956 107.824C393.396 108.07 393.756 108.442 394.037 108.94C394.447 108.442 394.89 108.07 395.364 107.824C395.839 107.578 396.346 107.455 396.885 107.455C397.57 107.455 398.15 107.596 398.625 107.877C399.1 108.152 399.454 108.56 399.688 109.099C399.858 109.497 399.943 110.142 399.943 111.032V117H397.474V111.665C397.474 110.739 397.389 110.142 397.219 109.872C396.99 109.521 396.639 109.345 396.164 109.345C395.818 109.345 395.493 109.45 395.188 109.661C394.884 109.872 394.664 110.183 394.529 110.593C394.395 110.997 394.327 111.639 394.327 112.518V117H391.857V111.885C391.857 110.977 391.813 110.391 391.726 110.127C391.638 109.863 391.5 109.667 391.312 109.538C391.131 109.409 390.882 109.345 390.565 109.345C390.185 109.345 389.842 109.447 389.537 109.652C389.232 109.857 389.013 110.153 388.878 110.54C388.749 110.927 388.685 111.568 388.685 112.465V117H386.215V107.666ZM411.703 107.666V109.635H410.016V113.396C410.016 114.158 410.03 114.604 410.06 114.732C410.095 114.855 410.168 114.958 410.279 115.04C410.396 115.122 410.537 115.163 410.701 115.163C410.93 115.163 411.261 115.084 411.694 114.926L411.905 116.842C411.331 117.088 410.681 117.211 409.954 117.211C409.509 117.211 409.107 117.138 408.75 116.991C408.393 116.839 408.129 116.646 407.959 116.411C407.795 116.171 407.681 115.849 407.616 115.444C407.563 115.157 407.537 114.577 407.537 113.704V109.635H406.403V107.666H407.537V105.812L410.016 104.37V107.666H411.703ZM415.878 104.115V108.853C416.675 107.921 417.627 107.455 418.734 107.455C419.303 107.455 419.815 107.561 420.272 107.771C420.729 107.982 421.072 108.252 421.301 108.58C421.535 108.908 421.693 109.271 421.775 109.67C421.863 110.068 421.907 110.687 421.907 111.524V117H419.438V112.069C419.438 111.091 419.391 110.47 419.297 110.206C419.203 109.942 419.036 109.734 418.796 109.582C418.562 109.424 418.266 109.345 417.908 109.345C417.498 109.345 417.132 109.444 416.81 109.644C416.487 109.843 416.25 110.145 416.098 110.549C415.951 110.947 415.878 111.539 415.878 112.324V117H413.408V104.115H415.878ZM423.85 112.201C423.85 111.381 424.052 110.587 424.456 109.819C424.86 109.052 425.432 108.466 426.17 108.062C426.914 107.657 427.743 107.455 428.657 107.455C430.069 107.455 431.227 107.915 432.129 108.835C433.031 109.749 433.482 110.906 433.482 112.307C433.482 113.719 433.025 114.891 432.111 115.822C431.203 116.748 430.058 117.211 428.675 117.211C427.819 117.211 427.002 117.018 426.223 116.631C425.449 116.244 424.86 115.679 424.456 114.935C424.052 114.185 423.85 113.273 423.85 112.201ZM426.381 112.333C426.381 113.259 426.601 113.968 427.04 114.46C427.479 114.952 428.021 115.198 428.666 115.198C429.311 115.198 429.85 114.952 430.283 114.46C430.723 113.968 430.942 113.253 430.942 112.315C430.942 111.401 430.723 110.698 430.283 110.206C429.85 109.714 429.311 109.468 428.666 109.468C428.021 109.468 427.479 109.714 427.04 110.206C426.601 110.698 426.381 111.407 426.381 112.333ZM425.687 106.488L427.532 103.896H429.817L431.637 106.488H429.65L428.631 105.179L427.682 106.488H425.687ZM427.497 103.421L428.631 100.942H431.399L429.062 103.421H427.497ZM443.915 117H441.445V112.236C441.445 111.229 441.393 110.578 441.287 110.285C441.182 109.986 441.009 109.755 440.769 109.591C440.534 109.427 440.25 109.345 439.916 109.345C439.488 109.345 439.104 109.462 438.765 109.696C438.425 109.931 438.19 110.241 438.062 110.628C437.938 111.015 437.877 111.729 437.877 112.772V117H435.407V107.666H437.701V109.037C438.516 107.982 439.541 107.455 440.777 107.455C441.322 107.455 441.82 107.555 442.271 107.754C442.723 107.947 443.062 108.196 443.291 108.501C443.525 108.806 443.687 109.151 443.774 109.538C443.868 109.925 443.915 110.479 443.915 111.199V117ZM446.2 117.615L449.021 117.958C449.068 118.286 449.177 118.512 449.347 118.635C449.581 118.811 449.95 118.898 450.454 118.898C451.099 118.898 451.582 118.802 451.904 118.608C452.121 118.479 452.285 118.271 452.396 117.984C452.473 117.779 452.511 117.401 452.511 116.851V115.488C451.772 116.496 450.841 117 449.716 117C448.462 117 447.469 116.47 446.736 115.409C446.162 114.571 445.875 113.528 445.875 112.28C445.875 110.716 446.25 109.521 447 108.694C447.756 107.868 448.693 107.455 449.812 107.455C450.967 107.455 451.919 107.962 452.669 108.976V107.666H454.98V116.042C454.98 117.144 454.89 117.967 454.708 118.512C454.526 119.057 454.271 119.484 453.943 119.795C453.615 120.105 453.176 120.349 452.625 120.524C452.08 120.7 451.389 120.788 450.551 120.788C448.969 120.788 447.847 120.516 447.185 119.971C446.522 119.432 446.191 118.746 446.191 117.914C446.191 117.832 446.194 117.732 446.2 117.615ZM448.406 112.14C448.406 113.13 448.597 113.856 448.978 114.319C449.364 114.776 449.839 115.005 450.401 115.005C451.005 115.005 451.515 114.771 451.931 114.302C452.347 113.827 452.555 113.127 452.555 112.201C452.555 111.234 452.355 110.517 451.957 110.048C451.559 109.579 451.055 109.345 450.445 109.345C449.854 109.345 449.364 109.576 448.978 110.039C448.597 110.496 448.406 111.196 448.406 112.14ZM462.354 117V104.115H464.824V110.953L467.716 107.666H470.757L467.566 111.076L470.985 117H468.322L465.976 112.808L464.824 114.012V117H462.354ZM477.867 114.029L480.328 114.442C480.012 115.345 479.511 116.033 478.825 116.508C478.146 116.977 477.293 117.211 476.268 117.211C474.645 117.211 473.443 116.681 472.664 115.62C472.049 114.771 471.741 113.698 471.741 112.403C471.741 110.856 472.146 109.646 472.954 108.773C473.763 107.895 474.785 107.455 476.021 107.455C477.41 107.455 478.506 107.915 479.309 108.835C480.111 109.749 480.495 111.152 480.46 113.045H474.272C474.29 113.777 474.489 114.349 474.87 114.759C475.251 115.163 475.726 115.365 476.294 115.365C476.681 115.365 477.006 115.26 477.27 115.049C477.533 114.838 477.732 114.498 477.867 114.029ZM478.008 111.533C477.99 110.818 477.806 110.276 477.454 109.907C477.103 109.532 476.675 109.345 476.171 109.345C475.632 109.345 475.187 109.541 474.835 109.934C474.483 110.326 474.311 110.859 474.316 111.533H478.008ZM473.13 106.488L474.976 103.896H477.261L479.08 106.488H477.094L476.074 105.179L475.125 106.488H473.13ZM487.421 107.666H489.724V109.037C490.022 108.568 490.427 108.188 490.937 107.895C491.446 107.602 492.012 107.455 492.633 107.455C493.717 107.455 494.637 107.88 495.393 108.729C496.148 109.579 496.526 110.763 496.526 112.28C496.526 113.839 496.146 115.052 495.384 115.919C494.622 116.78 493.699 117.211 492.615 117.211C492.1 117.211 491.631 117.108 491.209 116.903C490.793 116.698 490.354 116.347 489.891 115.849V120.551H487.421V107.666ZM489.864 112.175C489.864 113.224 490.072 114 490.488 114.504C490.904 115.002 491.411 115.251 492.009 115.251C492.583 115.251 493.061 115.022 493.441 114.565C493.822 114.103 494.013 113.347 494.013 112.298C494.013 111.319 493.816 110.593 493.424 110.118C493.031 109.644 492.545 109.406 491.965 109.406C491.361 109.406 490.86 109.641 490.462 110.109C490.063 110.572 489.864 111.261 489.864 112.175ZM500.956 104.115V108.853C501.753 107.921 502.705 107.455 503.812 107.455C504.381 107.455 504.894 107.561 505.351 107.771C505.808 107.982 506.15 108.252 506.379 108.58C506.613 108.908 506.771 109.271 506.854 109.67C506.941 110.068 506.985 110.687 506.985 111.524V117H504.516V112.069C504.516 111.091 504.469 110.47 504.375 110.206C504.281 109.942 504.114 109.734 503.874 109.582C503.64 109.424 503.344 109.345 502.986 109.345C502.576 109.345 502.21 109.444 501.888 109.644C501.565 109.843 501.328 110.145 501.176 110.549C501.029 110.947 500.956 111.539 500.956 112.324V117H498.486V104.115H500.956ZM511.345 110.514L509.104 110.109C509.355 109.207 509.789 108.539 510.404 108.105C511.02 107.672 511.934 107.455 513.146 107.455C514.248 107.455 515.068 107.587 515.607 107.851C516.146 108.108 516.524 108.439 516.741 108.844C516.964 109.242 517.075 109.978 517.075 111.05L517.049 113.933C517.049 114.753 517.087 115.359 517.163 115.752C517.245 116.139 517.395 116.555 517.611 117H515.168C515.104 116.836 515.024 116.593 514.931 116.271C514.89 116.124 514.86 116.027 514.843 115.98C514.421 116.391 513.97 116.698 513.489 116.903C513.009 117.108 512.496 117.211 511.951 117.211C510.99 117.211 510.231 116.95 509.675 116.429C509.124 115.907 508.849 115.248 508.849 114.451C508.849 113.924 508.975 113.455 509.227 113.045C509.479 112.629 509.83 112.312 510.281 112.096C510.738 111.873 511.395 111.68 512.25 111.516C513.404 111.299 514.204 111.097 514.649 110.909V110.663C514.649 110.188 514.532 109.852 514.298 109.652C514.063 109.447 513.621 109.345 512.971 109.345C512.531 109.345 512.188 109.433 511.942 109.608C511.696 109.778 511.497 110.08 511.345 110.514ZM514.649 112.518C514.333 112.623 513.832 112.749 513.146 112.896C512.461 113.042 512.013 113.186 511.802 113.326C511.479 113.555 511.318 113.845 511.318 114.196C511.318 114.542 511.447 114.841 511.705 115.093C511.963 115.345 512.291 115.471 512.689 115.471C513.135 115.471 513.56 115.324 513.964 115.031C514.263 114.809 514.459 114.536 514.553 114.214C514.617 114.003 514.649 113.602 514.649 113.01V112.518ZM510.255 106.488L512.101 103.896H514.386L516.205 106.488H514.219L513.199 105.179L512.25 106.488H510.255ZM528.009 117H525.539V112.236C525.539 111.229 525.486 110.578 525.381 110.285C525.275 109.986 525.103 109.755 524.862 109.591C524.628 109.427 524.344 109.345 524.01 109.345C523.582 109.345 523.198 109.462 522.858 109.696C522.519 109.931 522.284 110.241 522.155 110.628C522.032 111.015 521.971 111.729 521.971 112.772V117H519.501V107.666H521.795V109.037C522.609 107.982 523.635 107.455 524.871 107.455C525.416 107.455 525.914 107.555 526.365 107.754C526.816 107.947 527.156 108.196 527.385 108.501C527.619 108.806 527.78 109.151 527.868 109.538C527.962 109.925 528.009 110.479 528.009 111.199V117ZM535.462 107.666H537.765V109.037C538.063 108.568 538.468 108.188 538.978 107.895C539.487 107.602 540.053 107.455 540.674 107.455C541.758 107.455 542.678 107.88 543.434 108.729C544.189 109.579 544.567 110.763 544.567 112.28C544.567 113.839 544.187 115.052 543.425 115.919C542.663 116.78 541.74 117.211 540.656 117.211C540.141 117.211 539.672 117.108 539.25 116.903C538.834 116.698 538.395 116.347 537.932 115.849V120.551H535.462V107.666ZM537.905 112.175C537.905 113.224 538.113 114 538.529 114.504C538.945 115.002 539.452 115.251 540.05 115.251C540.624 115.251 541.102 115.022 541.482 114.565C541.863 114.103 542.054 113.347 542.054 112.298C542.054 111.319 541.857 110.593 541.465 110.118C541.072 109.644 540.586 109.406 540.006 109.406C539.402 109.406 538.901 109.641 538.503 110.109C538.104 110.572 537.905 111.261 537.905 112.175ZM548.997 104.115V108.853C549.794 107.921 550.746 107.455 551.854 107.455C552.422 107.455 552.935 107.561 553.392 107.771C553.849 107.982 554.191 108.252 554.42 108.58C554.654 108.908 554.812 109.271 554.895 109.67C554.982 110.068 555.026 110.687 555.026 111.524V117H552.557V112.069C552.557 111.091 552.51 110.47 552.416 110.206C552.322 109.942 552.155 109.734 551.915 109.582C551.681 109.424 551.385 109.345 551.027 109.345C550.617 109.345 550.251 109.444 549.929 109.644C549.606 109.843 549.369 110.145 549.217 110.549C549.07 110.947 548.997 111.539 548.997 112.324V117H546.527V104.115H548.997ZM556.969 112.201C556.969 111.381 557.171 110.587 557.575 109.819C557.979 109.052 558.551 108.466 559.289 108.062C560.033 107.657 560.862 107.455 561.776 107.455C563.188 107.455 564.346 107.915 565.248 108.835C566.15 109.749 566.602 110.906 566.602 112.307C566.602 113.719 566.145 114.891 565.23 115.822C564.322 116.748 563.177 117.211 561.794 117.211C560.938 117.211 560.121 117.018 559.342 116.631C558.568 116.244 557.979 115.679 557.575 114.935C557.171 114.185 556.969 113.273 556.969 112.201ZM559.5 112.333C559.5 113.259 559.72 113.968 560.159 114.46C560.599 114.952 561.141 115.198 561.785 115.198C562.43 115.198 562.969 114.952 563.402 114.46C563.842 113.968 564.062 113.253 564.062 112.315C564.062 111.401 563.842 110.698 563.402 110.206C562.969 109.714 562.43 109.468 561.785 109.468C561.141 109.468 560.599 109.714 560.159 110.206C559.72 110.698 559.5 111.407 559.5 112.333ZM558.806 106.488L560.651 103.896H562.937L564.756 106.488H562.77L561.75 105.179L560.801 106.488H558.806ZM560.616 103.421L561.75 100.942H564.519L562.181 103.421H560.616ZM568.544 106.4V104.115H571.014V106.4H568.544ZM568.544 117V107.666H571.014V117H568.544ZM584.654 106.673H581.991V105.029H584.654V104.115H587.124V105.029H588.1V106.673H587.124V117H584.83V115.629C584.449 116.162 583.998 116.561 583.477 116.824C582.961 117.082 582.439 117.211 581.912 117.211C580.84 117.211 579.92 116.78 579.152 115.919C578.391 115.052 578.01 113.845 578.01 112.298C578.01 110.716 578.382 109.515 579.126 108.694C579.87 107.868 580.811 107.455 581.947 107.455C582.99 107.455 583.893 107.889 584.654 108.756V106.673ZM580.532 112.131C580.532 113.127 580.67 113.848 580.945 114.293C581.344 114.938 581.9 115.26 582.615 115.26C583.184 115.26 583.667 115.02 584.065 114.539C584.464 114.053 584.663 113.329 584.663 112.368C584.663 111.296 584.47 110.525 584.083 110.057C583.696 109.582 583.201 109.345 582.598 109.345C582.012 109.345 581.52 109.579 581.121 110.048C580.729 110.511 580.532 111.205 580.532 112.131ZM588.996 112.201C588.996 111.381 589.198 110.587 589.603 109.819C590.007 109.052 590.578 108.466 591.316 108.062C592.061 107.657 592.89 107.455 593.804 107.455C595.216 107.455 596.373 107.915 597.275 108.835C598.178 109.749 598.629 110.906 598.629 112.307C598.629 113.719 598.172 114.891 597.258 115.822C596.35 116.748 595.204 117.211 593.821 117.211C592.966 117.211 592.148 117.018 591.369 116.631C590.596 116.244 590.007 115.679 589.603 114.935C589.198 114.185 588.996 113.273 588.996 112.201ZM591.527 112.333C591.527 113.259 591.747 113.968 592.187 114.46C592.626 114.952 593.168 115.198 593.812 115.198C594.457 115.198 594.996 114.952 595.43 114.46C595.869 113.968 596.089 113.253 596.089 112.315C596.089 111.401 595.869 110.698 595.43 110.206C594.996 109.714 594.457 109.468 593.812 109.468C593.168 109.468 592.626 109.714 592.187 110.206C591.747 110.698 591.527 111.407 591.527 112.333ZM590.833 106.488L592.679 103.896H594.964L596.783 106.488H594.797L593.777 105.179L592.828 106.488H590.833ZM592.477 120.524V118.055H594.946V120.524H592.477ZM605.581 117V104.115H608.051V117H605.581ZM615.996 114.029L618.457 114.442C618.141 115.345 617.64 116.033 616.954 116.508C616.274 116.977 615.422 117.211 614.396 117.211C612.773 117.211 611.572 116.681 610.793 115.62C610.178 114.771 609.87 113.698 609.87 112.403C609.87 110.856 610.274 109.646 611.083 108.773C611.892 107.895 612.914 107.455 614.15 107.455C615.539 107.455 616.635 107.915 617.438 108.835C618.24 109.749 618.624 111.152 618.589 113.045H612.401C612.419 113.777 612.618 114.349 612.999 114.759C613.38 115.163 613.854 115.365 614.423 115.365C614.81 115.365 615.135 115.26 615.398 115.049C615.662 114.838 615.861 114.498 615.996 114.029ZM616.137 111.533C616.119 110.818 615.935 110.276 615.583 109.907C615.231 109.532 614.804 109.345 614.3 109.345C613.761 109.345 613.315 109.541 612.964 109.934C612.612 110.326 612.439 110.859 612.445 111.533H616.137ZM611.259 106.488L613.104 103.896H615.39L617.209 106.488H615.223L614.203 105.179L613.254 106.488H611.259ZM613.061 120.524V118.055H615.53V120.524H613.061ZM628.749 110.426L626.314 110.865C626.232 110.379 626.045 110.013 625.752 109.767C625.465 109.521 625.09 109.397 624.627 109.397C624.012 109.397 623.52 109.611 623.15 110.039C622.787 110.461 622.605 111.17 622.605 112.166C622.605 113.273 622.79 114.056 623.159 114.513C623.534 114.97 624.035 115.198 624.662 115.198C625.131 115.198 625.515 115.066 625.813 114.803C626.112 114.533 626.323 114.073 626.446 113.423L628.872 113.836C628.62 114.949 628.137 115.79 627.422 116.358C626.707 116.927 625.749 117.211 624.548 117.211C623.183 117.211 622.093 116.78 621.278 115.919C620.47 115.058 620.065 113.865 620.065 112.342C620.065 110.801 620.473 109.603 621.287 108.747C622.102 107.886 623.203 107.455 624.592 107.455C625.729 107.455 626.631 107.701 627.299 108.193C627.973 108.68 628.456 109.424 628.749 110.426ZM633.091 104.115V108.853C633.888 107.921 634.84 107.455 635.947 107.455C636.516 107.455 637.028 107.561 637.485 107.771C637.942 107.982 638.285 108.252 638.514 108.58C638.748 108.908 638.906 109.271 638.988 109.67C639.076 110.068 639.12 110.687 639.12 111.524V117H636.65V112.069C636.65 111.091 636.604 110.47 636.51 110.206C636.416 109.942 636.249 109.734 636.009 109.582C635.774 109.424 635.479 109.345 635.121 109.345C634.711 109.345 634.345 109.444 634.022 109.644C633.7 109.843 633.463 110.145 633.311 110.549C633.164 110.947 633.091 111.539 633.091 112.324V117H630.621V104.115H633.091ZM646.415 117.615L649.236 117.958C649.283 118.286 649.392 118.512 649.562 118.635C649.796 118.811 650.165 118.898 650.669 118.898C651.313 118.898 651.797 118.802 652.119 118.608C652.336 118.479 652.5 118.271 652.611 117.984C652.688 117.779 652.726 117.401 652.726 116.851V115.488C651.987 116.496 651.056 117 649.931 117C648.677 117 647.684 116.47 646.951 115.409C646.377 114.571 646.09 113.528 646.09 112.28C646.09 110.716 646.465 109.521 647.215 108.694C647.971 107.868 648.908 107.455 650.027 107.455C651.182 107.455 652.134 107.962 652.884 108.976V107.666H655.195V116.042C655.195 117.144 655.104 117.967 654.923 118.512C654.741 119.057 654.486 119.484 654.158 119.795C653.83 120.105 653.391 120.349 652.84 120.524C652.295 120.7 651.604 120.788 650.766 120.788C649.184 120.788 648.062 120.516 647.399 119.971C646.737 119.432 646.406 118.746 646.406 117.914C646.406 117.832 646.409 117.732 646.415 117.615ZM648.621 112.14C648.621 113.13 648.812 113.856 649.192 114.319C649.579 114.776 650.054 115.005 650.616 115.005C651.22 115.005 651.729 114.771 652.146 114.302C652.562 113.827 652.77 113.127 652.77 112.201C652.77 111.234 652.57 110.517 652.172 110.048C651.773 109.579 651.27 109.345 650.66 109.345C650.068 109.345 649.579 109.576 649.192 110.039C648.812 110.496 648.621 111.196 648.621 112.14ZM657.647 106.4V104.115H660.117V106.4H657.647ZM657.647 117V107.666H660.117V117H657.647ZM671.93 107.666H674.399V109.433C674.399 110.159 674.335 110.728 674.206 111.138C674.083 111.548 673.852 111.914 673.512 112.236C672.99 112.74 672.185 113.08 671.095 113.256V117H668.801V115.603C668.068 116.675 667.037 117.211 665.707 117.211C664.33 117.211 663.407 116.687 662.938 115.638C662.716 115.14 662.604 114.451 662.604 113.572V107.666H665.074V111.955C665.074 113.186 665.121 113.988 665.215 114.363C665.279 114.645 665.443 114.879 665.707 115.066C665.947 115.242 666.252 115.33 666.621 115.33C667.037 115.33 667.412 115.216 667.746 114.987C668.086 114.759 668.317 114.472 668.44 114.126C668.563 113.78 668.625 112.939 668.625 111.604V107.666H671.095V112.254C671.909 112.09 672.48 111.785 672.809 111.34C673.008 111.07 673.113 110.669 673.125 110.136H671.93V107.666ZM664.89 106.409H663.765C663.759 106.274 663.756 106.169 663.756 106.093C663.756 105.478 663.905 105.006 664.204 104.678C664.503 104.344 664.887 104.177 665.355 104.177C665.561 104.177 665.751 104.2 665.927 104.247C666.103 104.288 666.422 104.414 666.885 104.625C667.354 104.83 667.72 104.933 667.983 104.933C668.171 104.933 668.326 104.874 668.449 104.757C668.578 104.64 668.66 104.443 668.695 104.168H669.838C669.832 104.959 669.683 105.524 669.39 105.864C669.103 106.204 668.73 106.374 668.273 106.374C668.074 106.374 667.878 106.354 667.685 106.312C667.55 106.277 667.213 106.157 666.674 105.952C666.135 105.747 665.742 105.645 665.496 105.645C665.309 105.645 665.162 105.703 665.057 105.82C664.951 105.932 664.896 106.128 664.89 106.409ZM677.546 110.514L675.305 110.109C675.557 109.207 675.99 108.539 676.605 108.105C677.221 107.672 678.135 107.455 679.348 107.455C680.449 107.455 681.27 107.587 681.809 107.851C682.348 108.108 682.726 108.439 682.942 108.844C683.165 109.242 683.276 109.978 683.276 111.05L683.25 113.933C683.25 114.753 683.288 115.359 683.364 115.752C683.446 116.139 683.596 116.555 683.812 117H681.369C681.305 116.836 681.226 116.593 681.132 116.271C681.091 116.124 681.062 116.027 681.044 115.98C680.622 116.391 680.171 116.698 679.69 116.903C679.21 117.108 678.697 117.211 678.152 117.211C677.191 117.211 676.433 116.95 675.876 116.429C675.325 115.907 675.05 115.248 675.05 114.451C675.05 113.924 675.176 113.455 675.428 113.045C675.68 112.629 676.031 112.312 676.482 112.096C676.939 111.873 677.596 111.68 678.451 111.516C679.605 111.299 680.405 111.097 680.851 110.909V110.663C680.851 110.188 680.733 109.852 680.499 109.652C680.265 109.447 679.822 109.345 679.172 109.345C678.732 109.345 678.39 109.433 678.144 109.608C677.897 109.778 677.698 110.08 677.546 110.514ZM680.851 112.518C680.534 112.623 680.033 112.749 679.348 112.896C678.662 113.042 678.214 113.186 678.003 113.326C677.681 113.555 677.52 113.845 677.52 114.196C677.52 114.542 677.648 114.841 677.906 115.093C678.164 115.345 678.492 115.471 678.891 115.471C679.336 115.471 679.761 115.324 680.165 115.031C680.464 114.809 680.66 114.536 680.754 114.214C680.818 114.003 680.851 113.602 680.851 113.01V112.518ZM690.501 117.615L693.322 117.958C693.369 118.286 693.478 118.512 693.647 118.635C693.882 118.811 694.251 118.898 694.755 118.898C695.399 118.898 695.883 118.802 696.205 118.608C696.422 118.479 696.586 118.271 696.697 117.984C696.773 117.779 696.812 117.401 696.812 116.851V115.488C696.073 116.496 695.142 117 694.017 117C692.763 117 691.77 116.47 691.037 115.409C690.463 114.571 690.176 113.528 690.176 112.28C690.176 110.716 690.551 109.521 691.301 108.694C692.057 107.868 692.994 107.455 694.113 107.455C695.268 107.455 696.22 107.962 696.97 108.976V107.666H699.281V116.042C699.281 117.144 699.19 117.967 699.009 118.512C698.827 119.057 698.572 119.484 698.244 119.795C697.916 120.105 697.477 120.349 696.926 120.524C696.381 120.7 695.689 120.788 694.852 120.788C693.27 120.788 692.147 120.516 691.485 119.971C690.823 119.432 690.492 118.746 690.492 117.914C690.492 117.832 690.495 117.732 690.501 117.615ZM692.707 112.14C692.707 113.13 692.897 113.856 693.278 114.319C693.665 114.776 694.14 115.005 694.702 115.005C695.306 115.005 695.815 114.771 696.231 114.302C696.647 113.827 696.855 113.127 696.855 112.201C696.855 111.234 696.656 110.517 696.258 110.048C695.859 109.579 695.355 109.345 694.746 109.345C694.154 109.345 693.665 109.576 693.278 110.039C692.897 110.496 692.707 111.196 692.707 112.14ZM701.733 106.4V104.115H704.203V106.4H701.733ZM701.733 117V107.666H704.203V117H701.733ZM708.589 110.514L706.348 110.109C706.6 109.207 707.033 108.539 707.648 108.105C708.264 107.672 709.178 107.455 710.391 107.455C711.492 107.455 712.312 107.587 712.852 107.851C713.391 108.108 713.769 108.439 713.985 108.844C714.208 109.242 714.319 109.978 714.319 111.05L714.293 113.933C714.293 114.753 714.331 115.359 714.407 115.752C714.489 116.139 714.639 116.555 714.855 117H712.412C712.348 116.836 712.269 116.593 712.175 116.271C712.134 116.124 712.104 116.027 712.087 115.98C711.665 116.391 711.214 116.698 710.733 116.903C710.253 117.108 709.74 117.211 709.195 117.211C708.234 117.211 707.476 116.95 706.919 116.429C706.368 115.907 706.093 115.248 706.093 114.451C706.093 113.924 706.219 113.455 706.471 113.045C706.723 112.629 707.074 112.312 707.525 112.096C707.982 111.873 708.639 111.68 709.494 111.516C710.648 111.299 711.448 111.097 711.894 110.909V110.663C711.894 110.188 711.776 109.852 711.542 109.652C711.308 109.447 710.865 109.345 710.215 109.345C709.775 109.345 709.433 109.433 709.187 109.608C708.94 109.778 708.741 110.08 708.589 110.514ZM711.894 112.518C711.577 112.623 711.076 112.749 710.391 112.896C709.705 113.042 709.257 113.186 709.046 113.326C708.724 113.555 708.562 113.845 708.562 114.196C708.562 114.542 708.691 114.841 708.949 115.093C709.207 115.345 709.535 115.471 709.934 115.471C710.379 115.471 710.804 115.324 711.208 115.031C711.507 114.809 711.703 114.536 711.797 114.214C711.861 114.003 711.894 113.602 711.894 113.01V112.518ZM709.222 106.523L710.435 103.896H713.203L710.786 106.523H709.222ZM725.077 117L720.472 104.115H723.293L726.554 113.651L729.709 104.115H732.469L727.854 117H725.077ZM733.822 117V104.115H736.354L741.627 112.72V104.115H744.044V117H741.434L736.239 108.598V117H733.822ZM746.171 113.581L748.562 113.291C748.638 113.9 748.843 114.366 749.177 114.688C749.511 115.011 749.915 115.172 750.39 115.172C750.899 115.172 751.327 114.979 751.673 114.592C752.024 114.205 752.2 113.684 752.2 113.027C752.2 112.406 752.033 111.914 751.699 111.551C751.365 111.188 750.958 111.006 750.478 111.006C750.161 111.006 749.783 111.067 749.344 111.19L749.616 109.178C750.284 109.195 750.794 109.052 751.146 108.747C751.497 108.437 751.673 108.026 751.673 107.517C751.673 107.083 751.544 106.737 751.286 106.479C751.028 106.222 750.686 106.093 750.258 106.093C749.836 106.093 749.476 106.239 749.177 106.532C748.878 106.825 748.696 107.253 748.632 107.815L746.355 107.429C746.514 106.649 746.751 106.028 747.067 105.565C747.39 105.097 747.835 104.73 748.403 104.467C748.978 104.197 749.619 104.062 750.328 104.062C751.541 104.062 752.514 104.449 753.246 105.223C753.85 105.855 754.151 106.57 754.151 107.367C754.151 108.498 753.533 109.4 752.297 110.074C753.035 110.232 753.624 110.587 754.063 111.138C754.509 111.688 754.731 112.354 754.731 113.133C754.731 114.264 754.318 115.228 753.492 116.024C752.666 116.821 751.638 117.22 750.407 117.22C749.241 117.22 748.274 116.886 747.507 116.218C746.739 115.544 746.294 114.665 746.171 113.581ZM760.453 104.062C761.701 104.062 762.677 104.508 763.38 105.398C764.218 106.453 764.637 108.202 764.637 110.646C764.637 113.083 764.215 114.835 763.371 115.901C762.674 116.78 761.701 117.22 760.453 117.22C759.199 117.22 758.188 116.739 757.421 115.778C756.653 114.812 756.27 113.092 756.27 110.619C756.27 108.193 756.691 106.447 757.535 105.381C758.232 104.502 759.205 104.062 760.453 104.062ZM760.453 106.11C760.154 106.11 759.888 106.207 759.653 106.4C759.419 106.588 759.237 106.928 759.108 107.42C758.938 108.059 758.854 109.134 758.854 110.646C758.854 112.157 758.93 113.197 759.082 113.766C759.234 114.328 759.425 114.703 759.653 114.891C759.888 115.078 760.154 115.172 760.453 115.172C760.752 115.172 761.019 115.078 761.253 114.891C761.487 114.697 761.669 114.354 761.798 113.862C761.968 113.229 762.053 112.157 762.053 110.646C762.053 109.134 761.977 108.097 761.824 107.534C761.672 106.966 761.479 106.588 761.244 106.4C761.016 106.207 760.752 106.11 760.453 106.11ZM774.401 117L770.64 107.666H773.232L774.99 112.43L775.5 114.021C775.635 113.616 775.72 113.35 775.755 113.221C775.837 112.957 775.925 112.693 776.019 112.43L777.794 107.666H780.334L776.625 117H774.401ZM783.7 110.514L781.459 110.109C781.711 109.207 782.145 108.539 782.76 108.105C783.375 107.672 784.289 107.455 785.502 107.455C786.604 107.455 787.424 107.587 787.963 107.851C788.502 108.108 788.88 108.439 789.097 108.844C789.319 109.242 789.431 109.978 789.431 111.05L789.404 113.933C789.404 114.753 789.442 115.359 789.519 115.752C789.601 116.139 789.75 116.555 789.967 117H787.523C787.459 116.836 787.38 116.593 787.286 116.271C787.245 116.124 787.216 116.027 787.198 115.98C786.776 116.391 786.325 116.698 785.845 116.903C785.364 117.108 784.852 117.211 784.307 117.211C783.346 117.211 782.587 116.95 782.03 116.429C781.479 115.907 781.204 115.248 781.204 114.451C781.204 113.924 781.33 113.455 781.582 113.045C781.834 112.629 782.186 112.312 782.637 112.096C783.094 111.873 783.75 111.68 784.605 111.516C785.76 111.299 786.56 111.097 787.005 110.909V110.663C787.005 110.188 786.888 109.852 786.653 109.652C786.419 109.447 785.977 109.345 785.326 109.345C784.887 109.345 784.544 109.433 784.298 109.608C784.052 109.778 783.853 110.08 783.7 110.514ZM787.005 112.518C786.688 112.623 786.188 112.749 785.502 112.896C784.816 113.042 784.368 113.186 784.157 113.326C783.835 113.555 783.674 113.845 783.674 114.196C783.674 114.542 783.803 114.841 784.061 115.093C784.318 115.345 784.646 115.471 785.045 115.471C785.49 115.471 785.915 115.324 786.319 115.031C786.618 114.809 786.814 114.536 786.908 114.214C786.973 114.003 787.005 113.602 787.005 113.01V112.518ZM786.829 106.523H785.273L782.848 103.896H785.616L786.829 106.523ZM796.655 117.615L799.477 117.958C799.523 118.286 799.632 118.512 799.802 118.635C800.036 118.811 800.405 118.898 800.909 118.898C801.554 118.898 802.037 118.802 802.359 118.608C802.576 118.479 802.74 118.271 802.852 117.984C802.928 117.779 802.966 117.401 802.966 116.851V115.488C802.228 116.496 801.296 117 800.171 117C798.917 117 797.924 116.47 797.191 115.409C796.617 114.571 796.33 113.528 796.33 112.28C796.33 110.716 796.705 109.521 797.455 108.694C798.211 107.868 799.148 107.455 800.268 107.455C801.422 107.455 802.374 107.962 803.124 108.976V107.666H805.436V116.042C805.436 117.144 805.345 117.967 805.163 118.512C804.981 119.057 804.727 119.484 804.398 119.795C804.07 120.105 803.631 120.349 803.08 120.524C802.535 120.7 801.844 120.788 801.006 120.788C799.424 120.788 798.302 120.516 797.64 119.971C796.978 119.432 796.646 118.746 796.646 117.914C796.646 117.832 796.649 117.732 796.655 117.615ZM798.861 112.14C798.861 113.13 799.052 113.856 799.433 114.319C799.819 114.776 800.294 115.005 800.856 115.005C801.46 115.005 801.97 114.771 802.386 114.302C802.802 113.827 803.01 113.127 803.01 112.201C803.01 111.234 802.811 110.517 802.412 110.048C802.014 109.579 801.51 109.345 800.9 109.345C800.309 109.345 799.819 109.576 799.433 110.039C799.052 110.496 798.861 111.196 798.861 112.14ZM807.888 106.4V104.115H810.357V106.4H807.888ZM807.888 117V107.666H810.357V117H807.888ZM814.743 110.514L812.502 110.109C812.754 109.207 813.188 108.539 813.803 108.105C814.418 107.672 815.332 107.455 816.545 107.455C817.646 107.455 818.467 107.587 819.006 107.851C819.545 108.108 819.923 108.439 820.14 108.844C820.362 109.242 820.474 109.978 820.474 111.05L820.447 113.933C820.447 114.753 820.485 115.359 820.562 115.752C820.644 116.139 820.793 116.555 821.01 117H818.566C818.502 116.836 818.423 116.593 818.329 116.271C818.288 116.124 818.259 116.027 818.241 115.98C817.819 116.391 817.368 116.698 816.888 116.903C816.407 117.108 815.895 117.211 815.35 117.211C814.389 117.211 813.63 116.95 813.073 116.429C812.522 115.907 812.247 115.248 812.247 114.451C812.247 113.924 812.373 113.455 812.625 113.045C812.877 112.629 813.229 112.312 813.68 112.096C814.137 111.873 814.793 111.68 815.648 111.516C816.803 111.299 817.603 111.097 818.048 110.909V110.663C818.048 110.188 817.931 109.852 817.696 109.652C817.462 109.447 817.02 109.345 816.369 109.345C815.93 109.345 815.587 109.433 815.341 109.608C815.095 109.778 814.896 110.08 814.743 110.514ZM818.048 112.518C817.731 112.623 817.23 112.749 816.545 112.896C815.859 113.042 815.411 113.186 815.2 113.326C814.878 113.555 814.717 113.845 814.717 114.196C814.717 114.542 814.846 114.841 815.104 115.093C815.361 115.345 815.689 115.471 816.088 115.471C816.533 115.471 816.958 115.324 817.362 115.031C817.661 114.809 817.857 114.536 817.951 114.214C818.016 114.003 818.048 113.602 818.048 113.01V112.518ZM815.376 106.523L816.589 103.896H819.357L816.94 106.523H815.376ZM830.388 104.115V108.853C831.185 107.921 832.137 107.455 833.244 107.455C833.812 107.455 834.325 107.561 834.782 107.771C835.239 107.982 835.582 108.252 835.811 108.58C836.045 108.908 836.203 109.271 836.285 109.67C836.373 110.068 836.417 110.687 836.417 111.524V117H833.947V112.069C833.947 111.091 833.9 110.47 833.807 110.206C833.713 109.942 833.546 109.734 833.306 109.582C833.071 109.424 832.775 109.345 832.418 109.345C832.008 109.345 831.642 109.444 831.319 109.644C830.997 109.843 830.76 110.145 830.607 110.549C830.461 110.947 830.388 111.539 830.388 112.324V117H827.918V104.115H830.388ZM840.891 112.333C840.891 113.229 841.11 113.938 841.55 114.46C841.966 114.952 842.508 115.198 843.176 115.198C843.844 115.198 844.383 114.952 844.793 114.46C845.232 113.938 845.452 113.224 845.452 112.315C845.452 111.425 845.232 110.722 844.793 110.206C844.383 109.714 843.844 109.468 843.176 109.468C842.508 109.468 841.966 109.714 841.55 110.206C841.11 110.728 840.891 111.437 840.891 112.333ZM847.966 107.666H850.436V109.433C850.436 110.159 850.371 110.728 850.242 111.138C850.119 111.548 849.888 111.914 849.548 112.236C849.155 112.617 848.619 112.916 847.939 113.133C847.793 114.182 847.356 115.075 846.63 115.813C845.716 116.745 844.567 117.211 843.185 117.211C842.3 117.211 841.485 117.018 840.741 116.631C839.95 116.221 839.355 115.649 838.957 114.917C838.559 114.179 838.359 113.273 838.359 112.201C838.359 111.357 838.562 110.563 838.966 109.819C839.388 109.04 839.965 108.451 840.697 108.053C841.43 107.654 842.253 107.455 843.167 107.455C844.579 107.455 845.736 107.912 846.639 108.826C847.453 109.658 847.901 110.687 847.983 111.911C848.745 111.601 849.138 111.009 849.161 110.136H847.966V107.666ZM841.84 120.524V118.055H844.31V120.524H841.84ZM851.657 107.666H853.96V109.037C854.259 108.568 854.663 108.188 855.173 107.895C855.683 107.602 856.248 107.455 856.869 107.455C857.953 107.455 858.873 107.88 859.629 108.729C860.385 109.579 860.763 110.763 860.763 112.28C860.763 113.839 860.382 115.052 859.62 115.919C858.858 116.78 857.936 117.211 856.852 117.211C856.336 117.211 855.867 117.108 855.445 116.903C855.029 116.698 854.59 116.347 854.127 115.849V120.551H851.657V107.666ZM854.101 112.175C854.101 113.224 854.309 114 854.725 114.504C855.141 115.002 855.647 115.251 856.245 115.251C856.819 115.251 857.297 115.022 857.678 114.565C858.059 114.103 858.249 113.347 858.249 112.298C858.249 111.319 858.053 110.593 857.66 110.118C857.268 109.644 856.781 109.406 856.201 109.406C855.598 109.406 855.097 109.641 854.698 110.109C854.3 110.572 854.101 111.261 854.101 112.175ZM873.832 106.673H871.169V105.029H873.832V104.115H876.302V105.029H877.277V106.673H876.302V117H874.008V115.629C873.627 116.162 873.176 116.561 872.654 116.824C872.139 117.082 871.617 117.211 871.09 117.211C870.018 117.211 869.098 116.78 868.33 115.919C867.568 115.052 867.188 113.845 867.188 112.298C867.188 110.716 867.56 109.515 868.304 108.694C869.048 107.868 869.988 107.455 871.125 107.455C872.168 107.455 873.07 107.889 873.832 108.756V106.673ZM869.71 112.131C869.71 113.127 869.848 113.848 870.123 114.293C870.521 114.938 871.078 115.26 871.793 115.26C872.361 115.26 872.845 115.02 873.243 114.539C873.642 114.053 873.841 113.329 873.841 112.368C873.841 111.296 873.647 110.525 873.261 110.057C872.874 109.582 872.379 109.345 871.775 109.345C871.189 109.345 870.697 109.579 870.299 110.048C869.906 110.511 869.71 111.205 869.71 112.131ZM878.174 112.201C878.174 111.381 878.376 110.587 878.78 109.819C879.185 109.052 879.756 108.466 880.494 108.062C881.238 107.657 882.067 107.455 882.981 107.455C884.394 107.455 885.551 107.915 886.453 108.835C887.355 109.749 887.807 110.906 887.807 112.307C887.807 113.719 887.35 114.891 886.436 115.822C885.527 116.748 884.382 117.211 882.999 117.211C882.144 117.211 881.326 117.018 880.547 116.631C879.773 116.244 879.185 115.679 878.78 114.935C878.376 114.185 878.174 113.273 878.174 112.201ZM880.705 112.333C880.705 113.259 880.925 113.968 881.364 114.46C881.804 114.952 882.346 115.198 882.99 115.198C883.635 115.198 884.174 114.952 884.607 114.46C885.047 113.968 885.267 113.253 885.267 112.315C885.267 111.401 885.047 110.698 884.607 110.206C884.174 109.714 883.635 109.468 882.99 109.468C882.346 109.468 881.804 109.714 881.364 110.206C880.925 110.698 880.705 111.407 880.705 112.333ZM880.011 106.488L881.856 103.896H884.142L885.961 106.488H883.975L882.955 105.179L882.006 106.488H880.011ZM884.168 103.421H882.612L880.187 100.942H882.955L884.168 103.421ZM898.239 117H895.77V112.236C895.77 111.229 895.717 110.578 895.611 110.285C895.506 109.986 895.333 109.755 895.093 109.591C894.858 109.427 894.574 109.345 894.24 109.345C893.812 109.345 893.429 109.462 893.089 109.696C892.749 109.931 892.515 110.241 892.386 110.628C892.263 111.015 892.201 111.729 892.201 112.772V117H889.731V107.666H892.025V109.037C892.84 107.982 893.865 107.455 895.102 107.455C895.646 107.455 896.145 107.555 896.596 107.754C897.047 107.947 897.387 108.196 897.615 108.501C897.85 108.806 898.011 109.151 898.099 109.538C898.192 109.925 898.239 110.479 898.239 111.199V117ZM900.524 117.615L903.346 117.958C903.393 118.286 903.501 118.512 903.671 118.635C903.905 118.811 904.274 118.898 904.778 118.898C905.423 118.898 905.906 118.802 906.229 118.608C906.445 118.479 906.609 118.271 906.721 117.984C906.797 117.779 906.835 117.401 906.835 116.851V115.488C906.097 116.496 905.165 117 904.04 117C902.786 117 901.793 116.47 901.061 115.409C900.486 114.571 900.199 113.528 900.199 112.28C900.199 110.716 900.574 109.521 901.324 108.694C902.08 107.868 903.018 107.455 904.137 107.455C905.291 107.455 906.243 107.962 906.993 108.976V107.666H909.305V116.042C909.305 117.144 909.214 117.967 909.032 118.512C908.851 119.057 908.596 119.484 908.268 119.795C907.939 120.105 907.5 120.349 906.949 120.524C906.404 120.7 905.713 120.788 904.875 120.788C903.293 120.788 902.171 120.516 901.509 119.971C900.847 119.432 900.516 118.746 900.516 117.914C900.516 117.832 900.519 117.732 900.524 117.615ZM902.73 112.14C902.73 113.13 902.921 113.856 903.302 114.319C903.688 114.776 904.163 115.005 904.726 115.005C905.329 115.005 905.839 114.771 906.255 114.302C906.671 113.827 906.879 113.127 906.879 112.201C906.879 111.234 906.68 110.517 906.281 110.048C905.883 109.579 905.379 109.345 904.77 109.345C904.178 109.345 903.688 109.576 903.302 110.039C902.921 110.496 902.73 111.196 902.73 112.14ZM916.696 107.666H918.999V109.037C919.298 108.568 919.702 108.188 920.212 107.895C920.722 107.602 921.287 107.455 921.908 107.455C922.992 107.455 923.912 107.88 924.668 108.729C925.424 109.579 925.802 110.763 925.802 112.28C925.802 113.839 925.421 115.052 924.659 115.919C923.897 116.78 922.975 117.211 921.891 117.211C921.375 117.211 920.906 117.108 920.484 116.903C920.068 116.698 919.629 116.347 919.166 115.849V120.551H916.696V107.666ZM919.14 112.175C919.14 113.224 919.348 114 919.764 114.504C920.18 115.002 920.687 115.251 921.284 115.251C921.858 115.251 922.336 115.022 922.717 114.565C923.098 114.103 923.288 113.347 923.288 112.298C923.288 111.319 923.092 110.593 922.699 110.118C922.307 109.644 921.82 109.406 921.24 109.406C920.637 109.406 920.136 109.641 919.737 110.109C919.339 110.572 919.14 111.261 919.14 112.175ZM930.231 104.115V108.853C931.028 107.921 931.98 107.455 933.088 107.455C933.656 107.455 934.169 107.561 934.626 107.771C935.083 107.982 935.426 108.252 935.654 108.58C935.889 108.908 936.047 109.271 936.129 109.67C936.217 110.068 936.261 110.687 936.261 111.524V117H933.791V112.069C933.791 111.091 933.744 110.47 933.65 110.206C933.557 109.942 933.39 109.734 933.149 109.582C932.915 109.424 932.619 109.345 932.262 109.345C931.852 109.345 931.485 109.444 931.163 109.644C930.841 109.843 930.604 110.145 930.451 110.549C930.305 110.947 930.231 111.539 930.231 112.324V117H927.762V104.115H930.231ZM940.62 110.514L938.379 110.109C938.631 109.207 939.064 108.539 939.68 108.105C940.295 107.672 941.209 107.455 942.422 107.455C943.523 107.455 944.344 107.587 944.883 107.851C945.422 108.108 945.8 108.439 946.017 108.844C946.239 109.242 946.351 109.978 946.351 111.05L946.324 113.933C946.324 114.753 946.362 115.359 946.438 115.752C946.521 116.139 946.67 116.555 946.887 117H944.443C944.379 116.836 944.3 116.593 944.206 116.271C944.165 116.124 944.136 116.027 944.118 115.98C943.696 116.391 943.245 116.698 942.765 116.903C942.284 117.108 941.771 117.211 941.227 117.211C940.266 117.211 939.507 116.95 938.95 116.429C938.399 115.907 938.124 115.248 938.124 114.451C938.124 113.924 938.25 113.455 938.502 113.045C938.754 112.629 939.105 112.312 939.557 112.096C940.014 111.873 940.67 111.68 941.525 111.516C942.68 111.299 943.479 111.097 943.925 110.909V110.663C943.925 110.188 943.808 109.852 943.573 109.652C943.339 109.447 942.896 109.345 942.246 109.345C941.807 109.345 941.464 109.433 941.218 109.608C940.972 109.778 940.772 110.08 940.62 110.514ZM943.925 112.518C943.608 112.623 943.107 112.749 942.422 112.896C941.736 113.042 941.288 113.186 941.077 113.326C940.755 113.555 940.594 113.845 940.594 114.196C940.594 114.542 940.723 114.841 940.98 115.093C941.238 115.345 941.566 115.471 941.965 115.471C942.41 115.471 942.835 115.324 943.239 115.031C943.538 114.809 943.734 114.536 943.828 114.214C943.893 114.003 943.925 113.602 943.925 113.01V112.518ZM941.253 106.523L942.466 103.896H945.234L942.817 106.523H941.253ZM948.794 106.4V104.115H951.264V106.4H948.794ZM948.794 117V107.666H951.264V117H948.794ZM957.943 114.337L960.422 113.959C960.527 114.439 960.741 114.806 961.063 115.058C961.386 115.304 961.837 115.427 962.417 115.427C963.056 115.427 963.536 115.31 963.858 115.075C964.075 114.911 964.184 114.691 964.184 114.416C964.184 114.229 964.125 114.073 964.008 113.95C963.885 113.833 963.609 113.725 963.182 113.625C961.189 113.186 959.927 112.784 959.394 112.421C958.655 111.917 958.286 111.217 958.286 110.32C958.286 109.512 958.605 108.832 959.244 108.281C959.883 107.73 960.873 107.455 962.215 107.455C963.492 107.455 964.441 107.663 965.062 108.079C965.684 108.495 966.111 109.11 966.346 109.925L964.017 110.355C963.917 109.992 963.727 109.714 963.445 109.521C963.17 109.327 962.774 109.23 962.259 109.23C961.608 109.23 961.143 109.321 960.861 109.503C960.674 109.632 960.58 109.799 960.58 110.004C960.58 110.18 960.662 110.329 960.826 110.452C961.049 110.616 961.816 110.848 963.129 111.146C964.447 111.445 965.367 111.812 965.889 112.245C966.404 112.685 966.662 113.297 966.662 114.082C966.662 114.938 966.305 115.673 965.59 116.288C964.875 116.903 963.817 117.211 962.417 117.211C961.146 117.211 960.138 116.953 959.394 116.438C958.655 115.922 958.172 115.222 957.943 114.337ZM968.833 106.4V104.115H971.303V106.4H968.833ZM968.833 117V107.666H971.303V117H968.833ZM982.333 117H979.863V112.236C979.863 111.229 979.811 110.578 979.705 110.285C979.6 109.986 979.427 109.755 979.187 109.591C978.952 109.427 978.668 109.345 978.334 109.345C977.906 109.345 977.522 109.462 977.183 109.696C976.843 109.931 976.608 110.241 976.479 110.628C976.356 111.015 976.295 111.729 976.295 112.772V117H973.825V107.666H976.119V109.037C976.934 107.982 977.959 107.455 979.195 107.455C979.74 107.455 980.238 107.555 980.689 107.754C981.141 107.947 981.48 108.196 981.709 108.501C981.943 108.806 982.104 109.151 982.192 109.538C982.286 109.925 982.333 110.479 982.333 111.199V117ZM987.308 104.115V108.853C988.104 107.921 989.057 107.455 990.164 107.455C990.732 107.455 991.245 107.561 991.702 107.771C992.159 107.982 992.502 108.252 992.73 108.58C992.965 108.908 993.123 109.271 993.205 109.67C993.293 110.068 993.337 110.687 993.337 111.524V117H990.867V112.069C990.867 111.091 990.82 110.47 990.727 110.206C990.633 109.942 990.466 109.734 990.226 109.582C989.991 109.424 989.695 109.345 989.338 109.345C988.928 109.345 988.562 109.444 988.239 109.644C987.917 109.843 987.68 110.145 987.527 110.549C987.381 110.947 987.308 111.539 987.308 112.324V117H984.838V104.115H987.308ZM1005.14 107.666V109.635H1003.45V113.396C1003.45 114.158 1003.47 114.604 1003.5 114.732C1003.53 114.855 1003.61 114.958 1003.72 115.04C1003.83 115.122 1003.97 115.163 1004.14 115.163C1004.37 115.163 1004.7 115.084 1005.13 114.926L1005.34 116.842C1004.77 117.088 1004.12 117.211 1003.39 117.211C1002.95 117.211 1002.54 117.138 1002.19 116.991C1001.83 116.839 1001.57 116.646 1001.4 116.411C1001.23 116.171 1001.12 115.849 1001.05 115.444C1001 115.157 1000.97 114.577 1000.97 113.704V109.635H999.841V107.666H1000.97V105.812L1003.45 104.37V107.666H1005.14ZM1009.32 104.115V108.853C1010.11 107.921 1011.06 107.455 1012.17 107.455C1012.74 107.455 1013.25 107.561 1013.71 107.771C1014.17 107.982 1014.51 108.252 1014.74 108.58C1014.97 108.908 1015.13 109.271 1015.21 109.67C1015.3 110.068 1015.34 110.687 1015.34 111.524V117H1012.88V112.069C1012.88 111.091 1012.83 110.47 1012.73 110.206C1012.64 109.942 1012.47 109.734 1012.23 109.582C1012 109.424 1011.7 109.345 1011.35 109.345C1010.94 109.345 1010.57 109.444 1010.25 109.644C1009.92 109.843 1009.69 110.145 1009.54 110.549C1009.39 110.947 1009.32 111.539 1009.32 112.324V117H1006.85V104.115H1009.32ZM1023.26 114.029L1025.72 114.442C1025.41 115.345 1024.91 116.033 1024.22 116.508C1023.54 116.977 1022.69 117.211 1021.66 117.211C1020.04 117.211 1018.84 116.681 1018.06 115.62C1017.45 114.771 1017.14 113.698 1017.14 112.403C1017.14 110.856 1017.54 109.646 1018.35 108.773C1019.16 107.895 1020.18 107.455 1021.42 107.455C1022.81 107.455 1023.9 107.915 1024.71 108.835C1025.51 109.749 1025.89 111.152 1025.86 113.045H1019.67C1019.69 113.777 1019.89 114.349 1020.27 114.759C1020.65 115.163 1021.12 115.365 1021.69 115.365C1022.08 115.365 1022.4 115.26 1022.67 115.049C1022.93 114.838 1023.13 114.498 1023.26 114.029ZM1023.4 111.533C1023.39 110.818 1023.2 110.276 1022.85 109.907C1022.5 109.532 1022.07 109.345 1021.57 109.345C1021.03 109.345 1020.58 109.541 1020.23 109.934C1019.88 110.326 1019.71 110.859 1019.71 111.533H1023.4ZM1027.31 112.201C1027.31 111.381 1027.51 110.587 1027.91 109.819C1028.32 109.052 1028.89 108.466 1029.63 108.062C1030.37 107.657 1031.2 107.455 1032.11 107.455C1033.53 107.455 1034.68 107.915 1035.59 108.835C1036.49 109.749 1036.94 110.906 1036.94 112.307C1036.94 113.719 1036.48 114.891 1035.57 115.822C1034.66 116.748 1033.51 117.211 1032.13 117.211C1031.28 117.211 1030.46 117.018 1029.68 116.631C1028.91 116.244 1028.32 115.679 1027.91 114.935C1027.51 114.185 1027.31 113.273 1027.31 112.201ZM1029.84 112.333C1029.84 113.259 1030.06 113.968 1030.5 114.46C1030.94 114.952 1031.48 115.198 1032.12 115.198C1032.77 115.198 1033.31 114.952 1033.74 114.46C1034.18 113.968 1034.4 113.253 1034.4 112.315C1034.4 111.401 1034.18 110.698 1033.74 110.206C1033.31 109.714 1032.77 109.468 1032.12 109.468C1031.48 109.468 1030.94 109.714 1030.5 110.206C1030.06 110.698 1029.84 111.407 1029.84 112.333ZM1052.38 117H1049.91V112.236C1049.91 111.229 1049.86 110.578 1049.75 110.285C1049.65 109.986 1049.48 109.755 1049.24 109.591C1049 109.427 1048.72 109.345 1048.38 109.345C1047.96 109.345 1047.57 109.462 1047.23 109.696C1046.89 109.931 1046.66 110.241 1046.53 110.628C1046.41 111.015 1046.34 111.729 1046.34 112.772V117H1043.87V107.666H1046.17V109.037C1046.98 107.982 1048.01 107.455 1049.24 107.455C1049.79 107.455 1050.29 107.555 1050.74 107.754C1051.19 107.947 1051.53 108.196 1051.76 108.501C1051.99 108.806 1052.15 109.151 1052.24 109.538C1052.33 109.925 1052.38 110.479 1052.38 111.199V117ZM1054.67 117.615L1057.49 117.958C1057.54 118.286 1057.64 118.512 1057.81 118.635C1058.05 118.811 1058.42 118.898 1058.92 118.898C1059.57 118.898 1060.05 118.802 1060.37 118.608C1060.59 118.479 1060.75 118.271 1060.86 117.984C1060.94 117.779 1060.98 117.401 1060.98 116.851V115.488C1060.24 116.496 1059.31 117 1058.18 117C1056.93 117 1055.94 116.47 1055.2 115.409C1054.63 114.571 1054.34 113.528 1054.34 112.28C1054.34 110.716 1054.72 109.521 1055.47 108.694C1056.22 107.868 1057.16 107.455 1058.28 107.455C1059.43 107.455 1060.39 107.962 1061.14 108.976V107.666H1063.45V116.042C1063.45 117.144 1063.36 117.967 1063.17 118.512C1062.99 119.057 1062.74 119.484 1062.41 119.795C1062.08 120.105 1061.64 120.349 1061.09 120.524C1060.55 120.7 1059.86 120.788 1059.02 120.788C1057.44 120.788 1056.31 120.516 1055.65 119.971C1054.99 119.432 1054.66 118.746 1054.66 117.914C1054.66 117.832 1054.66 117.732 1054.67 117.615ZM1056.87 112.14C1056.87 113.13 1057.06 113.856 1057.44 114.319C1057.83 114.776 1058.31 115.005 1058.87 115.005C1059.47 115.005 1059.98 114.771 1060.4 114.302C1060.81 113.827 1061.02 113.127 1061.02 112.201C1061.02 111.234 1060.82 110.517 1060.42 110.048C1060.03 109.579 1059.52 109.345 1058.91 109.345C1058.32 109.345 1057.83 109.576 1057.44 110.039C1057.06 110.496 1056.87 111.196 1056.87 112.14ZM1067.75 110.514L1065.5 110.109C1065.76 109.207 1066.19 108.539 1066.8 108.105C1067.42 107.672 1068.33 107.455 1069.55 107.455C1070.65 107.455 1071.47 107.587 1072.01 107.851C1072.55 108.108 1072.92 108.439 1073.14 108.844C1073.36 109.242 1073.48 109.978 1073.48 111.05L1073.45 113.933C1073.45 114.753 1073.49 115.359 1073.56 115.752C1073.65 116.139 1073.79 116.555 1074.01 117H1071.57C1071.5 116.836 1071.42 116.593 1071.33 116.271C1071.29 116.124 1071.26 116.027 1071.24 115.98C1070.82 116.391 1070.37 116.698 1069.89 116.903C1069.41 117.108 1068.9 117.211 1068.35 117.211C1067.39 117.211 1066.63 116.95 1066.08 116.429C1065.52 115.907 1065.25 115.248 1065.25 114.451C1065.25 113.924 1065.38 113.455 1065.63 113.045C1065.88 112.629 1066.23 112.312 1066.68 112.096C1067.14 111.873 1067.79 111.68 1068.65 111.516C1069.8 111.299 1070.6 111.097 1071.05 110.909V110.663C1071.05 110.188 1070.93 109.852 1070.7 109.652C1070.46 109.447 1070.02 109.345 1069.37 109.345C1068.93 109.345 1068.59 109.433 1068.34 109.608C1068.1 109.778 1067.9 110.08 1067.75 110.514ZM1071.05 112.518C1070.73 112.623 1070.23 112.749 1069.55 112.896C1068.86 113.042 1068.41 113.186 1068.2 113.326C1067.88 113.555 1067.72 113.845 1067.72 114.196C1067.72 114.542 1067.85 114.841 1068.11 115.093C1068.36 115.345 1068.69 115.471 1069.09 115.471C1069.54 115.471 1069.96 115.324 1070.36 115.031C1070.66 114.809 1070.86 114.536 1070.95 114.214C1071.02 114.003 1071.05 113.602 1071.05 113.01V112.518ZM1070.87 106.523H1069.32L1066.89 103.896H1069.66L1070.87 106.523ZM1074.75 107.666H1077.38L1079.61 114.293L1081.79 107.666H1084.35L1081.05 116.648L1080.46 118.274C1080.25 118.819 1080.04 119.235 1079.84 119.522C1079.65 119.81 1079.42 120.041 1079.16 120.217C1078.91 120.398 1078.6 120.539 1078.22 120.639C1077.85 120.738 1077.43 120.788 1076.96 120.788C1076.49 120.788 1076.02 120.738 1075.57 120.639L1075.35 118.705C1075.73 118.781 1076.08 118.819 1076.39 118.819C1076.97 118.819 1077.39 118.649 1077.67 118.31C1077.94 117.976 1078.15 117.548 1078.3 117.026L1074.75 107.666Z" fill="white"/>
</svg>
