<svg width="1298" height="222" viewBox="0 0 1298 222" fill="none" xmlns="http://www.w3.org/2000/svg">
<rect x="0.5" y="0.5" width="1297" height="221" stroke="#4C566A"/>
<path d="M395.31 102.115H400.056C401.146 102.115 401.972 102.2 402.534 102.37C403.296 102.599 403.946 103.003 404.485 103.583C405.024 104.157 405.429 104.854 405.698 105.675C405.974 106.495 406.111 107.509 406.111 108.716C406.111 109.776 405.959 110.734 405.654 111.59C405.355 112.439 404.913 113.148 404.327 113.717C403.876 114.145 403.27 114.481 402.508 114.728C401.934 114.909 401.163 115 400.196 115H395.31V109.375H393.974V107.74H395.31V102.115ZM397.902 104.295V107.74H400.662V109.375H397.902V112.829H399.854C400.715 112.829 401.336 112.759 401.717 112.618C402.221 112.442 402.604 112.12 402.868 111.651C403.237 110.989 403.422 109.979 403.422 108.619C403.422 107.652 403.343 106.908 403.185 106.387C403.032 105.859 402.804 105.435 402.499 105.112C402.2 104.79 401.808 104.564 401.321 104.436C400.946 104.342 400.199 104.295 399.08 104.295H397.902ZM407.729 110.201C407.729 109.381 407.931 108.587 408.335 107.819C408.739 107.052 409.311 106.466 410.049 106.062C410.793 105.657 411.622 105.455 412.536 105.455C413.948 105.455 415.105 105.915 416.008 106.835C416.91 107.749 417.361 108.906 417.361 110.307C417.361 111.719 416.904 112.891 415.99 113.822C415.082 114.748 413.937 115.211 412.554 115.211C411.698 115.211 410.881 115.018 410.102 114.631C409.328 114.244 408.739 113.679 408.335 112.935C407.931 112.185 407.729 111.273 407.729 110.201ZM410.26 110.333C410.26 111.259 410.479 111.968 410.919 112.46C411.358 112.952 411.9 113.198 412.545 113.198C413.189 113.198 413.729 112.952 414.162 112.46C414.602 111.968 414.821 111.253 414.821 110.315C414.821 109.401 414.602 108.698 414.162 108.206C413.729 107.714 413.189 107.468 412.545 107.468C411.9 107.468 411.358 107.714 410.919 108.206C410.479 108.698 410.26 109.407 410.26 110.333ZM409.565 104.488L411.411 101.896H413.696L415.516 104.488H413.529L412.51 103.179L411.561 104.488H409.565ZM413.723 101.421H412.167L409.741 98.9424H412.51L413.723 101.421ZM428.594 105.666V107.635H426.906V111.396C426.906 112.158 426.921 112.604 426.95 112.732C426.985 112.855 427.059 112.958 427.17 113.04C427.287 113.122 427.428 113.163 427.592 113.163C427.82 113.163 428.151 113.084 428.585 112.926L428.796 114.842C428.222 115.088 427.571 115.211 426.845 115.211C426.399 115.211 425.998 115.138 425.641 114.991C425.283 114.839 425.02 114.646 424.85 114.411C424.686 114.171 424.571 113.849 424.507 113.444C424.454 113.157 424.428 112.577 424.428 111.704V107.635H423.294V105.666H424.428V103.812L426.906 102.37V105.666H428.594ZM432.769 102.115V106.853C433.565 105.921 434.518 105.455 435.625 105.455C436.193 105.455 436.706 105.561 437.163 105.771C437.62 105.982 437.963 106.252 438.191 106.58C438.426 106.908 438.584 107.271 438.666 107.67C438.754 108.068 438.798 108.687 438.798 109.524V115H436.328V110.069C436.328 109.091 436.281 108.47 436.188 108.206C436.094 107.942 435.927 107.734 435.687 107.582C435.452 107.424 435.156 107.345 434.799 107.345C434.389 107.345 434.022 107.444 433.7 107.644C433.378 107.843 433.141 108.145 432.988 108.549C432.842 108.947 432.769 109.539 432.769 110.324V115H430.299V102.115H432.769ZM441.312 104.4V102.115H443.781V104.4H441.312ZM441.312 115V105.666H443.781V115H441.312ZM441.32 118.524V116.055H443.79V118.524H441.32ZM459.47 108.426L457.035 108.865C456.953 108.379 456.766 108.013 456.473 107.767C456.186 107.521 455.811 107.397 455.348 107.397C454.732 107.397 454.24 107.611 453.871 108.039C453.508 108.461 453.326 109.17 453.326 110.166C453.326 111.273 453.511 112.056 453.88 112.513C454.255 112.97 454.756 113.198 455.383 113.198C455.852 113.198 456.235 113.066 456.534 112.803C456.833 112.533 457.044 112.073 457.167 111.423L459.593 111.836C459.341 112.949 458.857 113.79 458.143 114.358C457.428 114.927 456.47 115.211 455.269 115.211C453.903 115.211 452.813 114.78 451.999 113.919C451.19 113.058 450.786 111.865 450.786 110.342C450.786 108.801 451.193 107.603 452.008 106.747C452.822 105.886 453.924 105.455 455.312 105.455C456.449 105.455 457.352 105.701 458.02 106.193C458.693 106.68 459.177 107.424 459.47 108.426ZM460.779 110.201C460.779 109.381 460.981 108.587 461.386 107.819C461.79 107.052 462.361 106.466 463.1 106.062C463.844 105.657 464.673 105.455 465.587 105.455C466.999 105.455 468.156 105.915 469.059 106.835C469.961 107.749 470.412 108.906 470.412 110.307C470.412 111.719 469.955 112.891 469.041 113.822C468.133 114.748 466.987 115.211 465.604 115.211C464.749 115.211 463.932 115.018 463.152 114.631C462.379 114.244 461.79 113.679 461.386 112.935C460.981 112.185 460.779 111.273 460.779 110.201ZM463.311 110.333C463.311 111.259 463.53 111.968 463.97 112.46C464.409 112.952 464.951 113.198 465.596 113.198C466.24 113.198 466.779 112.952 467.213 112.46C467.652 111.968 467.872 111.253 467.872 110.315C467.872 109.401 467.652 108.698 467.213 108.206C466.779 107.714 466.24 107.468 465.596 107.468C464.951 107.468 464.409 107.714 463.97 108.206C463.53 108.698 463.311 109.407 463.311 110.333ZM462.616 104.488L464.462 101.896H466.747L468.566 104.488H466.58L465.561 103.179L464.611 104.488H462.616ZM464.26 118.524V116.055H466.729V118.524H464.26ZM476.635 105.666V107.635H474.947V111.396C474.947 112.158 474.962 112.604 474.991 112.732C475.026 112.855 475.1 112.958 475.211 113.04C475.328 113.122 475.469 113.163 475.633 113.163C475.861 113.163 476.192 113.084 476.626 112.926L476.837 114.842C476.263 115.088 475.612 115.211 474.886 115.211C474.44 115.211 474.039 115.138 473.682 114.991C473.324 114.839 473.061 114.646 472.891 114.411C472.727 114.171 472.612 113.849 472.548 113.444C472.495 113.157 472.469 112.577 472.469 111.704V107.635H471.335V105.666H472.469V103.812L474.947 102.37V105.666H476.635ZM487.639 105.666V107.635H485.951V111.396C485.951 112.158 485.966 112.604 485.995 112.732C486.03 112.855 486.104 112.958 486.215 113.04C486.332 113.122 486.473 113.163 486.637 113.163C486.865 113.163 487.196 113.084 487.63 112.926L487.841 114.842C487.267 115.088 486.616 115.211 485.89 115.211C485.444 115.211 485.043 115.138 484.686 114.991C484.328 114.839 484.064 114.646 483.895 114.411C483.73 114.171 483.616 113.849 483.552 113.444C483.499 113.157 483.473 112.577 483.473 111.704V107.635H482.339V105.666H483.473V103.812L485.951 102.37V105.666H487.639ZM491.813 102.115V106.853C492.61 105.921 493.562 105.455 494.67 105.455C495.238 105.455 495.751 105.561 496.208 105.771C496.665 105.982 497.008 106.252 497.236 106.58C497.471 106.908 497.629 107.271 497.711 107.67C497.799 108.068 497.843 108.687 497.843 109.524V115H495.373V110.069C495.373 109.091 495.326 108.47 495.232 108.206C495.139 107.942 494.972 107.734 494.731 107.582C494.497 107.424 494.201 107.345 493.844 107.345C493.434 107.345 493.067 107.444 492.745 107.644C492.423 107.843 492.186 108.145 492.033 108.549C491.887 108.947 491.813 109.539 491.813 110.324V115H489.344V102.115H491.813ZM505.762 112.029L508.223 112.442C507.906 113.345 507.405 114.033 506.72 114.508C506.04 114.977 505.188 115.211 504.162 115.211C502.539 115.211 501.338 114.681 500.559 113.62C499.943 112.771 499.636 111.698 499.636 110.403C499.636 108.856 500.04 107.646 500.849 106.773C501.657 105.895 502.68 105.455 503.916 105.455C505.305 105.455 506.4 105.915 507.203 106.835C508.006 107.749 508.39 109.152 508.354 111.045H502.167C502.185 111.777 502.384 112.349 502.765 112.759C503.146 113.163 503.62 113.365 504.188 113.365C504.575 113.365 504.9 113.26 505.164 113.049C505.428 112.838 505.627 112.498 505.762 112.029ZM505.902 109.533C505.885 108.818 505.7 108.276 505.349 107.907C504.997 107.532 504.569 107.345 504.065 107.345C503.526 107.345 503.081 107.541 502.729 107.934C502.378 108.326 502.205 108.859 502.211 109.533H505.902ZM501.024 104.488L502.87 101.896H505.155L506.975 104.488H504.988L503.969 103.179L503.02 104.488H501.024ZM503.477 100.674C503.811 100.639 504.024 100.606 504.118 100.577C504.429 100.501 504.587 100.366 504.593 100.173C504.599 100.038 504.517 99.9238 504.347 99.8301C504.101 99.6953 503.711 99.6279 503.178 99.6279C502.996 99.6279 502.721 99.6396 502.352 99.6631L502.255 98.7666C502.483 98.7197 502.905 98.6992 503.521 98.7051C504.241 98.7109 504.83 98.8281 505.287 99.0566C505.791 99.3027 506.049 99.6455 506.061 100.085C506.084 100.694 505.551 101.066 504.461 101.201V101.641H503.477V100.674ZM517.847 102.115V106.853C518.644 105.921 519.596 105.455 520.703 105.455C521.271 105.455 521.784 105.561 522.241 105.771C522.698 105.982 523.041 106.252 523.27 106.58C523.504 106.908 523.662 107.271 523.744 107.67C523.832 108.068 523.876 108.687 523.876 109.524V115H521.406V110.069C521.406 109.091 521.359 108.47 521.266 108.206C521.172 107.942 521.005 107.734 520.765 107.582C520.53 107.424 520.234 107.345 519.877 107.345C519.467 107.345 519.101 107.444 518.778 107.644C518.456 107.843 518.219 108.145 518.066 108.549C517.92 108.947 517.847 109.539 517.847 110.324V115H515.377V102.115H517.847ZM526.39 104.4V102.115H528.859V104.4H526.39ZM526.39 115V105.666H528.859V115H526.39ZM536.805 112.029L539.266 112.442C538.949 113.345 538.448 114.033 537.763 114.508C537.083 114.977 536.23 115.211 535.205 115.211C533.582 115.211 532.381 114.681 531.602 113.62C530.986 112.771 530.679 111.698 530.679 110.403C530.679 108.856 531.083 107.646 531.892 106.773C532.7 105.895 533.723 105.455 534.959 105.455C536.348 105.455 537.443 105.915 538.246 106.835C539.049 107.749 539.433 109.152 539.397 111.045H533.21C533.228 111.777 533.427 112.349 533.808 112.759C534.188 113.163 534.663 113.365 535.231 113.365C535.618 113.365 535.943 113.26 536.207 113.049C536.471 112.838 536.67 112.498 536.805 112.029ZM536.945 109.533C536.928 108.818 536.743 108.276 536.392 107.907C536.04 107.532 535.612 107.345 535.108 107.345C534.569 107.345 534.124 107.541 533.772 107.934C533.421 108.326 533.248 108.859 533.254 109.533H536.945ZM532.067 104.488L533.913 101.896H536.198L538.018 104.488H536.031L535.012 103.179L534.062 104.488H532.067ZM533.869 118.524V116.055H536.339V118.524H533.869ZM549.909 115H547.439V110.236C547.439 109.229 547.387 108.578 547.281 108.285C547.176 107.986 547.003 107.755 546.763 107.591C546.528 107.427 546.244 107.345 545.91 107.345C545.482 107.345 545.099 107.462 544.759 107.696C544.419 107.931 544.185 108.241 544.056 108.628C543.933 109.015 543.871 109.729 543.871 110.772V115H541.401V105.666H543.695V107.037C544.51 105.982 545.535 105.455 546.771 105.455C547.316 105.455 547.814 105.555 548.266 105.754C548.717 105.947 549.057 106.196 549.285 106.501C549.52 106.806 549.681 107.151 549.769 107.538C549.862 107.925 549.909 108.479 549.909 109.199V115ZM557.248 105.666H559.524V106.94C560.339 105.95 561.309 105.455 562.434 105.455C563.031 105.455 563.55 105.578 563.989 105.824C564.429 106.07 564.789 106.442 565.07 106.94C565.48 106.442 565.923 106.07 566.397 105.824C566.872 105.578 567.379 105.455 567.918 105.455C568.604 105.455 569.184 105.596 569.658 105.877C570.133 106.152 570.487 106.56 570.722 107.099C570.892 107.497 570.977 108.142 570.977 109.032V115H568.507V109.665C568.507 108.739 568.422 108.142 568.252 107.872C568.023 107.521 567.672 107.345 567.197 107.345C566.852 107.345 566.526 107.45 566.222 107.661C565.917 107.872 565.697 108.183 565.562 108.593C565.428 108.997 565.36 109.639 565.36 110.518V115H562.891V109.885C562.891 108.977 562.847 108.391 562.759 108.127C562.671 107.863 562.533 107.667 562.346 107.538C562.164 107.409 561.915 107.345 561.599 107.345C561.218 107.345 560.875 107.447 560.57 107.652C560.266 107.857 560.046 108.153 559.911 108.54C559.782 108.927 559.718 109.568 559.718 110.465V115H557.248V105.666ZM582.719 105.666H585.188V107.433C585.188 108.159 585.124 108.728 584.995 109.138C584.872 109.548 584.641 109.914 584.301 110.236C583.779 110.74 582.974 111.08 581.884 111.256V115H579.59V113.603C578.857 114.675 577.826 115.211 576.496 115.211C575.119 115.211 574.196 114.687 573.728 113.638C573.505 113.14 573.394 112.451 573.394 111.572V105.666H575.863V109.955C575.863 111.186 575.91 111.988 576.004 112.363C576.068 112.645 576.232 112.879 576.496 113.066C576.736 113.242 577.041 113.33 577.41 113.33C577.826 113.33 578.201 113.216 578.535 112.987C578.875 112.759 579.106 112.472 579.229 112.126C579.353 111.78 579.414 110.939 579.414 109.604V105.666H581.884V110.254C582.698 110.09 583.27 109.785 583.598 109.34C583.797 109.07 583.902 108.669 583.914 108.136H582.719V105.666ZM576.391 104.523L577.604 101.896H580.372L577.955 104.523H576.391ZM594.628 108.426L592.193 108.865C592.111 108.379 591.924 108.013 591.631 107.767C591.344 107.521 590.969 107.397 590.506 107.397C589.891 107.397 589.398 107.611 589.029 108.039C588.666 108.461 588.484 109.17 588.484 110.166C588.484 111.273 588.669 112.056 589.038 112.513C589.413 112.97 589.914 113.198 590.541 113.198C591.01 113.198 591.394 113.066 591.692 112.803C591.991 112.533 592.202 112.073 592.325 111.423L594.751 111.836C594.499 112.949 594.016 113.79 593.301 114.358C592.586 114.927 591.628 115.211 590.427 115.211C589.062 115.211 587.972 114.78 587.157 113.919C586.349 113.058 585.944 111.865 585.944 110.342C585.944 108.801 586.352 107.603 587.166 106.747C587.98 105.886 589.082 105.455 590.471 105.455C591.607 105.455 592.51 105.701 593.178 106.193C593.852 106.68 594.335 107.424 594.628 108.426ZM607.609 104.673H604.946V103.029H607.609V102.115H610.079V103.029H611.055V104.673H610.079V115H607.785V113.629C607.404 114.162 606.953 114.561 606.432 114.824C605.916 115.082 605.395 115.211 604.867 115.211C603.795 115.211 602.875 114.78 602.107 113.919C601.346 113.052 600.965 111.845 600.965 110.298C600.965 108.716 601.337 107.515 602.081 106.694C602.825 105.868 603.766 105.455 604.902 105.455C605.945 105.455 606.848 105.889 607.609 106.756V104.673ZM603.487 110.131C603.487 111.127 603.625 111.848 603.9 112.293C604.299 112.938 604.855 113.26 605.57 113.26C606.139 113.26 606.622 113.02 607.021 112.539C607.419 112.053 607.618 111.329 607.618 110.368C607.618 109.296 607.425 108.525 607.038 108.057C606.651 107.582 606.156 107.345 605.553 107.345C604.967 107.345 604.475 107.579 604.076 108.048C603.684 108.511 603.487 109.205 603.487 110.131ZM611.951 110.201C611.951 109.381 612.153 108.587 612.558 107.819C612.962 107.052 613.533 106.466 614.271 106.062C615.016 105.657 615.845 105.455 616.759 105.455C618.171 105.455 619.328 105.915 620.23 106.835C621.133 107.749 621.584 108.906 621.584 110.307C621.584 111.719 621.127 112.891 620.213 113.822C619.305 114.748 618.159 115.211 616.776 115.211C615.921 115.211 615.104 115.018 614.324 114.631C613.551 114.244 612.962 113.679 612.558 112.935C612.153 112.185 611.951 111.273 611.951 110.201ZM614.482 110.333C614.482 111.259 614.702 111.968 615.142 112.46C615.581 112.952 616.123 113.198 616.768 113.198C617.412 113.198 617.951 112.952 618.385 112.46C618.824 111.968 619.044 111.253 619.044 110.315C619.044 109.401 618.824 108.698 618.385 108.206C617.951 107.714 617.412 107.468 616.768 107.468C616.123 107.468 615.581 107.714 615.142 108.206C614.702 108.698 614.482 109.407 614.482 110.333ZM613.788 104.488L615.634 101.896H617.919L619.738 104.488H617.752L616.732 103.179L615.783 104.488H613.788ZM615.432 118.524V116.055H617.901V118.524H615.432ZM630.382 108.514L628.141 108.109C628.393 107.207 628.826 106.539 629.441 106.105C630.057 105.672 630.971 105.455 632.184 105.455C633.285 105.455 634.105 105.587 634.645 105.851C635.184 106.108 635.562 106.439 635.778 106.844C636.001 107.242 636.112 107.978 636.112 109.05L636.086 111.933C636.086 112.753 636.124 113.359 636.2 113.752C636.282 114.139 636.432 114.555 636.648 115H634.205C634.141 114.836 634.062 114.593 633.968 114.271C633.927 114.124 633.897 114.027 633.88 113.98C633.458 114.391 633.007 114.698 632.526 114.903C632.046 115.108 631.533 115.211 630.988 115.211C630.027 115.211 629.269 114.95 628.712 114.429C628.161 113.907 627.886 113.248 627.886 112.451C627.886 111.924 628.012 111.455 628.264 111.045C628.516 110.629 628.867 110.312 629.318 110.096C629.775 109.873 630.432 109.68 631.287 109.516C632.441 109.299 633.241 109.097 633.687 108.909V108.663C633.687 108.188 633.569 107.852 633.335 107.652C633.101 107.447 632.658 107.345 632.008 107.345C631.568 107.345 631.226 107.433 630.979 107.608C630.733 107.778 630.534 108.08 630.382 108.514ZM633.687 110.518C633.37 110.623 632.869 110.749 632.184 110.896C631.498 111.042 631.05 111.186 630.839 111.326C630.517 111.555 630.355 111.845 630.355 112.196C630.355 112.542 630.484 112.841 630.742 113.093C631 113.345 631.328 113.471 631.727 113.471C632.172 113.471 632.597 113.324 633.001 113.031C633.3 112.809 633.496 112.536 633.59 112.214C633.654 112.003 633.687 111.602 633.687 111.01V110.518ZM631.691 103.557C632.025 103.521 632.239 103.489 632.333 103.46C632.644 103.384 632.802 103.249 632.808 103.056C632.813 102.921 632.731 102.807 632.562 102.713C632.315 102.578 631.926 102.511 631.393 102.511C631.211 102.511 630.936 102.522 630.566 102.546L630.47 101.649C630.698 101.603 631.12 101.582 631.735 101.588C632.456 101.594 633.045 101.711 633.502 101.939C634.006 102.186 634.264 102.528 634.275 102.968C634.299 103.577 633.766 103.949 632.676 104.084V104.523H631.691V103.557ZM647.046 115H644.576V110.236C644.576 109.229 644.523 108.578 644.418 108.285C644.312 107.986 644.14 107.755 643.899 107.591C643.665 107.427 643.381 107.345 643.047 107.345C642.619 107.345 642.235 107.462 641.896 107.696C641.556 107.931 641.321 108.241 641.192 108.628C641.069 109.015 641.008 109.729 641.008 110.772V115H638.538V105.666H640.832V107.037C641.646 105.982 642.672 105.455 643.908 105.455C644.453 105.455 644.951 105.555 645.402 105.754C645.854 105.947 646.193 106.196 646.422 106.501C646.656 106.806 646.817 107.151 646.905 107.538C646.999 107.925 647.046 108.479 647.046 109.199V115ZM652.021 102.115V106.853C652.817 105.921 653.77 105.455 654.877 105.455C655.445 105.455 655.958 105.561 656.415 105.771C656.872 105.982 657.215 106.252 657.443 106.58C657.678 106.908 657.836 107.271 657.918 107.67C658.006 108.068 658.05 108.687 658.05 109.524V115H655.58V110.069C655.58 109.091 655.533 108.47 655.439 108.206C655.346 107.942 655.179 107.734 654.938 107.582C654.704 107.424 654.408 107.345 654.051 107.345C653.641 107.345 653.274 107.444 652.952 107.644C652.63 107.843 652.393 108.145 652.24 108.549C652.094 108.947 652.021 109.539 652.021 110.324V115H649.551V102.115H652.021ZM668.034 102.115V106.853C668.831 105.921 669.783 105.455 670.891 105.455C671.459 105.455 671.972 105.561 672.429 105.771C672.886 105.982 673.229 106.252 673.457 106.58C673.691 106.908 673.85 107.271 673.932 107.67C674.02 108.068 674.063 108.687 674.063 109.524V115H671.594V110.069C671.594 109.091 671.547 108.47 671.453 108.206C671.359 107.942 671.192 107.734 670.952 107.582C670.718 107.424 670.422 107.345 670.064 107.345C669.654 107.345 669.288 107.444 668.966 107.644C668.644 107.843 668.406 108.145 668.254 108.549C668.107 108.947 668.034 109.539 668.034 110.324V115H665.564V102.115H668.034ZM685.85 105.666H688.319V107.433C688.319 108.159 688.255 108.728 688.126 109.138C688.003 109.548 687.771 109.914 687.432 110.236C686.91 110.74 686.104 111.08 685.015 111.256V115H682.721V113.603C681.988 114.675 680.957 115.211 679.627 115.211C678.25 115.211 677.327 114.687 676.858 113.638C676.636 113.14 676.524 112.451 676.524 111.572V105.666H678.994V109.955C678.994 111.186 679.041 111.988 679.135 112.363C679.199 112.645 679.363 112.879 679.627 113.066C679.867 113.242 680.172 113.33 680.541 113.33C680.957 113.33 681.332 113.216 681.666 112.987C682.006 112.759 682.237 112.472 682.36 112.126C682.483 111.78 682.545 110.939 682.545 109.604V105.666H685.015V110.254C685.829 110.09 686.4 109.785 686.729 109.34C686.928 109.07 687.033 108.669 687.045 108.136H685.85V105.666ZM691.58 110.333C691.58 111.229 691.8 111.938 692.239 112.46C692.655 112.952 693.197 113.198 693.865 113.198C694.533 113.198 695.072 112.952 695.482 112.46C695.922 111.938 696.142 111.224 696.142 110.315C696.142 109.425 695.922 108.722 695.482 108.206C695.072 107.714 694.533 107.468 693.865 107.468C693.197 107.468 692.655 107.714 692.239 108.206C691.8 108.728 691.58 109.437 691.58 110.333ZM698.655 105.666H701.125V107.433C701.125 108.159 701.061 108.728 700.932 109.138C700.809 109.548 700.577 109.914 700.237 110.236C699.845 110.617 699.309 110.916 698.629 111.133C698.482 112.182 698.046 113.075 697.319 113.813C696.405 114.745 695.257 115.211 693.874 115.211C692.989 115.211 692.175 115.018 691.431 114.631C690.64 114.221 690.045 113.649 689.646 112.917C689.248 112.179 689.049 111.273 689.049 110.201C689.049 109.357 689.251 108.563 689.655 107.819C690.077 107.04 690.654 106.451 691.387 106.053C692.119 105.654 692.942 105.455 693.856 105.455C695.269 105.455 696.426 105.912 697.328 106.826C698.143 107.658 698.591 108.687 698.673 109.911C699.435 109.601 699.827 109.009 699.851 108.136H698.655V105.666ZM693.364 103.557C693.698 103.521 693.912 103.489 694.006 103.46C694.316 103.384 694.475 103.249 694.48 103.056C694.486 102.921 694.404 102.807 694.234 102.713C693.988 102.578 693.599 102.511 693.065 102.511C692.884 102.511 692.608 102.522 692.239 102.546L692.143 101.649C692.371 101.603 692.793 101.582 693.408 101.588C694.129 101.594 694.718 101.711 695.175 101.939C695.679 102.186 695.937 102.528 695.948 102.968C695.972 103.577 695.438 103.949 694.349 104.084V104.523H693.364V103.557ZM710.907 115H708.438V110.236C708.438 109.229 708.385 108.578 708.279 108.285C708.174 107.986 708.001 107.755 707.761 107.591C707.526 107.427 707.242 107.345 706.908 107.345C706.48 107.345 706.097 107.462 705.757 107.696C705.417 107.931 705.183 108.241 705.054 108.628C704.931 109.015 704.869 109.729 704.869 110.772V115H702.399V105.666H704.693V107.037C705.508 105.982 706.533 105.455 707.77 105.455C708.314 105.455 708.812 105.555 709.264 105.754C709.715 105.947 710.055 106.196 710.283 106.501C710.518 106.806 710.679 107.151 710.767 107.538C710.86 107.925 710.907 108.479 710.907 109.199V115ZM713.192 115.615L716.014 115.958C716.061 116.286 716.169 116.512 716.339 116.635C716.573 116.811 716.942 116.898 717.446 116.898C718.091 116.898 718.574 116.802 718.896 116.608C719.113 116.479 719.277 116.271 719.389 115.984C719.465 115.779 719.503 115.401 719.503 114.851V113.488C718.765 114.496 717.833 115 716.708 115C715.454 115 714.461 114.47 713.729 113.409C713.154 112.571 712.867 111.528 712.867 110.28C712.867 108.716 713.242 107.521 713.992 106.694C714.748 105.868 715.686 105.455 716.805 105.455C717.959 105.455 718.911 105.962 719.661 106.976V105.666H721.973V114.042C721.973 115.144 721.882 115.967 721.7 116.512C721.519 117.057 721.264 117.484 720.936 117.795C720.607 118.105 720.168 118.349 719.617 118.524C719.072 118.7 718.381 118.788 717.543 118.788C715.961 118.788 714.839 118.516 714.177 117.971C713.515 117.432 713.184 116.746 713.184 115.914C713.184 115.832 713.187 115.732 713.192 115.615ZM715.398 110.14C715.398 111.13 715.589 111.856 715.97 112.319C716.356 112.776 716.831 113.005 717.394 113.005C717.997 113.005 718.507 112.771 718.923 112.302C719.339 111.827 719.547 111.127 719.547 110.201C719.547 109.234 719.348 108.517 718.949 108.048C718.551 107.579 718.047 107.345 717.438 107.345C716.846 107.345 716.356 107.576 715.97 108.039C715.589 108.496 715.398 109.196 715.398 110.14ZM737.573 108.426L735.139 108.865C735.057 108.379 734.869 108.013 734.576 107.767C734.289 107.521 733.914 107.397 733.451 107.397C732.836 107.397 732.344 107.611 731.975 108.039C731.611 108.461 731.43 109.17 731.43 110.166C731.43 111.273 731.614 112.056 731.983 112.513C732.358 112.97 732.859 113.198 733.486 113.198C733.955 113.198 734.339 113.066 734.638 112.803C734.937 112.533 735.147 112.073 735.271 111.423L737.696 111.836C737.444 112.949 736.961 113.79 736.246 114.358C735.531 114.927 734.573 115.211 733.372 115.211C732.007 115.211 730.917 114.78 730.103 113.919C729.294 113.058 728.89 111.865 728.89 110.342C728.89 108.801 729.297 107.603 730.111 106.747C730.926 105.886 732.027 105.455 733.416 105.455C734.553 105.455 735.455 105.701 736.123 106.193C736.797 106.68 737.28 107.424 737.573 108.426ZM745.598 115V113.603C745.258 114.101 744.81 114.493 744.253 114.78C743.702 115.067 743.119 115.211 742.504 115.211C741.877 115.211 741.314 115.073 740.816 114.798C740.318 114.522 739.958 114.136 739.735 113.638C739.513 113.14 739.401 112.451 739.401 111.572V105.666H741.871V109.955C741.871 111.268 741.915 112.073 742.003 112.372C742.097 112.665 742.264 112.899 742.504 113.075C742.744 113.245 743.049 113.33 743.418 113.33C743.84 113.33 744.218 113.216 744.552 112.987C744.886 112.753 745.114 112.466 745.237 112.126C745.36 111.78 745.422 110.939 745.422 109.604V105.666H747.892V115H745.598ZM743.207 103.557C743.541 103.521 743.755 103.489 743.849 103.46C744.159 103.384 744.317 103.249 744.323 103.056C744.329 102.921 744.247 102.807 744.077 102.713C743.831 102.578 743.441 102.511 742.908 102.511C742.727 102.511 742.451 102.522 742.082 102.546L741.985 101.649C742.214 101.603 742.636 101.582 743.251 101.588C743.972 101.594 744.561 101.711 745.018 101.939C745.521 102.186 745.779 102.528 745.791 102.968C745.814 103.577 745.281 103.949 744.191 104.084V104.523H743.207V103.557ZM752.304 108.514L750.062 108.109C750.314 107.207 750.748 106.539 751.363 106.105C751.979 105.672 752.893 105.455 754.105 105.455C755.207 105.455 756.027 105.587 756.566 105.851C757.105 106.108 757.483 106.439 757.7 106.844C757.923 107.242 758.034 107.978 758.034 109.05L758.008 111.933C758.008 112.753 758.046 113.359 758.122 113.752C758.204 114.139 758.354 114.555 758.57 115H756.127C756.062 114.836 755.983 114.593 755.89 114.271C755.849 114.124 755.819 114.027 755.802 113.98C755.38 114.391 754.929 114.698 754.448 114.903C753.968 115.108 753.455 115.211 752.91 115.211C751.949 115.211 751.19 114.95 750.634 114.429C750.083 113.907 749.808 113.248 749.808 112.451C749.808 111.924 749.934 111.455 750.186 111.045C750.438 110.629 750.789 110.312 751.24 110.096C751.697 109.873 752.354 109.68 753.209 109.516C754.363 109.299 755.163 109.097 755.608 108.909V108.663C755.608 108.188 755.491 107.852 755.257 107.652C755.022 107.447 754.58 107.345 753.93 107.345C753.49 107.345 753.147 107.433 752.901 107.608C752.655 107.778 752.456 108.08 752.304 108.514ZM755.608 110.518C755.292 110.623 754.791 110.749 754.105 110.896C753.42 111.042 752.972 111.186 752.761 111.326C752.438 111.555 752.277 111.845 752.277 112.196C752.277 112.542 752.406 112.841 752.664 113.093C752.922 113.345 753.25 113.471 753.648 113.471C754.094 113.471 754.519 113.324 754.923 113.031C755.222 112.809 755.418 112.536 755.512 112.214C755.576 112.003 755.608 111.602 755.608 111.01V110.518ZM764.872 111.581L767.263 111.291C767.339 111.9 767.544 112.366 767.878 112.688C768.212 113.011 768.616 113.172 769.091 113.172C769.601 113.172 770.028 112.979 770.374 112.592C770.726 112.205 770.901 111.684 770.901 111.027C770.901 110.406 770.734 109.914 770.4 109.551C770.066 109.188 769.659 109.006 769.179 109.006C768.862 109.006 768.484 109.067 768.045 109.19L768.317 107.178C768.985 107.195 769.495 107.052 769.847 106.747C770.198 106.437 770.374 106.026 770.374 105.517C770.374 105.083 770.245 104.737 769.987 104.479C769.729 104.222 769.387 104.093 768.959 104.093C768.537 104.093 768.177 104.239 767.878 104.532C767.579 104.825 767.397 105.253 767.333 105.815L765.057 105.429C765.215 104.649 765.452 104.028 765.769 103.565C766.091 103.097 766.536 102.73 767.104 102.467C767.679 102.197 768.32 102.062 769.029 102.062C770.242 102.062 771.215 102.449 771.947 103.223C772.551 103.855 772.853 104.57 772.853 105.367C772.853 106.498 772.234 107.4 770.998 108.074C771.736 108.232 772.325 108.587 772.765 109.138C773.21 109.688 773.433 110.354 773.433 111.133C773.433 112.264 773.02 113.228 772.193 114.024C771.367 114.821 770.339 115.22 769.108 115.22C767.942 115.22 766.976 114.886 766.208 114.218C765.44 113.544 764.995 112.665 764.872 111.581ZM779.154 102.062C780.402 102.062 781.378 102.508 782.081 103.398C782.919 104.453 783.338 106.202 783.338 108.646C783.338 111.083 782.916 112.835 782.072 113.901C781.375 114.78 780.402 115.22 779.154 115.22C777.9 115.22 776.89 114.739 776.122 113.778C775.354 112.812 774.971 111.092 774.971 108.619C774.971 106.193 775.393 104.447 776.236 103.381C776.934 102.502 777.906 102.062 779.154 102.062ZM779.154 104.11C778.855 104.11 778.589 104.207 778.354 104.4C778.12 104.588 777.938 104.928 777.81 105.42C777.64 106.059 777.555 107.134 777.555 108.646C777.555 110.157 777.631 111.197 777.783 111.766C777.936 112.328 778.126 112.703 778.354 112.891C778.589 113.078 778.855 113.172 779.154 113.172C779.453 113.172 779.72 113.078 779.954 112.891C780.188 112.697 780.37 112.354 780.499 111.862C780.669 111.229 780.754 110.157 780.754 108.646C780.754 107.134 780.678 106.097 780.525 105.534C780.373 104.966 780.18 104.588 779.945 104.4C779.717 104.207 779.453 104.11 779.154 104.11ZM790.352 105.666H792.628V106.94C793.442 105.95 794.412 105.455 795.537 105.455C796.135 105.455 796.653 105.578 797.093 105.824C797.532 106.07 797.893 106.442 798.174 106.94C798.584 106.442 799.026 106.07 799.501 105.824C799.976 105.578 800.482 105.455 801.021 105.455C801.707 105.455 802.287 105.596 802.762 105.877C803.236 106.152 803.591 106.56 803.825 107.099C803.995 107.497 804.08 108.142 804.08 109.032V115H801.61V109.665C801.61 108.739 801.525 108.142 801.355 107.872C801.127 107.521 800.775 107.345 800.301 107.345C799.955 107.345 799.63 107.45 799.325 107.661C799.021 107.872 798.801 108.183 798.666 108.593C798.531 108.997 798.464 109.639 798.464 110.518V115H795.994V109.885C795.994 108.977 795.95 108.391 795.862 108.127C795.774 107.863 795.637 107.667 795.449 107.538C795.268 107.409 795.019 107.345 794.702 107.345C794.321 107.345 793.979 107.447 793.674 107.652C793.369 107.857 793.149 108.153 793.015 108.54C792.886 108.927 792.821 109.568 792.821 110.465V115H790.352V105.666ZM808.396 108.514L806.154 108.109C806.406 107.207 806.84 106.539 807.455 106.105C808.07 105.672 808.984 105.455 810.197 105.455C811.299 105.455 812.119 105.587 812.658 105.851C813.197 106.108 813.575 106.439 813.792 106.844C814.015 107.242 814.126 107.978 814.126 109.05L814.1 111.933C814.1 112.753 814.138 113.359 814.214 113.752C814.296 114.139 814.445 114.555 814.662 115H812.219C812.154 114.836 812.075 114.593 811.981 114.271C811.94 114.124 811.911 114.027 811.894 113.98C811.472 114.391 811.021 114.698 810.54 114.903C810.06 115.108 809.547 115.211 809.002 115.211C808.041 115.211 807.282 114.95 806.726 114.429C806.175 113.907 805.899 113.248 805.899 112.451C805.899 111.924 806.025 111.455 806.277 111.045C806.529 110.629 806.881 110.312 807.332 110.096C807.789 109.873 808.445 109.68 809.301 109.516C810.455 109.299 811.255 109.097 811.7 108.909V108.663C811.7 108.188 811.583 107.852 811.349 107.652C811.114 107.447 810.672 107.345 810.021 107.345C809.582 107.345 809.239 107.433 808.993 107.608C808.747 107.778 808.548 108.08 808.396 108.514ZM811.7 110.518C811.384 110.623 810.883 110.749 810.197 110.896C809.512 111.042 809.063 111.186 808.853 111.326C808.53 111.555 808.369 111.845 808.369 112.196C808.369 112.542 808.498 112.841 808.756 113.093C809.014 113.345 809.342 113.471 809.74 113.471C810.186 113.471 810.61 113.324 811.015 113.031C811.313 112.809 811.51 112.536 811.604 112.214C811.668 112.003 811.7 111.602 811.7 111.01V110.518ZM808.378 104.409H807.253C807.247 104.274 807.244 104.169 807.244 104.093C807.244 103.478 807.394 103.006 807.692 102.678C807.991 102.344 808.375 102.177 808.844 102.177C809.049 102.177 809.239 102.2 809.415 102.247C809.591 102.288 809.91 102.414 810.373 102.625C810.842 102.83 811.208 102.933 811.472 102.933C811.659 102.933 811.814 102.874 811.938 102.757C812.066 102.64 812.148 102.443 812.184 102.168H813.326C813.32 102.959 813.171 103.524 812.878 103.864C812.591 104.204 812.219 104.374 811.762 104.374C811.562 104.374 811.366 104.354 811.173 104.312C811.038 104.277 810.701 104.157 810.162 103.952C809.623 103.747 809.23 103.645 808.984 103.645C808.797 103.645 808.65 103.703 808.545 103.82C808.439 103.932 808.384 104.128 808.378 104.409ZM821.579 115V102.115H824.049V115H821.579ZM831.994 112.029L834.455 112.442C834.139 113.345 833.638 114.033 832.952 114.508C832.272 114.977 831.42 115.211 830.395 115.211C828.771 115.211 827.57 114.681 826.791 113.62C826.176 112.771 825.868 111.698 825.868 110.403C825.868 108.856 826.272 107.646 827.081 106.773C827.89 105.895 828.912 105.455 830.148 105.455C831.537 105.455 832.633 105.915 833.436 106.835C834.238 107.749 834.622 109.152 834.587 111.045H828.399C828.417 111.777 828.616 112.349 828.997 112.759C829.378 113.163 829.853 113.365 830.421 113.365C830.808 113.365 831.133 113.26 831.396 113.049C831.66 112.838 831.859 112.498 831.994 112.029ZM832.135 109.533C832.117 108.818 831.933 108.276 831.581 107.907C831.229 107.532 830.802 107.345 830.298 107.345C829.759 107.345 829.313 107.541 828.962 107.934C828.61 108.326 828.438 108.859 828.443 109.533H832.135ZM827.257 104.488L829.103 101.896H831.388L833.207 104.488H831.221L830.201 103.179L829.252 104.488H827.257ZM845.099 115H842.629V110.236C842.629 109.229 842.576 108.578 842.471 108.285C842.365 107.986 842.192 107.755 841.952 107.591C841.718 107.427 841.434 107.345 841.1 107.345C840.672 107.345 840.288 107.462 839.948 107.696C839.608 107.931 839.374 108.241 839.245 108.628C839.122 109.015 839.061 109.729 839.061 110.772V115H836.591V105.666H838.885V107.037C839.699 105.982 840.725 105.455 841.961 105.455C842.506 105.455 843.004 105.555 843.455 105.754C843.906 105.947 844.246 106.196 844.475 106.501C844.709 106.806 844.87 107.151 844.958 107.538C845.052 107.925 845.099 108.479 845.099 109.199V115ZM855.927 115L851.321 102.115H854.143L857.403 111.651L860.559 102.115H863.318L858.704 115H855.927ZM864.672 115V102.115H867.203L872.477 110.72V102.115H874.894V115H872.283L867.089 106.598V115H864.672ZM877.021 111.581L879.411 111.291C879.487 111.9 879.692 112.366 880.026 112.688C880.36 113.011 880.765 113.172 881.239 113.172C881.749 113.172 882.177 112.979 882.522 112.592C882.874 112.205 883.05 111.684 883.05 111.027C883.05 110.406 882.883 109.914 882.549 109.551C882.215 109.188 881.808 109.006 881.327 109.006C881.011 109.006 880.633 109.067 880.193 109.19L880.466 107.178C881.134 107.195 881.644 107.052 881.995 106.747C882.347 106.437 882.522 106.026 882.522 105.517C882.522 105.083 882.394 104.737 882.136 104.479C881.878 104.222 881.535 104.093 881.107 104.093C880.686 104.093 880.325 104.239 880.026 104.532C879.728 104.825 879.546 105.253 879.481 105.815L877.205 105.429C877.363 104.649 877.601 104.028 877.917 103.565C878.239 103.097 878.685 102.73 879.253 102.467C879.827 102.197 880.469 102.062 881.178 102.062C882.391 102.062 883.363 102.449 884.096 103.223C884.699 103.855 885.001 104.57 885.001 105.367C885.001 106.498 884.383 107.4 883.146 108.074C883.885 108.232 884.474 108.587 884.913 109.138C885.358 109.688 885.581 110.354 885.581 111.133C885.581 112.264 885.168 113.228 884.342 114.024C883.516 114.821 882.487 115.22 881.257 115.22C880.091 115.22 879.124 114.886 878.356 114.218C877.589 113.544 877.144 112.665 877.021 111.581ZM891.303 102.062C892.551 102.062 893.526 102.508 894.229 103.398C895.067 104.453 895.486 106.202 895.486 108.646C895.486 111.083 895.064 112.835 894.221 113.901C893.523 114.78 892.551 115.22 891.303 115.22C890.049 115.22 889.038 114.739 888.271 113.778C887.503 112.812 887.119 111.092 887.119 108.619C887.119 106.193 887.541 104.447 888.385 103.381C889.082 102.502 890.055 102.062 891.303 102.062ZM891.303 104.11C891.004 104.11 890.737 104.207 890.503 104.4C890.269 104.588 890.087 104.928 889.958 105.42C889.788 106.059 889.703 107.134 889.703 108.646C889.703 110.157 889.779 111.197 889.932 111.766C890.084 112.328 890.274 112.703 890.503 112.891C890.737 113.078 891.004 113.172 891.303 113.172C891.602 113.172 891.868 113.078 892.103 112.891C892.337 112.697 892.519 112.354 892.647 111.862C892.817 111.229 892.902 110.157 892.902 108.646C892.902 107.134 892.826 106.097 892.674 105.534C892.521 104.966 892.328 104.588 892.094 104.4C891.865 104.207 891.602 104.11 891.303 104.11Z" fill="white"/>
</svg>
