<svg width="1860" height="345" viewBox="0 0 1860 345" fill="none" xmlns="http://www.w3.org/2000/svg">
<rect width="1860" height="345" fill="black" fill-opacity="0.5"/>
<path d="M597.619 159.23H607.111C609.291 159.23 610.943 159.4 612.068 159.74C613.592 160.197 614.893 161.006 615.971 162.166C617.049 163.314 617.857 164.709 618.396 166.35C618.947 167.99 619.223 170.018 619.223 172.432C619.223 174.553 618.918 176.469 618.309 178.18C617.711 179.879 616.826 181.297 615.654 182.434C614.752 183.289 613.539 183.963 612.016 184.455C610.867 184.818 609.326 185 607.393 185H597.619V173.75H594.947V170.48H597.619V159.23ZM602.805 163.59V170.48H608.324V173.75H602.805V180.658H606.707C608.43 180.658 609.672 180.518 610.434 180.236C611.441 179.885 612.209 179.24 612.736 178.303C613.475 176.979 613.844 174.957 613.844 172.238C613.844 170.305 613.686 168.816 613.369 167.773C613.064 166.719 612.607 165.869 611.998 165.225C611.4 164.58 610.615 164.129 609.643 163.871C608.893 163.684 607.398 163.59 605.16 163.59H602.805ZM622.457 175.402C622.457 173.762 622.861 172.174 623.67 170.639C624.479 169.104 625.621 167.932 627.098 167.123C628.586 166.314 630.244 165.91 632.072 165.91C634.896 165.91 637.211 166.83 639.016 168.67C640.82 170.498 641.723 172.812 641.723 175.613C641.723 178.438 640.809 180.781 638.98 182.645C637.164 184.496 634.873 185.422 632.107 185.422C630.396 185.422 628.762 185.035 627.203 184.262C625.656 183.488 624.479 182.357 623.67 180.869C622.861 179.369 622.457 177.547 622.457 175.402ZM627.52 175.666C627.52 177.518 627.959 178.936 628.838 179.92C629.717 180.904 630.801 181.396 632.09 181.396C633.379 181.396 634.457 180.904 635.324 179.92C636.203 178.936 636.643 177.506 636.643 175.631C636.643 173.803 636.203 172.396 635.324 171.412C634.457 170.428 633.379 169.936 632.09 169.936C630.801 169.936 629.717 170.428 628.838 171.412C627.959 172.396 627.52 173.814 627.52 175.666ZM626.131 163.977L629.822 158.791H634.393L638.031 163.977H634.059L632.02 161.357L630.121 163.977H626.131ZM634.445 157.842H631.334L626.482 152.885H632.02L634.445 157.842ZM664.188 166.332V170.27H660.812V177.793C660.812 179.316 660.842 180.207 660.9 180.465C660.971 180.711 661.117 180.916 661.34 181.08C661.574 181.244 661.855 181.326 662.184 181.326C662.641 181.326 663.303 181.168 664.17 180.852L664.592 184.684C663.443 185.176 662.143 185.422 660.689 185.422C659.799 185.422 658.996 185.275 658.281 184.982C657.566 184.678 657.039 184.291 656.699 183.822C656.371 183.342 656.143 182.697 656.014 181.889C655.908 181.314 655.855 180.154 655.855 178.408V170.27H653.588V166.332H655.855V162.623L660.812 159.74V166.332H664.188ZM672.537 159.23V168.705C674.131 166.842 676.035 165.91 678.25 165.91C679.387 165.91 680.412 166.121 681.326 166.543C682.24 166.965 682.926 167.504 683.383 168.16C683.852 168.816 684.168 169.543 684.332 170.34C684.508 171.137 684.596 172.373 684.596 174.049V185H679.656V175.139C679.656 173.182 679.562 171.939 679.375 171.412C679.188 170.885 678.854 170.469 678.373 170.164C677.904 169.848 677.312 169.689 676.598 169.689C675.777 169.689 675.045 169.889 674.4 170.287C673.756 170.686 673.281 171.289 672.977 172.098C672.684 172.895 672.537 174.078 672.537 175.648V185H667.598V159.23H672.537ZM689.623 163.801V159.23H694.562V163.801H689.623ZM689.623 185V166.332H694.562V185H689.623ZM689.641 192.049V187.109H694.58V192.049H689.641ZM718.223 166.332V170.27H714.848V177.793C714.848 179.316 714.877 180.207 714.936 180.465C715.006 180.711 715.152 180.916 715.375 181.08C715.609 181.244 715.891 181.326 716.219 181.326C716.676 181.326 717.338 181.168 718.205 180.852L718.627 184.684C717.479 185.176 716.178 185.422 714.725 185.422C713.834 185.422 713.031 185.275 712.316 184.982C711.602 184.678 711.074 184.291 710.734 183.822C710.406 183.342 710.178 182.697 710.049 181.889C709.943 181.314 709.891 180.154 709.891 178.408V170.27H707.623V166.332H709.891V162.623L714.848 159.74V166.332H718.223ZM740.195 166.332H745.135V169.865C745.135 171.318 745.006 172.455 744.748 173.275C744.502 174.096 744.039 174.828 743.359 175.473C742.316 176.48 740.705 177.16 738.525 177.512V185H733.938V182.205C732.473 184.35 730.41 185.422 727.75 185.422C724.996 185.422 723.15 184.373 722.213 182.275C721.768 181.279 721.545 179.902 721.545 178.145V166.332H726.484V174.91C726.484 177.371 726.578 178.977 726.766 179.727C726.895 180.289 727.223 180.758 727.75 181.133C728.23 181.484 728.84 181.66 729.578 181.66C730.41 181.66 731.16 181.432 731.828 180.975C732.508 180.518 732.971 179.943 733.217 179.252C733.463 178.561 733.586 176.879 733.586 174.207V166.332H738.525V175.508C740.154 175.18 741.297 174.57 741.953 173.68C742.352 173.141 742.562 172.338 742.586 171.271H740.195V166.332ZM751.656 175.666C751.656 177.459 752.096 178.877 752.975 179.92C753.807 180.904 754.891 181.396 756.227 181.396C757.562 181.396 758.641 180.904 759.461 179.92C760.34 178.877 760.779 177.447 760.779 175.631C760.779 173.85 760.34 172.443 759.461 171.412C758.641 170.428 757.562 169.936 756.227 169.936C754.891 169.936 753.807 170.428 752.975 171.412C752.096 172.455 751.656 173.873 751.656 175.666ZM765.807 166.332H770.746V169.865C770.746 171.318 770.617 172.455 770.359 173.275C770.113 174.096 769.65 174.828 768.971 175.473C768.186 176.234 767.113 176.832 765.754 177.266C765.461 179.363 764.588 181.15 763.135 182.627C761.307 184.49 759.01 185.422 756.244 185.422C754.475 185.422 752.846 185.035 751.357 184.262C749.775 183.441 748.586 182.299 747.789 180.834C746.992 179.357 746.594 177.547 746.594 175.402C746.594 173.715 746.998 172.127 747.807 170.639C748.65 169.08 749.805 167.902 751.27 167.105C752.734 166.309 754.381 165.91 756.209 165.91C759.033 165.91 761.348 166.824 763.152 168.652C764.781 170.316 765.678 172.373 765.842 174.822C767.365 174.201 768.15 173.018 768.197 171.271H765.807V166.332ZM790.311 185H785.371V175.473C785.371 173.457 785.266 172.156 785.055 171.57C784.844 170.973 784.498 170.51 784.018 170.182C783.549 169.854 782.98 169.689 782.312 169.689C781.457 169.689 780.689 169.924 780.01 170.393C779.33 170.861 778.861 171.482 778.604 172.256C778.357 173.029 778.234 174.459 778.234 176.545V185H773.295V166.332H777.883V169.074C779.512 166.965 781.562 165.91 784.035 165.91C785.125 165.91 786.121 166.109 787.023 166.508C787.926 166.895 788.605 167.393 789.062 168.002C789.531 168.611 789.854 169.303 790.029 170.076C790.217 170.85 790.311 171.957 790.311 173.398V185ZM794.881 186.23L800.523 186.916C800.617 187.572 800.834 188.023 801.174 188.27C801.643 188.621 802.381 188.797 803.389 188.797C804.678 188.797 805.645 188.604 806.289 188.217C806.723 187.959 807.051 187.543 807.273 186.969C807.426 186.559 807.502 185.803 807.502 184.701V181.977C806.025 183.992 804.162 185 801.912 185C799.404 185 797.418 183.939 795.953 181.818C794.805 180.143 794.23 178.057 794.23 175.561C794.23 172.432 794.98 170.041 796.48 168.389C797.992 166.736 799.867 165.91 802.105 165.91C804.414 165.91 806.318 166.924 807.818 168.951V166.332H812.441V183.084C812.441 185.287 812.26 186.934 811.896 188.023C811.533 189.113 811.023 189.969 810.367 190.59C809.711 191.211 808.832 191.697 807.73 192.049C806.641 192.4 805.258 192.576 803.582 192.576C800.418 192.576 798.174 192.031 796.85 190.941C795.525 189.863 794.863 188.492 794.863 186.828C794.863 186.664 794.869 186.465 794.881 186.23ZM799.293 175.279C799.293 177.26 799.674 178.713 800.436 179.639C801.209 180.553 802.158 181.01 803.283 181.01C804.49 181.01 805.51 180.541 806.342 179.604C807.174 178.654 807.59 177.254 807.59 175.402C807.59 173.469 807.191 172.033 806.395 171.096C805.598 170.158 804.59 169.689 803.371 169.689C802.188 169.689 801.209 170.152 800.436 171.078C799.674 171.992 799.293 173.393 799.293 175.279ZM835.926 166.332V170.27H832.551V177.793C832.551 179.316 832.58 180.207 832.639 180.465C832.709 180.711 832.855 180.916 833.078 181.08C833.312 181.244 833.594 181.326 833.922 181.326C834.379 181.326 835.041 181.168 835.908 180.852L836.33 184.684C835.182 185.176 833.881 185.422 832.428 185.422C831.537 185.422 830.734 185.275 830.02 184.982C829.305 184.678 828.777 184.291 828.438 183.822C828.109 183.342 827.881 182.697 827.752 181.889C827.646 181.314 827.594 180.154 827.594 178.408V170.27H825.326V166.332H827.594V162.623L832.551 159.74V166.332H835.926ZM857.898 166.332H862.838V169.865C862.838 171.318 862.709 172.455 862.451 173.275C862.205 174.096 861.742 174.828 861.062 175.473C860.02 176.48 858.408 177.16 856.229 177.512V185H851.641V182.205C850.176 184.35 848.113 185.422 845.453 185.422C842.699 185.422 840.854 184.373 839.916 182.275C839.471 181.279 839.248 179.902 839.248 178.145V166.332H844.188V174.91C844.188 177.371 844.281 178.977 844.469 179.727C844.598 180.289 844.926 180.758 845.453 181.133C845.934 181.484 846.543 181.66 847.281 181.66C848.113 181.66 848.863 181.432 849.531 180.975C850.211 180.518 850.674 179.943 850.92 179.252C851.166 178.561 851.289 176.879 851.289 174.207V166.332H856.229V175.508C857.857 175.18 859 174.57 859.656 173.68C860.055 173.141 860.266 172.338 860.289 171.271H857.898V166.332ZM844.82 192.049V187.109H849.76V192.049H844.82ZM892.439 185H887.5V175.473C887.5 173.457 887.395 172.156 887.184 171.57C886.973 170.973 886.627 170.51 886.146 170.182C885.678 169.854 885.109 169.689 884.441 169.689C883.586 169.689 882.818 169.924 882.139 170.393C881.459 170.861 880.99 171.482 880.732 172.256C880.486 173.029 880.363 174.459 880.363 176.545V185H875.424V166.332H880.012V169.074C881.641 166.965 883.691 165.91 886.164 165.91C887.254 165.91 888.25 166.109 889.152 166.508C890.055 166.895 890.734 167.393 891.191 168.002C891.66 168.611 891.982 169.303 892.158 170.076C892.346 170.85 892.439 171.957 892.439 173.398V185ZM902.389 159.23V168.705C903.982 166.842 905.887 165.91 908.102 165.91C909.238 165.91 910.264 166.121 911.178 166.543C912.092 166.965 912.777 167.504 913.234 168.16C913.703 168.816 914.02 169.543 914.184 170.34C914.359 171.137 914.447 172.373 914.447 174.049V185H909.508V175.139C909.508 173.182 909.414 171.939 909.227 171.412C909.039 170.885 908.705 170.469 908.225 170.164C907.756 169.848 907.164 169.689 906.449 169.689C905.629 169.689 904.896 169.889 904.252 170.287C903.607 170.686 903.133 171.289 902.828 172.098C902.535 172.895 902.389 174.078 902.389 175.648V185H897.449V159.23H902.389ZM938.02 166.332H942.959V169.865C942.959 171.318 942.83 172.455 942.572 173.275C942.326 174.096 941.863 174.828 941.184 175.473C940.141 176.48 938.529 177.16 936.35 177.512V185H931.762V182.205C930.297 184.35 928.234 185.422 925.574 185.422C922.82 185.422 920.975 184.373 920.037 182.275C919.592 181.279 919.369 179.902 919.369 178.145V166.332H924.309V174.91C924.309 177.371 924.402 178.977 924.59 179.727C924.719 180.289 925.047 180.758 925.574 181.133C926.055 181.484 926.664 181.66 927.402 181.66C928.234 181.66 928.984 181.432 929.652 180.975C930.332 180.518 930.795 179.943 931.041 179.252C931.287 178.561 931.41 176.879 931.41 174.207V166.332H936.35V175.508C937.979 175.18 939.121 174.57 939.777 173.68C940.176 173.141 940.387 172.338 940.41 171.271H938.02V166.332ZM964.141 166.332V170.27H960.766V177.793C960.766 179.316 960.795 180.207 960.854 180.465C960.924 180.711 961.07 180.916 961.293 181.08C961.527 181.244 961.809 181.326 962.137 181.326C962.594 181.326 963.256 181.168 964.123 180.852L964.545 184.684C963.396 185.176 962.096 185.422 960.643 185.422C959.752 185.422 958.949 185.275 958.234 184.982C957.52 184.678 956.992 184.291 956.652 183.822C956.324 183.342 956.096 182.697 955.967 181.889C955.861 181.314 955.809 180.154 955.809 178.408V170.27H953.541V166.332H955.809V162.623L960.766 159.74V166.332H964.141ZM972.297 185H967.357V166.332H971.945V168.986C972.73 167.732 973.434 166.906 974.055 166.508C974.688 166.109 975.402 165.91 976.199 165.91C977.324 165.91 978.408 166.221 979.451 166.842L977.922 171.148C977.09 170.609 976.316 170.34 975.602 170.34C974.91 170.34 974.324 170.533 973.844 170.92C973.363 171.295 972.982 171.98 972.701 172.977C972.432 173.973 972.297 176.059 972.297 179.234V185ZM992.406 179.059L997.328 179.885C996.695 181.689 995.693 183.066 994.322 184.016C992.963 184.953 991.258 185.422 989.207 185.422C985.961 185.422 983.559 184.361 982 182.24C980.77 180.541 980.154 178.396 980.154 175.807C980.154 172.713 980.963 170.293 982.58 168.547C984.197 166.789 986.242 165.91 988.715 165.91C991.492 165.91 993.684 166.83 995.289 168.67C996.895 170.498 997.662 173.305 997.592 177.09H985.217C985.252 178.555 985.65 179.697 986.412 180.518C987.174 181.326 988.123 181.73 989.26 181.73C990.033 181.73 990.684 181.52 991.211 181.098C991.738 180.676 992.137 179.996 992.406 179.059ZM992.688 174.066C992.652 172.637 992.283 171.553 991.58 170.814C990.877 170.064 990.021 169.689 989.014 169.689C987.936 169.689 987.045 170.082 986.342 170.867C985.639 171.652 985.293 172.719 985.305 174.066H992.688ZM982.932 163.977L986.623 158.791H991.193L994.832 163.977H990.859L988.82 161.357L986.922 163.977H982.932ZM1018.62 185H1013.68V175.473C1013.68 173.457 1013.57 172.156 1013.36 171.57C1013.15 170.973 1012.8 170.51 1012.32 170.182C1011.85 169.854 1011.29 169.689 1010.62 169.689C1009.76 169.689 1008.99 169.924 1008.31 170.393C1007.63 170.861 1007.17 171.482 1006.91 172.256C1006.66 173.029 1006.54 174.459 1006.54 176.545V185H1001.6V166.332H1006.19V169.074C1007.82 166.965 1009.87 165.91 1012.34 165.91C1013.43 165.91 1014.43 166.109 1015.33 166.508C1016.23 166.895 1016.91 167.393 1017.37 168.002C1017.84 168.611 1018.16 169.303 1018.33 170.076C1018.52 170.85 1018.62 171.957 1018.62 173.398V185ZM1055.6 185H1049.94L1047.69 179.146H1037.39L1035.26 185H1029.74L1039.78 159.23H1045.28L1055.6 185ZM1046.02 174.805L1042.47 165.242L1038.99 174.805H1046.02ZM1058.34 185V159.23H1063.28V185H1058.34ZM1067.9 186.23L1073.55 186.916C1073.64 187.572 1073.86 188.023 1074.2 188.27C1074.67 188.621 1075.4 188.797 1076.41 188.797C1077.7 188.797 1078.67 188.604 1079.31 188.217C1079.75 187.959 1080.07 187.543 1080.3 186.969C1080.45 186.559 1080.53 185.803 1080.53 184.701V181.977C1079.05 183.992 1077.19 185 1074.94 185C1072.43 185 1070.44 183.939 1068.98 181.818C1067.83 180.143 1067.25 178.057 1067.25 175.561C1067.25 172.432 1068 170.041 1069.5 168.389C1071.02 166.736 1072.89 165.91 1075.13 165.91C1077.44 165.91 1079.34 166.924 1080.84 168.951V166.332H1085.46V183.084C1085.46 185.287 1085.28 186.934 1084.92 188.023C1084.56 189.113 1084.05 189.969 1083.39 190.59C1082.73 191.211 1081.86 191.697 1080.75 192.049C1079.66 192.4 1078.28 192.576 1076.61 192.576C1073.44 192.576 1071.2 192.031 1069.87 190.941C1068.55 189.863 1067.89 188.492 1067.89 186.828C1067.89 186.664 1067.89 186.465 1067.9 186.23ZM1072.32 175.279C1072.32 177.26 1072.7 178.713 1073.46 179.639C1074.23 180.553 1075.18 181.01 1076.31 181.01C1077.51 181.01 1078.53 180.541 1079.37 179.604C1080.2 178.654 1080.61 177.254 1080.61 175.402C1080.61 173.469 1080.21 172.033 1079.42 171.096C1078.62 170.158 1077.61 169.689 1076.39 169.689C1075.21 169.689 1074.23 170.152 1073.46 171.078C1072.7 171.992 1072.32 173.393 1072.32 175.279ZM1089.23 175.402C1089.23 173.762 1089.63 172.174 1090.44 170.639C1091.25 169.104 1092.39 167.932 1093.87 167.123C1095.36 166.314 1097.01 165.91 1098.84 165.91C1101.67 165.91 1103.98 166.83 1105.79 168.67C1107.59 170.498 1108.49 172.812 1108.49 175.613C1108.49 178.438 1107.58 180.781 1105.75 182.645C1103.93 184.496 1101.64 185.422 1098.88 185.422C1097.17 185.422 1095.53 185.035 1093.97 184.262C1092.43 183.488 1091.25 182.357 1090.44 180.869C1089.63 179.369 1089.23 177.547 1089.23 175.402ZM1094.29 175.666C1094.29 177.518 1094.73 178.936 1095.61 179.92C1096.49 180.904 1097.57 181.396 1098.86 181.396C1100.15 181.396 1101.23 180.904 1102.09 179.92C1102.97 178.936 1103.41 177.506 1103.41 175.631C1103.41 173.803 1102.97 172.396 1102.09 171.412C1101.23 170.428 1100.15 169.936 1098.86 169.936C1097.57 169.936 1096.49 170.428 1095.61 171.412C1094.73 172.396 1094.29 173.814 1094.29 175.666ZM1122.43 185V159.23H1130.78C1133.95 159.23 1136.01 159.359 1136.97 159.617C1138.45 160.004 1139.68 160.848 1140.68 162.148C1141.67 163.438 1142.17 165.107 1142.17 167.158C1142.17 168.74 1141.88 170.07 1141.31 171.148C1140.74 172.227 1140 173.076 1139.11 173.697C1138.23 174.307 1137.34 174.711 1136.42 174.91C1135.18 175.156 1133.38 175.279 1131.03 175.279H1127.63V185H1122.43ZM1127.63 163.59V170.902H1130.48C1132.53 170.902 1133.9 170.768 1134.6 170.498C1135.29 170.229 1135.83 169.807 1136.21 169.232C1136.61 168.658 1136.81 167.99 1136.81 167.229C1136.81 166.291 1136.54 165.518 1135.98 164.908C1135.43 164.299 1134.74 163.918 1133.89 163.766C1133.27 163.648 1132.02 163.59 1130.15 163.59H1127.63ZM1146.41 185V159.23H1151.35V185H1146.41ZM1160.12 172.027L1155.64 171.219C1156.14 169.414 1157.01 168.078 1158.24 167.211C1159.47 166.344 1161.3 165.91 1163.72 165.91C1165.93 165.91 1167.57 166.174 1168.64 166.701C1169.72 167.217 1170.48 167.879 1170.91 168.688C1171.36 169.484 1171.58 170.955 1171.58 173.1L1171.53 178.865C1171.53 180.506 1171.6 181.719 1171.76 182.504C1171.92 183.277 1172.22 184.109 1172.65 185H1167.77C1167.64 184.672 1167.48 184.186 1167.29 183.541C1167.21 183.248 1167.15 183.055 1167.12 182.961C1166.27 183.781 1165.37 184.396 1164.41 184.807C1163.45 185.217 1162.42 185.422 1161.33 185.422C1159.41 185.422 1157.89 184.9 1156.78 183.857C1155.68 182.814 1155.13 181.496 1155.13 179.902C1155.13 178.848 1155.38 177.91 1155.88 177.09C1156.39 176.258 1157.09 175.625 1157.99 175.191C1158.91 174.746 1160.22 174.359 1161.93 174.031C1164.24 173.598 1165.84 173.193 1166.73 172.818V172.326C1166.73 171.377 1166.49 170.703 1166.03 170.305C1165.56 169.895 1164.67 169.689 1163.37 169.689C1162.49 169.689 1161.81 169.865 1161.31 170.217C1160.82 170.557 1160.42 171.16 1160.12 172.027ZM1166.73 176.035C1166.1 176.246 1165.09 176.498 1163.72 176.791C1162.35 177.084 1161.46 177.371 1161.03 177.652C1160.39 178.109 1160.07 178.689 1160.07 179.393C1160.07 180.084 1160.32 180.682 1160.84 181.186C1161.36 181.689 1162.01 181.941 1162.81 181.941C1163.7 181.941 1164.55 181.648 1165.36 181.062C1165.96 180.617 1166.35 180.072 1166.54 179.428C1166.66 179.006 1166.73 178.203 1166.73 177.02V176.035ZM1185.03 166.332V170.27H1181.65V177.793C1181.65 179.316 1181.68 180.207 1181.74 180.465C1181.81 180.711 1181.96 180.916 1182.18 181.08C1182.41 181.244 1182.7 181.326 1183.02 181.326C1183.48 181.326 1184.14 181.168 1185.01 180.852L1185.43 184.684C1184.28 185.176 1182.98 185.422 1181.53 185.422C1180.64 185.422 1179.84 185.275 1179.12 184.982C1178.41 184.678 1177.88 184.291 1177.54 183.822C1177.21 183.342 1176.98 182.697 1176.85 181.889C1176.75 181.314 1176.7 180.154 1176.7 178.408V170.27H1174.43V166.332H1176.7V162.623L1181.65 159.74V166.332H1185.03ZM1186.29 166.332H1189.04V164.926C1189.04 163.355 1189.2 162.184 1189.53 161.41C1189.87 160.637 1190.48 160.01 1191.37 159.529C1192.28 159.037 1193.41 158.791 1194.78 158.791C1196.19 158.791 1197.57 159.002 1198.91 159.424L1198.25 162.869C1197.46 162.682 1196.71 162.588 1195.98 162.588C1195.26 162.588 1194.75 162.758 1194.43 163.098C1194.13 163.426 1193.97 164.064 1193.97 165.014V166.332H1197.67V170.217H1193.97V185H1189.04V170.217H1186.29V166.332ZM1199.3 175.402C1199.3 173.762 1199.71 172.174 1200.51 170.639C1201.32 169.104 1202.46 167.932 1203.94 167.123C1205.43 166.314 1207.09 165.91 1208.92 165.91C1211.74 165.91 1214.05 166.83 1215.86 168.67C1217.66 170.498 1218.57 172.812 1218.57 175.613C1218.57 178.438 1217.65 180.781 1215.82 182.645C1214.01 184.496 1211.72 185.422 1208.95 185.422C1207.24 185.422 1205.61 185.035 1204.05 184.262C1202.5 183.488 1201.32 182.357 1200.51 180.869C1199.71 179.369 1199.3 177.547 1199.3 175.402ZM1204.36 175.666C1204.36 177.518 1204.8 178.936 1205.68 179.92C1206.56 180.904 1207.64 181.396 1208.93 181.396C1210.22 181.396 1211.3 180.904 1212.17 179.92C1213.05 178.936 1213.49 177.506 1213.49 175.631C1213.49 173.803 1213.05 172.396 1212.17 171.412C1211.3 170.428 1210.22 169.936 1208.93 169.936C1207.64 169.936 1206.56 170.428 1205.68 171.412C1204.8 172.396 1204.36 173.814 1204.36 175.666ZM1227.18 185H1222.24V166.332H1226.83V168.986C1227.61 167.732 1228.32 166.906 1228.94 166.508C1229.57 166.109 1230.29 165.91 1231.08 165.91C1232.21 165.91 1233.29 166.221 1234.33 166.842L1232.8 171.148C1231.97 170.609 1231.2 170.34 1230.48 170.34C1229.79 170.34 1229.21 170.533 1228.73 170.92C1228.25 171.295 1227.87 171.98 1227.58 172.977C1227.31 173.973 1227.18 176.059 1227.18 179.234V185ZM1236.11 166.332H1240.66V168.881C1242.29 166.9 1244.23 165.91 1246.48 165.91C1247.68 165.91 1248.71 166.156 1249.59 166.648C1250.47 167.141 1251.19 167.885 1251.75 168.881C1252.57 167.885 1253.46 167.141 1254.41 166.648C1255.36 166.156 1256.37 165.91 1257.45 165.91C1258.82 165.91 1259.98 166.191 1260.93 166.754C1261.88 167.305 1262.59 168.119 1263.06 169.197C1263.4 169.994 1263.57 171.283 1263.57 173.064V185H1258.63V174.33C1258.63 172.479 1258.46 171.283 1258.12 170.744C1257.66 170.041 1256.96 169.689 1256.01 169.689C1255.32 169.689 1254.67 169.9 1254.06 170.322C1253.45 170.744 1253.01 171.365 1252.74 172.186C1252.47 172.994 1252.33 174.277 1252.33 176.035V185H1247.39V174.77C1247.39 172.953 1247.31 171.781 1247.13 171.254C1246.96 170.727 1246.68 170.334 1246.3 170.076C1245.94 169.818 1245.44 169.689 1244.81 169.689C1244.05 169.689 1243.36 169.895 1242.75 170.305C1242.14 170.715 1241.71 171.307 1241.44 172.08C1241.18 172.854 1241.05 174.137 1241.05 175.93V185H1236.11V166.332Z" fill="white"/>
</svg>
