<svg width="284" height="125" viewBox="0 0 284 125" fill="none" xmlns="http://www.w3.org/2000/svg">
<rect x="0.5" y="0.5" width="283" height="105" stroke="#4C566A"/>
<line x1="45.5" y1="2.06624e-08" x2="45.5" y2="106" stroke="#4C566A"/>
<line x1="94.5" y1="1.32732e-08" x2="94.5" y2="106" stroke="#4C566A"/>
<line y1="-0.5" x2="106.005" y2="-0.5" transform="matrix(-0.00885302 0.999961 -1 0 141 0)" stroke="#4C566A"/>
<path d="M187 0L186.062 106" stroke="#4C566A"/>
<line y1="-0.5" x2="106.005" y2="-0.5" transform="matrix(-0.00885302 0.999961 -1 0 236 0)" stroke="#4C566A"/>
<rect x="1" y="93.9505" width="2" height="11.0495" fill="#4C566A"/>
<rect x="3" y="86.5842" width="2" height="18.4158" fill="#4C566A"/>
<rect x="5" y="85.3564" width="2" height="19.6436" fill="#4C566A"/>
<rect x="7" y="82.2871" width="2" height="22.7129" fill="#4C566A"/>
<rect x="9" y="85.3564" width="2" height="19.6436" fill="#4C566A"/>
<rect x="11" y="86.5842" width="2" height="18.4158" fill="#4C566A"/>
<rect x="13" y="83.5149" width="2" height="21.4852" fill="#4C566A"/>
<rect x="15" y="86.5842" width="2" height="18.4158" fill="#4C566A"/>
<rect x="17" y="75.5347" width="2" height="29.4654" fill="#4C566A"/>
<rect x="19" y="72.4653" width="2" height="32.5347" fill="#4C566A"/>
<rect x="21" y="76.7624" width="2" height="28.2376" fill="#4C566A"/>
<rect x="23" y="78.6039" width="2" height="26.396" fill="#4C566A"/>
<rect x="25" y="75.5347" width="2" height="29.4654" fill="#4C566A"/>
<rect x="27" y="78.6039" width="2" height="26.396" fill="#4C566A"/>
<rect x="29" y="80.4456" width="2" height="24.5545" fill="#4C566A"/>
<rect x="31" y="64.4852" width="2" height="40.5149" fill="#4C566A"/>
<rect x="33" y="51.5941" width="2" height="53.4059" fill="#4C566A"/>
<rect x="35" y="47.9109" width="2" height="57.0891" fill="#4C566A"/>
<rect x="37" y="58.3466" width="2" height="46.6535" fill="#4C566A"/>
<rect x="39" y="49.1386" width="2" height="55.8614" fill="#4C566A"/>
<rect x="41" y="53.4357" width="2" height="51.5644" fill="#4C566A"/>
<rect x="43" y="54.6634" width="2" height="50.3366" fill="#4C566A"/>
<rect x="45" y="59.5743" width="2" height="45.4258" fill="#4C566A"/>
<rect x="47" y="43" width="2" height="62" fill="#4C566A"/>
<rect x="49" y="46.6832" width="2" height="58.3168" fill="#4C566A"/>
<rect x="51" y="50.3663" width="2" height="54.6337" fill="#4C566A"/>
<rect x="53" y="58.3466" width="2" height="46.6535" fill="#4C566A"/>
<rect x="55" y="64.4852" width="2" height="40.5149" fill="#4C566A"/>
<rect x="44" y="86.5842" width="2" height="18.4158" fill="#4C566A"/>
<rect x="46" y="88.4257" width="2" height="16.5743" fill="#4C566A"/>
<rect x="48" y="90.2673" width="2" height="14.7327" fill="#4C566A"/>
<rect x="50" y="88.4257" width="2" height="16.5743" fill="#4C566A"/>
<rect x="52" y="90.2673" width="2" height="14.7327" fill="#4C566A"/>
<rect x="54" y="83.5149" width="2" height="21.4852" fill="#4C566A"/>
<rect x="56" y="85.3564" width="2" height="19.6436" fill="#4C566A"/>
<rect x="58" y="82.2871" width="2" height="22.7129" fill="#4C566A"/>
<rect x="60" y="85.3564" width="2" height="19.6436" fill="#4C566A"/>
<rect x="62" y="82.2871" width="2" height="22.7129" fill="#4C566A"/>
<rect x="64" y="86.5842" width="2" height="18.4158" fill="#4C566A"/>
<rect x="66" y="88.4257" width="2" height="16.5743" fill="#4C566A"/>
<rect x="68" y="90.2673" width="2" height="14.7327" fill="#4C566A"/>
<rect x="70" y="88.4257" width="2" height="16.5743" fill="#4C566A"/>
<rect x="69" y="90.2673" width="2" height="14.7327" fill="#4C566A"/>
<rect x="71" y="83.5149" width="2" height="21.4852" fill="#4C566A"/>
<rect x="73" y="78.6039" width="2" height="26.396" fill="#4C566A"/>
<rect x="75" y="80.4456" width="2" height="24.5545" fill="#4C566A"/>
<rect x="77" y="83.5149" width="2" height="21.4852" fill="#4C566A"/>
<rect x="79" y="90.2673" width="2" height="14.7327" fill="#4C566A"/>
<rect x="81" y="90.2673" width="2" height="14.7327" fill="#4C566A"/>
<rect x="83" y="88.4257" width="2" height="16.5743" fill="#4C566A"/>
<rect x="85" y="86.5842" width="2" height="18.4158" fill="#4C566A"/>
<rect x="87" y="92.7228" width="2" height="12.2772" fill="#4C566A"/>
<rect x="89" y="93.9505" width="2" height="11.0495" fill="#4C566A"/>
<rect x="88" y="88.4257" width="2" height="16.5743" fill="#4C566A"/>
<rect x="90" y="90.2673" width="2" height="14.7327" fill="#4C566A"/>
<rect x="92" y="86.5842" width="2" height="18.4158" fill="#4C566A"/>
<rect x="94" y="92.5248" width="2" height="12.4753" fill="#4C566A"/>
<rect x="96" y="84.2079" width="2" height="20.7921" fill="#4C566A"/>
<rect x="98" y="82.8218" width="2" height="22.1782" fill="#4C566A"/>
<rect x="100" y="79.3564" width="2" height="25.6436" fill="#4C566A"/>
<rect x="102" y="82.8218" width="2" height="22.1782" fill="#4C566A"/>
<rect x="93" y="84.2079" width="2" height="20.7921" fill="#4C566A"/>
<rect x="95" y="80.7426" width="2" height="24.2574" fill="#4C566A"/>
<rect x="97" y="84.2079" width="2" height="20.7921" fill="#4C566A"/>
<rect x="99" y="71.7327" width="2" height="33.2673" fill="#4C566A"/>
<rect x="101" y="68.2673" width="2" height="36.7327" fill="#4C566A"/>
<rect x="103" y="73.1188" width="2" height="31.8812" fill="#4C566A"/>
<rect x="105" y="75.1981" width="2" height="29.802" fill="#4C566A"/>
<rect x="107" y="71.7327" width="2" height="33.2673" fill="#4C566A"/>
<rect x="109" y="75.1981" width="2" height="29.802" fill="#4C566A"/>
<rect x="111" y="77.2772" width="2" height="27.7228" fill="#4C566A"/>
<rect x="113" y="59.2574" width="2" height="45.7426" fill="#4C566A"/>
<rect x="115" y="44.7029" width="2" height="60.297" fill="#4C566A"/>
<rect x="117" y="40.5446" width="2" height="64.4555" fill="#4C566A"/>
<rect x="119" y="52.3267" width="2" height="52.6733" fill="#4C566A"/>
<rect x="121" y="41.9307" width="2" height="63.0693" fill="#4C566A"/>
<rect x="123" y="46.7822" width="2" height="58.2178" fill="#4C566A"/>
<rect x="125" y="48.1683" width="2" height="56.8317" fill="#4C566A"/>
<rect x="127" y="53.7129" width="2" height="51.2871" fill="#4C566A"/>
<rect x="129" y="35" width="2" height="70" fill="#4C566A"/>
<rect x="131" y="39.1584" width="2" height="65.8416" fill="#4C566A"/>
<rect x="133" y="43.3169" width="2" height="61.6832" fill="#4C566A"/>
<rect x="135" y="52.3267" width="2" height="52.6733" fill="#4C566A"/>
<rect x="137" y="59.2574" width="2" height="45.7426" fill="#4C566A"/>
<rect x="139" y="84.2079" width="2" height="20.7921" fill="#4C566A"/>
<rect x="141" y="86.2871" width="2" height="18.7129" fill="#4C566A"/>
<rect x="143" y="88.3663" width="2" height="16.6337" fill="#4C566A"/>
<rect x="145" y="86.2871" width="2" height="18.7129" fill="#4C566A"/>
<rect x="147" y="88.3663" width="2" height="16.6337" fill="#4C566A"/>
<rect x="149" y="80.7426" width="2" height="24.2574" fill="#4C566A"/>
<rect x="151" y="82.8218" width="2" height="22.1782" fill="#4C566A"/>
<rect x="140" y="79.3564" width="2" height="25.6436" fill="#4C566A"/>
<rect x="142" y="82.8218" width="2" height="22.1782" fill="#4C566A"/>
<rect x="144" y="79.3564" width="2" height="25.6436" fill="#4C566A"/>
<rect x="146" y="84.2079" width="2" height="20.7921" fill="#4C566A"/>
<rect x="148" y="86.2871" width="2" height="18.7129" fill="#4C566A"/>
<rect x="150" y="88.3663" width="2" height="16.6337" fill="#4C566A"/>
<rect x="152" y="86.2871" width="2" height="18.7129" fill="#4C566A"/>
<rect x="151" y="88.3663" width="2" height="16.6337" fill="#4C566A"/>
<rect x="153" y="80.7426" width="2" height="24.2574" fill="#4C566A"/>
<rect x="155" y="75.1981" width="2" height="29.802" fill="#4C566A"/>
<rect x="157" y="77.2772" width="2" height="27.7228" fill="#4C566A"/>
<rect x="159" y="80.7426" width="2" height="24.2574" fill="#4C566A"/>
<rect x="161" y="88.3663" width="2" height="16.6337" fill="#4C566A"/>
<rect x="163" y="88.3663" width="2" height="16.6337" fill="#4C566A"/>
<rect x="165" y="86.2871" width="2" height="18.7129" fill="#4C566A"/>
<rect x="167" y="84.2079" width="2" height="20.7921" fill="#4C566A"/>
<rect x="169" y="91.1386" width="2" height="13.8614" fill="#4C566A"/>
<rect x="171" y="92.5248" width="2" height="12.4753" fill="#4C566A"/>
<rect x="170" y="86.2871" width="2" height="18.7129" fill="#4C566A"/>
<rect x="172" y="88.3663" width="2" height="16.6337" fill="#4C566A"/>
<rect x="174" y="84.2079" width="2" height="20.7921" fill="#4C566A"/>
<rect x="176" y="88.0693" width="1.20755" height="16.9307" fill="#4C566A"/>
<rect x="177.208" y="76.7822" width="1.20755" height="28.2178" fill="#4C566A"/>
<rect x="178.415" y="74.901" width="1.20755" height="30.099" fill="#4C566A"/>
<rect x="179.623" y="70.198" width="1.20755" height="34.802" fill="#4C566A"/>
<rect x="180.83" y="74.901" width="1.20755" height="30.099" fill="#4C566A"/>
<rect x="182.038" y="76.7822" width="1.20755" height="28.2178" fill="#4C566A"/>
<rect x="183.245" y="72.0792" width="1.20755" height="32.9208" fill="#4C566A"/>
<rect x="184.453" y="76.7822" width="1.20755" height="28.2178" fill="#4C566A"/>
<rect x="185.66" y="59.8515" width="1.20755" height="45.1485" fill="#4C566A"/>
<rect x="186.868" y="55.1485" width="1.20755" height="49.8515" fill="#4C566A"/>
<rect x="188.075" y="61.7327" width="1.20755" height="43.2673" fill="#4C566A"/>
<rect x="189.283" y="64.5544" width="1.20755" height="40.4455" fill="#4C566A"/>
<rect x="190.49" y="59.8515" width="1.20755" height="45.1485" fill="#4C566A"/>
<rect x="191.698" y="64.5544" width="1.20755" height="40.4455" fill="#4C566A"/>
<rect x="192.906" y="67.3762" width="1.20755" height="37.6238" fill="#4C566A"/>
<rect x="194.113" y="42.9208" width="1.20755" height="62.0792" fill="#4C566A"/>
<rect x="195.321" y="23.1683" width="1.20755" height="81.8317" fill="#4C566A"/>
<rect x="196.528" y="17.5248" width="1.20755" height="87.4753" fill="#4C566A"/>
<rect x="197.736" y="33.5149" width="1.20755" height="71.4851" fill="#4C566A"/>
<rect x="198.943" y="19.4059" width="1.20755" height="85.5941" fill="#4C566A"/>
<rect x="188.151" y="25.9901" width="1.20755" height="79.0099" fill="#4C566A"/>
<rect x="189.358" y="27.8713" width="1.20755" height="77.1287" fill="#4C566A"/>
<rect x="190.566" y="35.396" width="1.20755" height="69.604" fill="#4C566A"/>
<rect x="191.774" y="10" width="1.20755" height="95" fill="#4C566A"/>
<rect x="192.981" y="15.6436" width="1.20755" height="89.3564" fill="#4C566A"/>
<rect x="194.189" y="21.2871" width="1.20755" height="83.7129" fill="#4C566A"/>
<rect x="195.396" y="33.5149" width="1.20755" height="71.4851" fill="#4C566A"/>
<rect x="196.604" y="42.9208" width="1.20755" height="62.0792" fill="#4C566A"/>
<rect x="197.811" y="76.7822" width="1.20755" height="28.2178" fill="#4C566A"/>
<rect x="199.019" y="79.6039" width="1.20755" height="25.396" fill="#4C566A"/>
<rect x="200.226" y="82.4257" width="1.20755" height="22.5743" fill="#4C566A"/>
<rect x="201.434" y="79.6039" width="1.20755" height="25.396" fill="#4C566A"/>
<rect x="202.642" y="82.4257" width="1.20755" height="22.5743" fill="#4C566A"/>
<rect x="203.849" y="72.0792" width="1.20755" height="32.9208" fill="#4C566A"/>
<rect x="205.057" y="74.901" width="1.20755" height="30.099" fill="#4C566A"/>
<rect x="206.264" y="70.198" width="1.20755" height="34.802" fill="#4C566A"/>
<rect x="207.472" y="74.901" width="1.20755" height="30.099" fill="#4C566A"/>
<rect x="208.679" y="70.198" width="1.20755" height="34.802" fill="#4C566A"/>
<rect x="209.887" y="76.7822" width="1.20755" height="28.2178" fill="#4C566A"/>
<rect x="211.094" y="79.6039" width="1.20755" height="25.396" fill="#4C566A"/>
<rect x="212.302" y="82.4257" width="1.20755" height="22.5743" fill="#4C566A"/>
<rect x="213.51" y="79.6039" width="1.20755" height="25.396" fill="#4C566A"/>
<rect x="212.906" y="82.4257" width="1.20755" height="22.5743" fill="#4C566A"/>
<rect x="214.113" y="72.0792" width="1.20755" height="32.9208" fill="#4C566A"/>
<rect x="215.321" y="64.5544" width="1.20755" height="40.4455" fill="#4C566A"/>
<rect x="216.528" y="67.3762" width="1.20755" height="37.6238" fill="#4C566A"/>
<rect x="217.736" y="72.0792" width="1.20755" height="32.9208" fill="#4C566A"/>
<rect x="218.943" y="82.4257" width="1.20755" height="22.5743" fill="#4C566A"/>
<rect x="220.151" y="82.4257" width="1.20755" height="22.5743" fill="#4C566A"/>
<rect x="221.358" y="79.6039" width="1.20755" height="25.396" fill="#4C566A"/>
<rect x="222.566" y="76.7822" width="1.20755" height="28.2178" fill="#4C566A"/>
<rect x="223.774" y="86.1881" width="1.20755" height="18.8119" fill="#4C566A"/>
<rect x="224.981" y="88.0693" width="1.20755" height="16.9307" fill="#4C566A"/>
<rect x="224.377" y="79.6039" width="1.20755" height="25.396" fill="#4C566A"/>
<rect x="225.585" y="82.4257" width="1.20755" height="22.5743" fill="#4C566A"/>
<rect x="226.792" y="76.7822" width="1.20755" height="28.2178" fill="#4C566A"/>
<path d="M1 34.0403C2.01395 34.0403 5.96501 34.3501 6.88477 33.9339C7.99433 33.4319 9.10996 32.8553 10.4239 32.423C12.1293 31.8617 13.4146 29.8266 15.6914 29.8266C17.3162 29.8266 18.976 29.7514 20.5473 29.9756C21.5602 30.1201 22.1531 30.1104 23.0165 30.4757C23.4754 30.6699 24.0229 30.9414 24.6214 30.9758C25.6369 31.0342 26.999 31.3791 28.037 31.1248C29.1862 30.8433 29.9737 30.0049 30.6296 29.4861C31.9635 28.4312 32.9527 26.6896 34.8889 25.9109C37.8464 24.7213 41.5231 25.0383 45.0535 25.0383C48.5174 25.0383 47.1596 26.6248 48.4074 27.5282C49.5819 28.3785 49.3856 29.9371 51 30.6885C51.8643 31.0908 52.5621 31.4953 53.6749 31.7419C54.4211 31.9073 55.5242 32.0524 56.144 32.3272C56.6245 32.5401 56.7178 32.8641 57.2963 33.0401C59.8143 33.8061 65.7292 34.7513 68.3251 33.5083C70.367 32.5306 73.0465 32.0244 75.0947 30.9652C75.9947 30.4997 76.973 30.1853 77.8519 29.7309C78.7465 29.2682 79.3729 28.6774 80.8148 28.6774C82.6905 28.6774 83.2214 30.3412 84.1687 31.0184C85.416 31.91 86.2727 33.0446 87.3786 33.9978C88.8942 35.304 90.6325 36.0636 92.6461 37.1048C93.8522 37.7286 95.4826 38.632 96.2675 39.4032C96.8748 39.9999 96.9069 40.9837 97.749 41.4675C98.3294 41.8011 98.7078 42.2858 99.3539 42.6593C99.7985 42.9162 100.797 43.685 101 44" stroke="#32DF32" stroke-width="2" stroke-linecap="round" stroke-linejoin="round"/>
<path d="M101 45.3908C103.692 51.0284 108.139 54.6767 113.062 58.8942C116.833 62.1249 120.039 65.7825 123.807 69.011C125.251 70.248 126.189 71.8159 128.394 71.9418C131.055 72.0938 133.872 71.9625 136.452 71.3773C138.551 70.9014 141.749 67.473 142.965 66.015C145.389 63.1082 152.165 63.3664 155.838 63.3664C161.533 63.3664 167.283 63.5782 172.969 63.3664C177.454 63.1994 180.825 59.7524 180.825 56.1154C180.825 52.1651 182.075 51.5218 185.842 49.9932C189.229 48.6189 193.073 47.6798 196.789 47.3447C200.237 47.0337 202.047 46.265 205 45" stroke="#FF0000" stroke-width="2" stroke-linecap="round" stroke-linejoin="round"/>
<path d="M205 45C206.845 32.6895 209.764 27.9383 212.357 19.2802C213.567 15.2388 215.498 7.02313 217.046 7.02313C218.71 7.02313 220.519 4.72109 222.135 7.02313C223.881 9.5113 225.233 13.2729 227 15.161" stroke="#32DF32" stroke-width="2" stroke-linecap="round" stroke-linejoin="round"/>
<line opacity="0.5" x1="4.37114e-08" y1="43.5" x2="284" y2="43.5" stroke="#FFFF00" stroke-dasharray="4 2"/>
<path d="M1.60156 120.179L2.53076 120.093C2.60954 120.53 2.75993 120.847 2.98193 121.044C3.20394 121.241 3.48861 121.339 3.83594 121.339C4.13314 121.339 4.39274 121.271 4.61475 121.135C4.84033 120.999 5.02474 120.818 5.16797 120.593C5.3112 120.364 5.43115 120.056 5.52783 119.669C5.62451 119.282 5.67285 118.888 5.67285 118.487C5.67285 118.444 5.67106 118.38 5.66748 118.294C5.47412 118.602 5.20915 118.853 4.87256 119.046C4.53955 119.236 4.1779 119.331 3.7876 119.331C3.1359 119.331 2.58447 119.094 2.1333 118.622C1.68213 118.149 1.45654 117.526 1.45654 116.752C1.45654 115.954 1.69108 115.311 2.16016 114.824C2.63281 114.337 3.22363 114.094 3.93262 114.094C4.44466 114.094 4.91195 114.232 5.33447 114.507C5.76058 114.783 6.08285 115.177 6.30127 115.689C6.52327 116.197 6.63428 116.935 6.63428 117.902C6.63428 118.908 6.52507 119.71 6.30664 120.308C6.08822 120.903 5.76237 121.355 5.3291 121.667C4.89941 121.979 4.39453 122.134 3.81445 122.134C3.19857 122.134 2.69548 121.964 2.30518 121.624C1.91488 121.28 1.68034 120.799 1.60156 120.179ZM5.56006 116.704C5.56006 116.149 5.41146 115.709 5.11426 115.383C4.82064 115.057 4.46615 114.894 4.05078 114.894C3.62109 114.894 3.24691 115.069 2.92822 115.42C2.60954 115.771 2.4502 116.226 2.4502 116.785C2.4502 117.286 2.60059 117.694 2.90137 118.009C3.20573 118.321 3.57992 118.477 4.02393 118.477C4.47152 118.477 4.83854 118.321 5.125 118.009C5.41504 117.694 5.56006 117.259 5.56006 116.704ZM7.84814 122V114.126H8.81494V116.951C9.26611 116.428 9.83545 116.167 10.5229 116.167C10.9455 116.167 11.3125 116.251 11.624 116.419C11.9355 116.584 12.1576 116.813 12.29 117.107C12.4261 117.401 12.4941 117.827 12.4941 118.385V122H11.5273V118.385C11.5273 117.902 11.4217 117.551 11.2104 117.333C11.0028 117.111 10.7074 117 10.3242 117C10.0378 117 9.76742 117.075 9.51318 117.225C9.26253 117.372 9.0835 117.572 8.97607 117.827C8.86865 118.081 8.81494 118.432 8.81494 118.879V122H7.84814Z" fill="#4C566A"/>
<path d="M44.4033 122H43.4365V115.839C43.2038 116.061 42.8976 116.283 42.5181 116.505C42.1421 116.727 41.8037 116.894 41.5029 117.005V116.07C42.0436 115.816 42.5163 115.508 42.9209 115.146C43.3255 114.785 43.612 114.434 43.7803 114.094H44.4033V122ZM46.8848 118.117C46.8848 117.186 46.9797 116.437 47.1694 115.872C47.3628 115.302 47.6475 114.864 48.0234 114.556C48.403 114.248 48.8792 114.094 49.4521 114.094C49.8747 114.094 50.2453 114.18 50.564 114.352C50.8826 114.52 51.1458 114.765 51.3535 115.087C51.5612 115.406 51.7241 115.796 51.8423 116.258C51.9604 116.717 52.0195 117.336 52.0195 118.117C52.0195 119.041 51.9246 119.787 51.7349 120.356C51.5451 120.922 51.2604 121.361 50.8809 121.672C50.5049 121.98 50.0286 122.134 49.4521 122.134C48.693 122.134 48.0968 121.862 47.6636 121.318C47.1444 120.663 46.8848 119.596 46.8848 118.117ZM47.8784 118.117C47.8784 119.409 48.0288 120.271 48.3296 120.7C48.634 121.126 49.0081 121.339 49.4521 121.339C49.8962 121.339 50.2686 121.125 50.5693 120.695C50.8737 120.265 51.0259 119.406 51.0259 118.117C51.0259 116.82 50.8737 115.959 50.5693 115.533C50.2686 115.107 49.8926 114.894 49.4414 114.894C48.9974 114.894 48.6429 115.082 48.3779 115.458C48.0449 115.938 47.8784 116.824 47.8784 118.117ZM53.2764 122V114.126H54.2432V116.951C54.6943 116.428 55.2637 116.167 55.9512 116.167C56.3737 116.167 56.7407 116.251 57.0522 116.419C57.3638 116.584 57.5858 116.813 57.7183 117.107C57.8543 117.401 57.9224 117.827 57.9224 118.385V122H56.9556V118.385C56.9556 117.902 56.8499 117.551 56.6387 117.333C56.431 117.111 56.1356 117 55.7524 117C55.466 117 55.1956 117.075 54.9414 117.225C54.6908 117.372 54.5117 117.572 54.4043 117.827C54.2969 118.081 54.2432 118.432 54.2432 118.879V122H53.2764Z" fill="#4C566A"/>
<path d="M90.6067 122H89.6399V115.839C89.4071 116.061 89.101 116.283 88.7214 116.505C88.3455 116.727 88.0071 116.894 87.7063 117.005V116.07C88.247 115.816 88.7196 115.508 89.1243 115.146C89.5289 114.785 89.8153 114.434 89.9836 114.094H90.6067V122ZM95.9133 122H94.9465V115.839C94.7138 116.061 94.4076 116.283 94.0281 116.505C93.6521 116.727 93.3137 116.894 93.0129 117.005V116.07C93.5536 115.816 94.0263 115.508 94.4309 115.146C94.8355 114.785 95.122 114.434 95.2903 114.094H95.9133V122ZM98.6633 122V114.126H99.6301V116.951C100.081 116.428 100.651 116.167 101.338 116.167C101.761 116.167 102.128 116.251 102.439 116.419C102.751 116.584 102.973 116.813 103.105 117.107C103.241 117.401 103.309 117.827 103.309 118.385V122H102.343V118.385C102.343 117.902 102.237 117.551 102.026 117.333C101.818 117.111 101.523 117 101.139 117C100.853 117 100.583 117.075 100.328 117.225C100.078 117.372 99.8987 117.572 99.7913 117.827C99.6838 118.081 99.6301 118.432 99.6301 118.879V122H98.6633Z" fill="#4C566A"/>
<path d="M136.81 122H135.843V115.839C135.611 116.061 135.304 116.283 134.925 116.505C134.549 116.727 134.21 116.894 133.91 117.005V116.07C134.45 115.816 134.923 115.508 135.328 115.146C135.732 114.785 136.019 114.434 136.187 114.094H136.81V122ZM144.373 121.071V122H139.168C139.161 121.767 139.198 121.543 139.281 121.329C139.413 120.974 139.625 120.625 139.915 120.281C140.208 119.938 140.631 119.54 141.182 119.089C142.038 118.387 142.616 117.832 142.917 117.424C143.218 117.012 143.368 116.624 143.368 116.258C143.368 115.875 143.23 115.553 142.955 115.292C142.682 115.027 142.326 114.894 141.886 114.894C141.42 114.894 141.048 115.034 140.769 115.313C140.489 115.592 140.348 115.979 140.344 116.473L139.351 116.371C139.419 115.63 139.675 115.066 140.119 114.679C140.563 114.289 141.159 114.094 141.907 114.094C142.663 114.094 143.261 114.303 143.701 114.722C144.142 115.141 144.362 115.66 144.362 116.28C144.362 116.595 144.297 116.905 144.168 117.209C144.04 117.513 143.825 117.834 143.524 118.17C143.227 118.507 142.731 118.969 142.036 119.556C141.456 120.043 141.084 120.374 140.919 120.55C140.754 120.722 140.618 120.895 140.511 121.071H144.373ZM145.683 122V114.126H146.65V116.951C147.101 116.428 147.67 116.167 148.358 116.167C148.78 116.167 149.147 116.251 149.459 116.419C149.771 116.584 149.993 116.813 150.125 117.107C150.261 117.401 150.329 117.827 150.329 118.385V122H149.362V118.385C149.362 117.902 149.257 117.551 149.045 117.333C148.838 117.111 148.542 117 148.159 117C147.873 117 147.602 117.075 147.348 117.225C147.097 117.372 146.918 117.572 146.811 117.827C146.704 118.081 146.65 118.432 146.65 118.879V122H145.683Z" fill="#4C566A"/>
<path d="M183.013 122H182.047V115.839C181.814 116.061 181.508 116.283 181.128 116.505C180.752 116.727 180.414 116.894 180.113 117.005V116.07C180.654 115.816 181.126 115.508 181.531 115.146C181.936 114.785 182.222 114.434 182.39 114.094H183.013V122ZM185.5 119.921L186.467 119.792C186.578 120.34 186.766 120.736 187.031 120.979C187.3 121.219 187.625 121.339 188.009 121.339C188.463 121.339 188.846 121.182 189.158 120.867C189.473 120.552 189.631 120.161 189.631 119.696C189.631 119.252 189.486 118.887 189.196 118.6C188.906 118.31 188.537 118.165 188.089 118.165C187.906 118.165 187.679 118.201 187.407 118.272L187.514 117.424C187.579 117.431 187.631 117.435 187.67 117.435C188.082 117.435 188.453 117.327 188.782 117.112C189.111 116.897 189.276 116.566 189.276 116.119C189.276 115.764 189.156 115.471 188.916 115.238C188.676 115.005 188.367 114.889 187.987 114.889C187.611 114.889 187.298 115.007 187.047 115.243C186.796 115.479 186.635 115.834 186.564 116.307L185.597 116.135C185.715 115.487 185.984 114.985 186.403 114.631C186.822 114.273 187.343 114.094 187.966 114.094C188.395 114.094 188.791 114.187 189.153 114.373C189.514 114.556 189.79 114.806 189.98 115.125C190.173 115.444 190.27 115.782 190.27 116.14C190.27 116.48 190.178 116.79 189.996 117.069C189.813 117.349 189.543 117.571 189.185 117.735C189.65 117.843 190.012 118.067 190.27 118.407C190.528 118.743 190.656 119.166 190.656 119.674C190.656 120.362 190.406 120.945 189.905 121.425C189.403 121.902 188.769 122.14 188.003 122.14C187.312 122.14 186.737 121.934 186.279 121.522C185.824 121.11 185.565 120.577 185.5 119.921ZM191.886 122V114.126H192.853V116.951C193.304 116.428 193.874 116.167 194.561 116.167C194.984 116.167 195.351 116.251 195.662 116.419C195.974 116.584 196.196 116.813 196.328 117.107C196.464 117.401 196.532 117.827 196.532 118.385V122H195.566V118.385C195.566 117.902 195.46 117.551 195.249 117.333C195.041 117.111 194.746 117 194.363 117C194.076 117 193.806 117.075 193.552 117.225C193.301 117.372 193.122 117.572 193.014 117.827C192.907 118.081 192.853 118.432 192.853 118.879V122H191.886Z" fill="#4C566A"/>
<path d="M229.217 122H228.25V115.839C228.017 116.061 227.711 116.283 227.332 116.505C226.956 116.727 226.617 116.894 226.316 117.005V116.07C226.857 115.816 227.33 115.508 227.734 115.146C228.139 114.785 228.425 114.434 228.594 114.094H229.217V122ZM234.797 122V120.115H231.381V119.229L234.975 114.126H235.764V119.229H236.828V120.115H235.764V122H234.797ZM234.797 119.229V115.678L232.332 119.229H234.797ZM238.09 122V114.126H239.057V116.951C239.508 116.428 240.077 116.167 240.765 116.167C241.187 116.167 241.554 116.251 241.866 116.419C242.177 116.584 242.399 116.813 242.532 117.107C242.668 117.401 242.736 117.827 242.736 118.385V122H241.769V118.385C241.769 117.902 241.663 117.551 241.452 117.333C241.244 117.111 240.949 117 240.566 117C240.279 117 240.009 117.075 239.755 117.225C239.504 117.372 239.325 117.572 239.218 117.827C239.11 118.081 239.057 118.432 239.057 118.879V122H238.09Z" fill="#4C566A"/>
<path d="M268.42 122H267.453V115.839C267.221 116.061 266.914 116.283 266.535 116.505C266.159 116.727 265.821 116.894 265.52 117.005V116.07C266.06 115.816 266.533 115.508 266.938 115.146C267.342 114.785 267.629 114.434 267.797 114.094H268.42V122ZM270.902 119.938L271.917 119.852C271.992 120.346 272.166 120.718 272.438 120.969C272.713 121.216 273.045 121.339 273.431 121.339C273.897 121.339 274.291 121.164 274.613 120.813C274.935 120.462 275.096 119.997 275.096 119.417C275.096 118.865 274.941 118.43 274.629 118.111C274.321 117.793 273.917 117.633 273.415 117.633C273.104 117.633 272.823 117.705 272.572 117.848C272.321 117.988 272.124 118.17 271.981 118.396L271.073 118.278L271.836 114.233H275.752V115.157H272.61L272.185 117.273C272.658 116.944 273.154 116.779 273.673 116.779C274.361 116.779 274.941 117.017 275.413 117.494C275.886 117.97 276.122 118.582 276.122 119.331C276.122 120.043 275.915 120.659 275.499 121.178C274.994 121.816 274.305 122.134 273.431 122.134C272.715 122.134 272.13 121.934 271.675 121.533C271.224 121.132 270.966 120.6 270.902 119.938ZM277.293 122V114.126H278.26V116.951C278.711 116.428 279.281 116.167 279.968 116.167C280.391 116.167 280.758 116.251 281.069 116.419C281.381 116.584 281.603 116.813 281.735 117.107C281.871 117.401 281.939 117.827 281.939 118.385V122H280.972V118.385C280.972 117.902 280.867 117.551 280.656 117.333C280.448 117.111 280.152 117 279.769 117C279.483 117 279.212 117.075 278.958 117.225C278.708 117.372 278.529 117.572 278.421 117.827C278.314 118.081 278.26 118.432 278.26 118.879V122H277.293Z" fill="#4C566A"/>
</svg>
